<?xml version="1.0" encoding="UTF-8" standalone="no"?>
<!-- Created with Inkscape (http://www.inkscape.org/) -->

<svg
   width="41.816471mm"
   height="35.563316mm"
   viewBox="0 0 41.816472 35.563316"
   version="1.1"
   id="svg1"
   xml:space="preserve"
   inkscape:version="1.3 (0e150ed6c4, 2023-07-21)"
   sodipodi:docname="Ankle.svg"
   xmlns:inkscape="http://www.inkscape.org/namespaces/inkscape"
   xmlns:sodipodi="http://sodipodi.sourceforge.net/DTD/sodipodi-0.dtd"
   xmlns:xlink="http://www.w3.org/1999/xlink"
   xmlns="http://www.w3.org/2000/svg"
   xmlns:svg="http://www.w3.org/2000/svg"><sodipodi:namedview
     id="namedview1"
     pagecolor="#ffffff"
     bordercolor="#000000"
     borderopacity="0.25"
     inkscape:showpageshadow="2"
     inkscape:pageopacity="0.0"
     inkscape:pagecheckerboard="true"
     inkscape:deskcolor="#d1d1d1"
     inkscape:document-units="mm"
     inkscape:zoom="4.0970529"
     inkscape:cx="70.050353"
     inkscape:cy="81.88813"
     inkscape:window-width="1920"
     inkscape:window-height="1009"
     inkscape:window-x="1919"
     inkscape:window-y="1072"
     inkscape:window-maximized="1"
     inkscape:current-layer="layer1"
     showborder="true" /><defs
     id="defs1"><color-profile
       name="Agfa-:-Swop-Standard"
       xlink:href="file:///C:/WINDOWS/system32/spool/drivers/color/RSWOP.icm"
       id="color-profile2" /></defs><g
     inkscape:label="Layer 1"
     inkscape:groupmode="layer"
     id="layer1"
     transform="translate(-51.524705,-48.6848)"><path
       style="fill:#000000"
       d="m 70.191584,84.098823 c -1.156602,-0.11478 -2.763945,-0.343307 -3.571875,-0.507838 -1.586146,-0.323012 -6.130871,-1.768631 -7.775935,-2.481179 -1.434512,-0.621349 -1.33543,-0.559013 -1.874192,0.79104 -0.509545,1.27684 -0.486995,1.28516 -2.610579,-1.499062 -1.046822,-1.372483 -1.511381,-2.292371 -1.511381,-2.708451 0,-0.36636 2.456705,-0.208055 4.286456,0.113113 1.87277,0.328719 1.83981,0.329649 1.353027,1.206806 -0.506065,0.911904 -0.519307,0.991246 0.908955,1.570917 4.592098,1.863739 9.387631,3.026339 13.387751,3.024771 2.607323,-0.001 6.206341,-0.588376 8.933274,-1.457896 2.163954,-0.690006 6.055538,-2.405708 6.055538,-2.669735 0,-0.08842 -0.34807,-0.485736 -0.672332,-0.959782 -0.587737,-0.859225 -0.558566,-0.889741 0.140042,-1.135126 0.638475,-0.224264 4.40969,-1.673754 4.752896,-1.673754 0.594969,0 -0.157484,1.820771 -0.526877,2.605472 -0.476896,1.013069 -0.506368,1.083294 -1.249827,2.541037 -0.425225,0.833763 -0.455292,0.817361 -1.367566,-0.146969 l -0.610446,-0.645279 -1.851168,0.854634 c -5.990734,2.765761 -10.628089,3.729811 -16.195761,3.177281 z m -4.908545,-4.567176 c -2.976127,-1.12723 -3.382393,-1.449841 -3.612651,-2.868757 -0.190295,-1.172646 0.454035,-2.436167 1.524641,-2.989799 0.767646,-0.396965 0.786017,-0.441438 0.326251,-0.789814 -0.456237,-0.345702 -0.442604,-0.369697 0.214522,-0.377577 0.54579,-0.0065 0.766266,-0.193569 0.992187,-0.841647 0.358364,-1.028001 0.359336,-1.092644 0.01321,-0.878729 -0.152489,0.09424 -0.479911,0.09266 -0.727604,-0.0035 -0.38733,-0.150399 -0.358253,-0.224482 0.207787,-0.529398 0.361976,-0.194991 0.741448,-0.303041 0.84327,-0.240111 0.101822,0.06293 0.285053,-0.390853 0.407179,-1.008404 0.288821,-1.460468 -0.402917,-4.439162 -0.879532,-3.787353 -0.277863,0.38 -1.17272,0.31034 -1.152932,-0.08975 0.01884,-0.380879 0.736971,-1.096172 1.100524,-1.096172 0.788467,0 1.803786,-2.961972 1.793064,-5.230875 -0.0074,-1.563047 -0.05261,-1.722302 -0.370152,-1.303539 -0.26612,0.350948 -0.392387,0.385916 -0.47769,0.132292 -0.16859,-0.501257 0.0828,-1.289484 0.35717,-1.119912 0.128977,0.07971 0.234503,-0.219284 0.234503,-0.664434 0,-0.486609 -0.125621,-0.782988 -0.315016,-0.743219 -0.397429,0.08345 -0.624469,-0.870889 -0.260676,-1.095726 0.169438,-0.104718 0.189237,-0.51102 0.05312,-1.090037 -0.128775,-0.547769 -0.235302,-0.707936 -0.261999,-0.393925 -0.0416,0.489246 -0.06732,0.482746 -0.341032,-0.08617 -0.224638,-0.466917 -0.217632,-0.663794 0.02905,-0.816249 0.245122,-0.151494 0.258857,-0.488256 0.05583,-1.369042 -0.332997,-1.444664 -0.337447,-1.565 -0.05787,-1.565 0.237837,0 1.169614,4.007897 1.753083,7.540625 0.192275,1.164166 0.361797,1.931063 0.376717,1.704215 0.01492,-0.226848 0.207545,-0.643567 0.428059,-0.926041 0.378231,-0.484509 0.391539,-0.468646 0.235038,0.280159 -0.154093,0.737287 -1.390048,4.617877 -1.853915,5.820833 -0.179055,0.464347 -0.151072,0.486101 0.22844,0.177597 0.237869,-0.193364 0.637028,-0.907739 0.887019,-1.5875 0.249992,-0.679762 0.553914,-1.349039 0.675382,-1.487284 0.121469,-0.138245 0.220852,-0.502442 0.220852,-0.809326 0,-0.306885 0.184759,-0.789088 0.410575,-1.071563 0.397679,-0.497459 0.405256,-0.494347 0.241243,0.09909 -0.09313,0.336971 -0.207128,0.991815 -0.253323,1.455208 -0.04619,0.463393 -0.462174,1.854565 -0.924398,3.091492 -0.503148,1.34644 -0.874461,2.886029 -0.925264,3.836458 -0.04667,0.873125 -0.403429,2.461214 -0.792793,3.529087 -0.389364,1.067873 -0.645926,2.003596 -0.570137,2.079385 0.336564,0.336564 1.742439,-1.091588 2.531032,-2.57114 0.474726,-0.890677 0.92139,-1.561161 0.992586,-1.489964 0.15962,0.15962 -0.627082,1.900195 -1.303687,2.884403 -0.288942,0.420303 -0.37425,0.727604 -0.201985,0.727604 0.582723,0 6.65e-4,0.463368 -0.777575,0.619016 -0.435043,0.08701 -1.041844,0.409054 -1.348446,0.715656 l -0.557458,0.557458 0.615336,-0.08617 c 0.846709,-0.11857 1.038654,0.966633 0.209332,1.183506 -0.7681,0.200862 -0.57923,1.03149 0.305273,1.342553 0.378332,0.133052 1.003846,0.16261 1.390029,0.06569 l 0.702152,-0.176229 -0.577952,-0.781723 c -0.692649,-0.936857 -0.542302,-1.409879 1.022935,-3.21837 0.646307,-0.746749 1.266163,-1.884643 1.647502,-3.024383 0.336245,-1.004964 0.672038,-1.88674 0.746206,-1.9595 0.277496,-0.272232 -0.246669,1.917245 -0.727587,3.039181 -0.39626,0.924436 -0.420737,1.135356 -0.11829,1.019296 0.209749,-0.08049 0.381361,-0.01454 0.381361,0.146549 0,0.16109 -0.148828,0.295538 -0.330729,0.298774 -0.181901,0.0032 -0.628386,0.234932 -0.992188,0.514881 -0.493614,0.37984 -0.585302,0.585422 -0.361334,0.810179 0.427208,0.428711 0.125505,1.31489 -0.447659,1.31489 -0.647928,0 -0.897448,0.463922 -0.504304,0.937631 0.267855,0.322746 2.371631,0.583225 2.371631,0.293644 0,-0.0504 -0.186888,-0.466268 -0.415307,-0.924144 -0.228419,-0.457877 -0.34796,-1.044695 -0.265647,-1.304041 0.202201,-0.637078 1.979976,-2.442674 2.405037,-2.442674 0.368481,0 0.91924,-1.32204 0.925802,-2.222294 0.0022,-0.305707 0.131112,-0.734424 0.286408,-0.952705 0.21012,-0.29534 0.246124,-0.08921 0.140729,0.805712 -0.0779,0.661423 -0.219518,1.405564 -0.314716,1.653646 -0.120413,0.31379 -0.03894,0.451058 0.26771,0.451058 0.681855,0 0.246768,0.442664 -0.601919,0.612402 -0.966675,0.193335 -2.692681,1.905737 -2.692681,2.671458 0,0.653732 0.891252,1.743223 1.426034,1.743223 0.190897,0 0.724553,-0.131586 1.185903,-0.292413 0.89458,-0.311852 1.356814,-0.924576 1.356814,-1.798555 0,-0.335698 0.130743,-0.488086 0.347423,-0.404938 0.191083,0.07332 0.578036,-0.121505 0.859896,-0.432957 0.552273,-0.610255 0.694746,-2.691412 0.306091,-4.471202 -0.161908,-0.741434 -0.135917,-0.853287 0.135274,-0.582148 0.218209,0.218167 0.335691,1.117687 0.335691,2.570283 0,1.229062 0.01523,2.23517 0.03383,2.235794 0.01861,6.25e-4 0.465093,-0.179055 0.992188,-0.399289 0.527094,-0.220234 0.958354,-0.289688 0.958354,-0.154341 0,0.135347 -0.327422,0.365671 -0.727605,0.51183 -0.614198,0.224324 -0.640379,0.268999 -0.167973,0.286632 0.553367,0.02065 1.954025,0.950366 1.953789,1.296862 -6.7e-5,0.09858 -0.982333,0.170097 -2.182813,0.15893 -1.284979,-0.01195 -2.262638,0.09687 -2.377076,0.264583 -0.106912,0.156688 -0.196209,0.722731 -0.198438,1.257872 -0.0057,1.377332 1.027109,2.18152 2.508725,1.953331 1.470525,-0.226482 3.572641,-0.938412 3.572641,-1.209958 0,-0.124019 0.238125,-0.301068 0.529166,-0.393441 1.109267,-0.352067 0.410581,-2.79437 -1.04546,-3.654474 -0.443642,-0.262066 -0.806623,-0.602509 -0.806623,-0.756539 0,-0.15403 0.307987,-0.07825 0.684415,0.168391 1.002768,0.65704 1.016811,0.375372 0.0469,-0.940649 -0.472937,-0.641701 -0.87473,-1.345322 -0.892875,-1.563604 -0.156386,-1.881398 -0.743322,-4.412138 -1.310702,-5.651458 -0.377445,-0.824449 -0.637796,-1.6444 -0.578558,-1.822113 0.05924,-0.177714 0.322957,0.240514 0.586043,0.929395 0.263086,0.68888 0.564641,1.25251 0.670122,1.25251 0.548708,0 0.481342,-3.01468 -0.156612,-7.008434 -0.682051,-4.269811 -0.711072,-7.83181 -0.06705,-8.229836 0.409654,-0.25318 0.424085,-0.101818 0.2025,2.123964 -0.219303,2.202852 -0.103967,2.690963 0.895006,3.787744 0.298223,0.327421 0.416986,0.595312 0.263917,0.595312 -0.153069,0 -0.428915,-0.181471 -0.612991,-0.403269 -0.184076,-0.221798 -0.379661,-0.358291 -0.434633,-0.303319 -0.05497,0.05497 0.151971,1.635428 0.459875,3.512123 0.482145,2.938704 0.517327,3.65406 0.253552,5.155385 -0.426074,2.425078 0.165951,5.866952 1.304927,7.586492 0.44156,0.666633 0.802836,1.356632 0.802836,1.53333 0,0.176699 0.17786,0.662302 0.395245,1.079118 0.217384,0.416817 0.395978,1.194328 0.396875,1.727803 0.0014,0.81316 -0.166051,1.10276 -1.035669,1.79151 -1.460871,1.157031 -3.151667,1.846177 -5.942833,2.422217 -2.870595,0.592434 -7.756535,0.662253 -9.159452,0.130888 z m 8.598959,-0.584227 c 2.881613,-0.520487 3.408569,-0.752816 1.787395,-0.788044 -0.976382,-0.02122 -1.339116,-0.168119 -1.833056,-0.742359 -0.338689,-0.393748 -0.615798,-1.009981 -0.615798,-1.369405 0,-0.62594 -0.03068,-0.637943 -0.727604,-0.28464 -0.400182,0.202873 -1.562996,0.448525 -2.58403,0.545893 -2.371708,0.226171 -3.487245,0.632597 -4.559596,1.661209 l -0.859772,0.824703 0.992064,0.263492 c 1.56426,0.415468 5.79563,0.359632 8.400397,-0.110849 z m -8.7604,-1.390841 c 0.42715,-0.471996 0.409275,-0.537421 -0.355868,-1.302564 -0.552605,-0.552605 -0.805608,-1.064202 -0.805608,-1.629019 0,-0.770409 -0.03832,-0.803232 -0.595312,-0.50991 -0.784754,0.413264 -1.038881,0.835653 -0.648079,1.077182 0.234533,0.14495 0.182094,0.444386 -0.203079,1.159609 -0.510166,0.947319 -0.510428,0.970657 -0.01499,1.33293 0.72122,0.527368 2.090195,0.460443 2.622936,-0.128228 z m -2.748976,-1.61971 c 0,-0.145521 -0.0525,-0.264584 -0.116677,-0.264584 -0.06417,0 -0.190261,0.119063 -0.280198,0.264584 -0.08994,0.145521 -0.03743,0.264583 0.116677,0.264583 0.154109,0 0.280198,-0.119062 0.280198,-0.264583 z m 2.638171,-1.312582 c 0.214067,-0.13538 0.324438,-0.310921 0.245269,-0.39009 -0.07917,-0.07917 -0.373378,0.02963 -0.653796,0.241783 -0.557841,0.422032 -0.218873,0.545087 0.408527,0.148307 z m 2.95425,-1.012514 c -0.190881,-0.06363 -0.472852,0.01011 -0.626602,0.16386 -0.196338,0.196339 -0.09304,0.230773 0.347057,0.115686 0.35777,-0.09356 0.477704,-0.213493 0.279545,-0.279546 z m 9.621121,-0.05615 c -0.08994,-0.145521 -0.722041,-0.245878 -1.404677,-0.223017 l -1.241156,0.04157 1.322917,0.18145 c 0.727604,0.0998 1.359709,0.200154 1.404677,0.223016 0.04497,0.02286 0.0082,-0.07749 -0.08176,-0.223016 z M 66.865328,63.236869 c 0.0014,-0.07276 -0.290201,0.224896 -0.648046,0.661458 -0.622246,0.759124 -0.87236,1.958064 -0.488545,2.341879 0.14298,0.14298 1.125872,-2.454221 1.136591,-3.003337 z m 3.31403,10.099791 c -0.303057,-0.303057 0.795385,-1.103958 1.514089,-1.103958 1.190982,0 0.873862,0.872721 -0.391881,1.078462 -0.542978,0.08826 -1.047972,0.09973 -1.122208,0.0255 z M 56.571405,73.058926 c -0.959203,-0.268047 -1.06123,-0.892482 -0.111658,-0.683374 1.226534,0.270099 1.414958,0.355671 1.414958,0.642596 0,0.301021 -0.334567,0.311489 -1.3033,0.04078 z m 2.229342,-0.03247 c 0.08994,-0.145521 0.454151,-0.264583 0.809365,-0.264583 0.355214,0 0.645843,0.119062 0.645843,0.264583 0,0.145521 -0.364214,0.264583 -0.809365,0.264583 -0.472202,0 -0.741245,-0.110219 -0.645843,-0.264583 z m 2.315104,-0.175228 c -0.181901,-0.0734 -0.330729,-0.2555 -0.330729,-0.40467 0,-0.309075 1.311532,-0.05236 1.706563,0.334037 0.2656,0.259796 -0.774684,0.313202 -1.375834,0.07063 z m 20.571355,-0.311469 c 0,-0.122163 0.297656,-0.357735 0.661458,-0.523494 0.777313,-0.354168 0.910225,0.06469 0.149686,0.471715 -0.620287,0.331968 -0.811144,0.344151 -0.811144,0.05178 z m -28.687978,-0.70582 c -0.656814,-0.501791 -0.49571,-0.62909 0.587475,-0.4642 0.486137,0.074 0.827363,0.264841 0.771825,0.431661 -0.150858,0.453137 -0.788775,0.468408 -1.3593,0.03254 z m 1.700477,-0.262691 c 0,-0.363802 0.119063,-0.661459 0.264584,-0.661459 0.14552,0 0.264583,0.297657 0.264583,0.661459 0,0.363802 -0.119063,0.661458 -0.264583,0.661458 -0.145521,0 -0.264584,-0.297656 -0.264584,-0.661458 z m 5.17869,-0.270264 c -0.280418,-0.21215 -0.445759,-0.44982 -0.367424,-0.528155 0.216499,-0.216499 1.538734,0.350277 1.538734,0.659578 0,0.385267 -0.573389,0.320931 -1.17131,-0.131423 z m 24.454645,0.163855 c 0,-0.131285 0.357187,-0.363217 0.79375,-0.515403 0.986778,-0.343993 1.095199,0.123423 0.115067,0.496069 -0.834635,0.317327 -0.908817,0.318905 -0.908817,0.01933 z M 61.843455,71.205228 c 0,-0.283139 1.060952,-0.589637 1.373149,-0.396689 0.122641,0.0758 0.154483,0.248646 0.07076,0.384112 -0.193727,0.313456 -1.44391,0.324345 -1.44391,0.01258 z m 21.44056,-0.542632 c -0.421628,-0.787819 -0.327065,-0.941279 0.255275,-0.414269 0.566929,0.513065 0.689074,0.926042 0.273892,0.926042 -0.140401,0 -0.378526,-0.230298 -0.529167,-0.511773 z M 51.524705,70.51291 c 0,-0.218281 0.106324,-0.396875 0.236276,-0.396875 0.129952,0 0.304809,0.178594 0.388571,0.396875 0.09277,0.241753 4.19e-4,0.396875 -0.236276,0.396875 -0.213714,0 -0.388571,-0.178593 -0.388571,-0.396875 z m 0.675636,-0.803782 c -0.441195,-0.408887 -0.66325,-0.83124 -0.567802,-1.079973 0.08621,-0.224665 0.156749,-0.458275 0.156749,-0.519134 0,-0.06086 0.131801,-0.110652 0.292891,-0.110652 0.16109,0 0.224358,0.178594 0.140596,0.396875 -0.08376,0.218281 -0.02239,0.396875 0.136381,0.396875 0.200107,0 0.194711,0.113221 -0.01759,0.369024 -0.235075,0.283248 -0.22723,0.364852 0.03375,0.351077 0.640744,-0.03382 2.059804,0.404263 2.059804,0.635888 0,0.506574 -1.54074,0.203235 -2.234781,-0.43998 z m 5.612331,0.306186 c -0.2524,-0.191662 -0.39433,-0.413054 -0.315401,-0.491984 0.190897,-0.190896 1.700351,0.386761 1.700351,0.650712 0,0.325776 -0.879673,0.224958 -1.38495,-0.158728 z M 85.773549,69.73386 c -0.249621,-0.38097 -0.394325,-0.752203 -0.321564,-0.824964 0.07276,-0.07276 0.336526,0.179411 0.586147,0.56038 0.249621,0.38097 0.394325,0.752203 0.321565,0.824964 -0.07276,0.07276 -0.336527,-0.179411 -0.586148,-0.56038 z m -30.80926,0.172038 c 0,-0.13983 0.192326,-0.413852 0.427391,-0.608939 0.369765,-0.306878 0.414359,-0.287446 0.33073,0.144115 -0.09965,0.51425 -0.758121,0.917974 -0.758121,0.464824 z m 32.279167,-0.02576 c 0,-0.286036 1.320479,-0.648482 1.544913,-0.424048 0.214559,0.214559 -0.505095,0.65085 -1.081892,0.655897 -0.254661,0.0022 -0.463021,-0.102104 -0.463021,-0.231849 z M 56.526354,68.850713 c -0.183405,-0.293679 -0.471214,-0.481101 -0.639576,-0.416495 -0.375244,0.143995 -1.653022,-0.849106 -1.408467,-1.094673 0.09652,-0.09691 0.472443,0.01837 0.835396,0.256185 0.451381,0.295756 0.716127,0.341439 0.8378,0.144567 0.110902,-0.179443 0.382023,-0.02831 0.720005,0.401369 0.377498,0.47991 0.458033,0.773279 0.265213,0.9661 -0.192821,0.192821 -0.378168,0.114763 -0.610371,-0.257053 z m 25.312459,0.06902 c -0.600701,-0.454458 -0.326118,-0.895441 0.308357,-0.495225 0.482432,0.30431 0.766259,0.902505 0.421981,0.889366 -0.121268,-0.0046 -0.44992,-0.181992 -0.730338,-0.394141 z m 7.785893,0.137972 c 0,-0.145521 0.178594,-0.264583 0.396875,-0.264583 0.218282,0 0.396875,0.119062 0.396875,0.264583 0,0.145521 -0.178593,0.264583 -0.396875,0.264583 -0.218281,0 -0.396875,-0.119062 -0.396875,-0.264583 z M 53.758503,68.68246 c -0.282246,-0.206384 -0.434262,-0.454155 -0.337813,-0.550603 0.222989,-0.22299 1.279015,0.330671 1.279015,0.670571 0,0.360715 -0.34375,0.316899 -0.941202,-0.119968 z m 35.251474,-0.08778 c -0.06424,-0.10914 -0.195935,-0.615156 -0.292665,-1.124479 -0.1651,-0.869319 -0.1508,-0.894583 0.233469,-0.412451 0.225138,0.282475 0.409342,0.788491 0.409342,1.124479 0,0.616929 -0.135711,0.776789 -0.350146,0.412451 z m 1.937646,-0.01323 c 0,-0.344486 0.604969,-0.846666 1.019966,-0.846666 0.30559,0 0.286224,0.109107 -0.09392,0.529166 -0.491913,0.543558 -0.926042,0.692402 -0.926042,0.3175 z m -6.4309,-0.733888 c -0.641774,-0.554966 -0.673051,-0.641945 -0.230834,-0.641945 0.560634,0 1.20888,0.627277 1.064352,1.029924 -0.05014,0.139681 -0.425221,-0.03491 -0.833518,-0.387979 z M 52.583038,67.205619 c 0,-0.630832 0.406292,-0.701837 0.633151,-0.110652 0.226927,0.591361 0.209032,0.639819 -0.236276,0.639819 -0.220486,0 -0.396875,-0.235186 -0.396875,-0.529167 z m 3.799064,-0.663501 c -0.231488,-0.603249 0.650559,-1.822624 1.06788,-1.476278 0.217285,0.180331 0.626298,0.192946 1.172924,0.03618 0.524788,-0.150508 0.839299,-0.146028 0.839299,0.01195 0,0.352256 -1.234602,0.786014 -1.713816,0.602122 -0.260369,-0.09991 -0.484914,0.08342 -0.657208,0.536589 -0.2982,0.784326 -0.489248,0.862309 -0.709079,0.289437 z m 30.702312,0.0152 c -0.689687,-0.504311 -0.278081,-0.825473 0.425948,-0.332353 0.311139,0.217931 0.455442,0.464387 0.320672,0.547679 -0.13477,0.08329 -0.470749,-0.0136 -0.74662,-0.215326 z m -33.531237,-0.05725 c -0.269904,-0.269904 -0.20971,-1.675694 0.07175,-1.675694 0.136477,0 0.239643,0.208359 0.229257,0.463021 -0.01038,0.254661 0.06928,0.67138 0.177043,0.926041 0.190823,0.450963 -0.124598,0.640085 -0.478051,0.286632 z m 39.132469,-0.660311 c -0.478544,-0.959265 -0.292233,-1.399811 0.267985,-0.633668 0.346142,0.473377 0.524015,1.470368 0.262329,1.470368 -0.0621,0 -0.300743,-0.376515 -0.530314,-0.8367 z M 54.170539,65.071558 c 0,-0.489424 0.535081,-1.305522 0.855975,-1.305522 0.229361,0 0.22698,0.08121 -0.0093,0.3175 -0.174625,0.174625 -0.3175,0.531812 -0.3175,0.79375 0,0.261937 -0.119062,0.47625 -0.264583,0.47625 -0.145521,0 -0.264583,-0.12689 -0.264583,-0.281978 z m 7.14375,-0.247189 c 0,-0.145521 0.28377,-0.264583 0.630599,-0.264583 0.427742,0 0.679708,-0.18779 0.783256,-0.583759 0.08396,-0.321066 0.236933,-0.499481 0.339938,-0.396476 0.361859,0.361859 -0.502593,1.509401 -1.137044,1.509401 -0.339212,0 -0.616749,-0.119062 -0.616749,-0.264583 z m -1.167614,-0.347331 c -0.371332,-0.271524 -0.415692,-0.417782 -0.172331,-0.568187 0.382336,-0.236296 0.915634,0.204076 0.771345,0.636941 -0.06882,0.206467 -0.251264,0.185527 -0.599014,-0.06875 z m -4.124053,-0.823894 c 0,-0.245437 0.226218,-0.416275 0.551215,-0.416275 0.644802,0 0.553659,0.618271 -0.110119,0.747004 -0.261082,0.05063 -0.441096,-0.08434 -0.441096,-0.330729 z m 2.38125,0.112892 c 0,-0.145521 0.245152,-0.264584 0.544782,-0.264584 0.299629,0 0.471197,0.119063 0.38126,0.264584 -0.08994,0.14552 -0.335089,0.264583 -0.544782,0.264583 -0.209693,0 -0.38126,-0.119063 -0.38126,-0.264583 z M 90.616894,63.59124 c -0.635798,-0.334889 -0.997309,-0.883538 -0.582173,-0.883538 0.368345,0 1.706652,0.835242 1.706652,1.065128 0,0.329127 -0.223341,0.29306 -1.124479,-0.18159 z M 63.575155,62.11239 c 0.241105,-0.79803 0.649551,-1.219251 0.649551,-0.669869 0,0.635403 -0.286373,1.265181 -0.575304,1.265181 -0.14042,0 -0.173637,-0.266341 -0.07425,-0.595312 z m 24.201421,0.07836 c -0.361628,-0.277853 -0.57823,-0.584463 -0.481339,-0.681354 0.202178,-0.202179 1.800303,0.677327 1.800303,0.990771 0,0.362839 -0.639172,0.212895 -1.318964,-0.309417 z m -2.715459,-0.764006 c -0.739004,-0.445996 -0.950802,-0.835706 -0.454185,-0.835706 0.398184,0 1.578191,0.814063 1.578191,1.088763 0,0.322139 -0.272623,0.260761 -1.124006,-0.253057 z m -9.077152,-0.953299 c -0.09961,-0.530978 -0.121581,-1.024946 -0.04882,-1.097706 0.07276,-0.07276 0.213792,0.302145 0.313405,0.833123 0.09961,0.530978 0.121581,1.024946 0.04882,1.097706 -0.07276,0.07276 -0.213793,-0.302145 -0.313405,-0.833123 z M 64.798234,59.408707 c 0.16368,-0.359239 0.399575,-0.590138 0.52421,-0.513109 0.272313,0.168299 -0.217323,1.166271 -0.572208,1.166271 -0.143452,0 -0.123039,-0.277776 0.048,-0.653162 z m 17.116721,0.132798 c -0.343543,-0.2862 -0.481398,-0.524325 -0.306344,-0.529167 0.481517,-0.01332 1.666095,0.574969 1.666095,0.827417 0,0.393991 -0.717803,0.236546 -1.359751,-0.29825 z m -2.344416,-1.993178 c -0.340696,-0.362654 -0.559916,-0.718903 -0.487156,-0.791663 0.07276,-0.07276 0.411044,0.164426 0.75174,0.52708 0.340696,0.362655 0.559916,0.718903 0.487156,0.791664 -0.07276,0.07276 -0.411043,-0.164426 -0.75174,-0.527081 z m -11.1125,-0.132291 c 0,-0.145521 0.126089,-0.264584 0.280198,-0.264584 0.154109,0 0.206614,0.119063 0.116677,0.264584 -0.08994,0.145521 -0.216026,0.264583 -0.280198,0.264583 -0.06417,0 -0.116677,-0.119062 -0.116677,-0.264583 z m 0,-0.910427 c 0,-0.209693 0.119063,-0.454845 0.264583,-0.544782 0.145521,-0.08994 0.264584,0.08163 0.264584,0.38126 0,0.29963 -0.119063,0.544782 -0.264584,0.544782 -0.14552,0 -0.264583,-0.171567 -0.264583,-0.38126 z"
       id="path1"
       sodipodi:nodetypes="ssssssssscsssssssscsscssscsscsssssscssssssscsscssssssssssssssssssssssscsssccssssssscsssssssscsssssssssssssssssssssscssssscsssssssssssssssssscssccssssssscssssssssssssssssssssssssscsssscsscsssssssssssssssssssssssssssssssssssssssssssssssssssssssssssssssssssssssssssssssssscssscssssssscsssssssssssssssssssssssssssssssssssssssssccsssssscscssccssssssssssssssssssssssssssssssssssssssssssssssssssssssssssssssssss" /></g></svg>
