<?xml version="1.0" encoding="UTF-8" standalone="no"?>
<!-- Created with Inkscape (http://www.inkscape.org/) -->

<svg
   width="49.987503mm"
   height="34.999397mm"
   viewBox="0 0 49.987503 34.999397"
   version="1.1"
   id="svg1"
   xml:space="preserve"
   sodipodi:docname="Ankle (Flexion).svg"
   inkscape:version="1.3 (0e150ed6c4, 2023-07-21)"
   xmlns:inkscape="http://www.inkscape.org/namespaces/inkscape"
   xmlns:sodipodi="http://sodipodi.sourceforge.net/DTD/sodipodi-0.dtd"
   xmlns="http://www.w3.org/2000/svg"
   xmlns:svg="http://www.w3.org/2000/svg"><sodipodi:namedview
     id="namedview1"
     pagecolor="#ffffff"
     bordercolor="#000000"
     borderopacity="0.25"
     inkscape:showpageshadow="2"
     inkscape:pageopacity="0.0"
     inkscape:pagecheckerboard="0"
     inkscape:deskcolor="#d1d1d1"
     inkscape:document-units="mm"
     inkscape:zoom="4.3458774"
     inkscape:cx="91.120841"
     inkscape:cy="70.066404"
     inkscape:window-width="1920"
     inkscape:window-height="1009"
     inkscape:window-x="1919"
     inkscape:window-y="1072"
     inkscape:window-maximized="1"
     inkscape:current-layer="layer1" /><defs
     id="defs1" /><g
     inkscape:label="Layer 1"
     inkscape:groupmode="layer"
     id="layer1"
     transform="translate(-93.119429,-86.45037)"><path
       style="fill:#000000"
       d="m 109.18305,121.30942 c -6.37588,-0.06 -7.96244,-0.20823 -8.03634,-0.23465 -0.0532,-0.019 -0.0329,-0.4525 -0.11183,-0.45237 -0.37632,6.4e-4 -1.34044,-0.0646 -3.96325,0.0284 -2.874149,0.10187 -3.952201,0.0574 -3.952201,-0.16294 0,-0.21416 1.163712,-0.30301 3.96875,-0.30301 h 3.968751 v -1.16232 c 0,-0.81581 -0.1174,-1.19406 0.17634,-1.30678 0.23019,-0.0883 3.80611,-0.17674 7.65051,-0.17674 h 6.98981 v -4.00102 -4.00102 l -0.59531,0.4379 c -2.04769,1.50626 -8.31654,2.7225 -12.50156,2.42546 -4.950682,-0.35138 -8.746657,-0.7553 -9.258864,-0.98522 -0.337097,-0.15132 0.144973,-0.17631 1.321364,-0.0685 7.40339,0.67842 10.12006,0.77388 12.7,0.44624 3.88232,-0.49303 5.95227,-1.04445 7.14375,-1.90301 l 1.05833,-0.76263 0.13229,-3.26857 0.1323,-3.26858 1.65364,-0.0788 1.65365,-0.0788 v 1.52075 c 0,1.85644 0.35695,1.64875 1.02312,-0.59532 0.39306,-1.32405 0.40961,-1.65829 0.1117,-2.25546 -0.27999,-0.56126 -0.28953,-1.08958 -0.0478,-2.649449 0.42288,-2.729209 0.38373,-2.65472 1.34573,-2.560605 0.98434,0.0963 1.86272,1.325375 1.9267,2.695932 0.0212,0.454683 0.409,1.400959 0.86173,2.102832 0.53115,0.82346 0.93961,1.92788 1.15148,3.11343 0.29368,1.64332 0.2691,2.12311 -0.23284,4.54469 -0.30865,1.48908 -0.62734,3.95757 -0.70819,5.48554 -0.29809,5.63339 -0.4142,6.45166 -0.98556,6.94531 -0.60808,0.52538 -2.89605,0.63685 -4.05188,0.1974 -0.52953,-0.20132 -0.54552,-0.20159 -0.97611,0.1 -0.31245,0.21885 -1.04057,0.40228 -1.26285,0.36815 -0.22228,-0.0341 -3.95068,-0.0954 -8.28532,-0.13625 z m 7.26367,-0.48574 c -0.26686,-0.25302 -0.48682,-0.71827 -0.62551,-1.02123 -0.0653,-0.14257 -1.27655,-0.14359 -2.79189,-0.14475 -1.63022,-0.001 -2.71197,-0.1076 -2.71197,-0.26664 0,-0.15959 1.10243,-0.26459 2.77812,-0.26459 2.60912,0 2.77812,-0.0324 2.77812,-0.53342 0,-0.5235 -0.13395,-0.53211 -7.20989,-0.46302 l -7.2099,0.0704 -0.0838,1.02001 c -0.036,0.60056 0.0231,1.43444 0.0816,1.51758 0.0416,0.0591 2.46352,0.24852 7.50962,0.24054 l 7.65006,-0.0121 z m 0.93949,-0.11229 c -0.002,-0.13361 0.008,-0.60482 -0.017,-0.85116 -0.008,-0.0896 -0.01,-0.17605 -0.54128,-0.20459 -0.24514,-0.0132 -0.4726,-0.0233 -0.54546,0.0427 -0.15545,0.14092 0.0887,0.4666 0.22796,0.70995 0.31645,0.36177 0.87981,0.63277 0.87577,0.30308 z m 1.2984,-0.0395 c 0.2634,-0.24845 0.41844,-0.87624 0.36997,-0.94574 -0.0832,-0.11927 -0.39008,-0.0655 -0.66448,-0.0706 -0.6148,-0.0114 -0.59162,-0.001 -0.60375,0.66146 -0.005,0.28665 0.0209,0.60892 0.10974,0.7056 0.0604,0.0657 0.5245,-0.13244 0.78852,-0.35075 z m 5.03525,-0.39252 c 0.16811,-0.21545 0.37996,-1.7834 0.47078,-3.48433 0.21529,-4.03172 0.54029,-6.84518 1.08359,-9.38044 0.40808,-1.90423 0.40883,-2.19593 0.0102,-3.98781 -0.29672,-1.33369 -0.67062,-2.2146 -1.20554,-2.84028 -0.84139,-0.984128 -1.06435,-0.647573 -0.36043,0.54407 0.51088,0.86486 0.32542,1.59167 -0.40615,1.59167 -0.28348,0 -0.57547,0.14882 -0.64887,0.33073 -0.0734,0.1819 -0.14286,0.0628 -0.15434,-0.26459 -0.0149,-0.42588 0.12971,-0.59531 0.50827,-0.59531 0.59833,0 0.64207,-0.19776 0.26382,-1.19265 -0.30828,-0.81084 -1.07727,-0.8096 -1.25713,0.002 -0.37833,1.70726 -0.37137,2.51413 0.023,2.66546 0.53334,0.20466 0.25762,0.90642 -0.35613,0.90642 -0.35733,0 -0.43887,-0.14231 -0.32689,-0.57054 0.10476,-0.4006 0.0548,-0.51221 -0.16767,-0.37471 -0.22982,0.14204 -0.27302,-0.0101 -0.15726,-0.55394 0.13553,-0.63674 0.11385,-0.67755 -0.14383,-0.27068 -0.16689,0.2635 -0.2299,0.6707 -0.14003,0.90489 0.0899,0.23419 0.0643,0.49485 -0.0568,0.57924 -0.12108,0.0844 -0.4823,0.52901 -0.80271,0.98804 -0.52849,0.75713 -0.58256,1.15742 -0.58256,4.31262 0,2.58615 0.10257,3.67638 0.39999,4.25153 0.35919,0.6946 0.35831,0.75751 -0.009,0.61668 -0.35682,-0.13692 -0.39917,0.24127 -0.33385,2.9815 l 0.0748,3.13831 0.79375,0.16825 c 1.16657,0.24726 3.12909,-0.0156 3.48064,-0.46615 z m -2.60551,-3.26962 c -0.15159,-1.40309 -0.19798,-1.25124 0.41664,-1.36391 0.34809,-0.0638 0.5268,0.0879 0.59365,0.50401 0.0526,0.32742 -0.0128,0.59531 -0.14524,0.59531 -0.13248,0 -0.35237,0.32742 -0.48865,0.72761 -0.23596,0.6929 -0.25391,0.67082 -0.3764,-0.46302 z m 0.58008,-2.51355 c 0,-0.3638 0.11906,-0.66145 0.26458,-0.66145 0.14552,0 0.26458,0.29765 0.26458,0.66145 0,0.36381 -0.11906,0.66146 -0.26458,0.66146 -0.14552,0 -0.26458,-0.29765 -0.26458,-0.66146 z m -4.38528,3.65201 c 0.002,-0.12779 -0.50743,0.008 -0.67845,0.12793 -0.26377,0.18527 -0.36918,0.40855 -0.47611,0.82486 -0.005,0.17008 0.30056,0.0886 0.60966,0.11899 0.56205,0.0228 0.56566,0.0326 0.56206,-0.62941 z m 1.65382,0.86582 c 0,-0.16126 -0.11588,-0.46482 -0.3279,-0.66308 -0.20634,-0.19295 -0.50859,-0.25903 -0.66371,-0.28287 -0.13782,-0.0212 -0.13799,-0.0149 -0.14566,0.49673 -0.0106,0.70856 -0.002,0.70759 0.49875,0.74113 0.44699,0.0299 0.63851,0.13208 0.63851,-0.14921 z m 0.0856,-8.48658 v -7.54062 h -1.32291 -1.32292 l -0.002,1.38906 c -0.001,0.76399 -0.0791,4.04888 -0.17292,7.29977 l -0.17054,5.91071 0.61763,-0.0899 c 0.58543,-0.0852 0.623,-0.21392 0.72175,-2.46873 0.0404,-0.92124 0.10844,-2.03107 0.0959,-2.46544 -0.002,-0.0561 0.13889,-0.042 0.18951,-0.0382 0.007,0.0975 0.044,1.04451 0.044,2.44398 0,2.1442 0.0728,2.58691 0.46302,2.81417 0.25466,0.14833 0.55232,0.27331 0.66146,0.27773 0.10914,0.004 0.19843,-3.38523 0.19843,-7.53258 z m 2.64179,-9.59114 c 0.002,-0.1819 -0.11501,-0.33073 -0.26054,-0.33073 -0.14552,0 -0.26276,0.32742 -0.26053,0.7276 0.003,0.56699 0.0607,0.64 0.26053,0.33073 0.14107,-0.21828 0.25831,-0.5457 0.26054,-0.7276 z m -0.87354,-0.64492 c -0.0845,-0.21107 -0.14716,-0.14838 -0.15986,0.15985 -0.0115,0.27891 0.051,0.43518 0.13897,0.34726 0.0879,-0.0879 0.0973,-0.31612 0.0209,-0.50711 z m 1.59409,-0.579395 c -0.18292,-0.549431 -0.98109,-0.504145 -0.98109,0.05566 0,0.397035 0.13069,0.489625 0.53999,0.382595 0.29699,-0.0777 0.49549,-0.274886 0.4411,-0.438259 z m 0.76339,-1.827265 c -0.26916,-1.34578 -1.41504,-2.259569 -1.88333,-1.501863 -0.0935,0.151362 0.13755,0.517191 0.51355,0.812953 0.44019,0.346251 0.68364,0.79787 0.68364,1.268199 0,0.401747 0.0827,0.813151 0.18378,0.914231 0.33366,0.333659 0.66863,-0.662196 0.50236,-1.49352 z m -1.62932,0.576458 c -0.23088,-0.373571 -0.64432,-0.276222 -0.64432,0.151712 0,0.236031 0.1552,0.329014 0.39535,0.236859 0.21745,-0.08344 0.32948,-0.258298 0.24897,-0.388571 z m 0.25503,-0.950549 c -0.33687,-0.246325 -0.52749,-0.269606 -0.59321,-0.07245 -0.13141,0.394225 0.84896,1.113905 0.98704,0.724574 0.0564,-0.159042 -0.12082,-0.452498 -0.39383,-0.652124 z m 3.38085,17.118501 c 0.047,-0.13603 3.18105,-2.10538 6.96459,-4.37632 3.78354,-2.27094 7.21378,-4.43679 7.3317,-4.55154 0.11792,-0.11475 -0.27844,-0.37064 -0.81398,-0.65967 -0.38229,-0.20632 -0.73358,-0.37014 -0.78245,-0.54841 -0.0244,-0.0889 0.21066,-0.25025 0.26327,-0.30286 0.37076,-0.37076 -2.83493,-4.04487 -5.12338,-5.847044 -3.48565,-2.744984 -8.4841,-4.696361 -13.50901,-5.273864 l -1.52136,-0.174847 v 4.649247 c 0,2.557088 -0.0893,4.649398 -0.19844,4.649578 -0.10914,1.8e-4 -0.16322,-2.10033 -0.12019,-4.667803 l 0.0782,-4.668126 -2.04761,0.18555 c -3.80141,0.344475 -9.50144,2.615814 -9.38255,2.78622 0.059,0.09284 0.16766,0.325126 0.12594,0.399372 -0.11863,0.211101 -0.68066,0.202517 -1.05368,0.300265 l -0.91678,0.240233 2.34302,3.968749 c 1.28865,2.18281 3.14529,5.26215 4.12585,6.84296 0.98057,1.58082 1.73023,2.92683 1.66592,2.99115 -0.12284,0.12283 -3.76316,-5.7662 -7.71451,-12.479943 -1.28469,-2.182812 -2.52509,-4.261801 -2.75644,-4.619975 -0.23135,-0.358174 -0.28824,-0.569659 -0.12642,-0.469968 0.16182,0.09969 0.693,0.839228 1.18038,1.643413 0.9514,1.569806 1.07412,1.835627 1.16155,1.747958 0.30817,-0.308989 1.15386,-1.480709 1.40719,-1.445907 0.0737,0.01013 0.27256,0.301845 0.291,0.34459 0.0354,0.08206 0.79461,-0.346066 1.79119,-0.750924 2.66007,-1.080644 4.95851,-1.626681 7.55857,-1.795675 l 2.30702,-0.149947 0.0835,-3.072616 0.0835,-3.072616 0.0569,3.07236 0.0569,3.07236 1.98564,0.179934 c 4.10185,0.3717 8.43478,1.944559 11.9695,4.344948 1.7566,1.19288 4.90489,4.228348 5.88861,5.677568 0.46586,0.68631 0.78627,1.01207 0.8702,0.98604 0.15933,-0.0502 0.3714,-0.297 0.48719,-0.27547 0.13793,0.0256 0.16966,0.34245 0.23416,0.58537 0.11098,0.41795 0.27067,1.08875 0.33267,1.34099 0.0318,0.12958 0.32933,-0.017 1.26919,-0.55053 0.59723,-0.33904 1.14115,-0.56116 1.20871,-0.4936 0.0676,0.0676 -3.76146,2.45457 -8.50892,5.30448 -4.74747,2.84991 -8.59332,5.07035 -8.54633,4.93432 z"
       id="path1"
       sodipodi:nodetypes="cssssscscscccssscsccccccssscscsssssssccccscssssccssccccsscsccssscccsccssscsscssssscccssscscccccscsscsccsscccscccccsscccccccccccsssccccccscccssccsscssscsssscsccscsscsscsssscssccscscscscssscssssscccccssssccssssccss" /><text
       xml:space="preserve"
       style="font-size:1.5875px;fill:#000000;stroke-width:0.5825;paint-order:stroke markers fill"
       x="99.449966"
       y="99.56089"
       id="text1"><tspan
         sodipodi:role="line"
         id="tspan1"
         x="99.449966"
         y="99.56089"
         style="stroke-width:0.5825">Dorsi-</tspan><tspan
         sodipodi:role="line"
         x="99.449966"
         y="101.54527"
         style="stroke-width:0.5825"
         id="tspan2">flexion</tspan></text><text
       xml:space="preserve"
       style="font-size:1.5875px;fill:#000000;stroke-width:0.5825;paint-order:stroke markers fill"
       x="136.91273"
       y="98.700684"
       id="text3"><tspan
         sodipodi:role="line"
         id="tspan3"
         x="136.91273"
         y="98.700684"
         style="stroke-width:0.5825">Plantar-</tspan><tspan
         sodipodi:role="line"
         x="136.91273"
         y="100.68506"
         style="stroke-width:0.5825"
         id="tspan4">flexion</tspan></text></g></svg>
