<?xml version="1.0" encoding="UTF-8" standalone="no"?>
<!-- Created with Inkscape (http://www.inkscape.org/) -->

<svg
   width="38.783371mm"
   height="38.063385mm"
   viewBox="0 0 38.783371 38.063385"
   version="1.1"
   id="svg1"
   xml:space="preserve"
   sodipodi:docname="Back.svg"
   inkscape:version="1.3 (0e150ed6c4, 2023-07-21)"
   xmlns:inkscape="http://www.inkscape.org/namespaces/inkscape"
   xmlns:sodipodi="http://sodipodi.sourceforge.net/DTD/sodipodi-0.dtd"
   xmlns="http://www.w3.org/2000/svg"
   xmlns:svg="http://www.w3.org/2000/svg"><sodipodi:namedview
     id="namedview1"
     pagecolor="#ffffff"
     bordercolor="#000000"
     borderopacity="0.25"
     inkscape:showpageshadow="2"
     inkscape:pageopacity="0.0"
     inkscape:pagecheckerboard="0"
     inkscape:deskcolor="#d1d1d1"
     inkscape:document-units="mm"
     inkscape:zoom="2.0485264"
     inkscape:cx="78.837157"
     inkscape:cy="185.25511"
     inkscape:window-width="1920"
     inkscape:window-height="1009"
     inkscape:window-x="1919"
     inkscape:window-y="1072"
     inkscape:window-maximized="1"
     inkscape:current-layer="layer1"
     showguides="true" /><defs
     id="defs1" /><g
     inkscape:label="Layer 1"
     inkscape:groupmode="layer"
     id="layer1"
     transform="translate(-130.91001,-181.10936)"><path
       style="fill:#000000"
       d="m 133.79322,217.07295 c -0.3326,-1.16024 -0.61107,-2.74557 -0.72443,-3.51061 -0.18577,-1.25378 -0.0507,-1.54861 0.17366,0.11352 0.14191,1.05144 0.6402,2.88015 0.88651,3.62173 0.24631,0.74157 0.4076,1.46905 0.35842,1.6166 -0.0492,0.14756 -0.36156,-0.681 -0.69416,-1.84124 z m 6.46457,-2.13357 c 0.0782,-2.9671 0.006,-4.87417 -0.22491,-5.95312 -0.31849,-1.48702 -0.41266,-1.62416 -1.48784,-2.16669 -1.95763,-0.98782 -5.06401,-1.12218 -6.23015,-0.26948 -0.38762,0.28344 -0.4117,0.45665 -0.15586,1.12112 0.42153,1.09476 1.21814,6.04818 0.97208,5.89611 -0.11121,-0.0687 -0.46699,-2.42931 -0.56371,-3.20343 -0.0967,-0.77411 -0.45477,-2.0095 -0.79567,-2.7453 -0.3409,-0.73579 -0.70143,-1.70936 -0.80117,-2.16348 -0.45238,-2.0597 1.69939,-6.09718 4.1444,-7.77635 1.08848,-0.74753 5.26283,-2.72662 5.72338,-2.72662 0.0471,0 -0.0269,-0.01 0.0716,0.4725 -0.0388,0.35311 0.15049,0.84803 0.27263,1.04062 0.12237,0.193 0.21631,-3.15305 0.2093,-7.45504 -0.007,-4.29287 0.20049,-7.30877 -0.22059,-7.27604 -0.31175,0.0242 -0.2108,3.24264 -0.21438,6.55911 -0.004,3.31646 -0.0832,6.1066 -0.17689,6.2003 -0.0937,0.0937 -0.13851,-2.85632 -0.0996,-6.55561 0.0649,-6.16273 0.10956,-6.73343 0.53381,-6.81502 0.31171,-0.0599 0.46302,0.0777 0.46302,0.42126 0,0.43318 0.25022,0.53368 1.65553,0.66491 5.40882,0.50508 10.66336,4.18764 12.91325,9.05005 1.04921,2.26752 1.62372,4.32775 1.62372,5.82272 0,0.65688 0.1804,1.06927 0.6185,1.41388 0.34017,0.26758 0.87295,1.01099 1.18396,1.65203 l 0.56546,1.16553 2.1237,-0.0871 c 2.31191,-0.0949 3.0545,0.1046 5.07589,1.36338 2.36714,1.4741 2.87162,4.02976 1.51322,7.66585 -1.33194,3.56523 -2.14471,4.14789 -4.48166,3.21283 -0.64632,-0.25861 -1.0189,-0.57413 -0.99754,-0.84479 0.0425,-0.5388 -1.57993,-1.07488 -3.33934,-1.10334 -0.9317,-0.0151 -1.25677,-0.12299 -1.25677,-0.41721 0,-1.16114 -1.24503,0.25609 -2.60975,2.97069 -0.76678,1.52522 -1.15214,2.10364 -1.15498,2.8956 -0.003,0.78799 -0.13911,1.25018 -0.19454,1.03909 -0.20838,-0.79361 -0.18946,-0.64576 -0.44993,-0.0741 -0.17888,0.3926 -0.54811,1.23851 -0.6824,1.23851 -0.13429,0 -0.1984,-0.0893 -0.14247,-0.19844 0.0559,-0.10914 0.37677,-0.79375 0.71295,-1.52135 0.33619,-0.72761 1.07425,-2.25944 1.64014,-3.40408 0.58281,-1.17885 1.0289,-2.46937 1.0289,-2.97656 0,-0.49247 0.10583,-0.89541 0.23518,-0.89541 0.12935,0 0.0531,0.32578 0.0329,0.50768 -0.0202,0.1819 -0.10036,0.61155 0.0452,0.67571 0.36886,0.16262 1.67782,-1.7431 2.34269,-3.52014 0.48783,-1.30384 0.53567,-1.81407 0.37597,-4.01035 -0.10063,-1.38404 -0.34921,-2.93316 -0.55239,-3.44248 -0.50107,-1.25606 -4.41089,-4.94294 -6.05141,-5.70635 -1.28829,-0.5995 -2.57802,-0.75469 -5.65859,-0.65216 -5.1438,0.1712 -6.11537,0.83599 -6.11537,1.7324 0,0.39701 0.25561,0.81265 0.66457,1.0806 0.36551,0.2395 0.74479,0.71963 0.82418,1.07141 0.22951,1.01695 1.61245,1.25688 2.35079,1.43041 0.62794,0.14759 2.60307,0.50088 4.49484,0.8918 6.51942,1.34718 7.83577,1.66412 8.12885,1.9572 0.68474,0.68474 -0.80297,0.58959 -4.89137,-0.31284 -2.3627,-0.52151 -4.653,-1.00442 -5.08957,-1.07313 -0.43656,-0.0687 -1.71209,-0.35234 -2.83451,-0.63029 l -2.04077,-0.50538 -0.58504,0.62275 c -0.96103,1.02297 -2.369,0.7969 -3.03291,-0.48696 -0.48058,-0.92935 -0.29738,-2.07442 0.43844,-2.74032 0.57439,-0.51982 0.72597,-1.85611 0.18344,-1.61719 -0.1819,0.0801 -1.10464,0.46519 -2.05052,0.85574 -0.94589,0.39055 -2.04466,0.93935 -2.44173,1.21956 l -0.72194,0.50946 1.53185,1.37508 c 0.84252,0.7563 2.34267,2.23829 3.33367,3.29332 0.99101,1.05502 1.95391,1.91822 2.13979,1.91822 0.18588,0 1.00326,-0.34996 1.8164,-0.7777 1.67618,-0.88173 2.56292,-0.87362 4.793,0.0438 0.72761,0.29932 1.97776,0.69794 2.77813,0.88583 0.80036,0.18789 1.67741,0.42721 1.94901,0.53184 0.44021,0.16959 0.4597,0.12653 0.17962,-0.39681 -0.42033,-0.78539 -2.3972,-1.93789 -3.48315,-2.51718 -1.2988,-0.69284 -1.47833,-0.82762 -1.98367,-0.96346 -0.97216,-0.26132 -1.22428,-0.10728 -2.03702,0.32872 -0.31786,0.17052 -1.05923,0.28537 -1.64749,0.25524 -0.84513,-0.0433 -1.20183,0.086 -1.69977,0.61601 -0.34661,0.36894 -0.73264,0.67081 -0.85786,0.67081 -0.67733,0 1.67081,-1.53536 2.56887,-1.67969 0.58208,-0.0935 1.62812,-0.27144 2.32453,-0.39531 0.6964,-0.12387 0.72922,-0.0708 1.3293,-0.004 1.01879,0.43518 2.24397,1.12256 3.33437,1.69156 1.12931,0.56652 1.80141,1.13191 2.41717,2.03343 1.01313,1.48328 0.98869,2.31667 -0.14607,4.98079 -0.80598,1.8922 -1.92809,5.78797 -2.22462,7.72343 -0.10557,0.68911 -0.25909,1.32007 -0.34115,1.40213 -0.25979,0.25979 0.0931,-2.34289 0.47785,-3.52422 0.20309,-0.62355 0.36924,-1.31999 0.36924,-1.54765 0,-0.22767 0.48021,-1.605 1.06714,-3.06075 1.15511,-2.86502 1.56368,-4.78803 1.08071,-5.08652 -0.18898,-0.1168 -0.29576,0.0655 -0.29576,0.50482 0,0.37819 -0.25774,1.18889 -0.57276,1.80155 -0.31502,0.61267 -0.78658,1.57389 -0.90834,2.17228 -0.20879,1.02606 -0.67443,2.5719 -0.3773,0.90856 -0.01,-0.29104 0.36382,-1.66339 0.80027,-2.58597 0.43645,-0.92257 0.79354,-1.95513 0.79354,-2.29458 0,-0.64058 -0.55029,-0.91783 -2.64583,-1.33306 -0.50932,-0.10092 -1.40229,-0.42555 -1.98438,-0.72141 -1.96558,-0.99904 -4.7592,-0.83517 -5.8242,0.34164 -0.25532,0.28213 -0.55627,0.45608 -0.66877,0.38655 -0.1125,-0.0695 -0.14224,0.11187 -0.0661,0.40311 0.0762,0.29124 0.0294,0.52953 -0.10381,0.52953 -0.64846,0 -0.96464,2.0786 -0.92567,6.08542 0.0219,2.25557 -0.0212,6.92357 -0.12999,6.92361 -0.0785,3e-5 -0.12186,-1.60725 -0.081,-4.87904 0.0567,-4.54019 0.0142,-5.53483 -0.29721,-5.43086 -0.29429,0.0982 -0.35647,0.76807 -0.30417,3.27625 0.0362,1.73401 -0.0358,7.09058 -0.28497,7.0534 -0.12716,-0.019 -0.10243,-0.51182 -0.01,-4.03295 z m 27.04714,-2.11891 c 0.84735,-0.92772 2.15879,-4.49512 2.14195,-5.82653 -0.0146,-1.15375 -0.58228,-2.77201 -1.22,-3.47775 -1.28685,-1.42411 -5.26908,-2.48854 -7.35319,-1.96546 -0.64261,0.16129 -0.698,0.276 -0.62425,1.29272 0.0777,1.07052 0.12917,1.13054 1.27155,1.48125 0.65485,0.20104 1.39737,0.46893 1.65006,0.59531 0.65412,0.32717 0.69945,0.29783 0.5316,-0.344 -0.12134,-0.46403 -0.0618,-0.53995 0.311,-0.39688 0.25357,0.0973 0.57739,0.17692 0.7196,0.17692 0.14221,0 0.18497,0.11906 0.095,0.26458 -0.0899,0.14553 0.0221,0.26459 0.24897,0.26459 0.22687,0 0.41249,0.0966 0.41249,0.21469 0,0.30451 -1.03025,1.37281 -1.32391,1.37281 -0.13473,0 -0.37842,0.24936 -0.54153,0.55413 -0.24319,0.4544 -0.19725,0.65984 0.25527,1.14153 0.30351,0.32307 0.55184,0.7078 0.55184,0.85496 0,0.14715 0.29876,0.54823 0.66392,0.89127 0.41114,0.38625 0.60847,0.7984 0.51829,1.08253 -0.11367,0.35814 -0.0271,0.42782 0.39442,0.31758 0.41444,-0.10838 0.54004,-0.0146 0.54004,0.40319 0,0.29943 -0.13178,0.62585 -0.29283,0.72539 -0.20474,0.12653 -0.18484,0.25814 0.0661,0.43745 0.26559,0.18975 0.22883,0.214 -0.14132,0.0932 -0.27516,-0.0898 -0.75141,-0.0834 -1.05833,0.0142 -0.54977,0.17481 -0.5502,0.1805 -0.0289,0.38428 0.96834,0.3785 1.47848,0.25121 2.21206,-0.55197 z m -2.86849,-0.1361 c 0.2796,-0.33691 0.26324,-0.37562 -0.0999,-0.23628 -0.23886,0.0917 -0.4343,0.27298 -0.4343,0.40294 0,0.34024 0.15316,0.29246 0.5342,-0.16666 z m 0.65216,-1.35038 c 0.39747,-0.39748 0.39117,-0.47338 -0.0825,-0.99219 -0.28206,-0.30899 -0.70842,-0.94874 -0.94746,-1.42169 -0.23904,-0.47294 -0.56008,-0.85989 -0.71343,-0.85989 -0.16922,0 -0.21337,-0.29795 -0.11232,-0.75804 0.15025,-0.6841 0.0878,-0.77379 -0.64043,-0.91943 -0.92452,-0.1849 -1.06255,-0.77344 -0.26488,-1.12937 0.46719,-0.20847 0.37583,-0.28044 -0.66146,-0.5211 l -1.20351,-0.27923 v 0.99991 c 0,0.97426 -0.8913,3.8106 -1.35559,4.31382 -0.35073,0.38014 -0.27871,0.67469 0.16496,0.67469 0.48107,0 0.52481,0.42444 0.0661,0.64181 -0.1819,0.0862 0.14552,0.0974 0.7276,0.025 0.58209,-0.0725 1.2667,-0.13309 1.52136,-0.13469 0.31959,-0.002 0.46302,-0.21266 0.46302,-0.67999 0,-0.42532 0.10829,-0.61014 0.29124,-0.49708 0.16317,0.10085 0.22589,0.50674 0.14263,0.92306 -0.0917,0.45869 -0.026,0.79281 0.17178,0.87306 0.70779,0.28721 2.02723,0.14694 2.43279,-0.25861 z m -3.6999,-0.89252 c 0.0899,-0.14552 0.21603,-0.26459 0.2802,-0.26459 0.0642,0 0.11668,0.11907 0.11668,0.26459 0,0.14552 -0.12609,0.26458 -0.2802,0.26458 -0.15411,0 -0.20662,-0.11906 -0.11668,-0.26458 z m -19.83539,-3.95298 c 0.14843,-0.58195 -0.0447,-0.87755 -1.37302,-2.10113 -1.42734,-1.31481 -1.25625,-1.25768 0.83549,0.27895 l 0.79375,0.58311 -0.65427,-0.77742 c -1.25565,-1.49196 -3.85322,-4.13322 -5.10981,-5.19574 -1.24924,-1.05632 -1.27353,-1.06401 -1.81673,-0.57511 -1.738,1.56424 -3.24648,4.9957 -2.96632,6.74772 0.09,0.56312 0.21395,1.02385 0.27534,1.02385 0.0614,0 0.48418,-0.19266 0.93953,-0.42813 1.08084,-0.55893 4.43389,-0.39471 5.76039,0.28211 1.32973,0.67848 2.10009,1.45521 1.94404,1.96012 -0.0739,0.23917 0.16559,0.0848 0.53224,-0.34312 0.36665,-0.42789 0.74437,-1.08273 0.83937,-1.45521 z m 22.61352,-0.51663 c 0,-0.36701 -0.6192,-0.51746 -1.46459,-0.35586 -0.67825,0.12966 -0.70766,0.17132 -0.24781,0.35103 0.72888,0.28485 1.7124,0.28763 1.7124,0.005 z m -6.61459,-3.6988 c -0.21828,-0.11815 -1.88515,-0.53453 -3.70416,-0.92529 -1.81901,-0.39076 -5.123,-1.10185 -7.34219,-1.58019 -2.21919,-0.47835 -4.0349,-0.79844 -4.0349,-0.71132 0,0.14967 14.2366,3.37071 15.08125,3.41215 0.35278,0.0173 0.35278,-0.004 0,-0.19535 z m -15.32844,-1.89507 c 0.71479,-0.38254 0.6381,-0.78444 -0.14968,-0.78444 -0.48507,0 -0.66146,0.14111 -0.66146,0.52917 0,0.60456 0.0998,0.63597 0.81114,0.25527 z m -1.07572,-0.27417 c 0,-0.45636 -0.75951,-1.0855 -1.19828,-0.99261 -0.35873,0.076 -0.35701,0.15177 0.0154,0.68078 0.43264,0.61453 1.18286,0.81231 1.18286,0.31183 z m 0.66145,-1.43631 c 0,-0.28706 -0.19337,-0.55916 -0.42972,-0.60468 -0.45856,-0.0883 -0.86752,0.61499 -0.6048,1.04008 0.26961,0.43623 1.03452,0.1143 1.03452,-0.4354 z m 1.19063,-0.51027 c 0,-0.20788 -0.1871,-0.56507 -0.41577,-0.79375 -0.46561,-0.4656 -1.17173,-0.55671 -1.17173,-0.15119 0,0.37888 0.86554,1.27479 1.25677,1.30087 0.1819,0.0121 0.33073,-0.14804 0.33073,-0.35593 z m -2.02209,-0.46923 c 0.15597,-0.24768 0.19923,-0.53468 0.0961,-0.63778 -0.2094,-0.20941 -1.24903,0.63644 -1.24903,1.01623 0,0.39033 0.84306,0.11359 1.15291,-0.37845 z m 16.31,-2.58075 c -0.74755,-3.38458 -2.82782,-6.9883 -5.09539,-8.82691 -2.43853,-1.97723 -5.87451,-3.428 -8.94027,-3.77486 l -1.58861,-0.17973 0.0235,6.15008 0.0235,6.15008 0.71087,-0.1523 c 0.39097,-0.0838 1.39395,-0.36181 2.63066,-0.50128 1.32689,-0.14963 3.36463,-0.28183 4.93069,-0.21486 2.83559,0.12125 4.06331,0.62383 6.11409,2.47138 1.5252,1.37404 1.70488,1.20484 1.19104,-1.1216 z m -6.84657,22.0018 c -0.0181,-0.62569 0.14811,-1.48787 0.36948,-1.91595 0.22137,-0.42808 0.56864,-1.46397 0.77171,-2.30197 0.23494,-0.96953 0.79699,-2.89874 0.56078,-1.44465 -0.064,0.39364 -0.39436,1.99691 -0.6961,2.76245 -0.30174,0.76555 -0.64407,1.98722 -0.76074,2.71482 l -0.21212,1.32292 z m 7.0175,-16.50584 c -0.27344,-1.02104 -0.19664,-1.27425 0.38651,-1.27425 0.47574,0 0.5314,0.1071 0.37815,0.7276 -0.25523,1.03344 -0.57339,1.26089 -0.76466,0.54665 z m -1.49134,-2.19873 c -0.36175,-0.19361 -0.76692,-0.28453 -0.90037,-0.20205 -0.13345,0.0825 -0.15769,0.0125 -0.0539,-0.15551 0.10575,-0.17112 0.0365,-0.30724 -0.15756,-0.30951 -0.28038,-0.003 -0.27913,-0.0467 0.007,-0.22777 0.28209,-0.17881 0.26545,-0.25727 -0.0829,-0.39095 -0.2397,-0.092 -0.36262,-0.2857 -0.27314,-0.43048 0.0895,-0.14478 0.64025,0.22397 1.22393,0.81944 1.16984,1.19346 1.23224,1.42928 0.23734,0.89683 z"
       id="path1"
       sodipodi:nodetypes="ssssssscssssssssscssscscsssssssccssssssscsssssssssssssssssssssssscsssssscsssssssssssssssscsssssssssssscsssssscsssscsssscssssssssscsssssssssssssssccsssssssssssscsssscssssssssssssssscssssssssssssssscsssscssssscssssssssssssscssscssccccssscccsssssccsssscssccssscc" /><path
       style="display:inline;fill:none;fill-rule:evenodd;stroke:#000000;stroke-width:0.264583px;stroke-linecap:butt;stroke-linejoin:miter;stroke-opacity:1"
       d="m 140.80319,190.81541 -0.0404,4.8845"
       id="path2"
       inkscape:connector-type="polyline"
       inkscape:connector-curvature="0" /><path
       style="fill:#000000;stroke-width:1.165;stroke-dasharray:none;paint-order:stroke markers fill"
       d="m 157.87258,197.0068 c 0.0228,2.58003 0.0228,2.56861 0.0228,2.56861 l -0.30823,0.0114 -0.0571,-2.65995 z"
       id="path4" /></g></svg>
