<?xml version="1.0" encoding="UTF-8" standalone="no"?>
<!-- Created with Inkscape (http://www.inkscape.org/) -->

<svg
   width="45.304272mm"
   height="43.53883mm"
   viewBox="0 0 45.304271 43.538829"
   version="1.1"
   id="svg1"
   xml:space="preserve"
   inkscape:version="1.3 (0e150ed6c4, 2023-07-21)"
   sodipodi:docname="Forearm (Pronation - Supination).svg"
   xmlns:inkscape="http://www.inkscape.org/namespaces/inkscape"
   xmlns:sodipodi="http://sodipodi.sourceforge.net/DTD/sodipodi-0.dtd"
   xmlns="http://www.w3.org/2000/svg"
   xmlns:svg="http://www.w3.org/2000/svg"><sodipodi:namedview
     id="namedview1"
     pagecolor="#ffffff"
     bordercolor="#000000"
     borderopacity="0.25"
     inkscape:showpageshadow="2"
     inkscape:pageopacity="0.0"
     inkscape:pagecheckerboard="0"
     inkscape:deskcolor="#d1d1d1"
     inkscape:document-units="mm"
     inkscape:zoom="4.0970529"
     inkscape:cx="53.453057"
     inkscape:cy="113.37418"
     inkscape:window-width="1920"
     inkscape:window-height="1009"
     inkscape:window-x="1919"
     inkscape:window-y="1072"
     inkscape:window-maximized="1"
     inkscape:current-layer="layer1" /><defs
     id="defs1" /><g
     inkscape:label="Layer 1"
     inkscape:groupmode="layer"
     id="layer1"
     transform="translate(-40.071925,-29.513208)"><path
       style="fill:#000000"
       d="m 63.185609,72.563823 c -0.0098,-0.377055 0.159398,-1.270024 0.376104,-1.984375 0.346543,-1.142346 0.514924,-1.896087 0.485935,-1.931981 -0.03588,-0.04443 -0.490764,0.140261 -0.829314,0.25828 -0.616181,0.214802 -1.712164,-0.03832 -6.416145,-1.481841 -10.151059,-3.115077 -12.956948,-4.181164 -11.687142,-4.181164 0.174625,0 0.418404,0.148173 0.418404,0.02656 0,-0.129514 -0.02614,-1.140517 -0.02984,-1.263268 -0.0029,-0.09465 0.423615,0.100952 0.439907,0.07554 0.134812,-0.210288 0.291382,-0.861194 0.983015,-2.123175 0.765824,-1.397353 2.361824,-3.362706 3.345755,-4.349512 1.32258,-1.326445 2.357236,-2.069121 3.96875,-2.848769 2.018995,-0.976787 5.202686,-1.868033 6.672951,-1.868033 0.342161,0 0.691565,-0.148828 0.776452,-0.330729 0.123472,-0.264583 0.185209,-0.264583 0.308681,0 0.09476,0.203066 0.691211,0.330729 1.545176,0.330729 1.654242,0 4.743973,0.752979 6.76715,1.649179 2.141885,0.948784 4.312088,3.243081 5.972894,5.293919 0.818386,1.01058 1.182176,1.511917 1.462944,2.007071 0.113392,0.199975 0.582636,1.065531 0.738146,1.431514 0.01149,0.02705 0.384696,-0.06304 0.384186,-0.0493 -0.0157,0.422987 -0.05483,0.755195 -0.103684,1.089777 -0.01943,0.13306 0.146238,-0.04507 0.417875,-0.04507 0.306238,0 0.398388,0.09241 0.242535,0.243221 -0.28311,0.273948 -7.619474,3.261849 -10.794774,4.396416 l -2.076752,0.742045 0.730656,0.38283 c 1.114754,0.584079 4.098175,1.379238 5.174872,1.379238 1.354731,0 2.613602,0.284444 2.613602,0.590547 0,0.1429 -0.208359,0.179308 -0.463021,0.08091 -0.254661,-0.0984 -1.443789,-0.290844 -2.642506,-0.42765 -2.01971,-0.230505 -4.689535,-1.308211 -5.564712,-1.740243 -0.106475,-0.05256 -0.232482,-0.136316 -0.374619,-0.08064 -0.642821,0.251794 -1.65372,0.652662 -1.673901,0.730134 -0.155943,0.598643 -0.622229,3.371188 -0.938171,4.154239 -0.190963,0.473294 -0.215396,0.456782 -0.231413,-0.156387 z M 61.18416,66.733166 c -0.532406,-0.58931 -0.88761,-1.150181 -0.789342,-1.246381 0.09827,-0.0962 0.524243,0.237313 0.94661,0.741139 l 0.767941,0.916047 v -0.71761 c 0,-0.394685 -0.114244,-0.717609 -0.253876,-0.717609 -0.392977,0 -1.588154,-1.389715 -1.423834,-1.655591 0.164586,-0.266305 1.148543,0.689226 1.148543,1.115361 0,0.151605 0.119063,0.275646 0.264583,0.275646 0.145521,0 0.261276,-0.386953 0.257234,-0.859896 -0.0051,-0.597923 -0.246931,-1.094999 -0.79375,-1.631597 -0.917299,-0.900153 -0.997146,-1.218244 -0.257234,-1.024753 0.292872,0.07659 0.529167,0.360896 0.529167,0.636688 0,0.27407 0.06722,0.482163 0.228312,0.482163 0.16109,0 0.164113,0.07006 0.172654,-0.176343 0.0085,-0.246327 -0.140003,-1.617069 -0.144428,-2.805714 -0.006,-1.601551 -0.07808,-2.040914 -0.278514,-1.696753 -0.148757,0.255431 -0.55918,0.775946 -0.912051,1.156701 -0.352871,0.380754 -0.717041,1.094499 -0.809266,1.5861 -0.125524,0.669104 -0.303627,0.893821 -0.70841,0.893821 -0.507089,0 -0.513487,-0.0301 -0.102846,-0.483854 0.240836,-0.26612 0.437882,-0.601877 0.437882,-0.746126 0,-0.144249 0.416719,-0.749113 0.926042,-1.344142 0.509323,-0.595029 0.926042,-1.211773 0.926042,-1.370541 0,-0.158769 0.119062,-0.28867 0.264583,-0.28867 0.299113,0 0.295353,-2.810818 0.186666,-4.990546 l -0.06761,-1.355884 -1.740813,0.11156 c -0.851228,0.05455 -2.141436,0.352649 -2.875263,0.570572 l -1.334231,0.396224 0.196076,2.171016 c 0.107843,1.194059 0.169989,2.468672 0.138103,2.832475 -0.03189,0.363802 -0.12324,1.852083 -0.203011,3.307291 -0.171631,3.130952 0.141161,3.872206 2.179442,5.164846 1.269961,0.805385 1.827904,0.995582 1.536262,0.523696 -0.258687,-0.418565 0.29643,-0.307542 0.661458,0.132291 0.181158,0.218281 0.46729,0.396875 0.635849,0.396875 0.168559,0 0.46681,0.386953 0.662778,0.859896 0.275611,0.665148 0.383479,0.752678 0.476283,0.386485 0.07367,-0.2907 -0.253621,-0.886938 -0.848034,-1.544883 z m -2.249791,-8.432748 c -0.691005,-0.378309 -0.791735,-0.508307 -0.396875,-0.512193 0.291041,-0.0029 0.826823,0.227623 1.190625,0.512193 0.842224,0.658798 0.409583,0.658798 -0.79375,0 z m 5.19505,9.73186 c 0.02254,-0.383332 0.136679,-4.425901 -0.07586,-4.769803 -0.248847,-0.402643 -0.612713,0.367385 -0.617218,1.306183 -0.0022,0.464354 -0.123551,0.918135 -0.269606,1.008402 -0.146055,0.09027 -0.195939,0.441492 -0.110853,0.7805 0.08508,0.339009 0.04196,0.686058 -0.09584,0.77122 -0.137796,0.08516 -0.195785,0.441267 -0.128864,0.791342 0.09063,0.474094 0.251402,0.602576 0.630099,0.503545 0.279633,-0.07313 0.659957,-0.252192 0.66209,-0.288466 z m -3.186964,-0.180659 c -0.250347,-0.276631 -0.834347,-0.577188 -1.297778,-0.667905 -1.136782,-0.222525 -3.238268,-1.802465 -3.773081,-2.836679 -0.330647,-0.639402 -0.415834,-1.414619 -0.356577,-3.244923 0.09192,-2.839003 -0.0036,-8.164922 -0.14904,-8.310361 -0.277506,-0.277506 -2.820853,1.324306 -4.33554,2.730543 -1.778305,1.65098 -4.336847,5.524759 -4.654928,6.694655 -0.0176,0.06472 0.28724,0.09203 0.196787,0.204905 -0.06404,0.07991 -0.531464,0.697794 -0.592046,0.782113 -0.167643,0.233328 -0.08526,0.242237 -0.01854,0.264328 0.326931,0.108241 14.465332,4.777101 15.196474,4.859353 0.131695,0.01481 0.03461,-0.199398 -0.215733,-0.476029 z m 4.721315,-0.263487 c 0,-0.05719 -0.440946,-0.330011 -0.659227,-0.330011 -0.06368,0 -0.200661,-0.02248 -0.254134,-0.0051 -0.129833,0.04225 -0.24226,0.546276 -0.286025,0.763858 -0.0078,0.03858 0.204829,-0.01204 0.42311,-0.09581 0.218281,-0.08376 0.776276,-0.275776 0.776276,-0.332967 z m 3.632811,-1.33151 c 3.427092,-1.266761 8.485846,-3.30225 9.006083,-3.623775 0.161811,-0.100004 0.275579,-0.184617 0.126751,-0.333445 -0.09346,-0.09345 -0.468548,-0.564751 -0.572231,-0.740327 -0.03952,-0.06693 0.34572,-0.181503 0.335526,-0.205735 -0.301488,-0.716677 -2.718342,-4.161527 -4.538413,-5.909248 -2.597931,-2.494661 -6.417446,-4.005882 -10.155868,-4.018246 l -1.389062,-0.0046 0.06098,3.496331 c 0.0026,1.021557 0.02043,1.331395 0.150105,1.186901 0.04523,-0.0504 0.02242,-1.749965 0.19204,-2.132679 0.416432,-0.93958 1.01702,-0.84198 1.608159,-0.298738 0.234725,0.215706 0.693941,0.807418 0.543002,2.466939 -0.04538,0.498888 -0.305861,1.129232 -0.341768,1.638188 -0.02167,0.307106 0.214695,0.497896 0.223428,1.267605 0.02956,2.604982 0.185698,7.660199 0.695511,7.958081 0.23557,0.137643 0.819196,0.443579 0.8431,0.448004 0.0239,0.0044 1.272028,-0.477945 3.212655,-1.195262 z m -6.537053,0.528745 c 0.08372,-0.135465 0.03122,-0.321086 -0.116677,-0.41249 -0.147894,-0.0914 -0.268899,0.01943 -0.268899,0.246301 0,0.464748 0.158765,0.533178 0.385576,0.166189 z m -0.202222,-2.592934 c -0.06708,-0.257431 -0.126382,-0.110869 -0.131774,0.325694 -0.0054,0.436562 0.0495,0.647187 0.12197,0.468056 0.07248,-0.179132 0.07689,-0.536319 0.0098,-0.79375 z m 1.693526,-4.949016 c 0.01395,-0.703956 0.12922,-0.727276 -0.384557,-0.853905 -0.132492,-0.03266 0.422483,-2.225384 0.438317,-2.6611 0.03588,-0.987356 -0.07552,-1.507098 -0.390538,-1.822118 -0.760959,-0.760959 -1.275519,-0.278799 -1.275519,1.195206 0,0.723583 -0.119062,1.38919 -0.264583,1.479127 -0.493646,0.30509 -0.307072,2.772936 0.264583,3.499678 0.552549,0.702451 0.705851,2.293839 0.285012,2.95862 -0.129829,0.205085 -0.173155,0.53679 -0.09628,0.737123 0.08241,0.214766 0.402458,-0.202739 0.779888,-1.017383 0.508422,-1.097375 0.640849,-1.820585 0.643677,-3.515248 z m -1.347713,-2.530498 c 0,-0.331503 0.280786,-0.331503 0.79375,0 0.320928,0.2074 0.282955,0.257255 -0.198438,0.260531 -0.327422,0.0022 -0.595312,-0.115011 -0.595312,-0.260531 z m -0.0081,5.027083 c 0,-0.363802 -0.115416,-0.840052 -0.256481,-1.058334 -0.182602,-0.282557 -0.353348,-0.575065 -0.345276,-0.281679 0.01635,0.594107 0.129253,2.328416 0.136021,2.47672 0.0051,0.111889 0.131405,0.04209 0.209255,-0.07837 0.141063,-0.218282 0.256481,-0.694531 0.256481,-1.058333 z M 55.207097,45.831634 c 0.103604,-2.580011 0.624351,-5.154087 1.384133,-6.650907 0.475156,-0.936089 2.359398,-2.576141 2.959706,-2.576141 0.149922,0 0.995261,-0.458021 1.878531,-1.017825 0.883271,-0.559804 2.899631,-1.771339 4.480801,-2.692301 2.45385,-1.429258 2.948736,-1.832343 3.379355,-2.752487 0.301606,-0.644471 0.450369,-0.811995 0.369903,-0.416554 -0.07403,0.363802 -0.138044,1.018646 -0.14226,1.455209 -0.0043,0.440637 -0.09414,0.658166 -0.20205,0.488975 -0.180576,-0.283123 -3.819784,1.718714 -7.470428,4.109293 -0.654843,0.428816 -1.66525,0.974298 -2.245347,1.212181 -2.118717,0.868832 -2.990847,2.208367 -3.670828,5.638152 -0.507287,2.558725 -0.396329,4.981097 -0.227802,7.295229 0.06677,0.916841 0.170437,2.71418 0.15946,3.060633 -0.122405,3.863365 -0.748464,-4.780464 -0.653174,-7.153457 z M 67.070306,35.614939 c 0.909505,-0.05166 2.397787,-0.05166 3.307292,0 0.909505,0.05167 0.165364,0.09394 -1.653646,0.09394 -1.81901,0 -2.563151,-0.04227 -1.653646,-0.09394 z"
       id="path5"
       sodipodi:nodetypes="ssssssssssssssssssssssssscsssssssssssssscssssscssssscsssssssssscsscsssssssssssssssscssssssssssssssssssssssssssssssssccssssssscsssscsscssscssssssssscsssssscssssccsssscsssssssccsccsc" /><text
       xml:space="preserve"
       style="font-size:1.5875px;fill:#000000;stroke-width:0.5825;paint-order:stroke markers fill"
       x="41.730289"
       y="66.888458"
       id="text1"><tspan
         sodipodi:role="line"
         id="tspan1"
         style="stroke-width:0.5825"
         x="41.730289"
         y="66.888458">Supination</tspan></text><text
       xml:space="preserve"
       style="font-size:1.5875px;fill:#000000;stroke-width:0.5825;paint-order:stroke markers fill"
       x="74.910446"
       y="66.375839"
       id="text2"><tspan
         sodipodi:role="line"
         id="tspan2"
         style="stroke-width:0.5825"
         x="74.910446"
         y="66.375839">Pronation</tspan></text><text
       xml:space="preserve"
       style="font-size:3.175px;fill:#000000;stroke-width:1.165;paint-order:stroke markers fill"
       x="39.88279"
       y="63.921368"
       id="text3"><tspan
         sodipodi:role="line"
         id="tspan3"
         style="stroke-width:1.165"
         x="39.88279"
         y="63.921368">80°</tspan></text><text
       xml:space="preserve"
       style="font-size:3.175px;fill:#000000;stroke-width:1.165;paint-order:stroke markers fill"
       x="79.857155"
       y="63.598473"
       id="text4"><tspan
         sodipodi:role="line"
         id="tspan4"
         style="stroke-width:1.165"
         x="79.857155"
         y="63.598473">80°</tspan></text><text
       xml:space="preserve"
       style="font-size:3.175px;fill:#000000;stroke-width:1.165;paint-order:stroke markers fill"
       x="60.612629"
       y="49.455685"
       id="text5"><tspan
         sodipodi:role="line"
         id="tspan5"
         style="stroke-width:1.165"
         x="60.612629"
         y="49.455685">0°</tspan></text></g></svg>
