<?xml version="1.0" encoding="UTF-8" standalone="no"?>
<!-- Created with Inkscape (http://www.inkscape.org/) -->

<svg
   width="35.769611mm"
   height="40.785439mm"
   viewBox="0 0 35.769611 40.785439"
   version="1.1"
   id="svg1"
   xml:space="preserve"
   inkscape:version="1.3 (0e150ed6c4, 2023-07-21)"
   sodipodi:docname="Hip (Abduction).svg"
   xmlns:inkscape="http://www.inkscape.org/namespaces/inkscape"
   xmlns:sodipodi="http://sodipodi.sourceforge.net/DTD/sodipodi-0.dtd"
   xmlns="http://www.w3.org/2000/svg"
   xmlns:svg="http://www.w3.org/2000/svg"><sodipodi:namedview
     id="namedview1"
     pagecolor="#ffffff"
     bordercolor="#000000"
     borderopacity="0.25"
     inkscape:showpageshadow="2"
     inkscape:pageopacity="0.0"
     inkscape:pagecheckerboard="0"
     inkscape:deskcolor="#d1d1d1"
     inkscape:document-units="mm"
     inkscape:zoom="4"
     inkscape:cx="104"
     inkscape:cy="45.125"
     inkscape:window-width="1920"
     inkscape:window-height="1009"
     inkscape:window-x="1919"
     inkscape:window-y="1072"
     inkscape:window-maximized="1"
     inkscape:current-layer="layer1" /><defs
     id="defs1" /><g
     inkscape:label="Layer 1"
     inkscape:groupmode="layer"
     id="layer1"
     transform="translate(-162.80364,-44.563441)"><path
       d="m 186.91159,80.085141 c -0.007,-0.647514 -0.0213,-0.654775 0.11934,-0.653144 0.27593,0.0032 0.27649,0.0051 0.29319,0.5592 -0.0152,0.610547 -0.0181,0.615558 -0.17278,0.622848 -0.20321,-0.01555 -0.23432,-0.02506 -0.23975,-0.528904 z m -0.0222,-1.448072 c -0.007,-0.647514 -0.0213,-0.654775 0.11934,-0.653144 0.27593,0.0032 0.27649,0.0051 0.29319,0.5592 -0.0152,0.610547 -0.0181,0.615558 -0.17278,0.622848 -0.20321,-0.01555 -0.23432,-0.02506 -0.23975,-0.528904 z m -0.0117,-1.385626 c -0.007,-0.647514 -0.0213,-0.654775 0.11934,-0.653144 0.27593,0.0032 0.27649,0.0051 0.29319,0.5592 -0.0152,0.610547 -0.0181,0.615558 -0.17278,0.622848 -0.20321,-0.01555 -0.23432,-0.02506 -0.23975,-0.528904 z m -0.006,-1.409011 c -0.007,-0.647514 -0.0213,-0.654775 0.11934,-0.653144 0.27593,0.0032 0.27649,0.0051 0.29319,0.5592 -0.0152,0.610547 -0.0181,0.615558 -0.17278,0.622848 -0.20321,-0.01555 -0.23432,-0.02506 -0.23975,-0.528904 z m 0.0352,-1.368086 c -0.007,-0.647514 -0.0213,-0.654775 0.11934,-0.653144 0.27593,0.0032 0.27649,0.0051 0.29319,0.5592 -0.0152,0.610547 -0.0181,0.615558 -0.17278,0.622848 -0.20321,-0.01555 -0.23432,-0.02506 -0.23975,-0.528904 z m -2e-5,-1.414905 c -0.007,-0.647514 -0.0213,-0.654775 0.11934,-0.653144 0.27593,0.0032 0.27649,0.0051 0.29319,0.5592 -0.0152,0.610547 -0.0181,0.615558 -0.17278,0.622848 -0.20321,-0.01555 -0.23432,-0.02506 -0.23975,-0.528904 z"
       style="fill:#000000"
       id="path1-4"
       sodipodi:nodetypes="csccccsccccsccccsccccsccccsccc" /><path
       style="fill:#000000"
       d="m 184.64219,85.214917 c -3.01051,-0.236086 -8.49554,-1.117841 -10.24169,-1.646417 -0.71606,-0.21676 -1.48851,-0.460825 -1.50787,-0.377467 -0.01,0.04311 0.003,0.318547 -0.0825,0.286605 -0.20066,-0.07519 -0.8635,-0.420964 -1.15593,-0.643977 l -0.64165,-0.489323 0.78529,-0.01378 c 0.33568,-0.0059 1.07899,-0.01533 1.15174,-0.0267 0.0604,-0.0094 0.0357,0.451264 0.0186,0.516734 0.14879,0.04084 4.00447,1.078655 8.05582,1.647442 3.83153,0.537926 5.33388,0.549945 5.87413,0.52367 0.0662,-0.0032 0.0652,-0.664601 0.0652,-0.786742 0,-0.0697 0.24055,-0.05995 0.47363,-0.0246 0.0117,0.241722 0.0184,0.910768 0.0137,1.168516 -0.41265,-0.0021 -0.88162,0.01714 -2.80849,-0.13397 z m 2.33329,-1.9288 c -0.0127,-0.511228 -0.0508,-0.532342 0.20405,-0.537239 0.20601,-0.004 0.20484,0.0034 0.23229,0.541275 0.0268,0.525785 0.0384,0.520126 -0.21851,0.51824 -0.25131,-0.0018 -0.20462,0.0092 -0.21783,-0.522276 z m -19.8175,-1.58628 c -0.42892,-0.36091 -1.3089,-0.882977 -1.95551,-1.160148 -1.47703,-0.63313 -2.74806,-2.048335 -2.31179,-2.574016 0.25381,-0.30582 0.38817,-0.301198 0.86045,0.0296 0.96458,0.675614 3.70093,0.31671 4.77635,-0.626471 0.27387,-0.240198 1.57167,-2.044068 2.884,-4.008599 1.31232,-1.964531 3.18782,-4.583906 4.16777,-5.820833 0.97994,-1.236927 2.10911,-2.844271 2.50926,-3.571875 1.00809,-1.83303 2.93836,-4.533555 4.25516,-5.953125 0.60744,-0.654844 1.36622,-1.750111 1.68618,-2.433926 0.31996,-0.683816 0.75008,-1.383004 0.95581,-1.553751 0.45012,-0.373565 0.51055,-3.02298 0.0942,-4.131036 -0.24842,-0.661168 -0.23544,-0.700251 0.11559,-0.347953 0.26072,0.261672 0.42088,1.050353 0.47012,2.315104 l 0.0747,1.918229 h 2.29117 c 2.27706,0 2.29313,-0.0047 2.60798,-0.764841 0.86862,-2.097018 0.37001,-3.203909 -1.44322,-3.203909 -0.84644,0 -1.50085,-0.25353 -2.7674,-1.07214 -0.91235,-0.589678 -1.59125,-1.139707 -1.50867,-1.222288 0.0826,-0.08258 0.77093,0.305548 1.52966,0.862508 1.11467,0.818244 1.63735,1.024499 2.72254,1.074351 0.90949,0.04178 1.47639,0.216213 1.75616,0.540362 0.38755,0.449014 2.63333,1.801648 2.63333,1.586052 0,-0.05447 -0.29088,-0.437553 -0.6464,-0.851293 -0.67094,-0.780829 -0.66546,-1.182135 0.0162,-1.182135 0.21828,0 0.3366,0.09752 0.26294,0.216708 -0.0737,0.11919 0.24673,0.181631 0.71199,0.138758 0.79892,-0.07362 0.80917,-0.06381 0.18446,0.176586 -0.58866,0.226525 -0.56318,0.240372 0.23151,0.125826 0.49114,-0.07079 1.06371,-0.128712 1.27239,-0.128712 0.20868,0 0.31552,-0.103382 0.23743,-0.229738 -0.0781,-0.126356 -0.8554,-0.310452 -1.72735,-0.409101 -1.65592,-0.187346 -2.21209,-0.561982 -1.56612,-1.054945 0.20943,-0.159825 0.33795,-0.49895 0.2856,-0.753611 -0.0586,-0.285105 0.0648,-0.463021 0.3211,-0.463021 0.22895,0 0.41628,-0.119063 0.41628,-0.264583 0,-0.444768 -0.44865,-0.298176 -1.31278,0.428941 l -0.82421,0.693525 -1.19654,-0.456964 c -0.6581,-0.25133 -1.14464,-0.508867 -1.0812,-0.572305 0.0634,-0.06344 0.60947,0.08237 1.2134,0.324014 1.08416,0.433794 1.1055,0.431237 1.68667,-0.202009 0.32374,-0.35275 0.94121,-1.157263 1.19351,-1.694913 0.25231,-0.537649 0.51381,-0.62984 0.66339,-0.711527 0.27852,-0.152105 0.73726,-0.139709 1.24573,-0.147014 0.3259,-0.0047 0.55049,0.08459 0.64164,0.14593 0.30882,0.20782 0.23952,0.417067 0.0521,0.253788 -0.058,-0.05051 -0.23163,-0.19822 -0.32437,-0.230531 -0.39601,-0.137967 -0.79855,-0.06108 -0.97025,-0.03833 -0.12014,0.01592 -0.61495,0.100557 -0.77926,0.289163 -0.89967,1.032741 -0.4906,1.68602 1.5389,2.457634 0.56557,0.215031 0.58868,0.176841 0.44156,-0.729771 -0.13242,-0.81601 -0.0908,-0.931923 0.28344,-0.788334 0.559,0.214507 0.55931,-0.03698 8.1e-4,-0.654113 -0.24083,-0.26612 -0.31393,-0.483854 -0.16244,-0.483854 0.1515,0 0.4834,0.446484 0.73756,0.992187 0.25416,0.545704 0.53101,1.11125 0.61522,1.256771 0.0842,0.145521 0.43828,0.817521 -0.59037,-0.221652 l -0.7435,-0.486236 0.19643,0.883111 c 0.38029,1.709763 0.4064,1.680679 -1.4671,1.634136 l -1.71979,-0.04272 1.45521,0.26877 c 1.52571,0.281792 2.20971,0.642703 1.96584,1.037283 -0.0797,0.129032 -0.39067,0.234604 -0.69094,0.234604 -0.44076,0 -0.48607,0.07215 -0.23518,0.374451 0.32557,0.392284 1.21733,0.258418 2.36298,-0.354714 0.63887,-0.34191 0.76282,-1.580813 0.28482,-2.846784 -0.21913,-0.580348 -0.21088,-0.675232 0.0373,-0.429673 0.17521,0.173335 0.37512,0.903691 0.44424,1.623013 0.11734,1.221217 0.0711,1.348239 -0.6988,1.917415 -0.45346,0.335256 -0.82447,0.834369 -0.82447,1.109141 0,0.274771 -0.31354,1.829959 -0.69675,3.455972 -0.66805,2.834618 -0.74944,3.007858 -1.97612,4.206044 -0.70365,0.687312 -1.583,1.325864 -1.9541,1.419006 -0.62654,0.157251 -0.66965,0.266433 -0.60357,1.528467 l 0.0712,1.35912 -0.89127,0.08525 c -0.49019,0.04689 -1.24541,-0.06144 -1.67826,-0.240732 -0.68339,-0.283069 -0.76673,-0.427275 -0.63309,-1.095444 0.13454,-0.672717 0.083,-0.758882 -0.40978,-0.68531 -0.55173,0.08237 -0.61097,0.177487 -0.55883,4.490577 0.0291,2.405638 -0.0174,4.091662 -0.009,4.601061 0.002,0.102759 -0.40659,0.07485 -0.44097,0.0728 -0.02,0.186619 -0.0119,0.750511 -0.0291,1.142105 -0.006,0.06894 -0.25045,0.09607 -0.23899,-0.01327 0.005,-0.145496 0.007,-0.899168 0.002,-1.058961 -0.005,-0.174938 -0.26985,-0.07958 -0.27365,-0.150213 -0.0484,-0.899451 -0.0145,-2.775502 -0.0239,-3.952384 -0.0172,-2.146432 0.003,-3.925436 -0.0796,-3.925436 -0.25403,0 -3.03311,2.452781 -5.65719,4.963288 -1.40779,1.346857 -2.75662,2.905707 -3.1051,3.58859 -0.39494,0.773923 -1.86604,2.382966 -4.09794,4.482191 -2.66073,2.502578 -3.66479,3.637322 -4.25773,4.81193 -0.42675,0.845394 -0.94366,1.53708 -1.14868,1.53708 -0.20502,0 -0.7237,-0.295291 -1.15262,-0.656202 z m 1.8011,-0.675199 c 0.18276,-0.441228 0.26682,-0.86771 0.18679,-0.947737 -0.08,-0.08003 1.30183,-1.475194 3.07079,-3.10037 4.29241,-3.943524 4.95326,-4.639402 5.38329,-5.668602 0.44139,-1.056397 3.89491,-4.581696 6.93097,-7.075016 l 2.06548,-1.681137 -0.0812,-1.500134 c -0.0543,-1.045403 -0.0943,-1.853258 -0.0964,-2.508102 l -0.004,-1.190625 -1.53319,1.5875 c -2.19523,2.272989 -6.93034,7.706419 -6.93034,7.95241 0,0.32909 -0.84587,1.176545 -1.16549,1.167669 -0.15934,-0.0044 -0.073,-0.134053 0.19176,-0.288062 0.46167,-0.268492 0.46203,-0.294243 0.009,-0.625707 -0.42083,-0.307724 -0.60092,-0.18164 -1.63962,1.147957 -0.64178,0.821507 -2.34213,3.246653 -3.77856,5.389213 -3.06894,4.577587 -3.38698,4.818175 -6.38293,4.828571 -1.24545,0.0043 -2.0164,0.110992 -1.96365,0.271698 0.0478,0.145521 0.34541,0.30263 0.66143,0.349131 0.31602,0.0465 0.57459,0.257837 0.57459,0.469636 0,0.213798 0.34339,0.453766 0.772,0.539488 0.42461,0.08492 1.16875,0.493824 1.65365,0.908674 1.13742,0.9731 1.66453,0.966382 2.07578,-0.02645 z m 18.31014,-17.472669 c -0.0412,-3.821876 -0.10114,-6.750731 -0.26458,-6.706251 -0.0224,0.0061 -0.2607,-0.08549 -0.25601,0.07775 0.0548,1.909217 0.22011,13.360906 0.20401,13.702416 -0.002,0.04197 0.3963,0.13076 0.40192,-0.05548 0.0379,-1.255041 -0.0582,-4.506516 -0.0853,-7.01843 z m -4.42303,-2.850995 c 1.53372,-1.687063 2.82817,-3.156419 3.40807,-3.621409 0.14193,-0.113809 0.0961,-0.406907 0.0943,-0.448718 -0.0262,-0.204376 -1.05812,0.913605 -2.48874,2.441224 -4.06232,4.337741 -5.9047,6.387374 -5.81077,6.058209 0.048,-0.168401 2.49195,-3.018983 4.20182,-4.862603 1.70987,-1.84362 3.10885,-3.462008 3.10885,-3.59642 0,-0.134411 -0.2798,-0.244384 -0.62178,-0.244384 -0.89879,0 -4.30021,4.041379 -6.12386,7.276042 -0.64952,1.152086 -0.67214,1.25783 -0.1751,0.818888 0.94489,-0.834439 0.57138,-0.135428 -0.3553,0.900903 -0.50932,0.493655 -0.92328,1.023027 -0.91991,1.176382 0.007,0.306975 0.61975,-0.32929 5.68241,-5.898114 z m 7.34189,1.769942 c -0.10223,-0.390909 -0.0528,-0.510946 0.15706,-0.38126 0.17016,0.105165 0.31798,0.03537 0.33263,-0.157064 0.0145,-0.190489 0.10709,-0.05752 0.20574,0.295498 0.18198,0.651206 0.82622,1.09631 0.82622,0.570832 0,-0.157648 -0.0893,-0.286415 -0.19844,-0.28615 -0.10914,2.65e-4 -0.15717,-0.732307 -0.10675,-1.627938 0.0608,-1.0794 0.17091,-1.503281 0.32668,-1.257252 0.18816,0.297198 0.2358,0.277389 0.23904,-0.0994 0.006,-0.753048 1.41389,-3.315951 3.15552,-5.746251 0.88607,-1.236437 1.61104,-2.350673 1.61104,-2.476079 0,-0.125406 -0.28404,-0.156723 -0.63119,-0.06959 -0.39942,0.100248 -0.75135,0.01363 -0.95844,-0.2359 -0.17999,-0.216875 -0.64009,-0.384918 -1.02246,-0.37343 -0.41455,0.01246 -0.53498,0.0812 -0.29833,0.170281 0.21828,0.08217 0.67306,0.251568 1.01062,0.376448 0.54524,0.20171 0.5695,0.271307 0.21734,0.623469 -0.5721,0.572098 -1.19507,0.491177 -2.34301,-0.304349 -0.55616,-0.38542 -1.06319,-0.648778 -1.12673,-0.58524 -0.0635,0.06354 -0.19242,1.063491 -0.28642,2.222118 -0.23178,2.857089 -0.6638,4.582373 -1.87137,7.473382 -0.46367,1.110048 -0.45703,1.380086 0.0339,1.380086 0.60378,0 0.47358,0.515389 -0.19843,0.785505 -0.54559,0.219298 -0.52556,0.240687 0.23981,0.256057 0.72821,0.01462 0.81602,-0.05627 0.68593,-0.553769 z m -0.89604,-2.472168 c 0.19825,-0.727604 0.38576,-2.037292 0.41672,-2.910416 0.0309,-0.873125 0.14955,-1.914922 0.26355,-2.315105 0.20519,-0.720245 0.19466,-0.727604 -1.04133,-0.727604 h -1.24862 l 0.60257,0.487936 c 1.05873,0.857307 0.71008,2.577737 -0.61168,3.018322 -0.1415,0.04717 -0.006,0.497946 0.30111,1.00173 0.55584,0.911773 0.74543,2.225575 0.35592,2.466306 -0.11245,0.0695 -0.20445,-0.336948 -0.20445,-0.90321 0,-0.566263 -0.14612,-1.175691 -0.32471,-1.354285 -0.25657,-0.256565 -0.32472,-0.01647 -0.32472,1.143964 0,1.432279 0.018,1.468017 0.7276,1.441979 0.64184,-0.02355 0.7701,-0.182644 1.08804,-1.349617 z m 3.47603,0.236276 c 0,-0.05719 -0.1786,-0.103984 -0.39688,-0.103984 -0.21828,0 -0.39687,0.115325 -0.39687,0.256279 0,0.140954 0.17859,0.187747 0.39687,0.103984 0.21828,-0.08376 0.39688,-0.199088 0.39688,-0.256279 z m 1.06699,-0.769921 c 0.42687,-0.220745 0.94241,-0.72676 1.14565,-1.124479 0.38292,-0.749382 1.49152,-4.894928 1.49152,-5.577494 0,-0.489295 -2.46578,3.003152 -3.47533,4.922326 -0.4169,0.792542 -0.758,1.607489 -0.758,1.810993 0,0.48227 0.62674,0.469962 1.59616,-0.03135 z m -3.22019,-3.479232 c 0.16561,-0.824635 0.29357,-1.806901 0.28434,-2.182813 -0.0155,-0.633234 -0.0331,-0.643005 -0.2395,-0.132919 -0.32869,0.812471 -0.74691,3.815068 -0.53139,3.815068 0.102,0 0.32094,-0.674702 0.48655,-1.499336 z m -2.24069,0.636382 c 0.15077,-0.23902 0.19192,-0.516791 0.0914,-0.617268 -0.25171,-0.251714 -0.98922,0.399301 -0.98922,0.873209 0,0.478923 0.52945,0.327987 0.89778,-0.255941 z m -2.35299,-0.459963 c 0.0899,-0.145521 0.0374,-0.264583 -0.11668,-0.264583 -0.1541,0 -0.28019,0.119062 -0.28019,0.264583 0,0.145521 0.0525,0.264583 0.11667,0.264583 0.0642,0 0.19026,-0.119062 0.2802,-0.264583 z m 1.55473,-0.142307 c 0.0899,-0.234304 -0.0152,-0.47262 -0.24768,-0.561853 -0.51769,-0.198655 -0.75393,0.04021 -0.55429,0.560457 0.20084,0.52339 0.6014,0.524086 0.80197,0.0014 z m -2.32329,-0.525324 c 0.0922,-0.367197 0.42185,-0.851617 0.73265,-1.07649 l 0.56508,-0.408859 -0.63492,0.0843 c -0.72238,0.09592 -1.76951,1.338484 -1.49807,1.777681 0.3015,0.48784 0.65872,0.326763 0.83526,-0.376634 z m 1.33789,-0.260773 c 0.60257,-0.602573 0.31683,-0.998593 -0.37227,-0.515932 -0.62636,0.438717 -0.78798,0.915169 -0.31045,0.915169 0.15591,0 0.46314,-0.179657 0.68272,-0.399237 z m 1.88561,0.09115 c -0.0565,-0.169447 -0.36406,-0.481626 -0.6835,-0.69373 -0.52278,-0.347108 -0.58081,-0.339933 -0.58081,0.07181 0,0.297924 0.1384,0.404344 0.39687,0.305159 0.24175,-0.09277 0.39688,-4.18e-4 0.39688,0.236276 0,0.213714 0.12898,0.388571 0.28663,0.388571 0.15765,0 0.24042,-0.138638 0.18393,-0.308086 z m 7.59923,-6.835664 c 0.1027,-0.166175 -0.40814,-0.251629 -1.37345,-0.229754 -1.36249,0.03088 -1.43184,0.05696 -0.61093,0.229754 1.38669,0.291884 1.80398,0.291884 1.98438,0 z m -0.92604,-0.79375 c -0.21829,-0.141065 -0.8136,-0.249936 -1.32292,-0.241936 -0.75667,0.01188 -0.82926,0.05614 -0.39688,0.241936 0.29105,0.125064 0.88636,0.233935 1.32292,0.241935 0.60619,0.01111 0.69997,-0.04606 0.39688,-0.241935 z m -8.20209,34.014571 c -0.007,-0.647514 -0.0213,-0.654775 0.11934,-0.653144 0.27593,0.0032 0.27649,0.0051 0.29319,0.5592 -0.0152,0.610547 -0.0181,0.615558 -0.17278,0.622848 -0.20321,-0.01555 -0.23432,-0.02506 -0.23975,-0.528904 z M 186.41807,52.98729 c 0.21828,-0.141064 0.51593,-0.25648 0.66145,-0.25648 0.14553,0 0.086,0.115416 -0.13229,0.25648 -0.21828,0.141064 -0.51593,0.25648 -0.66146,0.25648 -0.14552,0 -0.086,-0.115416 0.1323,-0.25648 z m 1.65364,-0.189509 c 0.40018,-0.06062 1.05503,-0.06062 1.45521,0 0.40018,0.06062 0.0728,0.110223 -0.7276,0.110223 -0.80037,0 -1.12779,-0.0496 -0.72761,-0.110223 z m 1.38906,-0.868824 c 0.0899,-0.145521 0.28259,-0.264584 0.42811,-0.264584 0.14552,0 0.191,0.119063 0.10106,0.264584 -0.0899,0.145521 -0.28258,0.264583 -0.4281,0.264583 -0.14552,0 -0.191,-0.119062 -0.10107,-0.264583 z m 7.96396,-3.862917 c -0.0942,-0.245385 -0.60278,-1.394357 -0.53001,-1.467118 0.0728,-0.07276 0.70044,0.957151 0.79461,1.202535 0.0942,0.245385 0.11167,0.505686 0.0389,0.578447 -0.0728,0.07276 -0.20933,-0.06848 -0.3035,-0.313864 z"
       id="path1"
       sodipodi:nodetypes="ssssscsscsssccssssssscssssccssscccccscsscsscscscsssscsscssscscsscsssssscsscssscccsscscsssscscssssccsscscscccsscssscssccccsssccccsscccssccssssccssssscscsccssscsscsccsssscscsssssssssccsssscccssscsscsscsscssssssscsssssccssccscccssscsssssssccsssscsscssssscsssssssssssccsscccsccsccscccscscscs" /></g></svg>
