<?xml version="1.0" encoding="UTF-8" standalone="no"?>
<!-- Created with Inkscape (http://www.inkscape.org/) -->

<svg
   width="18.670143mm"
   height="49.675354mm"
   viewBox="0 0 18.670143 49.675354"
   version="1.1"
   id="svg1"
   xml:space="preserve"
   inkscape:version="1.3 (0e150ed6c4, 2023-07-21)"
   sodipodi:docname="Hip (adduction).svg"
   xmlns:inkscape="http://www.inkscape.org/namespaces/inkscape"
   xmlns:sodipodi="http://sodipodi.sourceforge.net/DTD/sodipodi-0.dtd"
   xmlns="http://www.w3.org/2000/svg"
   xmlns:svg="http://www.w3.org/2000/svg"><sodipodi:namedview
     id="namedview1"
     pagecolor="#ffffff"
     bordercolor="#000000"
     borderopacity="0.25"
     inkscape:showpageshadow="2"
     inkscape:pageopacity="0.0"
     inkscape:pagecheckerboard="0"
     inkscape:deskcolor="#d1d1d1"
     inkscape:document-units="mm"
     inkscape:zoom="2.0485264"
     inkscape:cx="-127.89681"
     inkscape:cy="73.467443"
     inkscape:window-width="1920"
     inkscape:window-height="1009"
     inkscape:window-x="1919"
     inkscape:window-y="1072"
     inkscape:window-maximized="1"
     inkscape:current-layer="layer1" /><defs
     id="defs1" /><g
     inkscape:label="Layer 1"
     inkscape:groupmode="layer"
     id="layer1"
     transform="translate(-121.56933,-66.440584)"><path
       style="fill:#000000"
       d="m 135.17423,114.89053 c -0.4042,-0.71806 -0.94815,-1.98441 -1.20878,-2.81412 -0.26064,-0.82971 -1.13386,-2.55612 -1.94051,-3.83646 -2.3084,-3.664 -2.83132,-4.89749 -3.37721,-7.96633 -0.62795,-3.530145 -1.31411,-5.935824 -2.12929,-7.465266 l -0.63095,-1.183795 -0.009,1.941061 c -0.0746,1.839499 0.19205,1.950657 -0.4308,1.929645 l -1.01518,-0.03425 -0.002,-3.108854 c -0.002,-2.695047 -0.0738,-3.214507 -0.54294,-3.902604 -1.66251,-2.438306 -2.19488,-3.909781 -2.2974,-6.35 -0.0674,-1.603875 0.0283,-2.813125 0.29316,-3.704167 0.21626,-0.727604 0.64367,-2.156354 0.9498,-3.175 0.30613,-1.018646 0.71952,-2.804583 0.91864,-3.96875 0.34041,-1.990181 0.36346,-2.037613 0.38583,-0.79375 0.0131,0.727604 -0.14901,1.972224 -0.3602,2.765821 -0.21119,0.793598 -0.35861,1.450462 -0.32759,1.459697 0.41676,0.124084 4.15744,-0.226517 4.15744,-0.389662 0,-0.122859 -0.27683,-0.559937 -0.61518,-0.971285 -0.82382,-1.001551 -2.38609,-3.787947 -2.21804,-3.955995 0.0737,-0.07369 0.40714,0.352027 0.74099,0.946043 l 0.60701,1.08003 0.32425,-0.731908 c 0.27255,-0.615222 0.32767,-0.645435 0.34573,-0.189512 0.0118,0.298318 -0.11476,0.678649 -0.28129,0.84518 -0.22732,0.227323 0.0193,0.774198 0.98964,2.194311 0.71083,1.04034 1.50193,2.003651 1.75799,2.140692 0.74061,0.396362 0.54037,-0.144504 -0.34583,-0.934111 -0.67183,-0.598605 -0.75485,-0.791098 -0.48265,-1.119078 0.2196,-0.264612 0.55485,-0.338561 1.00983,-0.22275 1.44216,0.367087 3.21606,0.569216 3.33312,0.379797 0.14125,-0.228541 -0.51915,-0.409636 -2.38744,-0.65469 -1.90238,-0.249524 -2.24896,-0.378916 -2.24896,-0.83962 0,-0.35324 0.31295,-0.384271 2.24896,-0.223002 1.39762,0.116421 2.24896,0.09071 2.24896,-0.06793 0,-0.280628 -1.24124,-0.585991 -2.38193,-0.585991 -0.78716,0 -1.47326,-0.59992 -1.19711,-1.046743 0.0939,-0.151896 0.43155,-0.277929 0.75038,-0.280074 0.55584,-0.0037 0.55248,-0.0182 -0.0818,-0.351387 -0.88982,-0.467455 -1.2414,-0.296526 -1.59522,0.775559 -0.41487,1.257059 -0.77452,1.134942 -0.43239,-0.146817 0.20906,-0.783258 0.19252,-1.391249 -0.0652,-2.396889 -0.18994,-0.741084 -0.28168,-1.411085 -0.20387,-1.48889 0.14173,-0.14173 0.70495,1.615156 0.70772,2.207647 0.004,0.820195 0.5861,0.52543 1.03618,-0.52456 0.27569,-0.643151 0.70848,-1.248888 0.96177,-1.346083 0.66128,-0.253758 0.79214,0.0053 0.17069,0.337882 -0.2882,0.154239 -0.64738,0.634353 -0.79817,1.06692 -0.2615,0.750141 -0.2179,0.823759 0.94357,1.593085 0.67446,0.446742 1.56993,0.8066 2.00714,0.8066 0.7695,0 0.77747,-0.01318 0.31616,-0.522927 -0.26029,-0.287611 -0.5764,-0.459178 -0.70247,-0.381261 -0.37138,0.229526 -0.26319,-0.10843 0.21261,-0.664124 0.43778,-0.511291 0.44805,-0.511144 1.11815,0.01596 0.89699,0.70557 1.02117,0.224069 0.26483,-1.026843 l -0.60021,-0.992681 0.58061,0.506096 c 0.31933,0.278352 0.71723,0.962111 0.88422,1.519463 0.24786,0.827288 0.37196,0.956647 0.67581,0.704471 0.30861,-0.256123 0.34309,-0.192927 0.20183,0.369901 -0.10314,0.410942 -0.0463,0.755441 0.1439,0.873027 0.23712,0.146548 0.22843,0.247281 -0.0354,0.410334 -0.24345,0.150457 -0.4496,-0.02157 -0.67864,-0.566297 -0.18094,-0.430321 -0.54232,-0.858204 -0.80306,-0.950852 -0.26075,-0.09265 -0.68245,-0.347401 -0.93711,-0.566117 -0.58275,-0.500492 -0.60794,-0.120578 -0.0341,0.513557 0.54874,0.606349 0.29241,1.286324 -0.4868,1.291359 -0.59853,0.0039 -0.59804,0.0067 0.0578,0.338543 0.97364,0.49258 0.84143,1.094791 -0.26459,1.205244 l -0.92604,0.09248 0.92604,0.304396 c 1.12442,0.369603 1.23105,1.063177 0.18195,1.183457 -0.58096,0.06661 -0.68076,0.161627 -0.45521,0.433396 0.38557,0.464587 1.67641,0.163568 3.24794,-0.757406 0.97806,-0.573185 2.01442,-1.615483 3.29225,-3.311127 0.0457,-0.06063 0.14451,-0.04881 0.21959,0.02627 0.22195,0.221946 -1.8832,2.716268 -2.6296,3.115729 -0.67492,0.361206 -0.68368,0.402835 -0.51365,2.441638 0.32961,3.95234 -1.28922,7.239172 -4.27805,8.686039 -0.84951,0.411242 -1.16495,0.707844 -1.08042,1.015898 0.0657,0.239294 0.60466,2.182511 1.19778,4.31826 0.59312,2.13575 1.21068,5.052781 1.37237,6.482292 0.16168,1.429511 0.46328,2.920439 0.67022,3.313178 0.68131,1.293 1.17383,2.9428 1.95897,6.56198 0.97438,4.49149 1.53682,5.74287 3.03778,6.75875 1.50092,1.01586 2.18702,2.50166 1.15519,2.50166 -0.14552,0 -0.19034,-0.12012 -0.0996,-0.26695 0.43062,-0.69675 -0.74501,-1.91891 -2.59815,-2.70099 -0.26401,-0.11142 -0.40684,-0.32098 -0.3174,-0.4657 0.0894,-0.14471 -0.16989,-0.83033 -0.57627,-1.52359 -0.48323,-0.82436 -0.75058,-1.67242 -0.77271,-2.4511 -0.0462,-1.62658 -1.27674,-6.4322 -2.06386,-8.06015 -0.0527,-0.10897 -0.30269,-1.085927 -0.45042,-0.674659 -0.0693,0.192954 -0.28178,0.321039 -0.24231,0.201636 0.31314,-0.947299 -0.0355,-1.853281 -0.10809,-2.71162 -0.22724,-2.68872 -0.3643,-3.361324 -1.402,-6.879167 -0.51512,-1.74625 -1.03428,-3.755594 -1.15369,-4.46521 -0.11942,-0.709615 -0.26332,-1.336406 -0.31978,-1.392869 -0.0565,-0.05646 -0.35367,0.683436 -0.66045,1.64422 l -0.55779,1.746881 0.62536,2.027239 c 1.33491,4.32743 1.54343,4.933579 1.40778,5.018647 -0.0799,0.05013 -0.72561,0.291625 -0.79468,0.313149 -0.22235,0.06929 -0.37928,-0.380579 -0.85243,-1.867235 -0.53088,-1.668055 -0.55876,-1.700256 -1.40155,-1.618996 -1.01182,0.09756 -1.01928,0.125922 -0.3275,1.245237 0.65243,1.055663 1.49244,4.19604 2.00146,7.482547 0.41674,2.69064 0.78654,3.54654 3.38056,7.82426 0.94207,1.55354 1.86476,3.41734 2.05043,4.14177 0.21527,0.83998 0.41378,1.19713 0.54793,0.98584 0.14916,-0.23492 0.21155,-0.19278 0.21442,0.14485 0.002,0.26189 0.18988,0.8355 0.417,1.27471 0.71353,1.37982 0.25253,1.45432 -0.51892,0.0838 z M 124.94564,90.789984 c -0.23349,-0.783758 -0.0963,2.733156 -0.0939,3.894352 9.1e-4,0.438772 0.57595,0.336085 0.56819,0.0041 0.0569,-0.541857 -0.0633,-2.662653 -0.11889,-3.284963 z m 4.63686,2.340473 c -0.20373,-0.77227 -0.49419,-1.767892 -0.59546,-1.861982 -0.068,-0.06322 -0.38095,0.237873 -0.34617,0.354837 0.19639,0.660437 0.74111,2.349342 0.94813,3.004432 0.0858,0.271498 0.48669,-0.03077 0.43285,-0.165891 -0.0819,-0.205441 -0.35641,-1.016953 -0.43935,-1.331396 z m -3.41698,-2.257096 c -0.4665,-0.34112 -0.46671,-0.361172 -0.006,-0.538128 0.26344,-0.101093 0.54804,-0.08805 0.63243,0.02898 0.21816,0.302525 1.61231,0.889218 1.56442,0.658346 -0.0219,-0.105462 0.0473,-0.389362 0.15366,-0.63089 0.11146,-0.253018 0.006,-0.800674 -0.24766,-1.292151 -0.41296,-0.798564 -0.41186,-0.947857 0.0172,-2.338984 0.2521,-0.817286 0.54398,-1.605037 0.64862,-1.750558 0.10464,-0.14552 0.50638,-1.104207 0.89276,-2.130413 0.38637,-1.026207 1.12596,-2.514488 1.64353,-3.307292 0.92539,-1.417509 2.22775,-3.801831 2.22775,-4.078499 0,-0.327823 -1.28828,-0.101429 -2.25916,0.397013 -1.23747,0.635306 -2.02596,0.51252 -2.92277,-0.455144 l -0.6389,-0.689393 -0.0268,1.030823 c -0.0805,3.092823 -0.65461,6.429734 -1.45543,8.459915 -0.65616,1.66344 -0.86265,2.73423 -0.38014,1.971278 0.13538,-0.214067 0.31075,-0.324603 0.38972,-0.245637 0.079,0.07897 -0.15268,0.545135 -0.51478,1.035929 -0.51809,0.702231 -0.65836,1.21023 -0.65836,2.384351 0,1.641009 0.0981,1.844778 0.88842,1.844778 0.51237,0 0.51459,-0.01539 0.0511,-0.354323 z M 123.99503,79.67936 c -0.25875,-0.08835 -0.15291,-0.148542 -0.60964,-0.360276 -0.0712,-0.0475 -0.20692,-0.211811 -0.33541,-0.399529 -0.10208,-0.149129 -0.39128,-0.780721 -0.21989,-1.565806 0.0925,-0.423665 0.62659,-1.264241 0.70012,-1.2547 l -0.57471,-0.07457 -0.17811,0.450359 -0.383,1.193885 -0.16807,0.62792 c -0.19657,0.734451 -0.19663,2.636426 -6e-5,2.149274 0.041,-0.101548 0.46741,-0.552741 0.77717,-0.729829 0.24512,-0.140126 0.7826,-0.200214 0.83772,-0.200214 0.0588,0 -0.60037,0.314835 -0.82264,0.53272 -0.24951,0.244585 -0.47428,0.582554 -0.58466,0.794198 -0.81616,1.56458 -0.41416,3.802707 1.15244,6.416146 l 0.7137,1.190625 0.0735,-3.957126 c 0.0399,-2.144421 0.0578,-3.977668 0.0445,-4.652051 -0.003,-0.176933 -0.19979,-0.08481 -0.42299,-0.161022 z m 1.21745,3.612268 c -0.019,-2.495692 -0.14071,-4.298888 -0.29654,-4.395194 -0.17319,-0.107041 -0.23366,1.35082 -0.1755,4.231437 0.0319,1.582115 -0.10386,4.856021 -0.10418,5.634006 -1.8e-4,0.431498 0.42014,-1.237757 0.43782,-1.27306 0.13142,-0.262321 0.15617,-1.86965 0.1384,-4.197189 z m 5.7021,1.321472 c -0.0899,-0.14552 -0.34212,-0.264583 -0.5604,-0.264583 -0.21828,0 -0.32329,0.119063 -0.23335,0.264583 0.0899,0.145521 0.34211,0.264584 0.56039,0.264584 0.21828,0 0.32329,-0.119063 0.23336,-0.264584 z m -4.67929,-1.223152 c -0.0914,-0.464135 -0.67903,-2.104739 -0.74799,-2.414253 -0.0333,-0.149569 0.0492,1.262406 0.0779,2.248343 0.0222,0.763984 0.13362,1.389062 0.2475,1.389062 0.11387,0 0.44892,-1.089249 0.42255,-1.223152 z m 6.80233,-0.140859 c 1.65579,-1.453798 2.09088,-2.623179 2.10123,-5.647447 0.01,-2.79543 -0.2486,-3.385187 -0.91502,-2.090269 -0.21721,0.422044 -0.95855,1.731752 -1.64743,2.910462 -1.40188,2.398693 -2.58137,4.831046 -2.58528,5.33137 -0.002,0.209412 0.38225,0.330729 1.04654,0.330729 0.79989,0 1.27502,-0.198333 1.99996,-0.834845 z m -6.91076,-2.529082 c -0.26085,-0.963684 -0.52493,-1.600232 -0.58682,-1.414558 -0.0619,0.185674 0.1009,1.126056 0.36176,2.089737 0.26085,0.963681 0.49925,1.69915 0.55256,1.591507 0.0216,-0.04353 0.18612,-0.24101 0.17625,-0.408611 -0.0261,-0.443821 -0.3144,-1.158554 -0.50375,-1.858075 z m 1.04602,-1.597011 c 0.31283,-1.89262 0.21088,-2.976562 -0.27997,-2.976562 -0.34984,0 -0.37924,0.07055 -0.13229,0.3175 0.43986,0.439867 0.39793,2.095806 -0.07,2.763872 -0.14615,0.208663 -0.47379,0.49152 -0.47842,0.585251 -0.009,0.180119 0.17466,0.678141 0.41723,1.309515 0.0675,0.175783 0.13862,0.364914 0.18555,0.372987 0.10075,0.01733 0.26774,-1.82686 0.35794,-2.372563 z m -3.03295,-0.647202 c -0.25104,-0.469065 -1.03056,-0.67448 -1.03056,-0.271565 0,0.113142 0.19384,0.482455 0.43075,0.820697 0.32479,0.463699 0.48296,0.530503 0.643,0.271565 0.11673,-0.188881 0.0973,-0.558194 -0.0432,-0.820697 z m 2.6736,-0.263263 c 0,-0.242367 -0.6283,-0.291268 -0.85316,-0.0664 -0.0812,0.08119 -0.0825,0.396448 -0.003,0.70058 0.13868,0.530312 0.15918,0.533033 0.50039,0.0664 0.19568,-0.267612 0.35578,-0.582873 0.35578,-0.70058 z m -1.4552,-0.364731 c 0,-0.276922 -0.20836,-0.54362 -0.46303,-0.592664 -0.46564,-0.08967 -0.67033,0.712459 -0.28112,1.101671 0.31259,0.312585 0.74415,0.01739 0.74415,-0.509007 z m -1.14198,-0.776443 c 0.41472,-0.910203 0.0182,-1.195824 -0.60059,-0.432591 -0.61093,0.753572 -0.64332,1.095168 -0.10385,1.095168 0.22141,0 0.5384,-0.29816 0.70444,-0.662577 z m 2.46352,0.400211 c 0.0892,-0.144301 -0.007,-0.558339 -0.41176,-0.959898 -0.31215,-0.309805 -0.64049,-0.396709 -0.86292,-0.399018 -0.21242,-0.0022 -0.32473,0.06923 -0.38013,0.243346 -0.18629,0.585561 0.18519,0.31578 0.55954,0.73885 0.16981,0.191903 0.20135,0.509928 0.41198,0.501856 0.10453,-0.004 0.59411,0.01917 0.68329,-0.125136 z m 0.77399,-2.026921 c 0.0791,-0.206198 -0.34979,-0.339511 -1.28437,-0.399209 -1.65636,-0.105802 -2.84952,0.07065 -2.97209,0.439538 -0.13014,0.391656 4.10609,0.351519 4.25646,-0.04033 z m 4.38676,-0.488838 c -0.20176,-0.243104 -0.75251,-0.389076 -1.42146,-0.376746 l -1.09208,0.02013 0.92604,0.356617 c 0.50932,0.196139 1.14898,0.365675 1.42146,0.376746 0.4109,0.01669 0.43922,-0.04758 0.16604,-0.376747 z m -1.45521,-0.926042 c -0.29104,-0.125065 -0.82682,-0.221672 -1.19063,-0.214683 -0.60019,0.01153 -0.58794,0.03141 0.1323,0.214683 1.10174,0.280347 1.71073,0.280347 1.05833,0 z m 0.26458,-1.5875 c -0.43656,-0.111086 -1.15094,-0.214238 -1.5875,-0.229227 -0.60358,-0.02072 -0.69867,0.03419 -0.39687,0.229227 0.21828,0.141064 0.93265,0.244217 1.5875,0.229228 1.08584,-0.02485 1.12076,-0.04503 0.39687,-0.229228 z m 0.52917,-1.729347 c -0.9373,-0.429182 -1.45521,-0.480711 -1.45521,-0.144785 0,0.331605 0.50891,0.509555 1.45521,0.508838 l 0.79375,-6.01e-4 z m 6.48229,45.25331 c 0,-0.4258 1.0254,-1.07681 1.45739,-0.92528 0.33909,0.11895 0.3946,0.23265 0.17869,0.36608 -0.17224,0.10645 -0.41975,0.12768 -0.55002,0.0472 -0.13027,-0.0805 -0.30513,0.0315 -0.38857,0.24897 -0.13879,0.36167 -0.69749,0.57239 -0.69749,0.26307 z m -12.85339,-2.4915 c -0.21518,-0.21334 -0.10826,-1.58013 0.13538,-1.73071 0.13562,-0.0838 0.28445,0.17705 0.33073,0.5797 l 0.0842,0.73209 3.17799,-0.0907 c 1.92806,-0.055 3.23553,0.0483 3.18587,-0.19391 -0.0315,-0.15356 -0.13298,-0.24303 -0.0448,-0.3378 0.0656,-0.0705 2.01528,0.20706 2.01528,0.49597 0,0.23176 -0.69336,0.47078 -1.75906,0.8484 -0.0125,0.004 -0.006,-0.3946 -0.1089,-0.40127 -0.57044,-0.0369 -2.04674,0.1613 -3.24637,0.17293 -2.01252,0.0195 -3.70916,-0.0141 -3.77031,-0.0748 z m -0.11119,-2.80017 c 0,-0.3638 0.11906,-0.66146 0.26458,-0.66146 0.14552,0 0.26458,0.29766 0.26458,0.66146 0,0.3638 -0.11906,0.66146 -0.26458,0.66146 -0.14552,0 -0.26458,-0.29766 -0.26458,-0.66146 z m 0,-1.71979 c 0,-0.43657 0.11906,-0.79375 0.26458,-0.79375 0.14552,0 0.26458,0.35718 0.26458,0.79375 0,0.43656 -0.11906,0.79375 -0.26458,0.79375 -0.14552,0 -0.26458,-0.35719 -0.26458,-0.79375 z m 0,-1.85209 c 0,-0.43656 0.11906,-0.79375 0.26458,-0.79375 0.14552,0 0.26458,0.35719 0.26458,0.79375 0,0.43657 -0.11906,0.79375 -0.26458,0.79375 -0.14552,0 -0.26458,-0.35718 -0.26458,-0.79375 z m 0,-1.83646 c 0,-0.44516 0.11906,-0.80937 0.26458,-0.80937 0.14552,0 0.26458,0.29063 0.26458,0.64584 0,0.35522 -0.11906,0.71943 -0.26458,0.80937 -0.15436,0.0954 -0.26458,-0.17364 -0.26458,-0.64584 z m 0,-1.99999 c 0,-0.36381 0.11906,-0.66146 0.26458,-0.66146 0.14552,0 0.26458,0.29765 0.26458,0.66146 0,0.3638 -0.11906,0.66145 -0.26458,0.66145 -0.14552,0 -0.26458,-0.29765 -0.26458,-0.66145 z m 0,-1.73541 c 0,-0.4722 0.11022,-0.74125 0.26458,-0.64584 0.14552,0.0899 0.26458,0.45415 0.26458,0.80936 0,0.35521 -0.11906,0.64584 -0.26458,0.64584 -0.14552,0 -0.26458,-0.36421 -0.26458,-0.80936 z m 0,-1.704178 c 0,-0.363802 0.11906,-0.661458 0.26458,-0.661458 0.14552,0 0.26458,0.297656 0.26458,0.661458 0,0.363798 -0.11906,0.661458 -0.26458,0.661458 -0.14552,0 -0.26458,-0.29766 -0.26458,-0.661458 z m 6.64196,-1.515345 c -0.0327,-0.9062 -0.003,-1.590809 0.0659,-1.521354 0.24362,0.245496 0.44958,3.168991 0.22325,3.168991 -0.12631,0 -0.25641,-0.741437 -0.28911,-1.647637 z m -6.64196,-1.013812 c 0,-1.001368 0.0993,-1.541735 0.26458,-1.439593 0.14552,0.08994 0.26458,0.811339 0.26458,1.603115 0,0.791776 -0.11906,1.439593 -0.26458,1.439593 -0.14728,0 -0.26458,-0.71076 -0.26458,-1.603115 z m 4.23333,-0.778135 c 0,-0.14552 0.11906,-0.264583 0.26458,-0.264583 0.14552,0 0.26459,0.119063 0.26459,0.264583 0,0.109408 0.13523,1.528684 0.64255,1.942728 0.11799,0.09629 -0.24411,0.0044 -0.42767,-0.182641 -0.43494,-0.443211 -0.74405,-1.614566 -0.74405,-1.760087 z m 2.97656,-29.026308 c -0.32742,-0.06306 -0.59531,-0.297713 -0.59531,-0.521442 0,-0.262229 0.14872,-0.349711 0.41852,-0.246182 0.23018,0.08833 0.58737,0.160599 0.79375,0.160599 0.20637,0 0.37523,0.178594 0.37523,0.396875 0,0.218282 -0.0893,0.380661 -0.19844,0.360844 -0.10914,-0.01982 -0.46633,-0.08763 -0.79375,-0.150694 z"
       id="path1"
       sodipodi:nodetypes="cssssccscccssssssssssscssssssssssssssscssssscssssssssssscsssscsssscccscssssssssscssssssssssssssssssscsssssssssscscccscccssssssccssccsssssssccssssssccccssscccssssscsccsscsssscsscsssccssscsscsssssssscssssssccssssssssssssssssssssssssssssssssssssssssssssssssscsssssssscssccsssscsscsssssssssssssssssssssscssscssssscssccsccssssssssssssssssssss" /></g></svg>
