<?xml version="1.0" encoding="UTF-8" standalone="no"?>
<!-- Created with Inkscape (http://www.inkscape.org/) -->

<svg
   width="99.105995mm"
   height="26.354956mm"
   viewBox="0 0 99.105994 26.354956"
   version="1.1"
   id="svg1"
   xml:space="preserve"
   inkscape:version="1.3 (0e150ed6c4, 2023-07-21)"
   sodipodi:docname="Hip (Backward Extension).svg"
   xmlns:inkscape="http://www.inkscape.org/namespaces/inkscape"
   xmlns:sodipodi="http://sodipodi.sourceforge.net/DTD/sodipodi-0.dtd"
   xmlns="http://www.w3.org/2000/svg"
   xmlns:svg="http://www.w3.org/2000/svg"><sodipodi:namedview
     id="namedview1"
     pagecolor="#ffffff"
     bordercolor="#000000"
     borderopacity="0.25"
     inkscape:showpageshadow="2"
     inkscape:pageopacity="0.0"
     inkscape:pagecheckerboard="0"
     inkscape:deskcolor="#d1d1d1"
     inkscape:document-units="mm"
     inkscape:zoom="1.4485269"
     inkscape:cx="165.68556"
     inkscape:cy="157.74646"
     inkscape:window-width="1920"
     inkscape:window-height="1009"
     inkscape:window-x="1919"
     inkscape:window-y="1072"
     inkscape:window-maximized="1"
     inkscape:current-layer="layer1" /><defs
     id="defs1" /><g
     inkscape:label="Layer 1"
     inkscape:groupmode="layer"
     id="layer1"
     transform="translate(-31.691711,-29.288959)"><path
       style="fill:#000000"
       d="m 35.0431,55.429161 c -0.09701,-0.09701 -0.176389,-0.394671 -0.176389,-0.661459 0,-0.416473 -0.224495,-0.485069 -1.5875,-0.485069 -0.881944,0 -1.5875,-0.117593 -1.5875,-0.264584 0,-0.14552 0.30974,-0.264583 0.688311,-0.264583 h 0.688312 l -0.225291,-1.918229 c -0.12391,-1.055026 -0.22529,-3.466042 -0.22529,-5.357813 0,-1.89177 0.03373,-3.716729 -0.05241,-3.703867 -0.04834,0.0072 -0.481596,0.0064 -0.443496,-0.119776 0.09732,-0.32224 0.32462,-0.938741 0.505133,-1.475797 0.431148,-1.282753 0.503689,-1.251176 0.674724,-0.653685 0.221327,0.773182 0.24501,1.655801 0.28912,2.021745 0.0185,0.153509 -0.500812,0.194691 -0.601413,0.200641 -0.108524,0.0064 -0.131046,7.176385 0.297603,9.353135 0.319462,1.622288 0.341936,1.653646 1.185155,1.653646 0.924974,0 1.050451,-0.190839 1.70026,-2.585934 0.269215,-0.992282 0.556307,-1.300035 2.344804,-2.513542 1.120916,-0.760548 3.053719,-2.424612 4.295118,-3.69792 1.241398,-1.273307 2.340043,-2.315104 2.441432,-2.315104 0.101388,0 0.871636,0.378604 1.711661,0.841343 3.727097,2.05312 2.47936,1.873398 11.3169,1.630073 9.729205,-0.267875 10.388588,-0.247171 13.483486,0.423364 3.088586,0.669168 6.378243,1.001998 6.143098,0.621527 -0.09231,-0.149357 -0.761825,-0.350354 -1.487816,-0.44666 -0.941699,-0.124921 -1.834345,-0.52117 -3.114792,-1.382668 -2.619322,-1.762307 -3.276541,-2.047681 -7.218767,-3.134496 -1.964532,-0.541592 -4.881563,-1.375596 -6.482292,-1.853342 -1.600729,-0.477746 -3.7854,-1.080549 -4.854825,-1.339563 -2.018645,-0.488913 -2.296132,-0.484884 -17.035581,0.247351 -0.980141,0.04869 -1.932641,0.21349 -2.116667,0.366218 -0.360137,0.298888 -0.453112,0.322686 -1.260635,0.322686 -0.293981,0 -0.529166,0.176389 -0.529166,0.396875 0,0.510763 0.372327,0.507784 0.799056,-0.0064 0.184076,-0.221798 0.396362,-0.341591 0.471747,-0.266206 0.07539,0.07538 -0.07563,0.372087 -0.335589,0.659339 -0.62089,0.686075 -1.464381,0.285129 -1.464381,-0.696081 0,-1.517274 0.594831,-2.689193 1.954328,-3.850355 1.90593,-1.627878 2.667287,-2.10542 4.924839,-3.088981 1.091406,-0.4755 2.579687,-1.261185 3.307291,-1.745969 2.128759,-1.418334 2.310546,-1.413755 3.909517,0.09849 0.770268,0.728488 1.75355,1.411456 2.185069,1.517708 0.431519,0.106251 3.403956,0.221469 6.605414,0.25604 3.201458,0.03457 6.384172,0.137018 7.072698,0.227659 1.802003,0.237228 5.010037,1.362542 7.64476,2.681631 3.896466,1.950786 4.782974,2.15025 10.417958,2.344031 3.471854,0.119394 6.254896,0.381338 8.995833,0.846701 5.387601,0.91472 7.709582,0.903415 11.377083,-0.05539 2.4618,-0.643594 3.42022,-0.760469 6.21771,-0.758222 3.62726,0.0029 5.46466,0.441995 7.66675,1.832114 2.65798,1.677905 4.32685,1.802118 10.48554,0.780434 2.25003,-0.373265 4.35475,-0.641156 4.67715,-0.595313 1.0276,0.146118 -8.59662,1.652332 -10.55039,1.651161 -1.61238,-9.66e-4 -2.12292,-0.127691 -3.63136,-0.901369 -0.96536,-0.495135 -1.79673,-0.847639 -1.84748,-0.783343 -0.19706,0.249643 -1.25941,5.349018 -1.13937,5.469058 0.07,0.06996 3.97038,0.108769 8.66761,0.08625 4.69723,-0.02252 8.46562,0.03384 8.37421,0.125252 -0.26861,0.26861 -1.99255,0.326244 -10.73026,0.35873 -5.31528,0.01976 -8.22257,-0.194414 -8.22257,-0.02433 0,0.02969 -0.11674,0.541284 0.0811,0.574113 0.94503,0.156841 4.313,0.01012 9.44236,0.01012 5.26301,0 9.51949,0.04856 9.45886,0.107915 -0.13922,0.136281 -8.99897,0.401777 -13.77761,0.412867 l -3.61319,0.0084 -0.1829,1.329885 c -0.1006,0.731437 -0.34551,1.946291 -0.54425,2.699676 -0.19874,0.753384 -0.31652,1.414619 -0.26173,1.469411 0.0548,0.05479 0.83393,-0.0885 1.73142,-0.318425 2.0987,-0.537663 2.68637,-0.523407 4.72148,0.114533 1.39814,0.43827 2.52079,0.533817 6.74688,0.574211 4.63241,0.04428 4.81864,0.06306 2.15924,0.217747 -1.60073,0.09311 -5.46733,0.05567 -8.59245,-0.0832 -3.98964,-0.177288 -6.1568,-0.166471 -7.27604,0.03632 -3.81936,0.692004 -7.53228,0.916413 -9.52439,0.575652 -1.06492,-0.18216 -2.05403,-0.258387 -2.19802,-0.169394 -0.143995,0.08899 -3.367898,0.148645 -7.031677,0.16744 -5.556266,0.0285 -6.579667,0.169084 -6.552667,0.240235 0.07707,0.203092 0.369386,0.732844 0.457715,0.951125 0.08833,0.218282 0.0549,0.396875 -0.07429,0.396875 -0.129186,0 -0.362593,-0.33834 -0.518682,-0.751867 -0.08886,-0.235417 -0.257782,-0.621485 -0.302685,-0.672538 -0.05843,-0.06643 -0.681976,-0.145506 -1.805843,-0.251623 -2.956122,-0.279121 -4.862798,-0.206888 -7.172016,0.271705 -1.861652,0.385834 -2.410263,0.403075 -3.836458,0.120571 -2.272272,-0.450098 -5.715051,-1.010903 -10.130838,-1.650244 -2.037291,-0.294971 -4.274772,-0.648288 -4.97218,-0.78515 -0.697408,-0.136862 -2.959612,-0.386355 -5.027122,-0.554429 l -3.759107,-0.305588 -3.307254,0.844362 c -6.424148,1.640126 -8.480136,2.481804 -9.129428,3.737397 -0.389901,0.753984 -1.343078,1.078332 -1.806644,0.614766 z m 2.009189,-1.551169 c 0.543882,-0.714491 3.558659,-1.773276 9.004845,-3.162489 l 3.649799,-0.930989 3.626243,0.408355 c 1.994434,0.224595 5.41218,0.68971 7.594993,1.033587 2.182812,0.343878 5.159375,0.763423 6.614583,0.932322 1.455208,0.1689 3.122083,0.432807 3.704167,0.586461 2.353024,0.621132 4.108663,0.669201 6.185743,0.169364 1.564446,-0.376474 2.609314,-0.45208 4.662173,-0.337354 1.455208,0.08133 2.902262,0.200043 3.215675,0.263815 0.228685,0.04653 0.464201,0.09735 0.496421,0.04574 0.03905,-0.06254 -0.07106,-0.512269 -0.270785,-1.317505 -0.189313,-0.763241 -0.361165,-1.715133 -0.451657,-2.115315 -0.09049,-0.400182 -0.06213,-0.447911 -0.230623,-0.522115 -0.128081,-0.05641 -1.543988,-0.702386 -2.820092,-1.309705 -2.201429,-1.047695 -2.431629,-1.101166 -4.49737,-1.044653 -1.532765,0.04193 -3.177341,-0.14943 -5.55625,-0.646525 -3.322166,-0.694197 -3.486001,-0.702736 -9.729069,-0.507071 -3.4925,0.109458 -7.763286,0.171076 -9.490636,0.136928 l -3.140636,-0.06209 -1.550228,-1.001961 c -2.647586,-1.711217 -2.71044,-1.702175 -5.000791,0.719408 -1.091406,1.153941 -2.846929,2.662635 -3.901161,3.352652 -2.110153,1.38114 -2.708683,2.053941 -2.722798,3.060667 -0.0052,0.367803 -0.179531,0.966389 -0.387499,1.330191 -0.409955,0.717141 -0.51651,1.908837 -0.199063,2.226284 0.108796,0.108797 0.317156,-0.0033 0.463021,-0.249149 0.145865,-0.245828 0.474813,-0.722315 0.730995,-1.058859 z m 34.760408,-1.844318 c -0.187783,-0.489353 0.0334,-0.489353 0.88943,0 l 0.661458,0.378124 -0.699297,0.0094 c -0.384613,0.0052 -0.767829,-0.169218 -0.851591,-0.3875 z m 26.289429,0.689232 c 2.085394,-0.212151 1.770889,-0.313223 -3.36042,-1.079937 -1.920991,-0.287032 -4.773121,-0.937071 -6.338067,-1.444531 -1.564946,-0.507461 -2.93737,-1.041839 -2.97309,-1.006119 -0.03572,0.03572 0.180246,1.013014 0.403183,1.990376 l 0.405341,1.777021 5.071631,-0.03093 c 2.789397,-0.01701 5.845537,-0.109656 6.791422,-0.205884 z m 5.245784,-3.589273 c -0.0604,-1.813304 -0.16812,-3.355278 -0.23945,-3.426609 -0.0713,-0.07133 -3.816546,-0.798723 -8.3227,-1.616424 -4.506155,-0.817702 -8.476958,-1.554854 -8.824007,-1.638114 -0.358545,-0.08602 -0.721734,-0.209026 -0.687014,-0.06696 0.03943,0.161334 0.05252,0.613615 0.127192,1.111552 0.06251,0.41682 0.235585,1.045468 0.195762,1.118188 -0.05551,0.10136 -0.397981,0.0487 -0.486109,0.03742 -0.126222,-0.01615 0.155697,3.167336 0.26296,4.048268 0.01787,0.146786 0.765019,0.357286 2.71198,1.01322 2.557703,0.861694 3.704349,1.110532 8.428095,1.829009 1.527969,0.232403 3.313907,0.511224 3.968751,0.619604 0.65484,0.108379 1.59195,0.212961 2.08246,0.232405 l 0.89183,0.03535 z m 8.6922,1.841708 c 0.19026,-0.727604 0.42026,-1.918229 0.51111,-2.645833 0.0909,-0.727604 0.21775,-1.412214 0.28199,-1.521354 0.0643,-0.109141 -0.21764,-0.197685 -0.62641,-0.196765 -0.54659,0.0012 -0.86162,0.209766 -1.19076,0.788228 -1.48718,2.613694 -5.11794,2.354198 -6.42477,-0.459172 -0.15643,-0.33677 -0.14211,-0.800023 -0.28123,-1.006565 -0.11637,-0.172763 -0.39495,-0.117914 -0.44638,-0.117914 -0.11291,0 -0.20528,1.491383 -0.20528,3.314183 v 3.314183 l 4.0179,-0.07304 4.0179,-0.07304 z m 5.31519,1.001573 c -0.39757,-0.06037 -1.11195,-0.06159 -1.5875,-0.0027 -0.47555,0.05889 -0.15026,0.108281 0.72287,0.109766 0.87312,0.0015 1.26221,-0.04669 0.86463,-0.107066 z m -9.62249,-3.662761 c -0.0113,-0.201583 4.2e-4,-0.902861 -0.0695,-1.021586 -0.15649,-0.265854 -0.54489,-0.344426 -0.73441,-0.585346 -0.16058,-0.20412 -0.20438,-0.527108 -0.33952,-0.55833 -0.31481,-0.07273 -0.68846,-0.08891 -1.0128,-0.152119 -0.74771,-0.145714 -0.8138,0.041 -0.77999,0.381434 0.0998,1.004318 1.56859,2.348177 2.37048,2.348177 0.55824,0 0.59935,0.185702 0.56571,-0.41223 z m 3.27212,-1.90321 -1.46384,0.07336 c -0.41801,0.02095 -0.32415,0.07902 -0.64232,0.344698 -0.30161,0.251843 -0.82403,0.313561 -0.78714,0.561996 0.0249,0.167705 0.0447,0.344481 0.0447,0.573736 0,0.238554 -0.16009,0.663203 -0.0187,0.707033 0.7811,0.242091 1.26943,-0.306326 1.81763,-0.717255 0.47328,-0.354772 0.89654,-0.820594 1.04968,-1.338084 z m -26.325615,-1.73209 c -0.0081,-0.175138 -0.417621,-0.08041 -0.617419,-0.131372 -0.10829,-0.02762 0.0472,-0.587207 0.369069,-1.262177 0.255571,-0.535939 0.429807,-0.998293 0.387189,-1.027452 -0.04262,-0.02916 -1.318288,-0.248778 -2.834824,-0.488042 -1.952367,-0.308025 -2.927398,-0.445439 -2.911721,-0.642642 0.0145,-0.182371 0.0629,-0.657865 0.09266,-0.909007 0.02709,-0.228585 1.896097,0.02151 8.903974,1.20912 4.718272,0.799597 9.412114,1.626281 10.430759,1.837076 1.018646,0.210795 2.477158,0.465595 3.241148,0.566223 l 1.38906,0.182959 -0.004,-0.752432 c -0.005,-0.997189 -0.33424,-1.470529 -0.877,-1.262253 -0.66744,0.25612 -0.52995,-0.129902 0.15345,-0.430833 0.54642,-0.240617 0.53605,-0.250488 -0.12636,-0.120213 -0.62162,0.122251 -0.74425,0.04056 -0.88449,-0.589227 -0.0896,-0.402136 -0.22304,-0.95127 -0.29664,-1.220297 -0.10854,-0.396732 -0.0289,-0.455845 0.42147,-0.3129 0.31339,0.09947 0.55529,0.06002 0.55529,-0.09056 0,-0.498061 -0.40596,-0.520249 -2.122707,-0.116019 -2.092856,0.492789 -5.422395,0.335253 -9.651254,-0.456644 -2.129451,-0.398762 -4.294856,-0.568988 -8.069791,-0.63438 -5.978015,-0.103555 -7.008119,-0.339188 -11.641963,-2.66306 -3.267863,-1.638834 -5.940481,-2.48764 -8.511446,-2.70318 -1.430278,-0.11991 -1.91767,-0.07031 -2.117227,0.215473 -0.197748,0.283189 -0.290876,0.293358 -0.392643,0.04287 -0.10269,-0.252756 -0.218994,-0.242782 -0.505089,0.04331 -0.288134,0.288135 -1.30559,0.399664 -1.30559,0.143114 0,-0.230062 -8.708347,-0.780546 -8.924729,-0.564163 -0.132051,0.13205 -0.737851,0.185751 -1.346223,0.119336 -1.577106,-0.172171 -2.48892,0.253696 -2.791787,1.303917 -0.138047,0.478693 -0.261733,0.713018 -0.274857,0.520723 -0.01312,-0.192296 -0.197397,-0.523163 -0.409495,-0.735261 -0.745263,-0.745263 0.05481,-1.413392 1.708549,-1.426783 0.363802,-0.0029 0.987697,-0.220488 1.386433,-0.483427 l 0.724974,-0.478069 -0.869862,-0.843104 c -0.478424,-0.463707 -1.102319,-0.842301 -1.386432,-0.84132 -0.284114,9.8e-4 -1.31236,0.514859 -2.284991,1.141951 -0.972631,0.627093 -2.589609,1.462352 -3.593283,1.85613 -2.424678,0.951289 -5.536287,3.568858 -5.778737,4.861227 -0.09233,0.492158 -0.119165,0.94354 -0.05964,1.00307 0.05953,0.05953 0.579838,-0.05357 1.15624,-0.251344 1.2952,-0.444397 3.698013,-0.605544 12.160502,-0.815552 l 6.614583,-0.16415 3.704166,1.086272 c 2.037292,0.597449 5.647589,1.620455 8.022883,2.273346 2.375294,0.652891 4.717067,1.353516 5.203941,1.556945 0.486874,0.203429 0.954467,0.300628 1.039096,0.215999 0.08463,-0.08463 0.153872,0.01911 0.153872,0.230538 0,0.634095 2.798885,2.289144 4.443958,2.62782 0.830042,0.170883 1.893792,0.424785 2.36389,0.564226 0.470098,0.139441 0.984035,0.17361 1.142083,0.07593 0.158048,-0.09768 0.428266,0.0133 0.600485,0.246624 0.291802,0.395332 3.928045,2.332283 4.428246,2.3593 0.12391,0.0067 0.0022,-0.576574 -0.10278,-1.6316 z m -8.603751,-1.000746 c -0.254661,-0.148327 -0.463021,-0.195733 -0.463021,-0.105348 0,0.09039 -0.178593,-0.01426 -0.396875,-0.232537 -0.920187,-0.920188 -0.170695,-0.954788 0.818754,-0.0378 0.765711,0.709638 0.776013,0.803706 0.04114,0.375683 z m -39.621353,-6.28471 c 0,-0.372334 0.297848,-0.543891 0.685806,-0.395018 0.203218,0.07798 0.303614,0.248372 0.223101,0.378645 -0.18467,0.298802 -0.908907,0.311849 -0.908907,0.01637 z M 68.499029,35.25132 c -0.22747,-0.140585 -0.254531,-0.27694 -0.07676,-0.386805 0.151002,-0.09332 0.354229,-0.04075 0.451617,0.116822 0.243009,0.393197 0.04974,0.532395 -0.374852,0.269983 z m -25.82711,-2.399937 c 0.08994,-0.145521 0.364854,-0.26276 0.610928,-0.260532 0.38557,0.0035 0.392554,0.0395 0.05053,0.260532 -0.518152,0.334856 -0.86841,0.334856 -0.661458,0 z m 66.001451,13.640605 c 0.17451,-0.210272 0.27839,-0.656756 0.23084,-0.992188 -0.11913,-0.840359 -1.3843,-1.001417 -1.79776,-0.228858 -0.59847,1.118241 0.76831,2.183317 1.56692,1.221046 z m -2.05892,-1.233736 c 0.0114,-0.117077 -5.85259,-1.285238 -20.021698,-3.695204 -5.064596,-0.861417 -6.754707,-1.037817 -7.163891,-1.093928 -0.109942,-0.01508 -0.112151,0.386922 -0.112151,0.45527 0,0.113494 1.220391,0.219495 2.711979,0.472348 3.611545,0.612224 3.093388,0.519375 13.030729,2.334991 8.490662,1.551298 11.038612,1.977511 11.447932,2.041701 0.10914,0.01712 0.0883,-0.322368 0.1071,-0.515178 z m 4.32904,-0.434473 c -0.23245,-0.936561 -1.06157,-1.818313 -2.02587,-2.154469 -0.73078,-0.254751 -0.76133,-0.232882 -0.76133,0.545059 0,0.186148 -0.0114,0.790545 -0.0112,0.977971 2.5e-4,0.170783 0.54573,0.152972 0.86549,0.455604 0.22587,0.213761 0.2258,0.645973 0.38513,0.772834 0.11484,0.09144 0.75905,0.087 0.97205,0.09658 0.6972,0.03137 0.74218,-0.02282 0.5757,-0.693577 z m 2.604,-2.116995 c 0.83027,-3.871581 0.84586,-3.810974 -1.11774,-4.344519 -2.29782,-0.624361 -5.44335,-0.760448 -7.86339,-0.340199 -1.11082,0.192897 -2.07807,0.409121 -2.14944,0.480497 -0.2687,0.268701 0.23046,1.20735 0.72562,1.36451 0.3779,0.11994 0.45657,0.282404 0.29483,0.608847 -0.12133,0.24489 -0.151,1.158455 -0.0659,2.030145 0.0869,0.890715 0.0624,1.277721 0.17646,1.567282 0.0433,0.109882 0.81408,0.259016 0.88446,0.16972 0.0786,-0.09969 0.76057,-0.97799 0.83491,-1.058301 0.44442,-0.480077 1.49212,-1.072967 2.4219,-1.072967 1.44085,0 2.81034,0.830118 3.37755,2.0473 0.31644,0.679064 0.55774,0.852759 1.19062,0.857063 0.78445,0.0053 0.79957,-0.02174 1.29016,-2.309378 z m -6.11056,1.719009 c 0.28246,-0.10839 0.1902,-0.324211 0.1902,-1.019384 0,-0.566515 0.0125,-0.881617 -0.0698,-0.881617 -0.22793,0 -0.9162,0.127843 -1.38856,0.413341 -0.66127,0.399678 -1.1875,1.077752 -1.1875,1.318052 0,0.177523 0.94885,0.392862 1.86503,0.499664 0.17,0.01982 0.36043,-0.241729 0.59061,-0.330056 z m 7.88516,6.587553 c 0.29761,-0.254533 1.83004,-0.391596 1.83004,-0.163682 0,0.141883 -0.43657,0.257969 -0.97014,0.257969 -0.53358,0 -0.92053,-0.04243 -0.8599,-0.09429 z m -0.0263,-1.10746 c -0.14319,-0.376632 -0.263,-0.825862 -0.26623,-0.99829 -0.003,-0.172428 -0.23872,-0.611161 -0.52329,-0.974963 -1.01989,-1.303855 -0.50054,-1.03942 1.07785,0.548803 0.88386,0.889365 1.56847,1.648748 1.52136,1.687517 -0.0471,0.03877 -0.41499,0.149515 -0.8175,0.246103 -0.62138,0.149111 -0.77112,0.07227 -0.99219,-0.50917 z"
       id="path1"
       sodipodi:nodetypes="csssscsssscssssssssssssssssssssssscsssscssssssssssssssscsssssssscssssssssssssssssssssssscssccsscsssssssssssssssscssscsscssssccssssssscsssccsssssssssssccscccssssscccssssscssssssscssssssccsssssssssccssscssssssssssssssscscscsssssccscssssssssssccsssssscssccsscssscsssssssssssssssssssssscssssscssssscccssssssssssssscsssssssss" /></g></svg>
