<?xml version="1.0" encoding="UTF-8" standalone="no"?>
<!-- Created with Inkscape (http://www.inkscape.org/) -->

<svg
   width="47.356091mm"
   height="36.059742mm"
   viewBox="0 0 47.356091 36.059742"
   version="1.1"
   id="svg1"
   xml:space="preserve"
   inkscape:version="1.3 (0e150ed6c4, 2023-07-21)"
   sodipodi:docname="Hip (Flexion).svg"
   xmlns:inkscape="http://www.inkscape.org/namespaces/inkscape"
   xmlns:sodipodi="http://sodipodi.sourceforge.net/DTD/sodipodi-0.dtd"
   xmlns="http://www.w3.org/2000/svg"
   xmlns:svg="http://www.w3.org/2000/svg"><sodipodi:namedview
     id="namedview1"
     pagecolor="#ffffff"
     bordercolor="#000000"
     borderopacity="0.25"
     inkscape:showpageshadow="2"
     inkscape:pageopacity="0.0"
     inkscape:pagecheckerboard="0"
     inkscape:deskcolor="#d1d1d1"
     inkscape:document-units="mm"
     inkscape:zoom="4.0970529"
     inkscape:cx="71.270742"
     inkscape:cy="81.644053"
     inkscape:window-width="1920"
     inkscape:window-height="1009"
     inkscape:window-x="1919"
     inkscape:window-y="1072"
     inkscape:window-maximized="1"
     inkscape:current-layer="layer1" /><defs
     id="defs1" /><g
     inkscape:label="Layer 1"
     inkscape:groupmode="layer"
     id="layer1"
     transform="translate(-38.225975,-81.781259)"><path
       style="fill:#000000"
       d="m 61.108109,117.69949 c -1.600729,-0.11771 -3.743854,-0.37 -4.7625,-0.56064 -2.303997,-0.4312 -3.226874,-0.4378 -6.879167,-0.0492 -3.549995,0.37768 -11.633072,0.64968 -10.715625,0.36059 0.363802,-0.11464 2.209271,-0.23067 4.101042,-0.25785 1.891771,-0.0272 5.046927,-0.23478 7.011458,-0.46134 1.964531,-0.22657 4.167188,-0.34303 4.894792,-0.25881 1.269348,0.14691 1.298811,0.13588 0.727604,-0.27249 -0.737301,-0.52713 -0.788595,-1.0123 -0.06615,-0.62565 0.669377,0.35824 0.663374,0.29029 -0.0918,-1.03923 l -0.620969,-1.09323 -0.02269,0.79811 c -0.02758,0.96988 -0.229982,1.33435 -0.74103,1.33435 -0.38681,0 -0.568312,-0.34244 -1.143307,-2.15704 -0.173477,-0.54747 -1.027837,-1.72071 -1.970821,-2.7064 l -1.664593,-1.73998 -2.62708,0.94224 c -5.828821,2.09057 -7.815448,2.7503 -8.253297,2.74077 -0.252559,-0.005 1.029083,-0.52104 2.848093,-1.14565 1.819011,-0.62462 3.818816,-1.36426 4.444013,-1.64366 l 1.136721,-0.50799 -1.304879,-1.36355 c -1.884749,-1.96949 -2.261226,-2.12246 -3.368324,-1.36861 -0.497153,0.33852 -0.904729,0.70479 -0.905723,0.81393 -0.0047,0.51217 -0.546483,0.0606 -1.791709,-1.49332 -1.329177,-1.65867 -1.343042,-1.69418 -0.708936,-1.81539 0.672504,-0.12856 0.930108,0.22842 0.273419,0.37889 -0.255102,0.0585 -0.01343,0.49879 0.763107,1.39041 l 1.136441,1.30486 3.880898,-3.11189 3.880898,-3.11188 -1.526596,-1.764853 c -0.839628,-0.970667 -2.073079,-2.37445 -2.741001,-3.119518 -1.645607,-1.835677 -6.160703,-7.779693 -6.017931,-7.922464 0.06308,-0.06308 0.481921,0.396656 0.930753,1.021643 2.265565,3.154744 7.720329,9.710699 8.079611,9.710699 0.06288,0 0.560719,-0.672328 1.10632,-1.494063 l 0.992002,-1.494062 -1.339857,-2.805417 c -2.499743,-5.234009 -2.931627,-7.586358 -1.698598,-9.251788 0.743073,-1.003654 3.286744,-1.980503 5.362704,-2.059443 1.672036,-0.06358 1.761079,-0.03299 3.206619,1.101784 0.817756,0.641949 1.547887,1.106122 1.622515,1.031494 0.07463,-0.07463 0.559016,0.102084 1.076419,0.392692 0.717434,0.402958 1.127286,0.474875 1.726661,0.302976 0.543939,-0.156 1.006374,-0.111032 1.501892,0.146046 0.393781,0.204296 0.880949,0.371447 1.082596,0.371447 0.201648,0 0.366632,0.115094 0.366632,0.255764 0,0.14067 0.435874,0.691639 0.96861,1.224374 0.858066,0.858066 0.930428,1.029748 0.634053,1.504319 -0.272904,0.43699 -0.268559,0.573209 0.02358,0.7392 0.196974,0.11192 1.23344,0.837929 2.303259,1.613354 3.479555,2.522048 3.959576,2.779089 6.580476,3.523712 2.321556,0.659576 2.863281,0.719391 5.281422,0.58315 3.189516,-0.179702 3.801611,-0.446514 5.566158,-2.426291 0.717898,-0.805464 1.385352,-1.384396 1.483231,-1.286517 0.243684,0.243685 0.2249,0.634113 -0.0266,0.552789 -0.112508,-0.03638 -0.856648,0.570281 -1.653646,1.348134 -1.356315,1.323737 -2.992679,2.336918 -3.541507,2.192782 -0.132185,-0.03472 -0.338721,0.09199 -0.458969,0.281576 -0.17612,0.27767 -0.219421,0.27374 -0.222684,-0.02021 -0.0032,-0.288853 -0.330873,-0.327928 -1.572191,-0.187489 -1.240366,0.140331 -2.107667,0.03719 -4.149368,-0.493467 -3.077514,-0.799869 -4.061417,-1.286187 -6.84388,-3.382752 -1.16069,-0.874572 -2.507499,-1.779519 -2.992909,-2.010995 l -0.882564,-0.420866 -1.240424,1.364162 c -0.682233,0.750289 -1.731755,1.604215 -2.332271,1.897613 -1.456662,0.711689 -1.58322,1.164242 -0.546053,1.952591 1.239204,0.941917 2.199353,1.388818 4.416025,2.055438 5.585829,1.679829 9.275943,3.507404 9.838905,4.872846 0.395977,0.96042 2.264401,3.0522 2.726294,3.0522 0.354517,0 2.094504,-1.83221 3.574384,-3.76384 0.509323,-0.664796 1.49936,-1.602114 2.200083,-2.082927 1.951654,-1.339162 3.091584,-2.725815 3.091584,-3.760718 0,-0.481091 0.172672,-1.105826 0.383715,-1.388301 0.370598,-0.496032 0.378588,-0.493239 0.233725,0.08172 -0.09481,0.376316 -0.03011,0.595313 0.175881,0.595313 0.240454,0 0.224837,0.156044 -0.05958,0.595312 -0.211998,0.327422 -0.462756,0.909469 -0.557239,1.293438 -0.19419,0.789168 -1.368123,1.87551 -3.156496,2.92098 -0.759799,0.444174 -1.770472,1.450318 -2.70779,2.695663 -0.822532,1.09283 -1.901437,2.29658 -2.397568,2.675 l -0.902055,0.68803 -0.961922,-0.87015 c -0.529057,-0.47858 -1.310813,-1.48563 -1.737236,-2.2379 -0.692684,-1.22198 -1.006538,-1.479942 -2.944896,-2.420414 -2.035819,-0.987759 -9.17574,-3.58137 -9.357832,-3.399278 -0.04575,0.04575 1.280614,1.359155 2.947466,2.918688 1.666853,1.559534 3.62841,3.639394 4.359016,4.621914 1.753332,2.35787 2.159237,2.49315 7.686976,2.56192 3.779701,0.047 9.349692,0.65788 9.762447,1.07064 0.230406,0.2304 -1.278012,0.10634 -3.573004,-0.29388 -1.625963,-0.28354 -4.013123,-0.40533 -7.77372,-0.39661 -6.840102,0.0159 -7.788814,0.12967 -8.176634,0.98084 -0.513601,1.12723 -0.369854,2.1902 0.332286,2.45715 0.344048,0.13081 0.989805,0.67975 1.435015,1.21987 l 0.599591,0.94167 7.175388,-0.26428 c 3.832093,-0.14114 7.739413,-0.36847 8.685298,-0.44649 1.086739,-0.0896 1.622399,-0.0497 1.455208,0.10862 -0.202344,0.19157 -13.340802,0.84912 -16.734895,0.83755 -0.35368,-0.001 -0.623452,-0.0427 -0.595313,0.39484 0.03115,0.48433 -0.248536,0.4776 1.551872,0.39688 1.477415,-0.0662 10.753586,-0.40922 14.256982,-0.62905 0.909505,-0.0571 1.653646,-0.0137 1.653646,0.0965 0,0.19074 -1.676927,0.29484 -12.54495,0.77875 -4.136803,0.18419 -4.784708,0.27254 -5.093229,0.69446 -0.570702,0.78048 -0.42438,1.23638 0.872738,2.71918 1.150081,1.31471 1.285626,1.39217 2.182812,1.24744 0.526123,-0.0849 1.531631,-0.205 2.234462,-0.26694 0.702832,-0.062 1.417207,-0.22241 1.5875,-0.35659 0.558324,-0.43991 1.764834,-0.53972 1.764834,-0.14599 0,0.44719 0.165868,0.44575 4.233333,-0.0367 3.725059,-0.44183 5.69355,-0.49682 3.704167,-0.10349 -4.438441,0.87756 -17.640484,1.46296 -23.415625,1.03829 z m 7.34621,-1.31661 c -1.101917,-1.44662 -1.273964,-1.5278 -1.947028,-0.91868 -1.313277,1.1885 -3.89158,0.47874 -4.830031,-1.32961 -0.623143,-1.20077 -0.628016,-2.25632 -0.0152,-3.29372 0.456976,-0.7736 0.456367,-0.77572 -0.801612,-2.79407 -1.063389,-1.70614 -1.320145,-1.96908 -1.653012,-1.69282 -0.216742,0.17988 -0.867876,0.39322 -1.446964,0.47409 l -1.052888,0.14704 1.737244,1.92699 1.737244,1.92699 v 1.60742 c 0,1.59572 -0.005,1.60618 -0.682569,1.43611 -0.570426,-0.14317 -0.659332,-0.0935 -0.541131,0.30204 0.07779,0.26035 0.28002,1.03891 0.449396,1.73014 0.169377,0.69122 0.323589,1.27136 0.342693,1.28919 0.08104,0.0756 5.759878,0.41164 7.64553,0.45237 l 2.054543,0.0444 z m -9.066002,0.49671 c 0,-0.53357 -0.556093,-1.32011 -0.818615,-1.15786 -0.144594,0.0894 -0.422372,0.0301 -0.617284,-0.13164 -0.267418,-0.22194 -0.392397,-0.19506 -0.509273,0.10952 -0.08519,0.22199 -0.324479,0.40362 -0.531758,0.40362 -0.20728,0 -0.450491,0.19185 -0.540471,0.42634 -0.110919,0.28905 -0.04841,0.38213 0.194123,0.28906 0.196748,-0.0755 0.52552,-0.031 0.730605,0.0988 0.523048,0.33112 2.092673,0.30275 2.092673,-0.0378 z m -2.508891,-2.29771 c -0.108283,-0.5457 -0.195507,-1.26781 -0.19383,-1.60468 0.0017,-0.33687 -0.06236,-0.54708 -0.142309,-0.46713 -0.184758,0.18476 -0.839557,-0.66437 -0.850722,-1.10319 -0.0046,-0.1819 0.08088,-0.33052 0.190023,-0.33026 0.248146,5.9e-4 1.653646,2.20171 1.653646,2.58974 0,0.15717 0.125898,0.6169 0.279774,1.02162 0.382157,1.00515 0.769077,0.37552 0.774508,-1.26034 0.0032,-0.96133 -0.164446,-1.43242 -0.789699,-2.2192 -0.436562,-0.54934 -0.78435,-1.19079 -0.772862,-1.42544 0.01756,-0.35875 0.04379,-0.36348 0.164774,-0.0298 0.07914,0.21828 0.474144,0.75407 0.877793,1.19063 0.403649,0.43656 0.813718,1.17391 0.911266,1.63855 0.256272,1.22068 0.935696,0.86665 0.935696,-0.48757 0,-0.8541 -0.202616,-1.26532 -1.126738,-2.2868 -0.619706,-0.68499 -1.512209,-1.74389 -1.98334,-2.35311 l -0.856603,-1.10768 0.858861,0.13688 c 0.914575,0.14575 2.31407,-0.25843 2.31407,-0.66833 0,-0.1355 -0.209841,-0.19149 -0.466313,-0.12442 -0.256472,0.0671 -1.309463,-0.22118 -2.33998,-0.64055 -1.770713,-0.72059 -1.940337,-0.74305 -3.086985,-0.4087 -1.403325,0.40919 -4.549392,3.29385 -4.091606,3.75164 0.14288,0.14288 0.394102,0.22906 0.55827,0.19153 0.164169,-0.0375 0.217947,-0.0212 0.119507,0.0362 -0.38665,0.22573 1.482793,2.5289 2.345111,2.8892 0.493851,0.20635 0.832068,0.48171 0.751592,0.61192 -0.08047,0.13022 -0.03398,0.51357 0.103315,0.85189 0.137298,0.33833 0.319673,0.94256 0.405277,1.34275 0.236631,1.1062 0.866483,0.90845 0.982536,-0.30848 0.05434,-0.56984 0.0073,-0.97953 -0.104501,-0.91042 -0.111818,0.0691 -0.213228,-0.0302 -0.225355,-0.2207 -0.01213,-0.19049 -0.05135,-0.60871 -0.08717,-0.92938 -0.108859,-0.97463 0.325076,-0.41378 1.281512,1.6563 0.608791,1.31764 1.058445,1.96945 1.358652,1.96945 0.377121,0 0.417299,-0.1583 0.251831,-0.99219 z m -4.201373,-3.63802 c -0.08376,-0.21828 -0.03697,-0.39688 0.103985,-0.39688 0.140953,0 0.256279,0.1786 0.256279,0.39688 0,0.21828 -0.04679,0.39687 -0.103984,0.39687 -0.05719,0 -0.172517,-0.17859 -0.25628,-0.39687 z m 1.831049,-0.80217 c -0.411151,-0.31097 -0.430806,-0.38846 -0.09854,-0.38846 0.228276,0 0.563267,0.1786 0.744425,0.39688 0.419055,0.50493 0.02605,0.49981 -0.645882,-0.008 z M 52.879373,105.93 c -0.296714,-0.21696 -0.207909,-0.27781 0.405444,-0.27781 0.431956,0 0.910391,0.12502 1.063188,0.27781 0.194027,0.19403 0.07175,0.27782 -0.405444,0.27782 -0.375791,0 -0.854226,-0.12502 -1.063188,-0.27782 z m 11.697092,9.00305 c -0.02268,-0.26746 0.0926,-0.79547 -0.186838,-0.89787 -0.607268,-0.22254 -1.157071,-0.76181 -1.238331,-1.19329 -0.04986,-0.26474 -0.769926,-0.0652 -0.956772,-0.0652 -0.74347,0 -0.719755,0.14178 -0.17309,1.19891 0.491869,0.95117 1.572174,1.55814 2.084646,1.5985 0.534214,0.0421 0.437436,-0.0646 0.470385,-0.64102 z m 2.051954,-0.0103 c 0.788348,-0.73061 1.354779,-1.97584 1.037959,-2.28182 -0.114548,-0.11063 -0.533462,-0.0616 -0.999088,-0.0685 -0.62641,-0.0812 -0.537059,0.42199 -0.625435,0.67413 -0.09825,0.28032 0.0039,0.43695 0.06171,0.67639 0.239827,0.99269 0.09908,1.14832 -0.217931,0.86994 -1.701035,-1.49379 -1.046136,-1.1712 -0.06966,-0.44071 0.09271,0.0694 0.07811,-0.20138 0.05085,-0.351 -0.07948,-0.43632 -0.05501,-0.38248 -0.474048,0.0327 -0.139789,0.13851 -0.34589,0.0595 -0.428251,0.26475 -0.06288,0.15671 -0.01761,0.59695 -0.01996,0.72744 -0.01615,0.89453 0.808809,0.70771 1.683852,-0.10326 z m -9.589054,-1.64393 c -0.311902,-0.53637 -0.387221,-0.36469 -0.131903,0.30065 0.09074,0.23646 0.220714,0.37419 0.288836,0.30607 0.06812,-0.0681 -0.0025,-0.34115 -0.156933,-0.60672 z m 8.381452,0.12567 c 0.174625,-0.17462 0.3175,-0.6486 0.3175,-1.05329 0,-1.32229 -2.131324,-1.34446 -2.329184,-0.0242 -0.156317,1.04303 1.277942,1.81127 2.011684,1.07752 z m -2.328333,-1.41968 c 0,-0.52726 -0.481674,-1.43782 -0.76059,-1.43782 -0.223548,0 -0.82691,1.16742 -0.82691,1.59995 0,0.13868 0.357187,0.25214 0.79375,0.25214 0.543979,0 0.79375,-0.13036 0.79375,-0.41427 z m 4.7625,0.004 c 0,-0.60252 -0.985869,-1.81392 -1.728867,-2.12437 -1.209943,-0.50555 -1.446133,-0.47556 -1.446133,0.18361 0,0.20206 0.0033,0.69016 0.0717,0.80123 0.08949,0.14533 0.632854,0.20813 1.001516,0.63966 0.182177,0.21324 0.218823,0.48045 0.398141,0.57287 0.229214,0.11814 0.603632,0.0289 0.843743,0.0384 0.472943,0.0187 0.859896,-0.0314 0.859896,-0.11141 z m -3.555664,-1.12988 c 0.264111,-0.16035 0.05523,-0.90909 0.03552,-1.16643 -0.01516,-0.19795 -0.166435,-0.0863 -0.324543,-0.0632 -0.112861,0.0166 -0.181207,0.0772 -0.133263,0.19294 0.128886,0.31116 0.410477,1.17872 0.36665,1.19267 -0.01293,0.004 -0.162172,0.13352 -0.235772,-0.0112 -0.481738,-0.94697 -2.979549,-4.99286 -5.329219,-9.056 -2.633903,-4.554635 -7.90824,-13.325336 -8.183531,-13.608398 -0.06133,-0.06306 -0.242462,0.0163 -0.402521,0.176364 -0.211634,0.211634 0.575107,1.722451 2.884168,5.538611 1.746352,2.886177 4.337192,7.271653 5.757429,9.745513 3.375617,5.87986 4.390073,7.23408 4.590129,7.533 0.07535,0.11259 0.405494,-0.12821 0.522893,-0.19948 z m -15.892514,-1.89919 c 0.382032,-0.14525 0.625891,-0.37527 0.54191,-0.51115 -0.08939,-0.14464 -0.44172,-0.0971 -0.849877,0.11464 -0.667707,0.34641 -0.757796,0.3037 -2.130742,-1.01021 -0.788457,-0.75454 -1.574036,-1.41186 -1.745732,-1.4607 -0.171695,-0.0488 0.420114,0.63577 1.315132,1.52135 1.737739,1.71943 1.80469,1.75084 2.869309,1.34607 z M 65.20915,108.4698 c 0,-1.23677 0.529816,-2.41206 1.150918,-2.55309 0.312881,-0.071 1.34278,-0.15962 2.288666,-0.19684 l 1.719791,-0.0677 -1.058333,-0.32925 c -1.111792,-0.34589 -4.581574,-0.39953 -6.959466,-0.1076 l -1.403217,0.17227 1.229056,1.91823 c 1.131281,1.76563 1.300795,1.91823 2.130821,1.91823 0.815082,0 0.901764,-0.0725 0.901764,-0.75427 z m -17.134843,-0.81288 c -0.05962,-0.53349 -0.012,-0.57192 0.343257,-0.27709 0.351217,0.29148 0.587436,0.17061 1.590572,-0.81389 0.647954,-0.63592 1.178098,-1.31002 1.178098,-1.498 0,-0.18799 0.135224,-0.34179 0.300498,-0.34179 0.165274,0 -0.311763,-0.60268 -1.060081,-1.33929 l -1.360579,-1.33928 -2.114919,1.91896 c -1.163206,1.05544 -2.114919,2.00291 -2.114919,2.10551 0,0.10259 0.565547,0.67279 1.256771,1.2671 1.378956,1.18562 2.091045,1.29982 1.981302,0.31777 z m -4.164115,-1.87244 c 0.08994,-0.14552 -0.02913,-0.26458 -0.264583,-0.26458 -0.235458,0 -0.35452,0.11906 -0.264584,0.26458 0.08994,0.14552 0.209,0.26459 0.264584,0.26459 0.05558,0 0.174646,-0.11907 0.264583,-0.26459 z m 2.904263,-2.09268 c 1.094791,-0.9327 1.990529,-1.7959 1.990529,-1.91823 -1.065553,-1.31748 0.226983,-0.28174 0.667181,0.23802 0.177733,0.20985 0.859795,0.94812 1.429793,1.50471 0.920135,0.89848 1.139167,0.99269 1.953073,0.84 0.879318,-0.16496 0.95212,-0.27017 1.784721,-2.57921 0.477405,-1.32398 0.864836,-2.541524 0.860957,-2.705651 -0.0039,-0.164128 -0.629827,-1.333247 -1.390997,-2.598042 l -1.383944,-2.299628 -1.248781,1.63817 c -1.678264,2.20157 -3.026,4.726681 -2.647608,4.960541 0.336638,0.20805 0.447425,0.10095 -2.608498,2.52181 -1.202975,0.95298 -2.114798,1.84988 -2.026274,1.99311 0.237658,0.38454 0.440777,0.26083 2.619848,-1.5956 z m 4.636362,-0.26967 c 0,-0.22169 0.721338,-1.07723 0.90825,-1.07723 0.04219,0 0.0198,0.29766 -0.04974,0.66146 -0.116881,0.61142 -0.858507,0.97059 -0.858507,0.41577 z m 6.724207,0.0473 c -0.54684,-0.98227 -1.302068,-2.28392 -1.678285,-2.89257 l -0.684031,-1.106638 -0.697887,1.954048 c -0.544065,1.52336 -0.631129,2.04494 -0.395008,2.36641 0.372732,0.50745 2.679911,1.4053 3.699088,1.4395 l 0.750376,0.0252 z m 8.128809,1.16943 2.285308,-0.045 -0.542257,-0.79375 c -0.690296,-1.01045 -8.521997,-8.825924 -9.608057,-9.588153 l -0.817198,-0.573534 -0.595391,1.905843 -0.595391,1.905842 2.187603,3.786292 2.187603,3.7863 1.606236,-0.16947 c 0.88343,-0.0932 2.634625,-0.18969 3.891544,-0.21442 z M 49.296711,98.591884 c 0.458805,-0.833562 0.756492,-1.690029 0.667772,-1.92123 -0.109013,-0.284083 -0.04282,-0.372173 0.20749,-0.276121 0.226293,0.08684 0.756656,-0.369147 1.379858,-1.186342 l 1.012284,-1.327395 -1.497049,-2.408715 c -1.53883,-2.475943 -1.720736,-3.233387 -0.804171,-3.348521 0.402349,-0.05054 0.803925,0.401685 1.703386,1.918229 0.647307,1.091399 1.252409,1.984361 1.344671,1.984361 0.09226,0 0.303565,-0.442534 0.469564,-0.983409 0.254943,-0.830679 0.231019,-1.082376 -0.154045,-1.62065 -1.053877,-1.473197 -1.378513,-2.048117 -1.368192,-2.423024 0.006,-0.218282 0.32707,0.198437 0.713468,0.926041 l 0.702541,1.322917 0.277327,-1.642445 c 0.216435,-1.281816 0.46658,-1.836936 1.139258,-2.528237 l 0.86193,-0.885792 -0.729639,-0.68058 c -1.119807,-1.044515 -1.748921,-1.274404 -3.487531,-1.274404 -1.6909,0 -3.940702,0.69318 -4.813538,1.483087 -0.874721,0.791611 -1.10757,2.292656 -0.639232,4.12076 0.493792,1.927456 2.6722,6.873466 3.345762,7.59645 0.432989,0.464759 0.438294,0.543853 0.05767,0.859746 -0.230556,0.191344 -0.817818,0.939824 -1.305028,1.663288 -0.827469,1.228722 -0.857327,1.346891 -0.453165,1.793485 0.237968,0.262947 0.456989,0.447597 0.486713,0.410327 0.02972,-0.0373 0.426579,-0.744594 0.8819,-1.571826 z m 34.467022,-2.001672 c 0.329107,-0.419643 0.319749,-0.429002 -0.0999,-0.09989 -0.440729,0.345643 -0.580887,0.562915 -0.363126,0.562915 0.05494,0 0.263301,-0.208359 0.463021,-0.463021 z M 56.855409,95.128505 c 0.255735,-0.694799 0.496057,-1.409174 0.53405,-1.5875 0.03799,-0.178327 0.272559,-0.784613 0.521257,-1.347303 0.248699,-0.56269 0.386606,-1.193952 0.306462,-1.402805 -0.08791,-0.229099 -0.03208,-0.3095 0.140752,-0.202684 0.157558,0.09738 0.234683,0.447945 0.17139,0.779043 -0.105955,0.554269 -0.05685,0.581696 0.61938,0.345961 0.750059,-0.261472 1.18362,-0.632957 2.98243,-2.555417 0.807443,-0.862946 0.937249,-1.126258 0.615988,-1.249537 -0.223869,-0.08591 -0.672517,-0.01411 -0.996995,0.159543 -0.517416,0.276913 -0.568267,0.259205 -0.41354,-0.144007 0.196234,-0.511377 -0.904897,-1.718482 -1.567612,-1.718482 -0.212208,0 -0.579556,-0.226252 -0.816327,-0.502781 -0.360463,-0.420989 -0.56449,-0.459185 -1.254182,-0.234793 -0.453027,0.147393 -1.032046,0.505897 -1.286707,0.796676 -0.351266,0.401083 -0.463021,0.433271 -0.463021,0.13336 0,-0.498731 -0.955603,-0.76855 -1.28769,-0.363586 -0.39121,0.477062 -0.700149,3.461255 -0.334962,3.235557 0.43148,-0.26667 0.372949,0.159619 -0.250832,1.826822 l -0.550567,1.471522 1.247435,2.127785 c 0.686089,1.170282 1.330884,2.03061 1.432877,1.911841 0.101993,-0.11877 0.39468,-0.784417 0.650414,-1.479215 z M 56.4779,89.512608 c -0.269761,-0.325042 -0.251681,-0.396875 0.0999,-0.396875 0.2361,0 0.429272,0.178594 0.429272,0.396875 0,0.218282 -0.04495,0.396875 -0.09989,0.396875 -0.05494,0 -0.248114,-0.178593 -0.429272,-0.396875 z m 7.000971,-2.157053 c -0.52217,-0.38182 -0.915554,-0.462262 -0.915554,-0.187219 0,0.301868 0.913098,0.846533 1.161643,0.692923 0.132791,-0.08207 0.02205,-0.309636 -0.246089,-0.505704 z m -0.976188,-0.836046 c 0.0576,-0.172806 -0.08378,-0.314192 -0.314192,-0.314192 -0.230408,0 -0.418924,0.188515 -0.418924,0.418923 0,0.467235 0.569584,0.385866 0.733116,-0.104731 z M 62.03415,85.67615 c 0,-0.145521 -0.238125,-0.264583 -0.529166,-0.264583 -0.291042,0 -0.529167,0.119062 -0.529167,0.264583 0,0.145521 0.238125,0.264583 0.529167,0.264583 0.291041,0 0.529166,-0.119062 0.529166,-0.264583 z m -5.300975,-0.511773 c 0.400563,-0.748459 0.342355,-0.868169 -0.32142,-0.661021 -0.657702,0.205252 -1.028089,0.63607 -0.826823,0.961724 0.237657,0.384537 0.870162,0.218897 1.148243,-0.300703 z m 4.097121,-0.03612 c 0.156166,-0.152753 -0.02509,-0.245861 -0.478635,-0.245861 -0.489975,0 -0.667089,0.101776 -0.53868,0.309546 0.128635,0.208136 0.04707,0.254197 -0.248969,0.140596 -0.2427,-0.09313 -0.440278,-0.04107 -0.440278,0.116011 0,0.321954 1.299265,0.0781 1.706562,-0.320292 z m -2.976562,-0.298778 c -0.246945,-0.246944 -0.388056,-0.246944 -0.635,0 -0.246945,0.246945 -0.176389,0.3175 0.3175,0.3175 0.493889,0 0.564444,-0.07055 0.3175,-0.3175 z M 76.850817,116.6524 c 0,-0.12538 0.178594,-0.2965 0.396875,-0.38026 0.218281,-0.0838 0.396875,-0.0497 0.396875,0.0757 0,0.12539 -0.178594,0.29651 -0.396875,0.38027 -0.218281,0.0838 -0.396875,0.0497 -0.396875,-0.0757 z m 2.910417,-0.78252 c 0,-0.14552 0.119062,-0.33817 0.264583,-0.42811 0.145521,-0.0899 0.264583,-0.0445 0.264583,0.10107 0,0.14552 -0.119062,0.33816 -0.264583,0.4281 -0.145521,0.0899 -0.264583,0.0445 -0.264583,-0.10106 z M 73.297841,97.960376 c -0.586363,-0.586362 -0.518193,-0.67788 0.245684,-0.329834 0.363803,0.165759 0.661459,0.401332 0.661459,0.523494 0,0.354887 -0.45593,0.257553 -0.907143,-0.19366 z"
       id="path1"
       sodipodi:nodetypes="cscsccccsscssssccccccssccccscccsssssscssssssssssssssssssssssssssscssssssssssssssssscsssssccsscssscscccsscssssccsssccccsssssscccsscsccccsccsssscssccscssscssssssssccscsssccscssscscssccssssscssccsscsscsssssccscssssssssccsccscssccssssssssssscssssssssscscsssssccccsccscsscssccssssscccsssssssscsscsscscsssccssssssscscccsccsscccccccccssscsssssscscsscsssssssscccsssssssssssssssssssssssscssscsssccssssssssssssssssssssssscsccscccssscscsssssss" /></g></svg>
