<?xml version="1.0" encoding="UTF-8" standalone="no"?>
<!-- Created with Inkscape (http://www.inkscape.org/) -->

<svg
   width="83.639427mm"
   height="30.599857mm"
   viewBox="0 0 83.639428 30.599857"
   version="1.1"
   id="svg1"
   xml:space="preserve"
   inkscape:version="1.3 (0e150ed6c4, 2023-07-21)"
   sodipodi:docname="Knee (Flexion).svg"
   xmlns:inkscape="http://www.inkscape.org/namespaces/inkscape"
   xmlns:sodipodi="http://sodipodi.sourceforge.net/DTD/sodipodi-0.dtd"
   xmlns="http://www.w3.org/2000/svg"
   xmlns:svg="http://www.w3.org/2000/svg"><sodipodi:namedview
     id="namedview1"
     pagecolor="#ffffff"
     bordercolor="#000000"
     borderopacity="0.25"
     inkscape:showpageshadow="2"
     inkscape:pageopacity="0.0"
     inkscape:pagecheckerboard="0"
     inkscape:deskcolor="#d1d1d1"
     inkscape:document-units="mm"
     inkscape:zoom="2.8970539"
     inkscape:cx="134.9647"
     inkscape:cy="40.558445"
     inkscape:window-width="1920"
     inkscape:window-height="1009"
     inkscape:window-x="1919"
     inkscape:window-y="1072"
     inkscape:window-maximized="1"
     inkscape:current-layer="layer1" /><defs
     id="defs1" /><g
     inkscape:label="Layer 1"
     inkscape:groupmode="layer"
     id="layer1"
     transform="translate(-29.501165,-55.864812)"><path
       style="fill:#000000"
       d="M 42.295841,86.106207 C 41.83008,85.91037 41.30895,85.85856 41.05358,85.982704 c -0.241953,0.117622 -2.940227,0.146011 -5.996164,0.06309 l -5.556251,-0.150769 0.0425,-1.5875 c 0.0702,-2.622331 1.070673,-4.595719 3.839752,-7.573754 0.519647,-0.558859 0.975837,-0.771012 1.719792,-0.799795 0.556897,-0.02155 1.207493,-0.05131 1.445769,-0.06615 0.238277,-0.01483 0.685918,-0.254831 0.994758,-0.533326 0.465157,-0.419451 0.663259,-0.453606 1.154271,-0.199011 0.326008,0.169039 0.830867,0.349246 1.121909,0.40046 0.291041,0.05121 0.731824,0.181085 0.979517,0.288602 0.247693,0.107518 0.561624,0.126715 0.697625,0.04266 0.323783,-0.200109 0.900575,0.511002 1.232895,1.520004 0.199884,0.606894 0.492412,0.863568 1.191004,1.045029 1.088261,0.282677 1.819212,0.06879 4.971189,-1.454638 1.831392,-0.885157 2.355001,-1.03028 3.175,-0.879978 0.540065,0.09899 3.051704,0.240619 5.58142,0.31473 l 4.599484,0.134747 -0.542686,-0.882293 c -2.374698,-3.860755 -3.644433,-11.588888 -2.808495,-17.093678 0.184629,-1.215819 1.551415,-2.706322 2.481685,-2.706322 1.215632,0 2.651084,0.757864 4.213669,2.224657 0.813877,0.763984 2.61087,2.28751 3.993318,3.385613 1.382448,1.098104 3.249932,2.594187 4.149965,3.32463 0.900033,0.730442 2.328783,1.668048 3.175,2.083567 1.413286,0.693969 1.779165,0.755491 4.493011,0.755491 2.556114,0 3.055514,-0.073 3.704167,-0.541436 0.760702,-0.549358 1.675774,-0.581821 1.675774,-0.05945 0,0.157495 -0.283931,0.658607 -0.630957,1.113582 -0.347026,0.454975 -0.674992,1.055883 -0.728813,1.335352 -0.05382,0.279468 -0.633093,0.89798 -1.287272,1.374471 -0.654179,0.476491 -2.040353,1.52393 -3.080386,2.327643 -1.040033,0.803713 -2.087367,1.461297 -2.32741,1.461297 -0.240042,0 -0.639262,-0.378565 -0.887155,-0.841254 -0.86701,-1.618264 -2.359819,-2.989198 -4.196809,-3.854176 -2.557462,-1.204225 -6.704948,-2.939175 -6.704948,-2.80477 0,0.06212 0.232913,0.569496 0.517586,1.1275 0.284672,0.558003 0.926729,2.071307 1.426792,3.362897 0.500064,1.291589 1.239665,3.152016 1.643559,4.134282 l 0.734352,1.785937 3.461252,0.01709 c 4.596442,0.0227 5.891131,0.157298 8.961851,0.931722 1.720096,0.433802 2.734721,0.572347 3.020463,0.412438 0.458847,-0.256783 1.750963,0.01289 2.318468,0.483874 0.570808,0.473728 2.814964,1.003522 5.030535,1.187592 1.161452,0.09649 3.483171,0.415661 5.159375,0.709259 5.564889,0.974726 6.882579,0.757366 10.387279,-1.713452 1.52963,-1.078397 1.59178,-1.189433 1.87588,-3.351439 0.10641,-0.809811 0.83835,-0.359101 1.28903,0.79375 0.62591,1.601125 0.45489,3.609027 -0.42106,4.943532 -0.36819,0.560921 -0.74219,1.621772 -0.84158,2.387109 -0.26685,2.054797 -0.72377,2.355188 -2.95628,1.943535 -1.63438,-0.301362 -16.10508,-0.728567 -26.624795,-0.78602 -3.469275,-0.01895 -3.896017,0.02548 -3.605624,0.375385 0.181158,0.218281 0.285033,0.412279 0.230835,0.431106 -0.0542,0.01883 -8.052495,0.05295 -17.773991,0.07583 -13.806175,0.0325 -17.851087,-0.03225 -18.477794,-0.295758 z m 10.157929,-0.07769 c 2.116132,-9.87e-4 2.579688,-0.07252 2.579688,-0.398078 0,-0.218282 0.115325,-0.396875 0.256279,-0.396875 0.140954,0 0.187747,0.178593 0.103984,0.396875 -0.197168,0.51381 0.67954,0.52423 2.435985,0.02895 0.717636,-0.202357 1.60245,-0.43456 1.966252,-0.516007 0.635353,-0.142241 0.640874,-0.132711 0.139883,0.241469 -0.286866,0.214254 -0.670006,0.332595 -0.851422,0.262979 -0.181417,-0.06962 -0.407389,-0.0011 -0.50216,0.152233 -0.118251,0.191333 0.646943,0.238742 2.438922,0.151107 3.065153,-0.149898 5.816152,-0.721948 5.720089,-1.18945 -0.123538,-0.601218 1.328395,-0.331111 2.597389,0.4832 1.111693,0.713372 1.521326,0.815406 3.595039,0.895476 2.16559,0.08362 2.261342,0.06646 1.282052,-0.229751 -1.569583,-0.474756 -2.248959,-0.904876 -2.248959,-1.423838 0,-0.54222 0.885713,-0.687164 1.661611,-0.271916 0.329087,0.176122 0.458769,0.180397 0.3545,0.01169 -0.334175,-0.540707 -4.561418,-1.839367 -6.514028,-2.001189 -7.850264,-0.650587 -10.90795,-0.701829 -11.847514,-0.198546 -0.759198,0.406668 -0.506359,0.88149 0.354354,0.665465 0.76725,-0.192567 1.96816,0.06558 1.96816,0.423079 0,0.149077 -0.244525,0.165518 -0.595312,0.04003 -0.353536,-0.126474 -1.025138,-0.07834 -1.653646,0.118507 -0.582083,0.18231 -0.861121,0.340623 -0.620083,0.351807 0.300953,0.01396 0.395922,0.1822 0.303137,0.537009 -0.12325,0.471309 -0.193739,0.447002 -0.802803,-0.276828 -0.632465,-0.751642 -0.642615,-0.81184 -0.192397,-1.141047 0.425932,-0.311449 0.340143,-0.378243 -0.826073,-0.643167 -1.507957,-0.342556 -6.140873,-0.90106 -7.573065,-0.912942 -0.638329,-0.0053 -1.035272,-0.152082 -1.138463,-0.420992 -0.08714,-0.227074 -0.07461,-0.329044 0.02783,-0.226601 0.102443,0.102443 0.33015,-0.01052 0.506016,-0.251032 0.294406,-0.402625 0.390869,-0.393854 1.216786,0.110642 0.970542,0.592838 5.674249,1.288424 7.974635,1.179292 0.691224,-0.03279 2.566458,-0.08737 4.167187,-0.12129 l 2.910417,-0.06167 v -1.118379 c 0,-0.91322 -0.126536,-1.201289 -0.68978,-1.570341 -0.644603,-0.422361 -0.659021,-0.474451 -0.220145,-0.795366 0.343977,-0.251521 0.563097,-0.265838 0.818941,-0.05351 0.262479,0.217839 0.391092,0.181005 0.517414,-0.148186 0.09246,-0.240946 0.100996,-0.505197 0.01897,-0.587224 -0.08203,-0.08203 -1.852907,-0.180122 -3.93529,-0.217989 -2.082383,-0.03787 -4.607815,-0.162499 -5.612071,-0.276959 -1.620696,-0.184718 -1.866615,-0.152456 -2.187979,0.287036 -0.199132,0.272329 -0.627624,0.50758 -0.952205,0.522779 -0.32458,0.0152 -0.828271,0.154352 -1.119313,0.309229 -1.116177,0.593968 -5.185111,2.193699 -5.5797,2.193699 -0.227772,0 -0.762159,0.348029 -1.187527,0.773397 -0.885783,0.885783 -1.049819,2.422508 -0.393968,3.690783 0.832428,1.609739 1.850607,1.914283 5.838279,1.746269 1.600729,-0.06744 4.071276,-0.123167 5.490104,-0.123829 z m -8.400521,-5.557453 c 0.08994,-0.145521 0.216026,-0.264584 0.280198,-0.264584 0.06417,0 0.116677,0.119063 0.116677,0.264584 0,0.145521 -0.126089,0.264583 -0.280198,0.264583 -0.154109,0 -0.206614,-0.119062 -0.116677,-0.264583 z m 32.146876,5.55625 c -0.518153,-0.334856 -0.868411,-0.334856 -0.661459,0 0.08994,0.14552 0.364854,0.26276 0.610928,0.260531 0.38557,-0.0035 0.392554,-0.0395 0.05053,-0.260531 z m 34.441145,-0.173299 c 0.26612,-0.240835 0.4881,-0.806382 0.49328,-1.256771 0.0144,-1.250384 0.70006,-3.858979 1.14343,-4.350106 0.21724,-0.240643 0.42924,-0.735189 0.4711,-1.098991 0.0985,-0.855674 -0.50587,-2.910416 -0.85602,-2.910416 -0.1485,0 -0.19811,0.116315 -0.11025,0.258478 0.0879,0.142163 0.0375,0.712538 -0.11195,1.2675 -0.2138,0.79399 -0.6017,1.241742 -1.8202,2.101051 -3.37061,2.377016 -5.10011,2.822319 -8.53714,2.198095 -3.623444,-0.658081 -6.522039,-1.062886 -7.631373,-1.065765 -1.588647,-0.0041 -3.912445,-0.635033 -4.825582,-1.310145 -0.40082,-0.296339 -1.039745,-0.538798 -1.419834,-0.538798 -0.636869,0 -0.657473,0.0336 -0.262698,0.428373 0.596989,0.596988 0.329895,0.738771 -0.564425,0.299616 C 86.195903,79.672988 85.381166,79.37662 84.799083,79.217542 84.217,79.058464 83.2645,78.795411 82.682416,78.63298 81.583056,78.326203 71.734478,77.704768 71.51116,77.928086 c -0.06982,0.06982 0.112431,0.581256 0.405002,1.136525 0.721796,1.369895 1.373546,3.160493 1.373546,3.773641 0,0.335707 0.508794,0.798468 1.521354,1.383708 l 1.521354,0.879314 6.482292,0.05817 c 18.267052,0.163927 24.458462,0.365385 26.061462,0.847997 1.13348,0.341255 1.22752,0.333081 1.7651,-0.153426 z M 69.201459,85.61999 c -0.381201,-0.288273 -0.866029,-0.344404 -1.852084,-0.214422 -2.642541,0.34834 -2.698477,0.576037 -0.145084,0.590591 2.271199,0.01295 2.463756,-0.02332 1.997168,-0.376169 z m -27.930387,-0.0557 c -0.01032,-0.50556 -0.473479,-0.824106 -1.315143,-0.904512 -0.665192,-0.06355 -1.007944,-0.269672 -1.245689,-0.749129 -0.374889,-0.756035 -0.469879,-0.773409 -1.482146,-0.271087 -0.687266,0.341045 -0.788988,0.317834 -1.434039,-0.327216 -0.589194,-0.589195 -0.641772,-0.757592 -0.347317,-1.112389 0.297432,-0.358383 0.280568,-0.392602 -0.118096,-0.239621 -0.413808,0.158793 -0.428678,0.110453 -0.134886,-0.438502 0.301474,-0.563309 0.358464,-0.578304 0.65526,-0.17241 0.401726,0.549392 0.928191,0.579488 0.928191,0.05306 0,-0.215324 -0.454449,-0.623341 -1.009887,-0.906704 -0.555438,-0.283363 -1.16533,-0.702502 -1.355314,-0.931419 -0.418322,-0.504047 -1.175156,-0.538857 -1.650796,-0.07593 -0.192295,0.187157 -0.636571,0.359786 -0.98728,0.38362 -0.350708,0.02383 -0.738113,0.198128 -0.860899,0.387319 -0.332964,0.513036 -0.954479,2.670224 -1.155452,4.010402 -0.151619,1.01107 -0.10701,1.197411 0.312528,1.305494 0.820872,0.211475 11.205299,0.2013 11.200965,-0.01098 z m 32.790337,-0.69176 c -0.06063,-0.05305 -0.407899,-0.238211 -0.771701,-0.411471 -0.623694,-0.297034 -0.632136,-0.291527 -0.147868,0.09645 0.421481,0.337676 1.282664,0.632693 0.919569,0.315019 z M 40.363447,83.232712 c -0.09725,-0.518386 -0.0464,-1.337705 0.113011,-1.820709 0.280606,-0.850245 0.992318,-1.347266 3.179916,-2.220679 l 0.661458,-0.264092 -0.863328,-0.187884 c -0.647885,-0.140998 -0.899417,-0.361032 -1.007946,-0.881729 -0.220649,-1.05862 -0.521356,-1.484822 -1.069422,-1.515726 -0.274388,-0.01547 -0.708708,-0.118068 -0.965155,-0.227991 -0.256447,-0.109923 -0.821994,-0.14765 -1.256771,-0.08384 -0.652914,0.09583 -0.790503,0.02387 -0.790503,-0.413442 0,-0.516362 -0.01515,-0.515229 -0.612365,0.04582 -0.336801,0.316408 -0.858004,0.575288 -1.158228,0.575288 -0.300225,0 -0.694083,0.178593 -0.87524,0.396875 -0.365029,0.439832 -0.920146,0.550856 -0.661458,0.132291 0.350263,-0.566739 -0.33645,-0.224317 -1.05569,0.526407 -0.798117,0.833055 -1.278318,0.875025 -0.640431,0.05597 0.205262,-0.263558 0.04578,-0.119958 -0.3544,0.319112 -0.400183,0.439071 -0.727605,0.914861 -0.727605,1.057312 0,0.14245 0.174808,0.02789 0.388461,-0.254589 0.322736,-0.426696 0.389884,-0.44146 0.396875,-0.08726 0.0061,0.310233 0.187645,0.392068 0.666582,0.300514 0.450592,-0.08614 0.71122,0.01243 0.826382,0.312544 0.09252,0.241098 0.643373,0.680768 1.224122,0.977044 0.580749,0.296276 1.117493,0.774188 1.192765,1.062027 0.09239,0.353303 0.276,0.469129 0.565106,0.356484 0.828946,-0.322983 0.957593,-0.252682 0.976824,0.533806 0.03375,1.380258 0.546098,2.248958 1.326406,2.248958 0.656113,0 0.686972,-0.05586 0.520634,-0.94252 z m -4.375938,-5.838103 c 0.008,-0.455136 0.457445,-0.951255 0.62142,-0.685937 0.08935,0.144569 -0.01483,0.409984 -0.23151,0.589812 -0.216679,0.179827 -0.392139,0.223083 -0.38991,0.09613 z m 1.825223,5.294317 c 0.652157,-0.829084 0.482794,-1.278949 -0.323978,-0.860553 -0.9624,0.499106 -1.216346,0.77958 -1.064387,1.175579 0.222118,0.57883 0.785879,0.45091 1.388365,-0.315026 z m 35.212393,0.154892 c 0,-0.150195 -0.168861,-0.677222 -0.375246,-1.171171 -0.374319,-0.89587 -0.379522,-0.898024 -2.105896,-0.871845 -1.17441,0.01781 -1.773962,0.139114 -1.865408,0.377421 -0.177937,0.463696 -0.682168,0.446457 -1.048241,-0.03584 -0.161563,-0.212857 -1.067009,-0.660025 -2.012101,-0.993707 -1.392601,-0.491682 -1.843283,-0.799753 -2.377377,-1.62509 l -0.659026,-1.018395 -0.298847,0.731124 c -0.164365,0.402119 -0.285171,1.27559 -0.268457,1.941049 0.03009,1.197979 0.04084,1.211721 1.088723,1.392026 0.582084,0.100156 2.24502,0.206782 3.695415,0.236947 1.450395,0.03016 2.819614,0.162595 3.042709,0.29429 0.368947,0.217793 2.50778,0.927159 2.985314,0.99011 0.109141,0.01439 0.198438,-0.09673 0.198438,-0.246922 z m 39.679085,-2.224884 c -0.005,-0.154088 -0.18322,-0.04904 -0.39687,0.233431 -0.21366,0.282474 -0.38468,0.639662 -0.38005,0.79375 0.005,0.154087 0.18322,0.04904 0.39687,-0.233432 0.21366,-0.282474 0.38468,-0.639662 0.38005,-0.793749 z M 66.847366,76.181945 c -0.798848,-2.515931 -2.006241,-6.360358 -2.683096,-8.54317 -0.676855,-2.182813 -1.6084,-5.182192 -1.759522,-5.693916 -0.03916,-0.132593 -0.151794,-0.16768 -0.2002,-0.02216 -0.04841,0.145521 0.459888,1.972221 1.052801,3.863991 0.592914,1.891771 1.351546,4.392083 1.685849,5.55625 1.21284,4.223555 3.153732,10.022082 3.253962,9.721394 0.05646,-0.169383 -0.550946,-2.366459 -1.349794,-4.882389 z m 4.958309,4.071176 c 0.07408,-0.119869 -0.406695,-1.518853 -1.068395,-3.108854 -0.661701,-1.59 -1.65277,-4.022003 -2.202374,-5.404451 -1.520779,-3.825288 -2.301448,-5.355669 -3.125308,-6.126679 -0.412989,-0.386497 -1.142087,-1.436684 -1.620218,-2.333749 -0.47813,-0.897065 -0.914484,-1.585871 -0.969675,-1.53068 -0.09245,0.09245 1.002445,3.683014 4.438384,14.55517 l 1.316961,4.167188 h 1.547964 c 0.85138,0 1.608578,-0.09807 1.682661,-0.217945 z m -4.601384,-0.350846 c 0,-0.167314 -0.589284,-2.161611 -1.309521,-4.431771 -0.720237,-2.27016 -1.957663,-6.206913 -2.749837,-8.748342 -0.815705,-2.616921 -1.264943,-4.856522 -1.331275,-4.855607 -0.206381,0.0028 -1.08879,-0.221597 -1.408663,-0.512392 -1.523852,-1.385322 -0.685587,-3.967739 1.273563,-4.008676 1.469275,-0.0307 2.085227,1.177348 2.088376,2.177651 0.0024,0.750415 -0.02219,0.791518 11.006971,7.718762 3.597989,2.25984 3.621763,2.246655 3.439816,2.711715 -0.226822,0.57976 0.287865,0.85888 0.776119,0.453666 0.571663,-0.474439 0.467511,0.117774 -0.113128,0.643245 -0.473823,0.428804 -0.542352,0.410719 -1.389062,-0.366572 -0.489858,-0.449695 -1.783619,-1.370857 -2.875025,-2.047026 -1.091407,-0.676169 -3.175001,-2.02216 -4.630209,-2.991091 -3.715428,-2.47387 -7.088301,-4.567026 -6.944809,-4.309849 2.417486,4.3328 3.196444,5.061198 7.147628,6.683683 4.784349,1.96461 5.808971,2.56577 6.80864,3.994722 0.509322,0.72804 1.120103,1.584507 1.357289,1.90326 l 0.431248,0.579551 1.497478,-1.180257 c 0.823613,-0.649141 2.058301,-1.577036 2.743752,-2.061989 1.73788,-1.229541 2.172316,-1.652515 2.172316,-2.115003 0,-0.220649 0.197708,-0.619645 0.43935,-0.886657 0.641663,-0.709029 0.285457,-0.844572 -0.53125,-0.20215 -0.569785,0.448193 -0.70185,0.475346 -0.70185,0.144301 0,-0.224276 -0.148828,-0.356149 -0.330729,-0.293052 -0.181901,0.0631 -1.150287,0.163992 -2.15197,0.224208 -3.170068,0.190569 -5.502787,-0.661901 -8.497509,-3.105336 -0.727605,-0.593663 -1.382448,-1.146261 -1.455209,-1.227996 -0.07276,-0.08174 -1.144323,-0.936164 -2.38125,-1.89873 -1.236927,-0.962566 -3.09585,-2.516196 -4.130941,-3.452511 -1.409972,-1.275424 -2.201157,-1.782761 -3.154587,-2.022837 -1.239886,-0.312207 -1.292303,-0.300746 -2.038818,0.445769 -0.962331,0.962331 -1.245106,2.171495 -1.251116,5.349852 -0.0096,5.095724 1.088911,9.712658 3.343731,14.052932 1.388812,2.673307 1.552835,2.848773 3.229872,3.455207 1.510482,0.546206 1.620609,0.558391 1.620609,0.17932 z M 78.036063,69.847911 c 0,-0.114145 -0.370808,-0.333545 -0.843751,-0.605948 -0.472943,-0.272403 -2.764896,-1.746225 -5.093229,-3.27516 -6.572803,-4.316128 -9.092615,-5.750026 -9.39139,-5.88531 -0.06936,-0.03141 -0.239045,0.249472 -0.122537,0.329633 0.24231,0.166717 0.881197,0.605763 1.708718,1.132605 1.091407,0.694845 3.472657,2.246478 5.291667,3.448072 4.144292,2.73762 8.008157,5.146336 8.268229,5.154378 0.109141,0.0034 0.182293,-0.184128 0.182293,-0.29827 z M 62.263524,60.798166 c -0.05328,-0.0662 -0.0978,-0.178663 -0.257085,-0.132845 -0.159282,0.04582 -0.414573,0.114087 -0.749845,-0.06535 -0.129927,-0.06953 -0.394348,-0.444342 -0.48829,-0.392407 -0.551092,0.304667 -0.566776,0.348891 -0.17269,0.823736 0.230758,0.278047 0.994702,0.456047 1.477841,0.391407 0.305512,-0.04087 0.632689,-0.0746 0.456457,-0.293566 z m -0.08632,-1.096891 c 0,-0.48507 -0.141111,-0.661458 -0.529167,-0.661458 -0.516236,0 -0.747546,0.751759 -0.352778,1.146527 0.401657,0.401657 0.881945,0.137499 0.881945,-0.485069 z m -1.434125,-0.06824 c 0.05651,-0.348178 -0.44183,-0.683016 -0.428761,-0.734917 0.01246,-0.04947 0.616918,0.0031 0.727343,-0.154953 0.111943,-0.160181 -0.25604,-0.604899 -0.300814,-0.63257 -0.145522,-0.08994 -0.535007,0.607346 -0.591514,0.818071 -0.05876,0.219127 -0.115037,0.872615 0.03048,0.872615 0.145521,0 0.541326,-0.03308 0.563262,-0.168246 z m 2.717085,0.05582 c 0,-0.07298 -0.02137,-0.476193 -0.15018,-0.534879 -0.128016,-0.05833 -0.32324,0.06774 -0.410719,0.09335 -0.217732,0.06374 -0.133416,0.159018 -0.134807,0.315955 -0.0015,0.171065 0.344053,0.224628 0.486694,0.270292 0.130413,0.04175 0.209012,8.06e-4 0.209012,-0.144715 z m -0.35724,-1.417238 c -0.174504,-0.157819 -0.499671,-0.399485 -0.847673,-0.521833 -0.418626,-0.147177 -0.919158,-0.08779 -1.12989,0.02655 -0.121075,0.06569 0.231054,0.78022 0.344191,0.787039 0.223539,-0.03755 0.329118,-0.02706 0.57536,0.110401 0.230406,0.128625 0.396938,0.414317 0.611656,0.248436 0.154708,-0.119521 0.326258,-0.243276 0.463099,-0.330598 0.11296,-0.07208 0.01925,-0.287442 -0.01674,-0.319992 z"
       id="path1"
       sodipodi:nodetypes="csscssscsssssssssscssssssssssssssssssssscssssssssssssssssccssssssssssssssssssssssssssssssssssscsssssssssssssssssssssssssscscsccsscsssssssssscsssssssssssssssssssssssssssssssccscsssscsssssssssscsssssssccsssssssssssssssscsssssssscscscssssssssssssssscsssssssscssssssssssscsssssssssssssscsssssssssscsssssssssssssssssssssssssssssscssssss" /></g></svg>
