<?xml version="1.0" encoding="UTF-8" standalone="no"?>
<!-- Created with Inkscape (http://www.inkscape.org/) -->

<svg
   width="26.303324mm"
   height="37.724194mm"
   viewBox="0 0 26.303324 37.724194"
   version="1.1"
   id="svg1"
   xml:space="preserve"
   inkscape:version="1.3 (0e150ed6c4, 2023-07-21)"
   sodipodi:docname="Lateral (Flexion).svg"
   xmlns:inkscape="http://www.inkscape.org/namespaces/inkscape"
   xmlns:sodipodi="http://sodipodi.sourceforge.net/DTD/sodipodi-0.dtd"
   xmlns="http://www.w3.org/2000/svg"
   xmlns:svg="http://www.w3.org/2000/svg"><sodipodi:namedview
     id="namedview1"
     pagecolor="#ffffff"
     bordercolor="#000000"
     borderopacity="0.25"
     inkscape:showpageshadow="2"
     inkscape:pageopacity="0.0"
     inkscape:pagecheckerboard="0"
     inkscape:deskcolor="#d1d1d1"
     inkscape:document-units="mm"
     inkscape:zoom="2.0485264"
     inkscape:cx="-39.296539"
     inkscape:cy="109.59097"
     inkscape:window-width="1920"
     inkscape:window-height="1009"
     inkscape:window-x="1919"
     inkscape:window-y="1072"
     inkscape:window-maximized="1"
     inkscape:current-layer="layer1" /><defs
     id="defs1" /><g
     inkscape:label="Layer 1"
     inkscape:groupmode="layer"
     id="layer1"
     transform="translate(-88.615336,-38.745459)"><path
       style="fill:#000000"
       d="m 99.070233,75.571054 c -0.601842,-2.24801 -1.330676,-5.627506 -1.633445,-7.574046 -0.175993,-1.131479 -0.378443,-1.998779 -0.449889,-1.927333 -0.111682,0.111682 0.350833,7.223295 0.620503,9.540818 0.06142,0.527822 0.01837,0.660786 -0.128501,0.396875 -0.184856,-0.332174 -0.359503,-2.228956 -0.901384,-9.789584 -0.03801,-0.530286 -0.204815,-0.675313 -0.841158,-0.731324 -1.882825,-0.165725 -2.578485,-0.400197 -3.44524,-1.161218 -0.506212,-0.44446 -0.918191,-0.706478 -0.91551,-0.582262 0.0068,0.313775 0.694445,4.187261 1.322474,7.449173 0.288604,1.498976 1.083676,5.115254 0.840294,5.161393 -0.283491,0.05374 -2.398963,-11.17667 -2.46353,-12.70303 l -0.0313,-0.740024 -0.169732,0.79375 c -0.220023,1.028935 -0.573941,1.001628 -1.515021,-0.116895 -0.882018,-1.048324 -0.971628,-2.279103 -0.309338,-4.24873 0.220192,-0.654843 0.482807,-2.439825 0.583588,-3.966625 0.254101,-3.849506 0.595394,-5.197996 1.741603,-6.881292 2.029201,-2.980036 4.933008,-5.944668 6.789193,-6.931405 1.034257,-0.549804 1.19424,-0.564559 2.51354,-0.231821 0.77494,0.195445 2.07692,0.699892 2.89329,1.120993 1.22297,0.63083 1.6073,0.718877 2.18281,0.500067 0.38854,-0.147722 0.6985,-0.471518 0.6985,-0.729675 0,-1.110152 1.93688,-3.097187 2.80049,-3.344846 0.49106,-0.140823 1.46972,-0.164711 1.90153,-0.07775 0.19888,0.04005 0.79973,0.444372 0.31142,0.291878 -0.23554,-0.07355 -1.86654,-0.200203 -2.29588,0.136426 -0.66262,0.252143 -2.14587,2.073773 -2.17901,2.694981 -0.005,0.09665 0.40627,0.632429 0.91428,1.190625 0.50801,0.558196 1.10332,1.223261 1.32291,1.477922 0.46333,0.537315 1.10009,0.612847 1.11526,0.132292 0.0329,-1.040275 0.41427,-1.510572 1.23054,-1.517303 0.31767,-0.0026 0.44013,0.129385 0.34646,0.373479 -0.0797,0.207642 0.0266,0.519877 0.23627,0.693855 0.40483,0.335981 0.53723,0.908389 0.15555,0.672497 -0.12409,-0.07669 -0.45151,0.03156 -0.72761,0.240554 -0.46891,0.354937 -0.44397,0.380539 0.37825,0.388399 1.10032,0.01052 2.42704,-1.207941 2.42704,-2.228987 0,-0.81118 -1.0824,-3.053669 -1.73767,-3.600051 -0.25082,-0.209141 -0.88388,-0.425782 -1.23645,-0.655406 l -0.26123,-0.170135 -0.0116,-0.116253 0.46884,0.05148 c 0.44209,0.04855 1.01513,0.35349 1.2857,0.596814 0.62295,0.560208 2.02159,3.3076 2.02159,3.971056 0,1.215485 -2.16651,2.834055 -3.37164,2.518906 -0.29953,-0.07833 -1.10733,0.106505 -1.79511,0.410743 -0.68779,0.304238 -1.42688,0.55316 -1.64244,0.55316 -0.51022,0 -0.29147,0.906024 0.74375,3.080536 0.93699,1.968162 1.03096,3.800065 0.25528,4.976784 -0.3861,0.585734 -0.4778,1.052691 -0.36637,1.865681 0.0836,0.610238 -0.0254,1.772604 -0.24941,2.658305 -0.23676,0.936165 -0.3421,2.135535 -0.25997,2.95998 0.10162,1.020061 -0.009,1.788603 -0.41938,2.910417 -0.3066,0.838387 -0.68727,2.298246 -0.84594,3.244131 -0.15866,0.945886 -0.43605,2.612761 -0.61642,3.704167 -0.42166,2.551416 -0.78349,3.25053 -1.9578,3.782799 -0.5262,0.238502 -0.9919,0.398464 -1.03489,0.355471 -0.043,-0.04299 -0.18389,-3.021547 -0.31311,-6.619008 -0.12921,-3.597462 -0.29022,-6.596126 -0.35779,-6.663699 -0.0676,-0.06757 -0.57731,0.305744 -1.13276,0.829594 -1.16436,1.098137 -1.914277,1.435676 -3.189678,1.435676 -0.499849,0 -0.908817,0.124651 -0.908817,0.277003 0,0.635615 1.134523,6.626695 1.619298,8.551034 0.288355,1.144639 0.46652,2.138923 0.395923,2.20952 -0.0706,0.0706 -0.251109,-0.330144 -0.401139,-0.890537 z m 5.650107,0.0074 c 0.58682,-0.225184 1.20248,-1.491178 1.20248,-2.472683 0,-1.086777 1.52904,-7.22832 1.59682,-7.963708 0.0486,-0.527107 0.28226,-0.999074 0.33615,-1.68618 0.0491,-0.626095 -0.123,-1.668379 -0.0809,-2.300851 0.0264,-0.397107 0.12837,-1.058782 0.28527,-1.468437 0.15689,-0.409656 0.28049,-1.472698 0.27467,-2.362316 -0.007,-1.101798 0.1549,-1.942094 0.50848,-2.635632 0.2855,-0.559979 0.51908,-1.328947 0.51908,-1.708817 0,-0.85628 -0.76826,-3.166189 -1.05306,-3.166189 -0.22624,0 -1.18861,-1.813957 -1.19314,-2.248958 -0.002,-0.145521 -0.21112,-0.495394 -0.46578,-0.777495 -0.57709,-0.639274 -0.59817,-1.050773 -0.0429,-0.837699 0.25703,0.09863 0.61311,-0.07013 0.91724,-0.434714 0.27342,-0.327759 0.50109,-0.47091 0.50593,-0.318113 0.005,0.152797 -0.13209,0.418703 -0.30429,0.590903 -0.56621,0.566217 -0.0264,0.627671 0.94416,0.107484 l 0.95239,-0.510454 -1.32089,-0.548939 c -1.00872,-0.419203 -1.3209,-0.684246 -1.3209,-1.121452 0,-0.496249 -0.0969,-0.546094 -0.7276,-0.374185 -0.40019,0.10908 -0.98463,0.183752 -1.29877,0.165937 -0.39719,-0.02252 -0.65095,0.187717 -0.83314,0.690252 -0.1441,0.397453 -1.2655,1.853735 -2.49201,3.236183 -2.505573,2.824141 -4.973219,6.95649 -4.957714,8.302254 l 0.0095,0.825871 0.667684,-0.79375 c 0.367225,-0.436562 1.425403,-1.909544 2.393135,-3.243535 1.372375,-1.891774 1.583725,-2.203206 2.497985,-3.670548 0.54865,-0.88056 1.30134,-1.206615 1.30134,-0.57189 l -0.76552,1.472926 -1.32994,1.867405 -3.730564,5.085911 c -0.02872,0.210456 0.03411,0.650538 0.13963,0.977959 0.17439,0.541123 0.357636,0.595313 2.013079,0.595313 1.554915,0 1.822455,-0.06771 1.829645,-0.463021 0.005,-0.254661 0.18119,-0.691359 0.39236,-0.970438 0.34305,-0.453387 0.32808,-0.546548 -0.14071,-0.874899 -0.74974,-0.525144 -0.64806,-0.793108 0.25089,-0.66117 0.55008,0.08074 1.03807,-0.08642 1.67862,-0.57499 1.59283,-1.214917 1.71349,-1.061842 1.74827,2.217912 0.0212,1.995544 -0.095,3.260378 -0.37052,4.034896 -0.32953,0.926332 -0.37816,2.182689 -0.27182,7.022425 0.12321,5.607335 0.10412,5.91966 -0.39238,6.416145 -0.28704,0.28704 -0.64095,0.52189 -0.78647,0.52189 -0.14552,0 -0.26458,0.178594 -0.26458,0.396875 0,0.417393 0.46036,0.508202 1.17878,0.232521 z m -1.79613,-22.237035 c -0.26996,-0.26996 -0.20965,-1.146528 0.0789,-1.146528 0.23576,0 0.80306,0.8288 0.80306,1.173231 0,0.208181 -0.66726,0.187978 -0.88194,-0.0267 z m 5.54046,-1.035876 c -0.22549,-0.5876 -0.19987,-0.904402 0.0731,-0.904402 0.12855,0 0.29064,0.297656 0.36018,0.661459 0.13929,0.728664 -0.17855,0.906865 -0.43332,0.242943 z M 105.92282,45.3157 c 0,-0.14552 0.11906,-0.264583 0.26458,-0.264583 0.14552,0 0.26458,0.119063 0.26458,0.264583 0,0.145521 -0.11906,0.264584 -0.26458,0.264584 -0.14552,0 -0.26458,-0.119063 -0.26458,-0.264584 z m -1.5475,25.400001 c 0.35897,-0.549091 0.3932,-0.971918 0.20145,-2.489006 -0.14661,-1.159994 -0.12418,-2.802962 0.0614,-4.497917 0.16082,-1.468703 0.34406,-4.069353 0.4072,-5.779223 0.10604,-2.871439 0.0781,-3.108854 -0.36647,-3.108854 -0.50109,0 -1.93108,1.1695 -1.93108,1.579308 0,0.129238 -0.18293,0.41791 -0.40652,0.641495 -0.36563,0.365634 -0.36563,0.56429 0,1.975319 0.22359,0.862841 0.63628,3.635078 0.62408,4.123396 -0.0176,0.704594 -0.33574,-1.106561 -0.61962,-2.366393 -0.19675,-0.873125 -0.36534,-1.706563 -0.37465,-1.852084 -0.024,-0.375637 -4.986278,-0.295972 -5.368437,0.08619 -0.518766,0.518767 0.02781,0.686172 0.587273,0.179866 0.248693,-0.225064 0.408934,-0.782253 0.626647,-0.737591 0.104933,0.02153 -0.11165,0.778372 -0.413359,1.080081 -0.543527,0.543527 -1.776163,0.369584 -2.437452,-0.343958 -0.496726,-0.535976 -0.864503,-0.661459 -1.938669,-0.661459 -1.273061,0 -1.33221,0.0328 -1.491014,0.826823 -0.09095,0.454753 -0.165365,1.45293 -0.165365,2.218171 0,1.287661 0.07893,1.462654 1.059096,2.348177 0.601054,0.543017 1.373443,0.978204 1.785937,1.006253 4.759338,0.323626 5.572264,0.181392 7.169163,-1.254355 0.71959,-0.646975 1.36643,-1.176319 1.43742,-1.176319 0.24996,0 0.47068,2.81573 0.48739,6.217709 0.009,1.891771 0.0941,4.034896 0.18851,4.7625 l 0.17162,1.322917 0.13651,-1.719792 c 0.0751,-0.945885 0.33111,-2.017448 0.56894,-2.38125 z m 0.22458,2.270598 c 0,-0.642942 0.0692,-1.387083 0.15389,-1.653646 0.14853,-0.46777 0.14015,-0.467914 -0.24041,-0.0041 -0.41492,0.505663 -0.52672,2.826757 -0.13616,2.826757 0.12248,0 0.22268,-0.526043 0.22268,-1.168985 z M 90.833465,62.116742 c 0,-0.14552 -0.115417,-0.08599 -0.256481,0.132292 -0.141064,0.218281 -0.25648,0.515938 -0.25648,0.661458 0,0.145521 0.115416,0.08599 0.25648,-0.132291 0.141064,-0.218281 0.256481,-0.515938 0.256481,-0.661459 z m -0.689967,0.264584 c 0.08376,-0.218282 0.03697,-0.396875 -0.103984,-0.396875 -0.140954,0 -0.25628,0.178593 -0.25628,0.396875 0,0.218281 0.04679,0.396875 0.103984,0.396875 0.05719,0 0.172518,-0.178594 0.25628,-0.396875 z m -0.385197,-1.897445 c 0.450276,-0.679793 0.818683,-1.059736 0.818683,-0.84432 0,0.215417 -0.168749,0.622445 -0.374998,0.904507 -0.408652,0.558866 -0.125483,1.175799 0.539687,1.175799 0.2503,0 0.36869,-0.35226 0.377923,-1.124479 0.02292,-1.916671 0.268933,-3.39391 1.090561,-6.548437 0.610938,-2.345612 1.0361,-3.3946 1.855758,-4.578654 1.089026,-1.573176 1.201421,-2.772809 1.074836,-4.108688 l -0.08146,-0.859702 -0.719522,0.870917 c -0.395737,0.479005 -0.939703,1.109043 -1.208814,1.400085 -1.065141,1.151944 -2.396137,3.50782 -2.690664,4.7625 -0.170799,0.727604 -0.333465,2.275417 -0.361479,3.439583 -0.05978,2.484434 -0.243997,3.719366 -0.690678,4.630209 -0.368434,0.751285 -0.730257,2.116666 -0.560912,2.116666 0.06182,0 0.480807,-0.556193 0.931083,-1.235986 z m 2.400733,-10.938216 c -0.302577,-0.187002 -0.317227,-0.308954 -0.06716,-0.559023 0.25007,-0.25007 0.357726,-0.221124 0.493496,0.132685 0.221073,0.576107 0.06635,0.730834 -0.426338,0.426338 z m 3.9742,9.792952 c 0,-0.14552 -0.126089,-0.264583 -0.280198,-0.264583 -0.154109,0 -0.206613,0.119063 -0.116677,0.264583 0.08994,0.145521 0.216026,0.264584 0.280199,0.264584 0.06417,0 0.116676,-0.119063 0.116676,-0.264584 z m -0.661458,-0.529166 c 0.08994,-0.145521 0.03743,-0.264584 -0.116677,-0.264584 -0.154109,0 -0.280198,0.119063 -0.280198,0.264584 0,0.145521 0.0525,0.264583 0.116677,0.264583 0.06417,0 0.190261,-0.119062 0.280198,-0.264583 z m 1.139913,-0.549011 c -0.05214,-0.156435 -0.207918,-0.284427 -0.346163,-0.284427 -0.138245,0 -0.294018,0.127992 -0.346163,0.284427 -0.05215,0.156435 0.103628,0.284427 0.346163,0.284427 0.242535,0 0.398308,-0.127992 0.346163,-0.284427 z m -1.575594,-0.976919 c 0.612334,-0.958219 0.618911,-1.040238 0.396875,-4.949738 -0.206949,-3.643857 -0.257446,-3.920213 -0.605528,-3.313916 -0.404178,0.704004 -2.20931,5.684955 -2.780721,7.672917 l -0.342228,1.190625 0.9576,0.160892 c 1.630456,0.273942 1.73398,0.240766 2.374002,-0.76078 z m 0.796927,0.05722 c 0.08363,-0.431562 0.03904,-0.450994 -0.330729,-0.144116 -0.505686,0.419682 -0.568651,0.910207 -0.09666,0.753054 0.181901,-0.06056 0.374228,-0.334588 0.427392,-0.608938 z m 1.623129,0.410377 c 0,-0.145521 -0.0525,-0.264583 -0.116677,-0.264583 -0.06417,0 -0.190261,0.119062 -0.280198,0.264583 -0.08994,0.145521 -0.03743,0.264584 0.116677,0.264584 0.154109,0 0.280198,-0.119063 0.280198,-0.264584 z M 95.51402,44.238289 c -0.102042,0.139849 0.01409,0.847367 0.05331,1.871007 0.100465,2.622107 0.326158,7.048078 0.326741,7.990034 8.1e-4,1.309688 0.21745,1.812111 0.27213,1.116496 0.05468,-0.695615 -0.288461,-10.785858 -0.343983,-11.399931 z m 3.518871,10.180957 c 0.497175,-0.692305 4.484739,-5.96108 4.143439,-6.079264 -0.27933,-0.09673 -4.15391,5.700702 -4.651085,6.393007 -0.497176,0.692304 -1.565191,2.002964 -1.437841,2.106477 0.230932,0.187705 1.448311,-1.727915 1.945487,-2.42022 z m 0.925331,-5.641864 c 2.078628,-2.278232 3.847928,-4.413399 3.847928,-4.643623 0,-0.100354 -0.47122,-0.635207 -1.04715,-1.188562 -1.24162,-1.192955 -2.23733,-1.526568 -2.819284,-0.944609 -0.51392,0.51392 -0.731227,0.517092 -0.535801,0.0078 0.24649,-0.642343 -0.463327,-0.464854 -1.851716,0.463021 -1.119161,0.747946 -1.297547,0.992144 -1.370199,1.875709 l -0.08353,1.015813 0.803374,-0.883521 c 0.441856,-0.485937 0.806865,-0.749273 0.811131,-0.58519 0.0043,0.164083 -0.178689,0.453067 -0.406565,0.642188 -1.044258,0.866657 -1.183285,1.656553 -1.000312,5.683376 l 0.175691,3.866589 0.93873,-1.778248 c 0.516301,-0.978037 1.658266,-2.56688 2.537699,-3.530764 z"
       id="path2"
       sodipodi:nodetypes="sssssssscssscsssssssssssssccsscsscssssssccsssssssscsscssssssssssssssssssscssscssscsscssssssscsssccccsscsssscsssssssssssscssccssssssssssssssscssssssssssssccccssscsssssssssssssssssssssscssssssssssssssssssssssssssssssscsssssssscssscsssccscssscsssssscscsscsccs" /></g></svg>
