<?xml version="1.0" encoding="UTF-8" standalone="no"?>
<!-- Created with Inkscape (http://www.inkscape.org/) -->

<svg
   width="39.691875mm"
   height="41.358501mm"
   viewBox="0 0 39.691875 41.358501"
   version="1.1"
   id="svg1"
   xml:space="preserve"
   inkscape:version="1.3 (0e150ed6c4, 2023-07-21)"
   sodipodi:docname="Neck (rotation).svg"
   xmlns:inkscape="http://www.inkscape.org/namespaces/inkscape"
   xmlns:sodipodi="http://sodipodi.sourceforge.net/DTD/sodipodi-0.dtd"
   xmlns="http://www.w3.org/2000/svg"
   xmlns:svg="http://www.w3.org/2000/svg"><sodipodi:namedview
     id="namedview1"
     pagecolor="#ffffff"
     bordercolor="#000000"
     borderopacity="0.25"
     inkscape:showpageshadow="2"
     inkscape:pageopacity="0.0"
     inkscape:pagecheckerboard="0"
     inkscape:deskcolor="#d1d1d1"
     inkscape:document-units="mm"
     inkscape:zoom="2.0485264"
     inkscape:cx="-59.066848"
     inkscape:cy="117.88962"
     inkscape:window-width="1920"
     inkscape:window-height="1009"
     inkscape:window-x="1919"
     inkscape:window-y="1072"
     inkscape:window-maximized="1"
     inkscape:current-layer="layer1" /><defs
     id="defs1" /><g
     inkscape:label="Layer 1"
     inkscape:groupmode="layer"
     id="layer1"
     transform="translate(-65.805484,-31.678497)"><path
       style="fill:#000000"
       d="m 85.098063,71.996248 c -0.228888,-1.186112 -0.319416,-1.304741 -1.044362,-1.36855 -2.096563,-0.184539 -2.534057,-0.394762 -4.721352,-2.268689 -1.235829,-1.058775 -2.703154,-2.085855 -3.260722,-2.282401 -0.557568,-0.196545 -2.263916,-0.439727 -3.791884,-0.540403 -1.074658,-0.07081 -2.036753,-0.0075 -2.561846,-0.235204 -0.221494,-0.09606 -0.285599,-0.569072 -0.376242,-0.600486 -0.510797,-0.177023 -1.042965,0.530125 -2.092951,3.529202 -1.206569,3.446323 -1.250922,3.550121 -1.43732,3.363724 -0.0651,-0.0651 0.416101,-1.536618 1.069329,-3.270046 1.054991,-2.79956 1.041315,-3.597455 0.904908,-4.315947 -0.114665,-0.603977 0.219952,-1.248515 0.871313,-1.780841 0.548631,-0.448367 1.775036,-1.187116 2.478715,-1.58123 0.216875,-0.121466 0.297845,-0.569877 0.400399,-0.680706 0.699926,-0.756402 1.332521,-1.004882 2.142856,-1.151754 L 74.68119,58.631254 74.60494,56.33188 74.5287,54.032506 73.073492,53.190655 c -2.17088,-1.255874 -2.760378,-1.787255 -3.379173,-3.046029 -0.664579,-1.35191 -0.953939,-2.126731 -0.896165,-2.399667 0.0231,-0.10914 -0.08408,-0.198437 -0.238193,-0.198437 -0.154109,0 -0.206614,-0.119063 -0.116677,-0.264584 0.08994,-0.14552 0.0077,-0.266406 -0.182822,-0.268634 -0.281061,-0.0033 -0.282072,-0.04483 -0.0054,-0.22039 0.257002,-0.163056 0.273293,-0.394377 0.06615,-0.939214 -0.400837,-1.054283 -0.33622,-3.291519 0.142677,-4.939885 0.788548,-2.714191 2.295458,-6.729379 2.786729,-7.425288 0.675334,-0.956645 2.622356,-1.824414 4.00277,-1.783997 l 1.127362,0.03301 -1.374311,0.200878 c -1.501577,0.219481 -3.075202,1.058839 -3.648065,1.945847 -0.510492,0.790434 -2.133969,5.249524 -2.662266,7.312258 -0.455785,1.779613 -0.406231,4.582668 0.08978,5.078683 0.143632,0.143632 0.772881,0.177316 1.440941,0.07713 L 71.41279,46.17449 70.73196,45.49366 c -0.655612,-0.655611 -0.661607,-0.689518 -0.161855,-0.915411 0.285436,-0.12902 0.876162,-0.821379 1.312725,-1.538575 0.759963,-1.248488 1.722331,-1.862565 1.334316,-0.851414 -0.256603,0.668698 1.342461,-0.89991 2.224738,-2.182366 0.40045,-0.582083 0.844448,-1.415521 0.986662,-1.852083 0.142214,-0.436563 0.487294,-0.913956 0.766844,-1.060874 0.27955,-0.146918 0.886067,-0.652934 1.347816,-1.124479 0.943206,-0.963218 1.652649,-1.082683 2.284344,-0.384668 0.480023,0.530419 1.644599,2.991125 1.560664,3.297625 -0.02989,0.10914 0.128088,0.198437 0.351058,0.198437 0.222971,0 0.51308,0.267891 0.644688,0.595313 0.13878,0.345266 0.248032,0.428615 0.260109,0.198437 0.01772,-0.337807 0.05625,-0.340901 0.258857,-0.02079 0.204035,0.322371 0.479993,0.310593 1.932061,-0.08246 1.846742,-0.49989 2.611716,-0.354699 3.841072,0.72903 l 0.595312,0.524794 v -0.830562 c 0,-0.559772 -0.571221,-1.348701 -0.820275,-1.667442 -0.351315,-0.449613 -0.575234,-0.748448 0.04458,-0.657479 0.276838,0.04063 0.791549,1.079145 1.051803,1.832365 0.50341,1.456958 0.265986,4.089281 -0.53212,5.899639 -0.265963,0.603288 -0.564448,1.465126 -0.6633,1.915195 -0.09885,0.450069 -0.302388,0.894114 -0.452303,0.986767 -0.177538,0.109724 -0.202323,-0.05065 -0.07109,-0.459987 0.411249,-1.282709 0.531646,-2.240563 0.393766,-3.132709 l -0.141686,-0.916762 -0.46302,0.709016 c -0.254662,0.389959 -0.461198,0.921565 -0.45897,1.181346 0.0034,0.401732 0.04239,0.41301 0.260532,0.07545 0.218781,-0.338539 0.257076,-0.328289 0.260532,0.06974 0.0022,0.256636 -0.138142,0.694298 -0.311934,0.972583 -0.237706,0.380629 -0.242117,0.668094 -0.01781,1.160404 0.163999,0.359938 0.235134,0.895517 0.158079,1.190176 -0.122387,0.468009 0.02204,0.5582 1.142285,0.713352 4.41294,0.61118 6.220658,1.304651 6.391826,2.45201 0.146477,0.981856 -2.28158,2.11168 -6.383191,2.970227 -1.294268,0.270915 -2.403948,0.543308 -2.465956,0.605316 -0.06201,0.06201 -0.225951,0.808324 -0.364318,1.658481 -0.23103,1.419502 -0.203367,1.598232 0.338725,2.1885 0.324665,0.353519 1.245143,0.937964 2.045508,1.298767 1.312402,0.591628 1.67384,0.63956 3.683091,0.488426 1.225336,-0.09217 2.357914,-0.275494 2.516841,-0.407392 0.285346,-0.236816 9.395234,-0.911955 9.596014,-0.711166 0.20841,0.208405 -1.86156,0.461208 -5.48354,0.669699 -2.039495,0.117399 -3.769506,0.274786 -3.844468,0.349748 -0.149009,0.149009 0.278902,2.278666 0.502848,2.502612 0.208699,0.2087 0.986347,0.205881 5.46463,-0.01981 2.91897,-0.147105 4.0221,-0.124823 3.82717,0.0773 -0.17788,0.184449 -3.49221,0.346684 -9.456386,0.462886 l -9.182514,0.178908 -0.413032,0.630365 c -0.514919,0.785867 -0.634294,2.018949 -0.371179,3.834118 0.456995,3.15271 0.5263,4.046722 0.283127,3.652249 -0.134559,-0.218281 -0.385133,-1.734756 -0.556832,-3.369944 -0.267898,-2.551364 -0.255766,-3.086153 0.08554,-3.770313 0.316379,-0.634198 0.323966,-0.834541 0.04943,-0.797243 -0.151913,0.02064 -0.426011,0.274274 -0.614168,0.662008 -0.180701,0.37237 -0.388592,1.920576 -0.384481,2.107192 0.01867,0.847463 -0.489099,0.408589 -0.382108,-0.340055 0.09334,-0.653147 0.346329,-1.710154 0.578657,-2.14794 0.13567,-0.25565 0.421876,-0.339458 0.341864,-0.579492 -0.05458,-0.163737 -0.853062,-0.570658 -1.774409,-0.904269 -0.921346,-0.333611 -2.285553,-1.025616 -3.031571,-1.537789 -1.97794,-1.357938 -2.51933,-1.492988 -5.985119,-1.492988 l -3.401635,0.336774 -1.343641,0.7301 c -0.931852,0.506345 -1.615057,1.152327 -1.625871,1.256771 -0.01081,0.104443 -0.06652,0.437608 -0.123788,0.740366 -0.116836,0.617658 0.296055,0.65668 1.553846,0.146852 1.814834,-0.735617 6.894009,-1.30621 7.201306,-0.808992 0.08293,0.134179 -0.183671,0.249703 -0.592442,0.256718 -2.297752,0.03944 -5.061632,0.337306 -5.634775,0.607273 -0.362022,0.170523 -0.698174,0.517495 -0.747004,0.771048 -0.07986,0.414686 0.239174,0.323777 2.693128,0.461007 1.333913,0.0746 2.511149,0.218098 3.544573,0.62293 1.416531,0.554911 2.605425,1.522786 3.94616,2.764228 1.361681,1.260838 2.192951,1.639925 3.841186,1.639925 h 0.779715 l -0.18644,-1.492539 c -0.135454,-1.084137 -0.104464,-1.441858 0.113253,-1.307302 0.164854,0.101886 0.299735,0.632603 0.299735,1.179372 0,0.546769 0.126483,1.678338 0.281074,2.514598 0.154592,0.83626 0.237601,1.650895 0.184467,1.810299 -0.05313,0.159404 -0.209384,-0.294582 -0.347221,-1.008859 z m 9.142096,-7.887119 c 0,-0.189233 -0.130709,-0.719015 -0.290466,-1.177292 -0.284215,-0.8153 -0.326226,-0.833232 -1.952063,-0.833232 -1.927746,0 -3.372435,-0.518901 -4.534738,-1.628778 l -0.824143,-0.78697 -0.280717,1.141728 c -0.154395,0.627951 -0.361969,1.703088 -0.461275,2.389194 l -0.180557,1.247466 4.26198,-0.004 c 3.319205,-0.0031 4.261979,-0.08014 4.261979,-0.348089 z m 1.373029,0.232419 c 0.07607,-0.07607 0.01632,-0.671381 -0.13277,-1.322916 -0.207732,-0.907791 -0.392219,-1.184611 -0.789484,-1.184611 -0.45984,0 -0.498548,0.124187 -0.34263,1.099243 0.09668,0.604583 0.237983,1.199896 0.314014,1.322917 0.153396,0.2482 0.735755,0.300483 0.95087,0.08537 z m -9.757375,-2.838256 c 0.427796,-2.308235 0.544786,-3.373437 0.370499,-3.373437 -0.04199,0 -0.543416,0.238125 -1.114278,0.529167 -1.623396,0.827654 -2.89561,0.693936 -5.031282,-0.528822 l -1.847884,-1.057988 2.05052,1.965137 c 1.127787,1.080825 2.050521,2.142114 2.050521,2.358419 0,0.440713 2.285595,2.55492 2.762034,2.55492 0.177221,0 0.497413,-1.031278 0.75987,-2.447396 z m -3.493814,0.628863 c -1.423954,-1.700757 -3.116567,-2.318977 -6.936708,-2.533602 -2.442891,-0.137248 -2.88279,-0.09682 -3.386606,0.311262 -0.561414,0.454732 -0.484058,0.467814 2.542994,0.430056 2.986868,-0.03726 3.193609,-0.0038 4.775668,0.772766 0.909505,0.446439 1.653646,0.905942 1.653646,1.021118 0,0.159842 1.79843,1.132541 2.339741,1.265473 0.04993,0.01226 -0.394999,-0.557921 -0.988735,-1.267073 z m -4.186934,-4.660156 c -1.568938,-1.525987 -2.919381,-2.776143 -3.000985,-2.778125 -0.0816,-0.002 0.335115,1.000658 0.926042,2.228087 0.789571,1.640039 1.214701,2.241469 1.603579,2.26858 0.291042,0.02029 1.005417,0.257357 1.5875,0.526814 0.582083,0.269457 1.210916,0.498752 1.397406,0.509544 0.186489,0.01079 -0.944604,-1.228913 -2.513542,-2.7549 z m -1.410243,1.517752 c -0.0071,-0.109141 -0.418003,-0.972344 -0.913204,-1.918229 l -0.900367,-1.719792 -0.01284,1.434375 c -0.0088,0.977819 0.126538,1.588383 0.425044,1.918229 0.428954,0.473989 1.42671,0.677202 1.401364,0.285417 z m 8.082629,-0.559193 c 1.181062,-0.537253 1.572742,-0.938797 1.793422,-1.838589 0.133846,-0.545739 0.07366,-0.596918 -0.557098,-0.473692 -0.388937,0.07598 -1.391767,0.216204 -2.228511,0.311601 -0.645766,0.07362 -1.168551,0.09669 -1.453301,0.115937 -0.105115,0.0071 -0.08518,0.09152 -0.08518,0.147079 0,0.07543 0.0073,0.479476 -0.07846,0.45773 -0.09909,-0.02514 -0.467584,-0.04218 -1.076183,-0.183379 -0.644473,-0.149522 -1.119064,-0.357139 -1.054649,-0.461364 0.196666,-0.318212 1.59118,-0.875491 2.057061,-0.970386 0.127209,-0.02591 0.167958,0.543246 0.174753,0.598734 0.170787,0.0584 0.863768,0.0042 2.43083,-0.185849 l 2.303632,-0.279338 0.419743,-1.216997 c 0.50876,-1.475091 0.848619,-4.863018 0.427312,-4.259706 -0.199625,0.285862 -0.276624,-0.508888 -0.275274,-2.841251 10e-4,-1.780969 -0.106371,-3.447844 -0.23867,-3.704167 -0.1323,-0.256322 -0.387217,-1.091118 -0.566482,-1.855103 l -0.325937,-1.389062 h -1.913144 c -1.474718,0 -2.181112,-0.138483 -3.082464,-0.604292 -1.625883,-0.840237 -2.465752,-1.344272 -2.645961,-1.587933 -0.252838,-0.341862 -1.566068,-0.491486 -1.566068,-0.178432 0,0.242615 -1.03986,1.54017 -4.422256,5.518166 -0.883841,1.039476 -0.853568,3.771932 0.05663,5.11141 0.363802,0.535382 0.661903,1.128568 0.662447,1.318189 5.44e-4,0.189622 0.241272,0.738878 0.534951,1.220569 0.293679,0.481691 0.453432,1.006103 0.355006,1.165359 -0.09901,0.160196 -0.05829,0.21498 0.09115,0.122625 0.148556,-0.09181 0.483062,0.06838 0.743345,0.355995 0.503496,0.556356 0.187187,0.742219 -0.349604,0.205427 -0.491895,-0.491894 -0.375336,0.02917 0.22314,0.997523 0.483223,0.781872 1.77076,1.749409 5.162258,3.879252 1.760349,1.10549 2.883594,1.231737 4.48356,0.503928 z m -1.719792,-3.153113 c 0,-0.113617 0.355501,-0.340763 0.790002,-0.504769 0.735226,-0.277517 0.771271,-0.263194 0.519858,0.206576 -0.259486,0.484855 -1.30986,0.723975 -1.30986,0.298193 z M 80.40186,54.786694 c -0.330186,-0.330186 -0.195289,-0.625589 0.285678,-0.625589 0.258662,0 0.705147,-0.152791 0.992187,-0.339537 0.858855,-0.55876 2.408137,-1.004428 2.872394,-0.826276 0.238899,0.09167 0.61144,0.01972 0.827868,-0.1599 0.328273,-0.272442 0.393506,-0.228796 0.393506,0.26329 0,0.420719 -0.116062,0.545334 -0.404736,0.43456 -0.222604,-0.08542 -0.847683,0.0026 -1.389062,0.195593 -0.54138,0.192998 -1.341515,0.473629 -1.778077,0.623625 -0.436563,0.149995 -0.978563,0.350598 -1.204446,0.445785 -0.225882,0.09519 -0.493773,0.08999 -0.595312,-0.01155 z m 2.654141,-2.108358 c -0.106109,-0.106109 -0.192925,-0.375488 -0.192925,-0.59862 0,-0.297813 0.07827,-0.327422 0.294349,-0.111345 0.161892,0.161892 0.248708,0.43127 0.192925,0.598619 -0.05578,0.167349 -0.18824,0.217455 -0.294349,0.111346 z m -2.918725,-1.066642 c -0.296678,-0.296678 -0.220496,-2.531077 0.07997,-2.345381 0.14552,0.08994 0.264583,0.03743 0.264583,-0.116676 0,-0.154109 -0.178594,-0.280199 -0.396875,-0.280199 -0.218281,0 -0.396875,-0.178593 -0.396875,-0.396875 0,-0.451532 -0.414761,-0.531455 -0.664126,-0.127975 -0.0914,0.147894 -0.274563,0.201919 -0.407022,0.120056 -0.132458,-0.08186 -0.474192,-0.02395 -0.75941,0.128691 -0.296963,0.15893 -0.581193,0.17622 -0.665098,0.04046 -0.08059,-0.130392 0.120547,-0.309666 0.446964,-0.398388 0.587385,-0.159655 2.313275,-1.583309 2.313275,-1.908177 0,-0.09263 -0.175373,-0.02287 -0.389719,0.15502 -0.214346,0.177891 -0.809658,0.323438 -1.322917,0.323438 -0.513258,0 -0.933197,0.110104 -0.933197,0.244674 0,0.423544 -1.372535,0.817663 -1.69673,0.487211 -0.470677,-0.479761 0.793124,-1.313968 1.990625,-1.313968 1.422559,0 1.293331,-0.421013 -0.191707,-0.62456 -0.91222,-0.125033 -1.514023,-0.03758 -2.38125,0.346034 -1.535874,0.679391 -1.496618,0.275595 0.04821,-0.495931 1.452071,-0.725199 2.75028,-0.911001 4.337529,-0.620796 l 1.180639,0.215863 0.04665,1.317299 c 0.02566,0.724515 0.17898,1.652472 0.340716,2.062128 0.161736,0.409655 0.294066,1.14788 0.294066,1.640498 0,0.573894 0.166344,0.992557 0.463021,1.165356 0.417155,0.24297 0.406194,0.270481 -0.110652,0.27773 -0.31552,0.0044 -0.738458,0.07128 -0.939862,0.148566 -0.201404,0.07729 -0.449267,0.05744 -0.550807,-0.0441 z m 0.865302,-1.353193 c -0.0079,-0.929798 -0.03284,-0.959892 -0.396875,-0.478597 -0.503203,0.665293 -0.498594,1.470784 0.0084,1.470784 0.283718,0 0.394475,-0.282892 0.38846,-0.992187 z m 1.860498,0.892599 c 0,-0.245402 0.183729,-0.516689 0.408286,-0.60286 0.642021,-0.246367 0.704196,0.04226 0.122503,0.568689 -0.484375,0.438353 -0.530789,0.441341 -0.530789,0.03417 z m -0.841054,-4.852018 c -0.225935,-0.259794 -0.485899,-0.789086 -0.577698,-1.176206 -0.163848,-0.690949 -0.133048,-0.709565 1.679971,-1.01537 1.564252,-0.263845 1.906341,-0.252055 2.235439,0.07704 0.489077,0.489076 0.270722,0.716139 -0.688672,0.716139 -0.7099,0 -0.936636,0.403274 -0.780985,1.389063 0.01723,0.109141 -0.137524,0.198437 -0.343903,0.198437 -0.20638,0 -0.541314,0.06373 -0.744298,0.141623 -0.202985,0.07789 -0.553919,-0.07093 -0.779854,-0.330729 z m 0.576471,-0.324445 c 0,-0.312172 -0.516032,-0.646112 -0.705556,-0.456587 -0.189524,0.189524 0.144416,0.705555 0.456587,0.705555 0.136933,0 0.248969,-0.112036 0.248969,-0.248968 z m -0.132292,-1.073949 c 0.08994,-0.14552 0.03743,-0.264583 -0.116677,-0.264583 -0.154109,0 -0.280198,0.119063 -0.280198,0.264583 0,0.145521 0.0525,0.264584 0.116677,0.264584 0.06417,0 0.190261,-0.119063 0.280198,-0.264584 z m -1.610133,-1.021712 c 0.102385,-0.165662 0.387487,-0.304991 0.63356,-0.309619 0.246074,-0.0046 0.681853,-0.185657 0.968398,-0.402287 0.72939,-0.551422 2.472831,-0.98185 3.218705,-0.794648 0.903077,0.226658 0.77133,0.605876 -0.162858,0.468766 -0.479161,-0.07033 -1.197057,0.09703 -1.828877,0.426356 -1.268929,0.661403 -3.105084,1.058261 -2.828928,0.611432 z m 9.456606,11.066687 c 2.600051,-0.579151 4.780611,-1.40912 5.278587,-2.009144 0.761444,-0.917483 -1.709647,-2.006749 -5.385997,-2.374167 l -1.785938,-0.178489 v 1.053801 c 0,0.57959 -0.222131,1.727126 -0.493626,2.550079 -0.271494,0.822953 -0.389296,1.496279 -0.261782,1.496279 0.127514,0 1.319454,-0.242262 2.648756,-0.538359 z M 73.70764,51.422954 c -0.439149,-1.288831 -1.088028,-1.85193 -1.970767,-1.710233 -0.480903,0.07719 -0.463122,0.161698 0.26441,1.256678 0.657746,0.989946 1.83172,1.991223 2.063227,1.759716 0.03618,-0.03618 -0.124416,-0.623947 -0.35687,-1.306161 z m -2.1589,-0.651712 c -0.778442,-1.470651 -0.796993,-1.485904 -1.367801,-1.124693 -0.316331,0.200177 -0.273137,0.394356 0.261178,1.174137 0.536808,0.78342 1.5389,1.560264 1.768082,1.370656 0.03451,-0.02855 -0.263145,-0.667597 -0.661459,-1.4201 z m -1.457322,-2.590823 c -0.08792,-0.08792 -0.316122,-0.09732 -0.507118,-0.02089 -0.211067,0.08446 -0.148372,0.147157 0.159852,0.159853 0.278915,0.01149 0.435185,-0.05105 0.347266,-0.138965 z m 1.333167,-1.087532 c -0.397576,-0.06037 -1.111951,-0.06159 -1.5875,-0.0027 -0.475549,0.05889 -0.150259,0.10828 0.722866,0.109765 0.873125,0.0015 1.26221,-0.04669 0.864634,-0.107065 z m 0.392137,-0.515344 c -0.181901,-0.0734 -0.479558,-0.0734 -0.661459,0 -0.181901,0.0734 -0.03307,0.133452 0.33073,0.133452 0.363802,0 0.51263,-0.06005 0.330729,-0.133452 z M 90.12721,44.437668 c 0.108124,-0.357878 0.06722,-0.595313 -0.102554,-0.595313 -0.155327,0 -0.282413,0.168856 -0.282413,0.375236 0,0.206379 -0.07706,0.593332 -0.171233,0.859895 -0.116801,0.330596 -0.0842,0.400555 0.102554,0.220077 0.150583,-0.14552 0.354723,-0.532474 0.453646,-0.859895 z m -1.586131,-1.184299 c -0.17732,-1.006499 0.04363,-1.334806 0.671997,-0.998514 0.356272,0.190671 0.551084,0.172139 0.687821,-0.06543 0.104922,-0.182295 0.09649,-0.246337 -0.01873,-0.142316 -0.115225,0.10402 -0.424744,0.07393 -0.687821,-0.06686 -0.28362,-0.151789 -0.538814,-0.15811 -0.626934,-0.01553 -0.08174,0.132253 -0.385279,0.17857 -0.674539,0.102927 -0.28926,-0.07564 -0.449339,-0.261456 -0.355731,-0.412916 0.09586,-0.155108 0.04297,-0.196751 -0.121109,-0.09535 -0.207357,0.128153 -0.181014,0.492636 0.09141,1.26477 0.210494,0.596604 0.386503,1.337656 0.391131,1.646782 0.0082,0.548287 0.01782,0.549612 0.392737,0.05412 0.227411,-0.300554 0.329386,-0.819753 0.249768,-1.27168 z m -16.261336,0.588986 c 0,-0.145521 -0.119063,-0.264583 -0.264584,-0.264583 -0.145521,0 -0.264583,0.119062 -0.264583,0.264583 0,0.145521 0.119062,0.264583 0.264583,0.264583 0.145521,0 0.264584,-0.119062 0.264584,-0.264583 z m 15.419324,-3.178024 c 0.608458,-0.710628 0.58053,-0.791421 -0.271928,-0.786674 -0.566986,0.0032 -0.639994,0.06067 -0.33073,0.260532 0.264584,0.170986 0.286632,0.25783 0.06615,0.260531 -0.181901,0.0022 -0.330729,0.182646 -0.330729,0.400927 0,0.547441 0.326229,0.496539 0.867241,-0.135316 z m -4.571408,-1.011212 c 0,-0.121267 -0.173356,-0.220486 -0.385236,-0.220486 -0.21188,0 -0.323916,0.09922 -0.248968,0.220486 0.07495,0.121267 0.248303,0.220486 0.385236,0.220486 0.136933,0 0.248968,-0.09922 0.248968,-0.220486 z m -1.322916,-0.221701 c 0,-0.423798 -0.878802,-1.096068 -1.247733,-0.954495 -0.329078,0.126279 -0.287548,0.244887 0.223296,0.637731 0.655505,0.50409 1.024437,0.618166 1.024437,0.316764 z m -2.965408,-2.743079 c 0.185285,-0.296689 0.432206,-0.48052 0.548714,-0.408514 0.116508,0.07201 0.211833,-0.04244 0.211833,-0.254317 0,-0.21188 -0.06178,-0.385236 -0.137288,-0.385236 -0.231304,0 -1.362018,1.136541 -1.362018,1.369037 0,0.398697 0.397052,0.226189 0.738759,-0.32097 z m -4.550305,31.86207 c -0.229787,-0.598814 0.505063,-1.358575 1.31403,-1.358575 0.526038,0 0.595762,0.07178 0.353401,0.363802 -0.192721,0.232215 -0.202979,0.363802 -0.02836,0.363802 0.150463,0 0.247863,0.175148 0.216444,0.389217 -0.07517,0.512174 -0.425219,0.854825 -0.425219,0.416233 0,-0.271718 -0.09416,-0.268162 -0.463021,0.01749 -0.376937,0.291903 -0.369313,0.248735 0.04101,-0.232186 0.309594,-0.362864 0.38012,-0.590753 0.182823,-0.590753 -0.176663,0 -0.236251,-0.137459 -0.132419,-0.305464 0.117906,-0.190775 0.07248,-0.23358 -0.120992,-0.114009 -0.170379,0.1053 -0.258864,0.273837 -0.196634,0.374527 0.06223,0.100691 -0.04081,0.393619 -0.228976,0.650953 -0.315896,0.432012 -0.355151,0.433926 -0.512084,0.02496 z m -1.744704,-0.470372 c 0,-0.05719 0.178594,-0.172517 0.396875,-0.256279 0.218281,-0.08376 0.396875,-0.03697 0.396875,0.103984 0,0.140954 -0.178594,0.256279 -0.396875,0.256279 -0.218281,0 -0.396875,-0.04679 -0.396875,-0.103984 z m 1.062385,-0.21113 c -0.0022,-0.246073 0.115011,-0.52099 0.260532,-0.610927 0.334856,-0.206953 0.334856,0.143305 0,0.661458 -0.221033,0.342024 -0.257041,0.33504 -0.260532,-0.05053 z m -4.907857,-4.702009 c 0.617504,-0.682335 1.599618,-0.97057 4.639222,-1.361541 3.219898,-0.414162 3.543458,-0.408043 5.291667,0.10006 1.125683,0.327172 1.279721,0.426889 0.680243,0.440359 -0.426231,0.0096 -1.157539,-0.120928 -1.62513,-0.290011 -0.735903,-0.266106 -0.950231,-0.234531 -1.594701,0.234932 -0.641727,0.467466 -0.819204,0.494149 -1.285286,0.193233 -0.78584,-0.507359 -4.507689,-0.05482 -5.483677,0.666759 -0.920674,0.680683 -1.230994,0.688766 -0.622338,0.01621 z M 88.250693,37.117529 c -1.413275,-2.151277 -3.024701,-3.791032 -4.525984,-4.605553 -0.8377,-0.454494 -1.368351,-0.829525 -1.179223,-0.833403 0.413397,-0.0085 1.828033,0.69729 2.579919,1.287131 0.575666,0.451598 4.616838,4.93489 4.616838,5.121937 0,0.06065 -0.175904,0.11027 -0.390898,0.11027 -0.214994,0 -0.710287,-0.486172 -1.100652,-1.080382 z"
       id="path1"
       sodipodi:nodetypes="ssssssssssssssscccssssscccssscssssccsssssssssssssssscssssssscscscscssssssssssssssssssscsssssssssssssscssssscssssssccssssssssscssccssssssssssssscsssssssssssssssssssscccssscssssssssssccsscsscsssssssssscsssccssssssssssssssssssssscsssssssssssssssssscsssscssscssccssssssssssssssssssssssssssssssssscssssssssssssssscssscsccsssssssssssssssssssscssssssssssscsssssssssssssssssssssssssssssssssscssscsscssscssssssscsssss" /></g></svg>
