<?xml version="1.0" encoding="UTF-8" standalone="no"?>
<!-- Created with Inkscape (http://www.inkscape.org/) -->

<svg
   width="49.562996mm"
   height="28.811787mm"
   viewBox="0 0 49.562996 28.811787"
   version="1.1"
   id="svg1"
   xml:space="preserve"
   inkscape:version="1.3 (0e150ed6c4, 2023-07-21)"
   sodipodi:docname="Neck.svg"
   xmlns:inkscape="http://www.inkscape.org/namespaces/inkscape"
   xmlns:sodipodi="http://sodipodi.sourceforge.net/DTD/sodipodi-0.dtd"
   xmlns="http://www.w3.org/2000/svg"
   xmlns:svg="http://www.w3.org/2000/svg"><sodipodi:namedview
     id="namedview1"
     pagecolor="#ffffff"
     bordercolor="#000000"
     borderopacity="0.25"
     inkscape:showpageshadow="2"
     inkscape:pageopacity="0.0"
     inkscape:pagecheckerboard="0"
     inkscape:deskcolor="#d1d1d1"
     inkscape:document-units="mm"
     inkscape:zoom="5.7941077"
     inkscape:cx="133.84287"
     inkscape:cy="30.289392"
     inkscape:window-width="1920"
     inkscape:window-height="1009"
     inkscape:window-x="1919"
     inkscape:window-y="1072"
     inkscape:window-maximized="1"
     inkscape:current-layer="layer1" /><defs
     id="defs1" /><g
     inkscape:label="Layer 1"
     inkscape:groupmode="layer"
     id="layer1"
     transform="translate(-37.571342,-43.327564)"><path
       style="fill:#000000"
       d="M 41.429861,71.549332 C 41.291137,71.184458 40.871087,70.644795 40.496417,70.35008 40.025738,69.979843 39.8152,69.560242 39.8152,68.992417 c 0,-1.017304 0.449813,-1.069365 0.814,-0.09421 0.149454,0.400183 0.517324,1.239834 0.817488,1.865893 0.300165,0.626059 0.475924,1.208118 0.390577,1.293466 -0.08535,0.08535 -0.268679,-0.143357 -0.407404,-0.508231 z m 8.029761,-1.328211 c 0.04241,-1.055026 0.233298,-2.535027 0.424198,-3.288892 0.309137,-1.22078 0.295131,-1.485889 -0.128084,-2.424412 -0.261346,-0.579563 -0.403288,-1.170066 -0.315425,-1.312231 0.213627,-0.345655 -1.273372,-1.772842 -2.408239,-2.311372 -0.500416,-0.237463 -0.851711,-0.489886 -0.780656,-0.560941 0.138343,-0.138343 1.220816,0.414429 2.28699,1.167867 l 0.653414,0.461752 -0.454977,-0.654184 c -0.250237,-0.359801 -0.454977,-0.798535 -0.454977,-0.974963 0,-0.176429 -0.11721,-0.629065 -0.260467,-1.005859 l -0.260466,-0.68508 -1.469621,1.197022 c -0.808291,0.658362 -1.560132,1.197022 -1.670756,1.197022 -0.110625,0 -0.354099,0.423013 -0.541055,0.940028 -0.279922,0.774111 -0.407106,0.884267 -0.720583,0.624104 -0.22448,-0.186302 -0.313219,-0.52843 -0.216281,-0.833856 0.131088,-0.413022 0.06531,-0.48839 -0.324755,-0.372085 -0.269027,0.08022 -0.846328,0.227782 -1.282891,0.327924 -1.271119,0.291579 -0.566212,-0.168577 0.787096,-0.513809 0.675822,-0.172403 1.191916,-0.430529 1.146877,-0.573612 -0.09754,-0.309874 -1.154937,-0.320831 -2.033252,-0.02107 -0.394919,0.134783 -0.569021,0.118331 -0.468527,-0.04427 0.08796,-0.142316 0.538003,-0.334372 1.000104,-0.426792 0.845855,-0.169171 1.552077,-0.599481 1.552077,-0.9457 0,-0.102765 -1.279922,0.148978 -2.844271,0.559427 -1.564349,0.41045 -2.95359,0.710793 -3.087203,0.667431 -0.133614,-0.04336 0.55666,-0.295282 1.533942,-0.559819 1.500984,-0.406298 1.908435,-0.6486 2.624183,-1.560546 0.466019,-0.593762 1.531917,-1.758036 2.368662,-2.587276 1.370851,-1.358556 1.521354,-1.617543 1.521354,-2.61797 0,-1.444302 0.519996,-2.497249 2.119551,-4.29191 2.138629,-2.399487 4.622208,-3.660111 7.859634,-3.98942 0.85908,-0.08738 1.324418,0.02838 2.023481,0.503409 1.10645,0.751852 1.610756,1.552974 3.230892,5.132479 1.05127,2.322661 1.257504,3.03839 1.257935,4.365625 8.61e-4,2.646953 -1.526147,4.847996 -2.898129,4.177389 -0.273069,-0.133473 -1.091801,-0.235019 -1.819405,-0.225659 -1.311073,0.01687 -1.328556,0.02839 -1.952775,1.287226 -0.574083,1.157726 -0.694857,1.25593 -1.363874,1.108989 -0.428133,-0.09403 -0.810576,-0.03734 -0.917734,0.136045 -0.101045,0.163494 -0.519157,0.262077 -0.929137,0.219072 -0.445906,-0.04677 -0.962958,0.118681 -1.286825,0.411776 -0.297773,0.269481 -0.724433,0.41973 -0.948134,0.333888 -0.622487,-0.23887 -0.500621,0.05175 0.674193,1.607778 0.594508,0.78742 1.441138,2.201434 1.881401,3.142253 0.702994,1.502265 0.778541,1.88615 0.620351,3.152262 -0.09907,0.792925 -0.29845,1.514809 -0.443067,1.604188 -0.170165,0.105167 -0.188939,-0.196767 -0.05321,-0.855726 0.33818,-1.641836 0.179737,-2.620254 -0.720418,-4.44873 -1.233111,-2.504804 -1.572231,-2.683125 -1.572231,-0.826733 0,0.822856 -0.175918,1.917134 -0.390928,2.431727 -0.275632,0.65968 -0.34255,1.398493 -0.226892,2.505043 0.108111,1.034356 0.0682,1.56942 -0.117081,1.56942 -0.179675,0 -0.253293,-0.692201 -0.20401,-1.918229 z m 2.213336,-9.115107 c 0.535993,-0.393022 1.523918,-1.282309 2.195389,-1.976193 0.67147,-0.693884 1.322388,-1.175992 1.446485,-1.071352 0.124097,0.104641 0.06615,-0.0181 -0.128772,-0.272764 -0.436481,-0.570253 0.04318,-0.621571 0.513446,-0.05493 0.245518,0.295831 0.41819,0.328292 0.62771,0.118007 0.209183,-0.209949 0.1063,-0.430691 -0.372433,-0.799081 -0.363802,-0.279949 -0.542396,-0.507859 -0.396875,-0.506466 0.463659,0.0044 1.190625,0.690561 1.190625,1.123734 0,0.504155 0.32817,0.746522 0.674513,0.498156 0.324091,-0.23241 1.036897,-1.608466 0.891337,-1.720707 -0.522733,-0.403082 -3.552459,-1.334385 -4.608558,-1.416619 -1.280672,-0.09972 -1.386284,-0.05196 -3.307292,1.495718 -1.091406,0.879301 -2.020541,1.805781 -2.064744,2.058845 -0.06938,0.397219 -0.03934,0.405864 0.219809,0.06324 0.233326,-0.308488 0.266433,-0.153786 0.148658,0.694648 -0.118939,0.856813 -0.03406,1.240842 0.394707,1.785937 0.694112,0.882421 1.35209,0.877269 2.575995,-0.02017 z m 1.836445,-0.38545 c 0.231993,-0.231993 0.40421,-0.225018 0.70999,0.02876 0.34021,0.28235 0.446041,0.223688 0.672895,-0.372982 0.148055,-0.389415 0.386088,-0.92645 0.528962,-1.193412 0.221577,-0.414021 0.1765,-0.46361 -0.306593,-0.337278 -0.67713,0.177073 -2.749524,2.181201 -2.255499,2.181201 0.189177,0 0.481787,-0.137829 0.650245,-0.306286 z M 45.37145,60.100809 c 0.274106,-0.330279 0.240581,-0.396875 -0.19979,-0.396875 -0.291042,0 -0.677386,0.178593 -0.858544,0.396875 -0.274106,0.330278 -0.240581,0.396875 0.19979,0.396875 0.291042,0 0.677386,-0.178594 0.858544,-0.396875 z m -0.671946,-0.753363 c 0.352266,-0.257584 0.399484,-0.410902 0.170191,-0.552613 -0.446246,-0.275794 -1.085745,0.02101 -1.085745,0.503922 0,0.499465 0.278806,0.514292 0.915554,0.04869 z m 6.492779,-3.894104 c 3.857391,-3.227277 3.783335,-3.135734 3.15945,-3.905529 -0.313691,-0.387054 -0.624327,-0.538437 -0.836954,-0.407874 -0.185966,0.114192 -2.18359,1.749177 -4.439163,3.6333 -2.255572,1.884122 -4.147848,3.463847 -4.205056,3.510499 -0.05721,0.04665 0.09027,0.159376 0.327723,0.250497 0.281475,0.108012 0.896903,-0.223784 1.768253,-0.953319 0.735083,-0.615446 1.394303,-1.061205 1.464933,-0.990574 0.07063,0.07063 -0.440151,0.582297 -1.135071,1.137037 -0.694919,0.554739 -1.366225,1.096967 -1.49179,1.204949 -0.125566,0.107982 -0.146462,0.328749 -0.04644,0.490592 0.206457,0.334054 0.866575,-0.148158 5.434113,-3.969578 z m -8.091053,3.311082 c 0.781505,-0.146611 4.204811,-2.686891 6.622616,-4.914342 0.145888,-0.134403 -0.464701,-0.231176 -1.455209,-0.230638 l -1.706562,9.27e-4 -1.769021,1.78501 c -2.368985,2.390399 -3.634243,3.912413 -3.078414,3.70311 0.244327,-0.092 0.868293,-0.246834 1.38659,-0.344067 z m 17.932752,-1.070679 c 0.895923,-1.534031 1.005774,-3.085926 0.349229,-4.933638 -1.128343,-3.175487 -2.666935,-6.140979 -3.588434,-6.916369 -0.824848,-0.694065 -1.026223,-0.744146 -2.493139,-0.620042 -0.877697,0.07426 -2.267459,0.389827 -3.08836,0.701272 -1.429738,0.542434 -1.499624,0.613237 -1.660724,1.68251 -0.159732,1.060201 -0.214317,1.117244 -1.08714,1.136098 -0.50543,0.01092 -0.918964,-0.08751 -0.918964,-0.218737 0,-0.289962 -1.000719,0.883561 -1.949663,2.286329 -0.835218,1.234655 -0.981397,2.929308 -0.23315,2.702914 0.254662,-0.07705 1.177396,-0.159687 2.050521,-0.183635 1.713433,-0.047 2.216671,-0.276744 4.189112,-1.912493 l 1.278696,-1.060425 0.630018,0.770598 c 0.77823,0.951881 0.78725,1.118551 0.100119,1.849969 -0.473852,0.504393 -0.501943,0.659548 -0.205381,1.134418 0.349354,0.559404 2.326996,1.542972 3.445702,1.713699 0.347804,0.05308 0.756046,-0.0902 0.938143,-0.329258 0.293559,-0.385385 0.323139,-0.383516 0.330802,0.02089 0.0046,0.244268 0.201599,0.637307 0.437713,0.873421 0.30504,0.30504 0.385652,0.698264 0.278505,1.358535 -0.124299,0.765964 -0.0744,0.914524 0.28398,0.845506 0.239126,-0.04605 0.649713,-0.451755 0.912415,-0.901564 z m 15.189734,13.497924 c -0.08833,-0.230183 -0.160599,-0.871837 -0.160599,-1.425897 0,-0.613583 -0.203417,-1.251556 -0.520364,-1.632006 -0.286201,-0.343543 -0.524326,-0.514573 -0.529167,-0.380066 -0.0048,0.134507 -0.276693,0.0034 -0.604115,-0.291303 -0.327422,-0.294724 -0.803672,-0.609397 -1.058333,-0.699275 -0.387355,-0.136709 -0.463021,-0.0023 -0.463021,0.822216 0,0.542097 0.110751,1.371798 0.246114,1.84378 0.135362,0.471982 0.150245,0.858149 0.03307,0.858149 -0.307442,0 -0.54377,-1.409096 -0.54377,-3.242208 0,-0.999703 0.231859,-2.237932 0.625487,-3.340365 0.344018,-0.963491 0.706431,-2.197385 0.805363,-2.741987 0.166237,-0.915105 0.133857,-0.987165 -0.42705,-0.950362 -0.333809,0.0219 -1.083175,-0.0974 -1.665259,-0.26511 -0.582083,-0.167714 -2.106654,-0.305598 -3.387934,-0.306409 l -2.329601,-0.0015 0.08064,-1.25677 c 0.07126,-1.11054 0.149911,-1.254327 0.675956,-1.235763 0.327421,0.01155 0.595312,-0.02652 0.595312,-0.08462 0,-0.0581 -0.344309,-0.606065 -0.765132,-1.21771 -0.420823,-0.611645 -0.913664,-1.607836 -1.095203,-2.213759 -0.371619,-1.240356 -0.266473,-1.654593 1.420567,-5.596494 1.25778,-2.938899 1.533447,-3.317956 2.890837,-3.975058 1.444899,-0.699463 2.31606,-0.707755 3.177378,-0.03024 0.37,0.291042 1.033873,0.529167 1.475275,0.529167 0.441402,0 0.883737,0.131366 0.982968,0.291924 0.12023,0.194537 0.735396,0.232492 1.84399,0.113772 1.54315,-0.165258 1.676503,-0.137411 1.842211,0.38469 0.09825,0.309564 0.466108,0.672138 0.817458,0.805721 0.35135,0.133584 0.638818,0.44687 0.638818,0.696193 0,0.386916 -0.07902,0.368498 -0.539474,-0.125743 -0.29671,-0.318482 -0.713429,-0.579057 -0.926041,-0.579057 -0.217759,0 -0.386568,-0.245523 -0.386568,-0.56224 0,-0.488597 -0.108298,-0.54058 -0.826823,-0.396875 -0.454753,0.09095 -1.064644,0.165365 -1.355314,0.165365 -0.43977,0 -0.473196,0.06663 -0.199113,0.396875 0.181157,0.218281 0.480653,0.396875 0.665547,0.396875 0.184894,0 0.404704,0.178593 0.488466,0.396875 0.18863,0.491562 -0.201796,0.517544 -0.674456,0.04488 -0.193595,-0.193594 -0.489652,-0.306103 -0.657905,-0.250018 -0.168253,0.05608 -0.386306,-0.151319 -0.484561,-0.460895 -0.108223,-0.34098 -0.325676,-0.506446 -0.551619,-0.419744 -0.216569,0.08311 -0.372972,-0.01982 -0.372972,-0.245448 0,-0.28414 -0.319989,-0.388571 -1.190625,-0.388571 -1.427967,0 -1.527981,0.362256 -0.420085,1.521564 0.423797,0.443463 1.344672,1.681512 2.046389,2.75122 0.701716,1.069709 1.515832,2.142904 1.809147,2.384879 0.476115,0.392779 0.498278,0.532895 0.206699,1.306718 -0.292998,0.777588 -0.258443,0.983063 0.335862,1.997168 0.483539,0.825096 0.786131,1.090707 1.120349,0.983427 0.308499,-0.09902 0.353018,-0.07087 0.136455,0.08629 -0.239413,0.173743 -0.121553,0.534559 0.461889,1.414021 0.887098,1.337186 0.998829,2.22575 0.327139,2.601646 -0.258531,0.144681 -1.453141,0.192117 -2.739463,0.10878 l -2.281015,-0.14778 -0.303246,0.869891 c -0.422079,1.210777 -0.34174,1.892165 0.108853,0.923218 0.351688,-0.756264 0.362401,-0.718778 0.226837,0.79375 -0.306342,3.417961 -0.280738,3.597586 0.620009,4.349562 0.458384,0.382676 0.825527,0.929793 0.815874,1.215815 -0.0097,0.286022 0.04309,1.26418 0.117204,2.173686 0.13848,1.699352 0.100136,1.963433 -0.17934,1.235131 z M 74.211034,64.30875 c 0,-0.33266 -0.110491,-0.673123 -0.245535,-0.756585 -0.252975,-0.156348 -0.485397,0.374604 -0.712703,1.628118 -0.128707,0.709774 -0.123743,0.712482 0.413985,0.225845 0.299339,-0.270898 0.544253,-0.764718 0.544253,-1.097378 z m 3.639457,-5.199255 c -0.0661,-0.200361 -0.70324,-0.363008 -1.60984,-0.410953 -0.834027,-0.04411 -1.500451,-0.204342 -1.500451,-0.36077 0,-0.183599 0.413864,-0.219359 1.190625,-0.102877 0.73791,0.110657 1.190625,0.07771 1.190625,-0.08664 0,-0.449507 -0.371071,-0.537308 -2.477194,-0.58614 -1.118801,-0.02594 -5.656614,-0.300717 -5.74466,-0.443179 -0.103026,-0.166701 4.157042,-0.05416 5.541498,0.06839 1.183154,0.104733 2.15119,0.118947 2.15119,0.03158 0,-0.08736 -1.259818,-2.073859 -2.799595,-4.414441 -2.63471,-4.004966 -2.77106,-4.277988 -2.315104,-4.635668 1.313075,-1.030057 1.316318,-1.0288 2.781146,1.078247 0.76098,1.094614 1.471251,1.990208 1.578378,1.990208 0.551655,0 0.421781,-0.641955 -0.359717,-1.778054 -1.434046,-2.084736 -2.084925,-2.619049 -3.288572,-2.699619 -0.446037,-0.02986 -0.692981,-0.872188 -0.322773,-1.100989 0.239322,-0.147909 0.205844,-0.369357 -0.134326,-0.888522 -0.249203,-0.380332 -0.377813,-0.813324 -0.285799,-0.962205 0.09201,-0.148881 -0.289992,-0.08487 -0.8489,0.142256 -1.209088,0.491332 -2.347985,1.740854 -2.770738,3.039869 -0.168248,0.516985 -0.645977,1.687095 -1.06162,2.600244 -1.156184,2.540086 -0.933763,4.51357 0.732502,6.499317 0.645419,0.769169 0.86324,0.84827 2.715598,0.986163 1.987903,0.147983 3.016454,0.242037 0.208485,0.244102 l -3.883132,0.0029 v 0.897036 0.897037 l 3.231902,0.04181 c 1.777546,0.023 3.274565,0.08447 3.326709,0.136617 0.05214,0.05214 1.167686,0.106307 2.47898,0.120361 1.801207,0.0193 2.357425,-0.05553 2.274783,-0.30605 z m 1.387626,-0.06702 c 0,-0.220486 -0.235185,-0.396875 -0.529167,-0.396875 -0.527114,0 -0.688214,0.281925 -0.352777,0.617361 0.322243,0.322244 0.881944,0.182319 0.881944,-0.220486 z m 0.79375,-0.132291 c 0,-0.145521 -0.126089,-0.264584 -0.280198,-0.264584 -0.154109,0 -0.206614,0.119063 -0.116677,0.264584 0.08994,0.145521 0.216026,0.264583 0.280198,0.264583 0.06417,0 0.116677,-0.119062 0.116677,-0.264583 z m -1.698238,-0.942286 c -0.473069,-0.473069 -0.975997,-0.497924 -0.800099,-0.03954 0.07199,0.1876 0.367103,0.358884 0.65581,0.380632 0.45664,0.0344 0.475409,-0.01 0.144289,-0.341092 z m 1.698238,0.290136 c 0,-0.06764 -0.238125,-0.250423 -0.529167,-0.406184 -0.422354,-0.226037 -0.529166,-0.201213 -0.529166,0.122983 0,0.229795 0.229795,0.406184 0.529166,0.406184 0.291042,0 0.529167,-0.05534 0.529167,-0.122983 z M 77.9152,57.171918 c 0,-0.08292 -0.362907,-0.678234 -0.80646,-1.322917 -0.443554,-0.644683 -0.711445,-1.170011 -0.595313,-1.167397 0.116132,0.0026 0.599017,0.597927 1.073078,1.322917 0.474061,0.724989 1.045524,1.318163 1.269918,1.318163 0.269085,0 0.335953,-0.11973 0.196404,-0.351673 -0.807974,-1.342924 -5.986566,-8.930937 -6.17427,-9.046944 -0.320313,-0.197964 -1.342554,0.468426 -1.253274,0.816999 0.03972,0.155058 1.26264,2.149355 2.717611,4.431771 1.7661,2.770485 2.799448,4.149847 3.108854,4.149847 0.254899,0 0.463452,-0.06785 0.463452,-0.150766 z m -0.5705,-4.992492 c 0.119739,-0.617661 -0.288909,-1.001885 -0.840465,-0.790233 -0.519445,0.199329 -0.570112,0.67158 -0.120311,1.121381 0.413642,0.413643 0.84523,0.264888 0.960776,-0.331148 z M 38.6559,71.131702 c -0.08468,-0.137008 -0.299286,-1.096607 -0.476912,-2.132443 -0.293805,-1.71334 -0.271935,-2.05665 0.242293,-3.803394 0.310888,-1.056031 0.645199,-2.127951 0.742913,-2.382045 0.152361,-0.396199 0.05123,-0.44397 -0.710146,-0.335462 -0.851839,0.1214 -0.84493,0.111462 0.170527,-0.245282 0.582083,-0.204495 3.237862,-0.886007 3.528904,-0.887966 0.505556,-0.0034 -1.263609,0.53524 -1.970914,0.734768 -0.63288,0.178533 -1.001359,1.232203 -0.590433,1.486169 0.141029,0.08716 0.504363,-0.06155 0.80741,-0.330465 0.547134,-0.485515 0.548482,-0.484307 0.1924,0.172518 -0.197226,0.363802 -0.326747,0.817459 -0.287824,1.008127 0.103642,0.507696 -0.489023,2.166873 -0.774017,2.166873 -0.134235,0 -0.244064,-0.164015 -0.244064,-0.364478 0,-0.200463 -0.178594,-0.512698 -0.396875,-0.693855 -0.341792,-0.283662 -0.402213,-0.168813 -0.435337,0.827499 -0.05582,1.678896 0.04056,2.885052 0.313246,3.920123 0.238632,0.905822 0.183061,1.335384 -0.111167,0.859313 z m 44.298206,-0.182977 c -0.0063,-0.291042 0.360305,-1.303073 0.814618,-2.248958 0.454312,-0.945886 0.986697,-2.315104 1.183077,-3.042709 l 0.357055,-1.322916 -0.09738,1.106619 c -0.05356,0.608641 -0.423434,1.799266 -0.821944,2.645833 -0.39851,0.846568 -0.881942,1.955933 -1.074293,2.465256 -0.227276,0.601802 -0.353722,0.740762 -0.361133,0.396875 z m 3.755381,-0.587538 c 0.540007,-1.476306 -0.07001,-3.974854 -1.630663,-6.679 -0.738535,-1.279659 -1.34279,-2.454078 -1.34279,-2.609821 0,-0.155743 -0.446096,-0.61665 -0.991323,-1.024238 -1.121498,-0.838382 -1.800696,-1.555783 -2.204571,-2.328569 -0.152105,-0.291042 0.203538,0.0066 0.790316,0.661458 l 1.06687,1.190625 0.0079,-0.795497 c 0.01301,-1.310223 -0.411949,-2.386407 -1.551357,-3.928766 -0.918413,-1.24321 -0.997702,-1.445945 -0.530301,-1.355932 0.50615,0.09748 0.544185,-0.0031 0.481465,-1.272609 -0.03767,-0.762414 0.07751,-1.547588 0.328029,-2.08516 0.256276,-0.549936 0.907326,-1.064956 1.089746,-0.952215 0.135061,0.08347 -0.72514,0.730498 -0.88817,1.035121 -0.468099,0.87465 -0.143858,3.889118 0.60197,5.596514 l 0.669701,1.533123 0.170757,-1.067857 c 0.100867,-0.630785 -0.0012,-1.900437 -0.249411,-3.102023 -0.23432,-1.134415 -0.345111,-2.434263 -0.250477,-2.938706 0.114234,-0.608918 0.07771,-0.847689 -0.111765,-0.730589 -0.154802,0.09567 -0.281459,0.0606 -0.281459,-0.07794 0,-0.13854 0.178594,-0.320423 0.396875,-0.404186 0.629733,-0.241651 0.472813,-1.203981 -0.250028,-1.533329 -0.355796,-0.162112 -0.718108,-0.431872 -0.805136,-0.658664 -0.02889,-0.07529 -0.560023,-0.323009 -0.579054,-0.361427 -0.102579,-0.207083 0.590508,0.05421 0.916062,0.348833 0.272382,0.246502 0.630504,0.448186 0.795827,0.448186 0.532227,0 0.898694,0.999093 0.582901,1.589157 -0.409487,0.765134 -0.404476,3.065879 0.01048,4.812108 0.29585,1.245 0.298866,1.803894 0.01738,3.220053 -0.35734,1.797767 -0.246586,2.595786 0.468415,3.3751 0.236859,0.258165 1.127367,1.824898 1.978907,3.481629 1.286252,2.502494 1.570012,3.299596 1.676827,4.710325 0.09727,1.284653 0.02824,1.826922 -0.283519,2.227253 -0.384202,0.493352 -0.390997,0.471494 -0.100401,-0.322955 z M 78.973534,60.98208 c 0,-0.446524 1.52648,-1.19064 2.182812,-1.06406 0.862442,0.16633 0.495175,0.757297 -0.49374,0.794474 -0.526218,0.01978 -1.121531,0.172716 -1.322917,0.339851 -0.28246,0.234421 -0.366155,0.21836 -0.366155,-0.07026 z m 0.264583,-9.984626 c 0,-0.131897 0.238125,-0.177543 0.529167,-0.101433 0.1888,0.04937 0.661305,-0.0386 1.236744,-0.536728 0.01481,-0.01282 0.151723,0.0021 0.08598,0.107296 -0.130144,0.208157 -0.554642,0.603132 -0.793559,0.669245 -0.05377,0.01488 -0.238125,0.101433 -0.529166,0.101433 -0.291042,0 -0.529167,-0.107916 -0.529166,-0.239813 z"
       id="path1"
       sodipodi:nodetypes="ssssssssssssssscssscssssssssssssssssssssssssssssssssssssssssssssssssssscsssssssssssssssssssssssssssssssssssssssssssscssssssssssssssscssssscssssscsscssssssssssccsssssssssssssssssssssssssssssssssssssscsssscsccssssssssssssssssssssssssssssscccsssssssssssssscsscssssssssssssssssssssssssssssssssssssssscsscssscsssssscsssssssscsssssssssssssssssssssssssssssssss" /></g></svg>
