<?xml version="1.0" encoding="UTF-8" standalone="no"?>
<!-- Created with Inkscape (http://www.inkscape.org/) -->

<svg
   width="66.510643mm"
   height="37.944408mm"
   viewBox="0 0 66.510643 37.944408"
   version="1.1"
   id="svg1"
   xml:space="preserve"
   sodipodi:docname="Neck (Lateral Bending).svg"
   inkscape:version="1.3 (0e150ed6c4, 2023-07-21)"
   xmlns:inkscape="http://www.inkscape.org/namespaces/inkscape"
   xmlns:sodipodi="http://sodipodi.sourceforge.net/DTD/sodipodi-0.dtd"
   xmlns="http://www.w3.org/2000/svg"
   xmlns:svg="http://www.w3.org/2000/svg"><sodipodi:namedview
     id="namedview1"
     pagecolor="#ffffff"
     bordercolor="#000000"
     borderopacity="0.25"
     inkscape:showpageshadow="2"
     inkscape:pageopacity="0.0"
     inkscape:pagecheckerboard="0"
     inkscape:deskcolor="#d1d1d1"
     inkscape:document-units="mm"
     inkscape:zoom="2.0485264"
     inkscape:cx="103.48902"
     inkscape:cy="139.36847"
     inkscape:window-width="1920"
     inkscape:window-height="1009"
     inkscape:window-x="1919"
     inkscape:window-y="1072"
     inkscape:window-maximized="1"
     inkscape:current-layer="layer1" /><defs
     id="defs1" /><g
     inkscape:label="Layer 1"
     inkscape:groupmode="layer"
     id="layer1"
     transform="translate(-76.823369,-72.868841)"><path
       style="fill:#000000"
       d="m 103.60374,110.30244 -0.7363,-0.47178 0.60401,-0.43029 0.604,-0.43029 -0.7276,0.2534 c -0.70681,0.24616 -1.07343,-0.079 -0.39688,-0.35202 0.18191,-0.0734 0.0628,-0.14285 -0.26458,-0.15434 -0.32742,-0.0115 -0.59531,-0.15553 -0.59531,-0.32009 0,-0.50464 1.89987,-0.0397 2.54044,0.62172 0.45097,0.46565 0.53172,0.73952 0.35347,1.19884 -0.27215,0.70128 -0.40634,0.70952 -1.38125,0.0849 z m 0.67015,-0.45852 c -0.1819,-0.0734 -0.47956,-0.0734 -0.66146,0 -0.1819,0.0734 -0.0331,0.13345 0.33073,0.13345 0.3638,0 0.51263,-0.06 0.33073,-0.13345 z m 3.75418,-0.69135 c 0.21471,-2.0049 -0.15977,-3.87078 -0.89663,-4.4675 -0.77062,-0.62406 -0.67358,-0.96307 0.31745,-1.10907 0.47294,-0.0697 -2.44409,-0.0676 -6.48229,0.005 l -7.342189,0.13135 v -0.97074 -0.97074 l -1.124479,0.17345 c -1.729454,0.26675 -3.89728,0.91681 -5.361776,1.60783 -2.752089,1.29856 -3.471936,1.44247 -6.974614,1.39434 l -3.340173,-0.0459 3.571875,-0.17056 c 3.446659,-0.16458 3.65644,-0.20863 5.984137,-1.25634 2.798164,-1.25948 4.881186,-1.9209 6.049511,-1.9209 0.453806,0 0.948079,-0.12297 1.098383,-0.27328 0.150304,-0.1503 2.108882,-0.34607 4.352396,-0.43505 5.664289,-0.22464 6.359189,-0.55632 3.920829,-1.871431 -0.7419,-0.40014 -1.7837,-1.016613 -2.315104,-1.36994 -0.531406,-0.353327 -1.424711,-0.66897 -1.985121,-0.701428 -0.560411,-0.03246 -1.152003,-0.19209 -1.314649,-0.354736 -0.217904,-0.217905 -0.05422,-0.259526 0.622054,-0.158174 0.887979,0.133081 0.892741,0.129312 0.146693,-0.116076 -0.424094,-0.139492 -0.865735,-0.195122 -0.981425,-0.123622 -0.11569,0.0715 -0.423547,0.01684 -0.684128,-0.121476 -0.260581,-0.138312 -0.846749,-0.389122 -1.302596,-0.557354 -1.335537,-0.492887 -2.185034,-1.624438 -3.155578,-4.203305 -1.459358,-3.877716 -1.20308,-5.77868 1.219633,-9.04674 1.57591,-2.125786 2.274291,-2.443161 5.290234,-2.404119 2.034062,0.02633 3.947447,0.560813 5.388997,1.505351 0.57031,0.373681 0.69708,0.362353 1.54525,-0.138078 0.72829,-0.429701 1.5199,-0.570298 3.73778,-0.663868 3.06626,-0.12936 3.86833,0.05108 4.99201,1.123053 l 0.72701,0.693559 1.51335,-0.62725 c 2.40098,-0.995151 3.87526,-1.001368 5.7246,-0.02414 0.85152,0.449961 1.69686,0.818111 1.87853,0.818111 0.75036,0 2.46212,1.570523 2.89737,2.658305 1.10215,2.754552 0.74638,7.12361 -0.73638,9.043024 -1.24873,1.616479 -4.21908,3.141663 -6.46028,3.317162 -1.35709,0.106268 -1.95423,0.289716 -2.54417,0.781596 -0.90765,0.756777 -1.85011,1.907746 -1.69178,2.066076 0.0612,0.0612 0.9886,0.29578 2.06096,0.52136 1.07235,0.22558 2.10566,0.53955 2.29624,0.69772 0.32877,0.27285 1.20745,0.24437 5.91066,-0.19155 1.67825,-0.15556 4.1975,0.52081 8.06979,2.16655 2.30799,0.98091 2.50094,1.01643 6.27106,1.15455 2.78494,0.10202 3.98739,0.24488 4.23334,0.50296 0.28646,0.30059 0.24614,0.33107 -0.24275,0.18348 -0.32244,-0.0973 -2.16791,-0.21427 -4.10104,-0.25984 -3.4214,-0.0806 -3.58154,-0.11098 -6.02831,-1.14193 -3.53131,-1.48792 -6.00001,-2.23091 -7.54063,-2.26944 -1.62329,-0.0406 -2.8117,0.25574 -2.75665,0.68739 0.1121,0.87899 -0.0281,1.04039 -0.74908,0.86234 -0.79545,-0.19646 -1.44118,-0.67142 -0.91281,-0.67142 0.17462,0 0.3175,-0.10308 0.3175,-0.22906 0,-0.12598 -0.50435,-0.13683 -1.12078,-0.0241 -0.61656,0.11275 -1.32292,0.0968 -1.5701,-0.0355 -0.70756,-0.37867 -0.90058,-0.28103 -0.33625,0.1701 0.4993,0.39916 0.49707,0.40604 -0.0801,0.24729 -0.49012,-0.13482 -0.56406,-0.0795 -0.424,0.31703 0.13758,0.3895 0.0603,0.36776 -0.40884,-0.11499 -0.31818,-0.32743 -0.78222,-0.60738 -1.03122,-0.62212 -1.13396,-0.0671 -2.40985,0.0793 -3.62771,0.41648 -0.7276,0.20143 -1.85066,0.46405 -2.49569,0.58359 -1.13322,0.21003 -1.15654,0.23355 -0.69169,0.69739 0.35904,0.35826 0.40485,0.55625 0.18058,0.78052 -0.18717,0.18717 -0.30049,1.37813 -0.30049,3.15799 0,1.57163 -0.0893,2.85732 -0.19844,2.85709 -0.10914,-2.2e-4 -0.20846,-0.98755 -0.22072,-2.19406 -0.0122,-1.20652 -0.13548,-2.39595 -0.27384,-2.64319 -0.16726,-0.29886 -0.21598,0.43647 -0.14539,2.19407 0.0794,1.97624 0.0238,2.64359 -0.22,2.64359 -0.24275,0 -0.2807,-0.42465 -0.14837,-1.66033 z m -1.99395,-6.2588 2.22326,-0.15066 -0.69068,-0.81861 -0.69068,-0.81861 -5.8982,0.10374 c -3.24401,0.0571 -6.166091,0.15982 -6.493513,0.22834 -0.458252,0.0959 -0.595312,0.30834 -0.595312,0.92269 v 0.79809 l 4.960937,-0.0572 c 2.728518,-0.0314 5.961398,-0.12496 7.184188,-0.20782 z m 4.12675,-0.94441 c 0,-0.65678 -0.11805,-0.80747 -0.68411,-0.87327 -0.83994,-0.0976 -1.40617,0.51966 -1.16722,1.27252 0.13905,0.43812 0.35541,0.53961 1.01405,0.47572 0.73587,-0.0714 0.83728,-0.17736 0.83728,-0.87497 z m 3.39183,0.17551 c 2.52668,-0.51655 2.63165,-0.78344 0.52916,-1.34551 -0.65658,-0.17553 -1.14044,-0.47342 -1.19062,-0.733 -0.0581,-0.30034 -0.4394,0.0328 -1.21759,1.06358 -0.62317,0.82548 -0.98036,1.49888 -0.79375,1.49643 0.18662,-0.002 1.38938,-0.21912 2.6728,-0.4815 z m -5.74552,-1.0299 c -0.26895,-0.26895 -0.49087,0.13597 -0.2702,0.49302 0.1667,0.26973 0.22902,0.26993 0.31864,10e-4 0.0613,-0.18383 0.0395,-0.40617 -0.0484,-0.49409 z m 4.96915,-3.611675 -0.17248,-1.467561 -1.03744,1.302973 c -0.92653,1.163672 -1.02394,1.424281 -0.91114,2.437645 0.0695,0.624068 0.13547,1.299058 0.14668,1.499968 0.0112,0.20091 0.49884,-0.23563 1.08362,-0.97009 1.03081,-1.294638 1.05798,-1.380144 0.89076,-2.802935 z m -6.76764,2.783895 c -0.84053,-1.195002 -2.36957,-2.690298 -2.60331,-2.545843 -0.14078,0.08701 -0.25597,-0.08213 -0.25597,-0.375875 0,-0.29374 -0.31267,-0.824003 -0.69483,-1.178361 l -0.69484,-0.644286 -1.0911,0.495477 c -0.60011,0.272512 -1.329228,0.501878 -1.62027,0.509702 l -0.529167,0.01423 0.529167,0.410085 c 0.514319,0.398578 3.96672,2.218919 4.20833,2.218919 0.0663,0 -0.0848,-1.4837 -0.0217,-1.811122 0.0727,-0.377689 0.15638,-0.0122 0.40756,1.591045 0.24869,1.587359 0.23106,1.807579 1.53455,1.807579 1.09495,0 1.15313,-0.0344 0.83159,-0.49154 z m 1.90322,-0.54649 c 0,-1.358241 -0.92494,-2.464837 -2.43172,-2.909293 -0.62709,-0.184972 -1.40804,-0.583872 -1.73547,-0.886446 -0.32742,-0.302575 -0.59457,-0.440084 -0.59368,-0.305577 0.006,0.951672 3.49273,5.139346 4.27869,5.139346 0.38458,0 0.48218,-0.2101 0.48218,-1.03803 z m 1.00518,0.29906 c -0.13947,-0.718694 -0.74059,-0.680415 -0.74059,0.0472 0,0.50099 0.10575,0.63462 0.40986,0.51793 0.22542,-0.0865 0.37425,-0.3408 0.33073,-0.56509 z m 1.37607,-0.105346 c 0,-0.793452 -0.0226,-0.813423 -0.375,-0.331479 -0.26466,0.361945 -0.29405,0.610375 -0.0999,0.844315 0.40727,0.49073 0.47489,0.4177 0.47489,-0.512836 z m 6.27694,-2.740567 c -0.0326,-0.0238 -0.42793,-0.113278 -0.87857,-0.198842 -0.74,-0.140505 -0.90014,-0.04094 -1.65365,1.028064 -0.83156,1.179752 -0.99899,1.709032 -0.65076,2.057261 0.10094,0.10095 0.87174,-0.497481 1.71287,-1.329838 0.84113,-0.832356 1.50268,-1.532846 1.47011,-1.556645 z m -6.79117,1.931241 c 0.27314,-0.327422 0.50059,-0.600372 0.50543,-0.724949 0.003,-0.06436 -0.0432,-0.963074 0.088,-1.131389 0.0707,-0.09071 0.2748,-0.02673 0.2737,0.123328 -0.005,0.685792 0.25861,0.226249 0.32245,0.15342 0.30868,-0.352134 0.61032,-0.596335 0.53079,-0.675867 -0.0795,-0.07953 -0.39596,0.08287 -0.70317,0.360893 -0.30721,0.278023 -0.6056,0.47573 -0.66308,0.43935 -0.0575,-0.03638 -0.52123,-0.06615 -1.03055,-0.06615 -1.0522,0 -1.19109,0.407852 -0.49874,1.464518 0.52224,0.79704 0.55625,0.798685 1.17513,0.05684 z m 6.99476,-5.017513 2.48159,-2.986133 -0.71075,-0.595604 c -0.39091,-0.327582 -0.85957,-0.539677 -1.04147,-0.471325 -0.12226,0.04594 -0.74839,0.903072 -0.8022,0.859759 -0.11855,-0.09542 0.47302,-1.217767 0.7345,-1.379368 0.14467,-0.08941 0.71022,0.16664 1.25678,0.568995 0.54656,0.402355 1.0312,0.753986 1.07698,0.781403 0.0458,0.02742 -0.94855,1.282389 -2.20963,2.788828 l -2.29287,2.738978 0.96527,0.08286 c 0.72511,0.06224 1.2697,-0.118785 2.18885,-0.727604 0.67296,-0.445754 1.03159,-0.810462 0.79695,-0.810462 -0.23464,0 -0.50021,0.119063 -0.59014,0.264583 -0.0899,0.145521 -0.25717,0.264584 -0.37163,0.264584 -0.27746,0 -0.20124,-1.240612 0.0927,-1.508676 0.12732,-0.116114 0.15355,-0.07476 0.0583,0.09189 -0.17215,0.301195 0.50626,0.720746 0.83984,0.519374 0.096,-0.05796 0.32941,0.06214 0.51868,0.266891 0.28272,0.305853 0.28087,0.396539 -0.0104,0.508297 -0.631,0.242137 -0.49003,1.164457 0.20463,1.338805 0.4497,0.112867 1.13969,-0.120717 2.34089,-0.792468 2.92245,-1.634327 3.70288,-3.08177 3.72376,-6.906404 0.0138,-2.532779 -0.57529,-4.297747 -1.77006,-5.303083 -0.72674,-0.611508 -0.96245,-0.667993 -2.12205,-0.508508 -1.2601,0.173308 -1.29451,0.160754 -1.01108,-0.368843 0.25721,-0.480594 0.18675,-0.603695 -0.57092,-0.997462 -1.16299,-0.604418 -3.30606,-0.522158 -4.96265,0.190489 -0.72911,0.313653 -1.32565,0.600723 -1.32565,0.637933 0,0.03721 0.40711,0.743726 0.90469,1.570034 0.75911,1.260629 1.52746,3.971425 1.52231,5.370832 -4.1e-4,0.111297 0.10711,0.332318 0.23893,0.491157 0.39727,0.478676 -1.16107,3.312553 -2.50046,4.54716 -1.15923,1.068543 -1.22336,1.201069 -1.21542,2.511678 l 0.008,1.383613 0.53588,-0.718034 c 0.29474,-0.394918 1.6526,-2.061793 3.01747,-3.704166 z m -9.22164,3.022901 c -0.61286,-0.612855 -0.87484,-0.160165 -0.28469,0.491936 0.31558,0.348716 0.53678,0.43693 0.60235,0.24022 0.057,-0.170979 -0.086,-0.500449 -0.31766,-0.732156 z m 11.25061,-0.07278 c -0.39,-0.156291 -0.78113,-0.153066 -1.05833,0.0087 -0.33529,0.19569 -0.18837,0.254565 0.61862,0.247912 0.92565,-0.0076 0.98078,-0.03981 0.43971,-0.256637 z m -8.5095,-1.405291 0.0209,-3.749718 0.14176,-0.259811 c 0.17689,-0.324201 0.0366,5.167107 0.23971,5.167107 0.33703,0 2.21839,-1.40558 2.35385,-1.758579 0.0827,-0.215395 0.25581,-0.326408 0.38478,-0.246696 0.39656,0.245084 2.68806,-2.307845 2.36316,-2.632751 -0.068,-0.06798 -0.50506,0.407575 -0.97128,1.056784 -0.85733,1.193802 -2.33168,3.09391 -2.32077,2.70249 0.003,-0.117729 1.56774,-2.289633 2.29264,-3.089998 0.7249,-0.800364 1.39517,-1.743862 1.4895,-2.096661 0.27026,-1.010743 -0.36713,-4.399082 -1.08679,-5.777372 -0.36014,-0.68975 -1.1492,-1.770241 -1.75345,-2.401091 -1.48505,-1.550411 -4.02161,-2.436498 -4.37069,-1.526799 -0.14131,0.368238 -0.92106,0.366926 -2.56836,-0.0043 -0.46868,-0.105627 -1.13007,0.0077 -1.79495,0.307492 l -1.0528,0.474748 0.85082,0.87783 c 0.46796,0.482806 0.79076,0.937902 0.71733,1.011325 -0.0734,0.07342 -0.47451,-0.22245 -0.89131,-0.657495 -0.4168,-0.435045 -0.84958,-0.79099 -0.96174,-0.79099 -0.37066,0 -1.48767,2.222352 -1.92829,3.836458 -0.23835,0.873125 -0.68022,2.04347 -0.98194,2.600767 l -0.548562,1.013267 0.544942,0.38169 c 0.29971,0.209929 0.70103,0.537787 0.89182,0.728573 0.34463,0.344629 1.25242,0.487829 1.22059,0.192544 -0.0653,-0.605816 0.12125,-0.574697 0.56188,0.09374 0.2818,0.427485 0.45258,0.873969 0.37952,0.992188 -0.0731,0.118218 0.0131,0.214943 0.19145,0.214943 0.17836,0 0.25652,0.06778 0.17367,0.150624 -0.0828,0.08284 -0.39429,-0.0015 -0.6921,-0.187536 -0.43099,-0.269159 -0.4797,-0.421365 -0.2387,-0.745936 0.2217,-0.29857 0.17293,-0.289215 -0.18212,0.03493 -0.46451,0.424081 -0.40582,0.529849 1.39475,2.513542 1.27332,1.402817 2.18227,2.16511 2.81773,2.363093 l 0.93807,0.29226 -0.17227,-4.856323 -0.17227,-4.856323 h 1.4656 1.46561 l 0.0382,3.562236 c -0.01,1.928151 -0.12815,2.741283 -0.19862,1.869794 -0.0596,-0.736514 -0.12151,-2.26505 -0.20068,-3.249218 l -0.15753,-1.653645 h -1.07196 -1.07196 l 0.16064,3.108854 c 0.0884,1.70987 0.16349,3.852995 0.16698,4.7625 l 0.006,1.653646 h 1.05833 1.05833 z m -8.93133,-5.103617 c -0.18281,-0.0737 -0.2683,-0.237695 -0.18997,-0.364432 0.17148,-0.277466 0.91922,-0.03023 0.91922,0.303934 0,0.254856 -0.20499,0.271861 -0.72925,0.0605 z m 8.66675,-5.246335 c 0,-0.248171 1.43857,-1.424615 2.40892,-1.969982 1.55801,-0.875652 1.23782,-0.466549 -0.68913,0.880485 -0.94589,0.661221 -1.71979,1.151495 -1.71979,1.089497 z m -2.48592,-3.20028 c -0.14438,-0.376248 -0.10728,-0.394549 0.2309,-0.113884 0.32614,0.270666 0.48678,0.265191 0.84284,-0.02872 0.3772,-0.311367 0.42138,-0.306556 0.31,0.03375 -0.18685,0.570904 -1.17656,0.648762 -1.38374,0.108857 z m -1.99965,13.980205 c -0.5255,-0.898326 -5.26049,-5.75229 -5.43852,-5.575169 -0.0992,0.09873 -0.0998,0.546701 -0.001,0.995481 0.13956,0.635415 0.43728,0.933522 1.34549,1.34726 0.84112,0.383177 1.31749,0.827729 1.70871,1.594585 0.29835,0.584809 0.9246,1.296299 1.39168,1.581088 1.05138,0.641063 1.34549,0.657858 0.99386,0.05676 z m -4.72959,-0.486425 0.81273,-0.420279 -1.0488,-1.101075 c -1.642636,-1.724507 -2.190438,-2.374756 -2.190438,-2.600074 0,-0.114727 0.297656,-0.403626 0.661458,-0.641998 0.363802,-0.238372 0.661903,-0.687601 0.662447,-0.998287 5.44e-4,-0.310685 0.242627,-0.961221 0.537963,-1.445636 0.29533,-0.484414 0.70158,-1.512737 0.90277,-2.285163 0.39422,-1.513507 1.03558,-2.91869 1.65517,-3.626408 0.34518,-0.394273 0.32015,-0.485542 -0.23034,-0.840137 -0.78127,-0.503241 -3.733644,-1.495664 -4.449479,-1.495664 -0.460147,0 -0.519598,0.12311 -0.396599,0.821271 0.136488,0.774731 0.119057,0.795641 -0.30759,0.368994 -0.36133,-0.36133 -0.717919,-0.417038 -1.773317,-0.277034 -1.176367,0.15605 -1.283599,0.130128 -0.979157,-0.236703 0.424884,-0.511953 0.20041,-0.522702 -0.741704,-0.03552 -0.952022,0.49231 -2.917049,3.310901 -3.379485,4.847458 -0.511864,1.700796 -0.458122,2.609432 0.283264,4.789198 0.852282,2.505812 1.617241,3.826907 2.527131,4.364393 0.969458,0.572673 1.130799,0.553947 0.921053,-0.106904 -0.136635,-0.430502 -0.0704,-0.528509 0.3129,-0.463021 0.519137,0.0887 0.874995,0.445297 0.874995,0.876823 0,0.145521 -0.102357,0.103044 -0.227459,-0.09439 -0.146655,-0.231451 -0.287737,-0.261444 -0.39714,-0.08443 -0.235582,0.38118 0.12959,0.555222 1.406231,0.670216 0.602441,0.05427 1.170945,0.17426 1.26334,0.266656 0.327741,0.32774 2.499466,0.161713 3.300056,-0.252288 z m 2.07141,0.0234 c 0,-0.218281 -0.19317,-0.396875 -0.42927,-0.396875 -0.35158,0 -0.36966,0.07183 -0.0999,0.396875 0.18116,0.218282 0.37433,0.396875 0.42927,0.396875 0.0549,0 0.0999,-0.178593 0.0999,-0.396875 z m 0,-0.876151 c 0,-0.492331 -1.1466,-1.411443 -1.6097,-1.290339 -0.31979,0.08363 -0.5436,-0.04565 -0.64789,-0.374228 -0.0876,-0.276095 -0.2609,-0.50199 -0.38505,-0.50199 -0.12415,0 -0.30557,-0.363494 -0.403148,-0.807765 -0.169222,-0.77046 -0.64639,-0.947997 -0.856202,-0.318562 -0.105754,0.317263 1.71571,2.472447 2.00742,2.375211 0.0961,-0.03204 0.44267,0.209632 0.77009,0.537054 0.59998,0.599979 1.12448,0.777514 1.12448,0.380619 z m 15.94618,15.906348 c 0.25743,-0.0671 0.61462,-0.0627 0.79375,0.01 0.17913,0.0725 -0.0315,0.12736 -0.46806,0.12197 -0.43656,-0.005 -0.58312,-0.0647 -0.32569,-0.13177 z m 3.3684,-0.10305 c 0.73046,-0.17096 0.59677,-0.19476 -0.633,-0.11269 -1.87753,0.12531 -1.65225,-0.26585 0.30227,-0.52484 1.20338,-0.15945 1.38907,-0.1239 1.38907,0.26595 0,0.26754 0.14383,0.39482 0.35472,0.31389 0.1951,-0.0749 0.52252,-0.0299 0.7276,0.0999 0.23838,0.15091 -0.24746,0.22496 -1.34691,0.20528 -1.50583,-0.0269 -1.60458,-0.0577 -0.79375,-0.24752 z m -4.7625,-0.53319 c 0,-0.18925 1.44983,-0.76791 1.92396,-0.76791 0.14293,0 0.12045,0.16513 -0.0505,0.37115 -0.2365,0.28496 -0.22867,0.40476 0.0337,0.51592 0.18797,0.0796 -0.16425,0.12746 -0.78271,0.10629 -0.61846,-0.0212 -1.12448,-0.12262 -1.12448,-0.22545 z m 3.04271,-0.44807 c 0.38806,-0.42124 3.04271,-0.73003 3.04271,-0.35393 0,0.17677 -0.47711,0.29867 -1.16899,0.29867 -0.64294,0 -1.38708,0.0771 -1.65364,0.17124 -0.34024,0.1202 -0.40582,0.0857 -0.22008,-0.11598 z m -26.855209,-0.58442 c 0,-0.14552 0.119063,-0.26459 0.264584,-0.26459 0.145521,0 0.264583,0.11907 0.264583,0.26459 0,0.14552 -0.119062,0.26458 -0.264583,0.26458 -0.145521,0 -0.264584,-0.11906 -0.264584,-0.26458 z m -0.926041,-0.52917 c 0.08994,-0.14552 0.483916,-0.25621 0.87551,-0.24599 0.635748,0.0166 0.655325,0.043 0.182823,0.24599 -0.735072,0.31587 -1.253552,0.31587 -1.058333,0 z m -0.926042,-0.21845 c 0,-0.15128 0.208359,-0.33155 0.463021,-0.40059 1.333402,-0.3615 1.918229,-0.42545 1.918229,-0.20978 0,0.13178 -0.327422,0.2958 -0.727604,0.3645 -0.400182,0.0687 -0.935964,0.21401 -1.190625,0.32292 -0.271034,0.11591 -0.463021,0.084 -0.463021,-0.077 z M 124.31608,82.612926 c 0,-0.142985 0.66469,-1.060772 1.4771,-2.039527 l 1.50132,-1.961182 -0.80028,-0.07368 c -0.46183,-0.04252 -1.06795,-0.02088 -0.76097,-0.41088 0.45498,-0.578042 -5.86712,-3.442719 -8.56092,-4.089464 -4.52342,-1.08601 -11.82915,-0.957114 -16.80104,0.296423 -2.641472,0.66598 -6.645086,2.81813 -8.000293,3.782782 -0.70727,0.503443 -0.816603,0.430891 -0.614316,0.840563 0.03017,0.0611 -0.793381,0.224441 -1.177538,0.370497 l -0.698467,0.265557 0.944199,1.103084 c 0.51931,0.606696 0.89851,1.148774 0.842667,1.204617 -0.111714,0.111713 -2.688859,-2.554356 -3.266896,-3.37962 -0.532301,-0.759965 -0.139747,-0.630562 0.561992,0.185259 l 0.604511,0.702786 0.763071,-0.956326 c 0.419689,-0.525979 0.835745,-0.868096 0.872889,-0.779212 0.03881,0.09288 0.0713,0.321982 0.368729,0.18539 0.419148,-0.192489 1.234636,-0.78824 1.91324,-1.206906 4.801059,-2.962019 8.464342,-3.806632 16.411212,-3.783798 6.69543,0.01924 9.23015,0.930921 12.90058,2.682188 3.11693,1.487178 3.39261,2.119467 3.66056,1.61898 0.11122,-0.20775 0.54439,0.278489 0.63677,0.569528 0.0982,0.309563 0.2916,0.614804 0.32086,0.616329 0.02,0.001 0.48225,-0.316063 0.85427,-0.789012 0.30364,-0.386017 0.60418,-0.649746 0.66786,-0.586063 0.0637,0.06368 -0.84217,1.30225 -2.01301,2.752371 -2.53159,3.135453 -2.6081,3.219917 -2.6081,2.879318 z m -15.875,-5.843082 c 0,-1.697743 0.0475,-3.037196 0.10548,-2.976562 0.21835,0.228206 0.3321,6.063368 0.1182,6.063368 -0.12302,0 -0.22368,-1.389063 -0.22368,-3.086806 z"
       id="path1"
       sodipodi:nodetypes="ccccsssssscccsscsssccccssscssssssssssssssssssssscssssssssssssssccssssssscssssssssssscssssscccccssccccscssssscscscscccscscssssssscsscsscssssssscssssssssssssssssssccsssssssssccssssssscsssssssssssssssssssssssccsccccscccccccscscssscssssssccsssssscsssscsccsssscccccccscccccccccsssssssssscsssscccssscccsssssssssssssssssssssssssscssssssccsssssscccccccsssscccccccscccssccssssssscsssssssssccssssssscsssscsssssssssssssscsscs" /><text
       xml:space="preserve"
       style="font-size:3.175px;fill:#000000;stroke-width:1.165;paint-order:stroke markers fill"
       x="87.058807"
       y="99.82196"
       id="text1"><tspan
         sodipodi:role="line"
         id="tspan1"
         x="87.058807"
         y="99.82196"
         style="stroke-width:1.165">Left</tspan></text><text
       xml:space="preserve"
       style="font-size:3.175px;fill:#000000;stroke-width:1.165;paint-order:stroke markers fill"
       x="122.4818"
       y="99.517975"
       id="text2"><tspan
         sodipodi:role="line"
         id="tspan2"
         x="122.4818"
         y="99.517975"
         style="stroke-width:1.165">Right</tspan></text></g></svg>
