<?xml version="1.0" encoding="UTF-8" standalone="no"?>
<!-- Created with Inkscape (http://www.inkscape.org/) -->

<svg
   width="56.885418mm"
   height="49.741665mm"
   viewBox="0 0 56.885418 49.741665"
   version="1.1"
   id="svg1"
   xml:space="preserve"
   inkscape:version="1.3 (0e150ed6c4, 2023-07-21)"
   sodipodi:docname="Shoulder (Flexion - Extension).svg"
   xmlns:inkscape="http://www.inkscape.org/namespaces/inkscape"
   xmlns:sodipodi="http://sodipodi.sourceforge.net/DTD/sodipodi-0.dtd"
   xmlns="http://www.w3.org/2000/svg"
   xmlns:svg="http://www.w3.org/2000/svg"><sodipodi:namedview
     id="namedview1"
     pagecolor="#ffffff"
     bordercolor="#000000"
     borderopacity="0.25"
     inkscape:showpageshadow="2"
     inkscape:pageopacity="0.0"
     inkscape:pagecheckerboard="0"
     inkscape:deskcolor="#d1d1d1"
     inkscape:document-units="mm"
     inkscape:zoom="2.0485264"
     inkscape:cx="76.640456"
     inkscape:cy="139.85663"
     inkscape:window-width="1920"
     inkscape:window-height="1009"
     inkscape:window-x="1919"
     inkscape:window-y="1072"
     inkscape:window-maximized="1"
     inkscape:current-layer="layer1" /><defs
     id="defs1" /><g
     inkscape:label="Layer 1"
     inkscape:groupmode="layer"
     id="layer1"
     transform="translate(-57.405998,-56.594112)"><path
       style="fill:#000000"
       d="m 88.626832,96.312455 v -5.789988 l -0.727604,-0.139772 c -1.001983,-0.19248 -1.090963,6.6e-4 -0.168986,0.366801 0.420364,0.166938 0.622071,0.356585 0.448238,0.421437 -0.173834,0.06485 -0.561912,-0.01366 -0.862397,-0.174477 -0.476277,-0.254896 -0.580851,-0.197722 -0.815503,0.445862 -0.148043,0.406038 -0.398212,1.062594 -0.555931,1.459012 -0.289105,0.726649 -0.202636,4.113181 0.130222,5.100073 0.09816,0.291041 -0.02815,0.112447 -0.280693,-0.396875 -0.70167,-1.415109 -0.581836,-3.740512 0.299962,-5.820834 0.400938,-0.945885 0.787511,-1.966786 0.859053,-2.268668 0.07218,-0.304564 -0.409668,-1.91355 -1.082518,-3.614769 -0.666926,-1.68624 -1.212593,-3.421001 -1.212593,-3.855024 0,-1.127173 0.962538,-4.091308 1.585905,-4.88379 0.978967,-1.244555 1.032359,-1.778189 0.331159,-3.309811 -0.506233,-1.105758 -0.612181,-1.662928 -0.481685,-2.533134 0.202668,-1.351493 0.966045,-2.672407 1.791609,-3.100126 0.548665,-0.284259 0.535375,-0.236734 -0.133216,0.476355 -0.689366,0.735248 -1.776269,3.443316 -1.251939,3.119262 0.129132,-0.07981 0.278377,0.06471 0.331655,0.321154 0.07941,0.382238 0.126255,0.358916 0.259933,-0.129417 0.112556,-0.411174 0.06827,-0.539146 -0.142991,-0.413162 -0.16833,0.100383 -0.01016,-0.129415 0.351494,-0.510663 0.361652,-0.381248 0.691189,-0.659537 0.732306,-0.618421 0.04112,0.04112 -0.162869,0.598501 -0.4533,1.238632 -0.572973,1.262869 -0.695804,2.491363 -0.275096,2.751375 0.14552,0.08994 0.264583,-0.0746 0.264583,-0.365645 0,-0.544532 0.446162,-0.996179 0.716765,-0.725577 0.08382,0.08382 0.0061,0.328648 -0.172673,0.544071 -0.178786,0.215424 -0.25738,0.501195 -0.174654,0.635048 0.149484,0.241871 -0.579131,1.696943 -1.525921,3.047325 -1.568717,2.237419 -1.618653,4.740462 -0.166434,8.3424 0.582084,1.44374 1.058334,2.851131 1.058334,3.127534 0,0.593625 0.482842,1.137552 1.009802,1.137552 0.277872,0 0.207075,-0.401085 0.256088,-0.955926 0.02117,-0.239703 -0.303277,0.01566 -0.305824,-0.349903 -0.0038,-0.542327 0.02533,-1.853545 0.03268,-2.411261 0.01309,-0.992736 0.01479,-1.529745 -0.0049,-2.08504 -0.0065,-0.184634 -0.575819,-0.576715 -0.555658,-0.629067 0.03611,-0.09378 0.242536,-0.212489 0.486858,-0.0076 0.04856,0.04073 0.03635,-0.74292 0.02345,-0.996034 -0.005,-0.09893 -0.104018,-9.7e-5 -0.405789,-0.357529 -0.291017,-0.344693 -0.348932,-1.187001 0.267625,-1.51697 0.485611,-0.259892 0.464664,-0.818555 0.337613,-9.604638 -0.09403,-6.502409 -0.0489,-9.131897 0.156733,-9.131897 0.190071,0 0.288786,0.936756 0.288786,2.740434 v 2.740433 l 1.633661,0.170751 c 2.240824,0.234213 2.496567,0.523805 2.454703,2.779602 -0.01877,1.01158 0.111569,2.107098 0.290468,2.441375 0.19132,0.357484 0.23462,0.775515 0.105493,1.018452 -0.120466,0.226643 -0.282482,0.717436 -0.360037,1.090652 -0.08324,0.400597 -0.548091,0.942528 -1.134743,1.322916 -0.546554,0.354389 -1.103623,0.957646 -1.237932,1.340573 -0.211656,0.603453 -0.0891,0.894815 0.919711,2.18649 l 1.163908,1.49026 8.197588,-0.06982 8.19759,-0.06982 -0.0788,-1.190625 c -0.17347,-2.620662 -0.85345,-4.958984 -2.28171,-7.846358 -2.94992,-5.963599 -8.094689,-9.978294 -14.368852,-11.21266 -1.992245,-0.39195 -2.229269,-0.815934 -0.259892,-0.464889 5.342779,0.952359 10.479464,4.443985 13.762774,9.355155 2.39281,3.579153 3.44867,7.127666 3.45872,11.623961 0.008,3.377869 -0.58505,5.906675 -2.07962,8.874518 -0.50995,1.012608 -0.83638,1.841698 -0.72541,1.84242 0.11098,7.23e-4 0.54839,0.278673 0.97205,0.617667 1.07871,0.863143 0.71408,1.313264 -0.66865,0.82541 l -1.07526,-0.379376 -2.01101,2.137711 c -1.10605,1.17574 -2.67293,2.586333 -3.48194,3.13465 -2.994979,2.029888 -7.141672,3.440608 -10.13603,3.448298 l -1.521354,0.004 z m 5.55625,4.769245 c 4.015864,-1.158827 7.431078,-3.314302 9.842618,-6.212064 1.23492,-1.483907 1.29447,-1.619855 0.85139,-1.943842 -0.26202,-0.191592 -0.61148,-0.34835 -0.77658,-0.34835 -0.1651,0 -0.57617,-0.293767 -0.91348,-0.652817 -0.33731,-0.359049 -1.22126,-0.85226 -1.96435,-1.096025 -2.363218,-0.775242 -4.490896,-1.898315 -5.940376,-3.135569 -0.773857,-0.660553 -1.510959,-1.201005 -1.638004,-1.201005 -0.451145,0 -0.595856,2.010903 -0.436917,6.071379 0.129225,3.30135 0.08652,4.245878 -0.215986,4.776537 -0.343199,0.602052 -0.377905,0.612745 -0.386439,0.119063 -0.0052,-0.298318 0.117219,-0.668991 0.271946,-0.823717 0.185011,-0.185011 0.217844,-1.063635 0.09591,-2.566458 l -0.185415,-2.285138 h -1.021948 c -0.562071,0 -1.021948,-0.115325 -1.021948,-0.256279 0,-0.140954 0.148828,-0.201057 0.330729,-0.133564 0.181901,0.06749 0.687917,0.01446 1.124479,-0.117854 0.682772,-0.206934 0.565571,-0.243749 -0.838256,-0.263311 -0.897603,-0.01251 -1.820338,-0.09501 -2.050521,-0.183341 -0.373539,-0.14334 -0.418514,0.443623 -0.418514,5.461953 v 5.622552 l 1.785937,-0.16795 c 0.982266,-0.0924 2.559844,-0.39126 3.505729,-0.6642 z m -1.794405,-0.96363 c -0.0027,-0.436563 0.0904,-1.091407 0.206905,-1.455209 l 0.211836,-0.661458 -0.0049,0.661458 c -0.0027,0.363802 -0.09582,1.018646 -0.206906,1.455209 l -0.201975,0.79375 z m -2.968095,-8.598959 c -0.309264,-0.199862 -0.236256,-0.257375 0.330729,-0.260532 0.400183,-0.0022 0.727605,0.115011 0.727605,0.260532 0,0.334542 -0.540667,0.334542 -1.058334,0 z m 16.668748,1.294074 c -0.3638,-0.300434 -0.51263,-0.469353 -0.33073,-0.375377 0.1819,0.09398 0.3283,0.07454 0.32532,-0.04319 -0.003,-0.117729 -1.04099,-0.987959 -2.30669,-1.933844 -1.2657,-0.945886 -3.08667,-2.434167 -4.046603,-3.307292 -1.086568,-0.988307 -2.338064,-1.829128 -3.315711,-2.227668 -1.541413,-0.628363 -4.461404,-2.560297 -4.784944,-3.083797 -0.09054,-0.146495 -0.547431,-0.110547 -1.006046,-0.118439 -0.500012,-0.0086 -1.000548,-0.048 -0.991981,0.107516 0.006,0.10914 1.79834,0.987379 3.257782,1.833247 2.126339,1.23239 2.577252,1.552141 2.515607,1.656973 -0.04642,0.07895 -0.274106,0.448434 -0.332023,0.543702 -0.04247,0.06987 -0.895161,-0.399615 -2.161537,-1.147349 -1.119791,-0.661183 -2.270835,-1.365874 -2.557876,-1.56598 -0.826745,-0.576353 -1.16561,-0.623571 -1.149465,-0.320957 0.0079,0.147946 -0.0063,1.352982 0.0094,1.511147 0.01535,0.155528 1.235036,0.970418 2.962708,1.375512 1.714325,0.401964 1.925223,0.516226 3.614901,1.958509 0.991158,0.846037 2.218807,1.512891 4.195869,2.279179 1.537119,0.595772 2.973359,1.301565 3.191649,1.568429 0.32912,0.402377 2.99205,1.821137 3.43958,1.832546 0.0728,0.0019 -0.16537,-0.242437 -0.52917,-0.542871 z m 1.02222,-2.683136 c 1.01766,-2.144685 1.60435,-4.214319 1.8522,-6.533987 l 0.19944,-1.866534 h -8.03705 -8.03705 l 0.174744,0.595313 c 0.223245,0.760543 0.853139,1.219396 2.868598,2.08966 0.89782,0.387674 2.627028,1.535303 3.871488,2.5694 3.27007,2.717317 5.92583,4.792603 6.13804,4.796445 0.10171,0.0018 0.53802,-0.740792 0.96959,-1.650297 z m -14.401648,0 c 0.06842,-0.327422 0.167583,-1.339453 0.220361,-2.248959 0.07906,-1.362481 0.02311,-1.654751 -0.317798,-1.659925 -0.227567,-0.0035 -1.098367,-0.287819 -1.935112,-0.631922 l -1.464274,-0.625642 -0.01432,1.756401 c -8.36e-4,0.50507 -0.0022,1.729825 -0.0018,2.234793 1.84e-4,0.240427 -0.283451,0.207612 -0.287543,0.277776 -0.05582,0.95708 -0.05606,1.193028 0.810429,1.299041 2.355345,0.288172 2.860141,0.22038 2.990107,-0.401563 z M 88.93689,82.851655 c 0.0011,-0.0354 -0.390051,-0.08978 -0.394446,0.03352 -0.03833,1.075563 -0.104764,4.339867 -0.104764,5.786981 0,0.243595 0.498912,0.228569 0.516334,0.03257 0.05166,-0.909505 -0.04562,-4.942546 -0.01712,-5.853071 z m 6.211183,2.488055 c 0,-0.08411 -4.803218,-2.866801 -5.595199,-3.290694 -0.125663,-0.06726 -0.2627,0.182402 -0.155277,0.250548 0.518135,0.328692 1.679437,0.969975 2.816813,1.656486 1.60701,0.969978 2.4189,1.447321 2.704204,1.626008 0.105849,0.06629 0.229459,-0.176654 0.229459,-0.242348 z m -2.282601,-3.206913 c -0.184076,-0.221798 -0.45762,-0.403269 -0.607877,-0.403269 -0.150256,0 -0.05703,0.238855 0.207164,0.530789 0.547176,0.604623 0.911987,0.488528 0.400713,-0.12752 z m -3.841765,-0.667852 c -0.139648,-0.199466 -0.482021,-0.190208 -0.65841,-0.01382 -0.14552,0.145521 -0.145881,0.477044 -0.04027,0.647926 0.128011,0.207128 0.473277,0.352999 0.722988,0.02996 0.125865,-0.162822 0.147418,-0.418788 0.03221,-0.583346 z m 1.995357,-0.508648 c -0.420878,-0.475617 -1.537234,-1.608019 -1.898746,-1.608019 -0.125897,0 -0.192576,-0.05866 -0.192576,0.07458 0,0.155224 0.03772,0.925417 0.04982,1.292624 0.0017,0.05047 0.262871,0.101852 0.403152,0.269893 0.177458,0.212573 0.177582,0.491518 0.221876,0.492484 0.324681,0.0071 0.841624,-0.01932 1.084067,-0.01749 0.260574,0.002 0.619867,0.05644 0.665875,-0.01814 0.04491,-0.0728 -0.15842,-0.28812 -0.333473,-0.48594 z m 0.357654,-0.699161 c -0.54434,-0.664295 -1.233647,-1.37867 -1.531794,-1.5875 -0.403902,-0.282904 -0.438402,-0.379691 -0.135342,-0.379691 0.223708,0 0.602896,-0.411338 0.842639,-0.914085 0.239743,-0.502747 0.797576,-1.101117 1.239629,-1.329711 0.445514,-0.230384 0.821421,-0.648444 0.84342,-0.937998 0.02183,-0.287305 0.05159,-0.671201 0.06615,-0.853102 0.01455,-0.181901 0.133104,-0.408009 0.26345,-0.502463 0.311724,-0.225889 -0.027,-1.098141 -0.349133,-0.899053 -0.136493,0.08436 -0.322954,0.03237 -0.414358,-0.115522 -0.0914,-0.147895 -0.03307,-0.268899 0.129624,-0.268899 0.162697,0 0.227313,-0.110836 0.143591,-0.246301 -0.08372,-0.135466 -0.04719,-0.311218 0.08119,-0.39056 0.128379,-0.07934 0.176689,-0.441008 0.107356,-0.803701 -0.121575,-0.63598 -0.153121,-0.645447 -0.886725,-0.266085 -0.418366,0.216345 -0.834829,0.688846 -0.925473,1.050001 -0.09065,0.361155 -0.270963,0.656646 -0.400708,0.656646 -0.34522,0 -0.287839,-0.631941 0.09483,-1.044358 0.270378,-0.291397 0.243729,-0.325747 -0.146033,-0.188239 -1.037924,0.36618 -0.125843,-0.305488 0.997289,-0.734416 1.011894,-0.386445 1.199265,-0.569199 1.199265,-1.169708 0,-0.641667 -0.137456,-0.743662 -1.396809,-1.03645 -2.432496,-0.565533 -2.340688,-0.647246 -2.286417,2.035022 0.04155,2.053593 0.103365,2.338963 0.476423,2.19942 0.385114,-0.144052 0.388346,-0.109819 0.0318,0.336855 -0.230888,0.289255 -0.258552,0.4141 -0.06615,0.298506 0.181901,-0.109282 0.33073,-0.141875 0.33073,-0.07243 0,0.06945 0.07976,0.33413 0.177254,0.588185 0.131675,0.343139 0.08065,0.411694 -0.198437,0.266602 -0.206631,-0.107424 -0.144577,-0.0079 0.137898,0.22118 0.389526,0.315885 0.418287,0.416495 0.119063,0.416495 -0.216991,0 -0.537403,-0.142875 -0.712028,-0.3175 -0.246945,-0.246944 -0.3175,0.239934 -0.3175,2.190952 v 2.508452 l 0.787784,0.297355 c 0.433281,0.163546 1.040354,0.72543 1.349051,1.248632 0.308697,0.523202 0.736071,0.951276 0.949721,0.951276 0.253743,0 0.04524,-0.418855 -0.601254,-1.207809 z m -2.026691,-8.350022 c 0.179475,-0.180821 0.39297,-0.262115 0.474432,-0.180654 0.08146,0.08146 -0.06538,0.229407 -0.32632,0.328766 -0.377084,0.143585 -0.407475,0.113194 -0.148112,-0.148112 z M 74.603915,100.51221 c -1.704366,-0.29357 -4.403948,-1.240163 -6.025892,-2.112936 l -1.395684,-0.751022 -0.659294,1.301054 c -0.362612,0.71558 -0.776351,1.301054 -0.91942,1.301054 -0.411803,0 -0.30283,-1.479997 0.184168,-2.501242 0.244362,-0.512432 0.39319,-0.963294 0.330729,-1.001916 -0.06246,-0.03862 -0.960006,-0.868546 -1.994544,-1.844279 l -1.880979,-1.77406 0.558062,-0.508231 c 1.069268,-0.97379 8.848354,-7.144727 9.334884,-7.405109 0.269552,-0.14426 0.893507,-1.136453 1.386565,-2.204872 2.157298,-4.674694 2.468518,-5.286022 3.042343,-5.976039 1.255835,-1.510126 1.28202,-1.737244 0.394187,-3.418931 -0.642479,-1.216948 -0.785969,-1.762475 -0.678323,-2.578871 0.162094,-1.229323 0.845259,-2.221808 1.991345,-2.892975 0.742946,-0.43508 0.987142,-0.453086 2.221302,-0.163788 0.762626,0.178767 1.519211,0.429626 1.681299,0.557464 0.162088,0.127839 0.35683,1.006374 0.43276,1.952299 0.07593,0.945926 0.288753,1.901447 0.47294,2.123379 0.508599,0.612824 -0.141191,3.310221 -0.841535,3.493365 -0.508625,0.133008 -1.549496,1.825953 -1.549496,2.520208 0,0.196844 0.313473,1.005259 0.696606,1.796478 0.383133,0.791219 0.793921,1.774304 0.912863,2.184634 0.163221,0.563082 -0.04034,6.149598 -0.339166,9.308112 -0.01377,0.145521 0.06398,1.157552 0.172777,2.248958 0.137617,1.380539 0.113463,1.903864 -0.07938,1.719792 -0.152453,-0.145521 -0.30582,-1.236673 -0.340813,-2.424782 l -0.06363,-2.160199 -1.207236,-0.173893 c -0.663979,-0.09564 -1.870608,-0.298941 -2.16165,-0.368061 -0.05298,-0.01108 -0.10199,0.0591 -0.0303,4.386963 0.05017,3.028766 0.09086,5.427076 -0.02161,5.592696 -0.08672,0.12771 -0.649374,0.0294 -1.313821,0.011 -0.615691,-0.0171 -1.65522,-0.12341 -2.310064,-0.2362 z m 3.175,-5.156641 c 0,-4.049079 0.100654,-4.678855 0.0304,-4.684909 -0.205617,-0.01772 -0.939539,-0.270772 -1.133465,-0.345185 -0.529335,-0.203125 -1.319712,1.978933 -1.630311,4.500928 -0.07871,0.639095 -0.105192,0.587544 -0.135923,-0.264584 -0.04088,-1.133471 0.301833,-2.683655 0.8774,-3.968749 0.35524,-0.793161 0.364012,-3.259648 0.01361,-3.826611 -0.267669,-0.433098 -0.853412,0.11917 -1.514199,1.427661 -0.298868,0.591818 -1.16234,1.790408 -1.918827,2.663533 -1.826568,2.108195 -4.642852,5.982003 -4.642852,6.386259 0,0.35944 2.596948,1.646309 4.630209,2.294413 1.493381,0.476015 2.356443,0.615275 4.167187,0.672395 l 1.256771,0.0396 z m -10.900618,1.984375 c 0.107239,0 0.935069,-1.04858 1.83962,-2.330177 0.904552,-1.281598 2.311925,-3.097301 3.127497,-4.034896 0.815571,-0.937595 1.719097,-2.163612 2.007834,-2.724483 0.288737,-0.56087 1.2306,-1.778257 2.09303,-2.705305 0.86243,-0.927047 1.568054,-1.80058 1.568054,-1.941183 0,-0.241384 0.06236,-1.28732 -0.04526,-1.178797 -0.210597,0.212362 -1.103057,1.45902 -2.207418,2.767685 -1.582477,1.875232 -1.807185,2.00682 -1.877343,1.94237 -0.101976,-0.09368 -0.609058,-0.441445 -0.538759,-0.557407 0.181523,-0.299438 0.585159,-0.901062 1.857577,-2.374239 1.109597,-1.284666 2.570268,-2.944205 2.580251,-3.225243 0.02267,-0.638116 0.330163,-0.871448 0.780502,-0.888816 0.401989,-0.0155 0.599626,0.06793 0.781578,0.329581 0.129751,0.186587 0.203026,0.657737 0.04605,1.0225 -0.17999,0.418246 -0.41176,0.266322 -0.402007,0.439042 0.01489,0.263686 0.06951,0.95633 0.07315,1.085406 0.0044,0.157078 0.186212,0.01445 0.473024,-0.07573 0.440972,-0.138654 0.440972,-0.127421 0,0.23591 -0.279039,0.229909 -0.478583,0.131863 -0.481097,0.483798 -0.0025,0.356871 0.01808,1.849268 0.01808,2.40412 0,1.378532 -0.0611,2.696126 -0.158481,2.704766 -0.08758,0.0078 -0.192256,-0.03383 -0.190013,0.06817 0.0096,0.435885 -3.62e-4,1.514207 0.03866,1.519933 0.243796,0.05429 1.250106,0.228621 2.020927,0.319216 l 1.401491,0.164717 0.229643,-3.273906 c 0.304699,-4.34394 0.258389,-4.741705 -0.808383,-6.943266 l -0.914298,-1.88689 0.644629,-1.370978 c 0.360317,-0.766312 0.87837,-1.445164 1.174599,-1.539183 0.483561,-0.153477 0.647202,-0.675799 0.601051,-1.918485 -0.0068,-0.181901 0.103472,-0.330729 0.244951,-0.330729 0.411017,0 0.07662,-0.660759 -0.338079,-0.668032 -0.252533,-0.0044 -0.354054,-0.263402 -0.31116,-0.79375 0.03502,-0.432947 0.007,-0.941139 -0.06222,-1.129315 -0.183357,-0.498331 -1.108561,0.05653 -1.342105,0.804879 -0.10223,0.327576 -0.299031,0.66842 -0.437336,0.757431 -0.158133,0.101772 -0.153026,0.518355 0.01376,1.1224 0.290361,1.051599 0.01251,1.487177 -0.615952,0.965602 -0.290427,-0.241033 -0.519511,-0.202282 -1.038429,0.17566 -0.366188,0.266704 -0.669538,0.591717 -0.674111,0.72225 -0.0046,0.130533 -0.401471,0.725846 -0.881996,1.322917 -1.222734,1.519293 -2.056653,3.028701 -2.170561,3.928751 -0.05332,0.421323 -0.211037,0.906469 -0.350479,1.078103 -0.139442,0.171634 -0.695135,1.1455 -1.234874,2.164145 l -0.877572,1.39356 -1.604464,1.948779 c -0.759527,0.971296 -1.772146,3.112045 -2.29876,4.859744 -0.263089,0.873125 -0.691434,1.830398 -0.951878,2.127272 -0.396604,0.45208 -1.83182,3.927521 -1.797973,4.353874 0.0058,0.07339 0.188223,-0.193984 0.405325,-0.594167 0.217103,-0.400182 0.482474,-0.727604 0.589714,-0.727604 z m 8.254785,-16.603955 c 0,-0.145521 0.178594,-0.412803 0.396875,-0.593961 0.221388,-0.183735 0.396875,-0.212385 0.396875,-0.06479 0,0.14552 -0.178594,0.412803 -0.396875,0.59396 -0.221388,0.183735 -0.396875,0.212385 -0.396875,0.06479 z m -8.586378,14.950309 c 0.09929,-0.327421 0.395244,-0.833437 0.657671,-1.124479 0.262427,-0.291041 0.802816,-1.519046 1.200863,-2.7289 0.398047,-1.209853 1.12215,-2.861388 1.609116,-3.670076 0.486967,-0.808688 0.885395,-1.520854 0.885395,-1.582591 0,-0.06174 -0.744141,0.499658 -1.653646,1.247543 -0.909506,0.747885 -2.695443,2.191184 -3.96875,3.207332 -1.273308,1.016148 -2.315105,1.944518 -2.315105,2.063045 0,0.282611 2.903098,3.183439 3.18593,3.183439 0.119897,0 0.299234,-0.267891 0.398526,-0.595313 z m 11.029115,-7.201164 c -0.06719,0 -0.03216,-4.109225 -0.07029,-4.151813 -0.04068,-0.04543 -0.638013,0.720279 -0.919697,1.055041 -0.5596,0.665047 -0.622368,0.900988 -0.397228,1.493152 0.147066,0.386813 0.267393,1.222596 0.267393,1.857296 0,1.119247 0.380417,1.343364 1.384163,1.500897 0.07602,0.01193 0.03918,-0.746287 0.02825,-1.560516 -0.0018,-0.136057 -0.285264,0.03505 -0.292595,-0.194057 z m 0.732263,-3.316023 c 0,-1.593667 0.01131,-2.767851 -0.103087,-3.116316 -0.02488,-0.07579 -0.302134,-0.01832 -0.331014,-0.01832 -0.16169,0 -0.09506,1.194361 -0.09506,3.134638 0,1.940278 -0.0016,3.162489 0.05874,3.170964 0.08744,0.01229 0.430225,0.09986 0.435409,-0.01388 0.02459,-0.539622 0.03502,-2.106799 0.03502,-3.157088 z m -2.790799,-0.724636 c 1.098377,-1.271676 2.088196,-2.662909 2.15446,-2.751677 0.06861,-0.09192 -0.119846,-0.408324 -0.275143,-0.322442 -0.261391,0.144555 -0.876811,1.101288 -1.734351,2.121306 -1.40809,1.67488 -2.212403,2.696614 -2.536322,3.075581 -0.06544,0.07656 0.16774,0.320653 0.283047,0.320653 0.149097,0 1.009933,-1.171746 2.108309,-2.443421 z m 2.2622,-3.643723 c -0.08716,0.165902 -0.06977,0.417076 0.104211,0.526579 0.144725,0.09109 0.395942,0.111417 0.491781,-0.08395 0.115426,-0.235295 0.04135,-0.440785 -0.114425,-0.539238 -0.129359,-0.08176 -0.390287,-0.07713 -0.481567,0.09661 z m 1.881967,-8.56442 c 0.599575,-0.599575 0.98088,-1.090137 0.847343,-1.090137 -0.133537,0 -0.375295,0.132501 -0.537241,0.294446 -0.161945,0.161946 -0.438936,0.205147 -0.615536,0.096 -0.212126,-0.131101 -0.04137,-0.316058 0.503183,-0.545025 0.575759,-0.242088 0.77639,-0.471363 0.665453,-0.760461 -0.112178,-0.292329 -0.04147,-0.368849 0.24075,-0.26055 0.219764,0.08433 0.474959,0.03135 0.567099,-0.117735 0.09214,-0.149086 0.342308,-0.203996 0.555929,-0.122022 0.603867,0.231725 0.470761,-0.638626 -0.148339,-0.969959 -0.295208,-0.15799 -1.132587,-0.357824 -1.860843,-0.444075 -1.152773,-0.136529 -1.411809,-0.07489 -2.00194,0.476384 -0.37281,0.348262 -0.846522,0.957427 -1.052693,1.353701 -0.328094,0.630619 -0.32593,0.701723 0.01735,0.569995 0.319868,-0.122745 0.385133,0.118136 0.353878,1.306083 -0.02697,1.025233 0.107481,1.679111 0.454027,2.208006 l 0.492349,0.751421 0.214549,-0.827968 c 0.118001,-0.455383 0.70511,-1.318531 1.304685,-1.918106 z m 0.234132,0.9953 c 0,-0.145521 -0.119062,-0.190999 -0.264583,-0.101062 -0.145521,0.08994 -0.264584,0.282584 -0.264584,0.428105 0,0.145521 0.119063,0.190999 0.264584,0.101062 0.145521,-0.08994 0.264583,-0.282584 0.264583,-0.428105 z"
       id="path1"
       sodipodi:nodetypes="ccssssssssssssssssssssssssssscssssssssssssssssscssssssssccccsssscsssscsscccsssssssssscsscsssssssccsscscssccscsssscssssscssssssssssccsscscccssccccscsccsssccssscsssssssssssssssssssssssssssssssscsssssssssssssssssssssscssscssssssssssssssssscssssssssssssssssssscssscssssssssssssssccsssssssssssssssssssssssssscsscsscscscssssscsssssccccsssssssssssssssssssssssssssssssssssssssssssssssssssssssssssscsssssssssssss" /><text
       xml:space="preserve"
       style="font-size:3.175px;fill:#000000;stroke-width:1.165;paint-order:stroke markers fill"
       x="59.697269"
       y="104.99298"
       id="text1"><tspan
         sodipodi:role="line"
         id="tspan1"
         style="stroke-width:1.165"
         x="59.697269"
         y="104.99298">Extension</tspan></text><text
       xml:space="preserve"
       style="font-size:3.175px;fill:#000000;stroke-width:1.165;paint-order:stroke markers fill"
       x="93.829247"
       y="105.32919"
       id="text2"><tspan
         sodipodi:role="line"
         id="tspan2"
         style="stroke-width:1.165"
         x="93.829247"
         y="105.32919">Flexion</tspan></text><text
       xml:space="preserve"
       style="font-size:1.5875px;fill:#000000;stroke-width:0.5825;paint-order:stroke markers fill"
       x="88.017776"
       y="104.03784"
       id="text3"><tspan
         sodipodi:role="line"
         id="tspan3"
         style="stroke-width:0.5825"
         x="88.017776"
         y="104.03784">0°</tspan></text><text
       xml:space="preserve"
       style="font-size:1.5875px;fill:#000000;stroke-width:0.5825;paint-order:stroke markers fill"
       x="76.935707"
       y="102.74818"
       id="text4"><tspan
         sodipodi:role="line"
         id="tspan4"
         style="stroke-width:0.5825"
         x="76.935707"
         y="102.74818">0°</tspan></text><text
       xml:space="preserve"
       style="font-size:1.5875px;fill:#000000;stroke-width:0.5825;paint-order:stroke markers fill"
       x="59.789837"
       y="94.969589"
       id="text5"><tspan
         sodipodi:role="line"
         id="tspan5"
         style="stroke-width:0.5825"
         x="59.789837"
         y="94.969589">50°</tspan></text><text
       xml:space="preserve"
       style="font-size:1.5875px;fill:#000000;stroke-width:0.5825;paint-order:stroke markers fill"
       x="110.43306"
       y="82.287132"
       id="text6"><tspan
         sodipodi:role="line"
         id="tspan6"
         style="stroke-width:0.5825"
         x="110.43306"
         y="82.287132">90°</tspan></text><text
       xml:space="preserve"
       style="font-size:1.5875px;fill:#000000;stroke-width:0.5825;paint-order:stroke markers fill"
       x="86.423698"
       y="61.267826"
       id="text7"><tspan
         sodipodi:role="line"
         id="tspan7"
         style="stroke-width:0.5825"
         x="86.423698"
         y="61.267826">150°</tspan></text></g></svg>
