<?xml version="1.0" encoding="UTF-8" standalone="no"?>
<!-- Created with Inkscape (http://www.inkscape.org/) -->

<svg
   width="48.953556mm"
   height="48.523785mm"
   viewBox="0 0 48.953557 48.523784"
   version="1.1"
   id="svg1"
   xml:space="preserve"
   inkscape:version="1.3 (0e150ed6c4, 2023-07-21)"
   sodipodi:docname="Shoulder (Abduction - Adduction).svg"
   xmlns:inkscape="http://www.inkscape.org/namespaces/inkscape"
   xmlns:sodipodi="http://sodipodi.sourceforge.net/DTD/sodipodi-0.dtd"
   xmlns="http://www.w3.org/2000/svg"
   xmlns:svg="http://www.w3.org/2000/svg"><sodipodi:namedview
     id="namedview1"
     pagecolor="#ffffff"
     bordercolor="#000000"
     borderopacity="0.25"
     inkscape:showpageshadow="2"
     inkscape:pageopacity="0.0"
     inkscape:pagecheckerboard="0"
     inkscape:deskcolor="#d1d1d1"
     inkscape:document-units="mm"
     inkscape:zoom="8.1941057"
     inkscape:cx="98.851544"
     inkscape:cy="181.04477"
     inkscape:window-width="1920"
     inkscape:window-height="1009"
     inkscape:window-x="1919"
     inkscape:window-y="1072"
     inkscape:window-maximized="1"
     inkscape:current-layer="layer1" /><defs
     id="defs1" /><g
     inkscape:label="Layer 1"
     inkscape:groupmode="layer"
     id="layer1"
     transform="translate(-13.538047,-60.485815)"><path
       id="path1"
       style="fill:#000000"
       d="m 39.704221,63.27882 -2.411739,0.134876 c -3.771321,0.21119 -7.815263,1.890309 -10.509953,4.364075 -4.136359,3.797238 -7.644495,10.761641 -7.644495,15.175301 0,0.695736 -0.129639,1.345036 -0.287837,1.442806 -0.207127,0.128012 -0.207127,0.257961 0,0.465088 0.158198,0.158198 0.287837,0.791958 0.287837,1.408182 0,2.119461 1.059359,5.998166 2.286166,8.370549 0.290908,0.562557 0.324231,0.863292 0.117822,1.069702 -0.157905,0.157904 -0.287321,0.393905 -0.287321,0.523999 0,0.130094 0.982269,-0.646441 2.182812,-1.725476 1.200545,-1.079034 3.671097,-2.980968 5.490105,-4.226615 3.139682,-2.150041 4.859335,-3.710087 6.856429,-6.218742 1.243734,-1.562324 2.710278,-2.499481 4.691703,-2.998267 0.93702,-0.235876 1.678325,-0.538279 1.647445,-0.67231 -0.03088,-0.13403 0.529568,-0.465961 1.245402,-0.737423 2.885845,-1.094386 3.021521,-1.180249 3.021521,-1.915645 0,-0.67517 0.01948,-0.684038 0.595312,-0.267167 0.327422,0.237033 0.858473,0.619737 1.18029,0.850077 0.321817,0.230341 1.130239,0.426596 1.796273,0.436666 1.028411,0.01555 1.349189,-0.115314 2.127002,-0.869198 l 0.915706,-0.887801 0.0041,1.308964 c 0.0025,0.799016 0.08992,1.173557 0.224276,0.961698 0.167633,-0.264332 0.639295,-0.06022 1.980241,0.857829 0.968147,0.662821 1.758698,1.116897 1.756998,1.008724 -0.0017,-0.108172 -0.835125,-0.787485 -1.852083,-1.509468 -1.617842,-1.148579 -1.848983,-1.416963 -1.848983,-2.144056 0,-0.465495 0.287993,-1.226 0.654741,-1.72961 1.091261,-1.498491 1.273338,-2.117642 1.399398,-4.761983 0.114683,-2.405751 0.07808,-2.633166 -0.692465,-4.297929 -0.873722,-1.887681 -1.68548,-2.588276 -3.610632,-3.116605 -1.344468,-0.36897 -3.227583,0.03097 -4.783687,1.015441 -1.317851,0.833736 -1.975318,1.842769 -2.080494,3.193604 -0.04209,0.54059 -0.165114,1.935387 -0.273368,3.099552 -0.140483,1.510713 -0.115339,2.039724 0.08837,1.847433 0.156975,-0.148181 0.342064,-1.549271 0.411344,-3.113505 0.105539,-2.382812 0.220997,-2.977071 0.710034,-3.663859 0.798172,-1.120928 2.93671,-2.079527 4.604887,-2.063957 1.51011,0.0141 3.083857,0.486931 3.243213,0.974617 0.07181,0.219754 -0.04691,0.271312 -0.353983,0.15348 -0.323703,-0.124216 -0.402958,-0.08087 -0.26355,0.144694 0.109524,0.177209 0.456484,0.287252 0.771012,0.243912 0.428748,-0.05908 0.551316,0.0421 0.489376,0.405144 -0.04544,0.266325 0.214953,0.742577 0.578259,1.058333 0.521529,0.453267 0.700214,0.930919 0.849044,2.269112 0.163733,1.47219 0.124211,1.741666 -0.298173,2.050521 -0.468623,0.342669 -0.467545,0.356002 0.02739,0.363802 0.477864,0.0075 0.481212,0.02653 0.04754,0.279053 -0.26149,0.152263 -0.467089,0.58457 -0.468189,0.984436 -0.0046,1.658448 -0.03553,1.903243 -0.240812,1.903243 -0.118822,0 -0.360947,0.349884 -0.537951,0.777213 -0.177006,0.427331 -0.768235,1.260769 -1.314132,1.852084 -0.87798,0.951024 -1.13033,1.074869 -2.184363,1.074869 -1.398469,0 -2.8672,-0.924819 -3.917073,-2.465999 -0.363425,-0.533495 -0.80559,-0.970523 -0.982369,-0.971517 -0.348002,-0.002 -0.99465,-1.022798 -0.782382,-1.235067 0.07126,-0.07126 0.208008,0.117088 0.303858,0.419096 0.09585,0.302009 0.295026,0.549321 0.442867,0.549321 0.147842,0 0.19951,-0.148829 0.114722,-0.33073 -0.08479,-0.181899 -0.227464,-0.539089 -0.317294,-0.793749 -0.220169,-0.624192 -0.556913,-0.583692 -0.771529,0.0925 -0.13587,0.428088 0.07193,0.793977 0.907955,1.597319 0.751738,0.722338 1.083354,1.26202 1.080554,1.759582 -0.0056,0.99566 -0.23392,1.252829 -1.451074,1.634009 -0.582082,0.182294 -1.681482,0.675697 -2.443262,1.096574 -0.761778,0.420878 -1.640112,0.765328 -1.951819,0.765328 -0.565725,0 -0.566722,-0.0089 -0.377754,-4.918046 0.10413,-2.704852 0.103245,-6.589698 -0.0021,-8.633065 z m -0.275436,0.26045 0.157097,3.012736 c 0.08637,1.656936 0.11475,3.310392 0.06305,3.674194 -0.05171,0.363803 -0.103625,2.882392 -0.115755,5.597074 l -0.02222,4.936133 -1.124479,0.665076 c -0.61847,0.366015 -1.655498,1.210947 -2.304258,1.877405 L 34.902964,84.5137 h -7.788156 -7.788671 l 0.147277,-1.918229 c 0.201308,-2.625409 1.629571,-6.740387 3.239079,-9.330697 1.876755,-3.020409 5.344172,-6.426657 7.67395,-7.538558 2.55936,-1.221471 4.683164,-1.832037 7.033163,-2.023132 z m 9.337415,0.874365 c -0.30518,-0.0039 -0.686413,0.07478 -0.990637,0.237195 -0.252687,0.134898 -0.667764,0.309788 -0.922424,0.388606 -0.254661,0.07882 -0.463021,0.25995 -0.463021,0.403077 0,0.153587 0.515035,0.104151 1.25677,-0.120923 0.691224,-0.209745 1.346068,-0.382356 1.455209,-0.383956 0.109137,-0.0016 0.198437,-0.122163 0.198437,-0.267684 0,-0.166263 -0.229154,-0.25245 -0.534334,-0.256315 z m 0.999422,1.805574 c -0.233276,-0.0104 -0.826848,0.117272 -1.629358,0.389641 -0.931337,0.316092 -1.643085,0.656864 -1.581815,0.757059 0.06128,0.100197 -0.09936,0.304714 -0.357084,0.454753 -0.625709,0.364276 -0.207583,0.348359 1.332735,-0.05116 0.699881,-0.181529 1.235665,-0.447577 1.190625,-0.590661 -0.04504,-0.143083 0.186243,-0.377251 0.513663,-0.520899 0.637582,-0.279718 0.76451,-0.428333 0.531234,-0.438733 z m 3.05201,0.450102 c -0.05542,0.0071 -0.111757,0.03606 -0.171049,0.08527 -0.178787,0.148382 -0.736864,0.340791 -1.240234,0.427881 -3.744242,0.647774 -6.877317,1.649456 -6.301424,2.014347 0.470344,0.297972 0.756026,0.294916 0.756026,-0.0083 0,-0.333716 1.342677,-0.749467 3.849894,-1.191658 1.156868,-0.204034 2.415875,-0.44971 2.797762,-0.54622 0.632546,-0.159846 0.709562,-0.09198 0.869715,0.76171 0.09669,0.515402 0.295082,1.01065 0.4408,1.100708 0.333396,0.206051 0.0492,-1.04953 -0.471289,-2.082043 -0.205862,-0.408376 -0.363943,-0.582992 -0.530201,-0.561723 z m 1.049032,3.33313 c -0.04256,-0.0094 -0.05665,0.07396 -0.05994,0.24598 -0.0044,0.230408 0.07094,0.498302 0.167949,0.595312 0.322793,0.322794 0.405818,-0.04183 0.120922,-0.53175 -0.115296,-0.198275 -0.186367,-0.300121 -0.228926,-0.309542 z m -1.44539,0.250631 c -0.337715,0 -0.767435,0.07918 -1.136365,0.237711 -0.409827,0.176107 -0.275573,0.23158 0.595313,0.24598 0.618461,0.01023 1.124479,-0.100459 1.124479,-0.24598 0,-0.158534 -0.245712,-0.237711 -0.583427,-0.237711 z m -5.50199,0.237711 c -0.145521,0 -0.264583,0.119063 -0.264583,0.264584 0,0.145521 0.119062,0.264583 0.264583,0.264583 0.145521,0 0.264584,-0.119062 0.264584,-0.264583 0,-0.145521 -0.119063,-0.264584 -0.264584,-0.264584 z m 1.300696,0.03256 c -0.09192,-0.0038 -0.196474,0.01294 -0.291972,0.05116 -0.211065,0.08446 -0.148543,0.147497 0.15968,0.160197 0.278915,0.01149 0.435186,-0.05109 0.347266,-0.13901 -0.04396,-0.04396 -0.123059,-0.06856 -0.214974,-0.07235 z m 0.713135,0.05839 c -0.09488,-0.01595 -0.161747,0.04255 -0.161747,0.15813 0,0.154109 0.119062,0.280086 0.264583,0.280086 0.145521,0 0.264583,-0.05262 0.264583,-0.116789 0,-0.06417 -0.119062,-0.190146 -0.264583,-0.280086 -0.03638,-0.02248 -0.07121,-0.03602 -0.102836,-0.04134 z m 3.061829,0.605131 c -0.232993,0.0076 -0.473963,0.104904 -0.600481,0.257349 -0.251415,0.302939 -0.157867,0.369486 0.519349,0.369486 0.917193,0 1.116521,-0.391358 0.306958,-0.603064 -0.07142,-0.01868 -0.148163,-0.0263 -0.225826,-0.02377 z m -7.031613,0.09767 c -0.05719,0 -0.172555,0.178596 -0.256315,0.396875 -0.08376,0.218281 -0.03708,0.396875 0.10387,0.396875 0.140954,0 0.256315,-0.178594 0.256315,-0.396875 0,-0.218279 -0.04668,-0.396875 -0.10387,-0.396875 z m 2.855123,0.05633 c -0.142238,-0.005 -0.273909,0.01662 -0.367419,0.07441 -0.146823,0.09074 -0.267167,0.276996 -0.267167,0.413928 0,0.322217 1.244454,0.325412 1.443322,0.0036 0.138333,-0.223825 -0.382021,-0.477023 -0.808736,-0.491959 z m 6.847644,0.837675 c 0.02782,-0.02782 0.06474,0.0092 0.106971,0.114721 0.07643,0.190996 0.06673,0.419026 -0.02119,0.506946 -0.08792,0.08792 -0.150499,-0.06835 -0.139009,-0.347266 0.0063,-0.15411 0.02541,-0.246583 0.05323,-0.274401 z m -5.818766,1.596285 c -0.06055,-0.0042 -0.07596,0.07881 -0.07596,0.247013 0,0.216548 0.148828,0.455367 0.330729,0.530717 0.537623,0.222695 2.315104,0.08897 2.315104,-0.17415 0,-0.13326 -0.405187,-0.16625 -0.900203,-0.07338 -0.646186,0.121226 -1.019304,0.04936 -1.322917,-0.254248 -0.180666,-0.180666 -0.286195,-0.271777 -0.346749,-0.275952 z m 2.054655,1.85415 c -0.971167,-0.01467 -2.957688,0.415928 -2.803446,0.663009 0.14424,0.231066 2.019129,0.325791 2.987931,0.150895 1.040212,-0.187787 1.11261,-0.539723 0.160197,-0.778764 -0.08812,-0.02212 -0.205944,-0.03305 -0.344682,-0.03514 z m -5.114417,6.516915 c -0.126463,0 -0.162388,0.08372 -0.05891,0.251147 0.08994,0.145521 0.364742,0.26265 0.610816,0.26045 0.385567,-0.0035 0.392667,-0.03942 0.05064,-0.26045 -0.259077,-0.167426 -0.476083,-0.251147 -0.602548,-0.251147 z m 1.380795,0.251147 c -0.154107,0 -0.206729,0.119063 -0.116789,0.264584 0.08994,0.14552 0.215916,0.264583 0.280086,0.264583 0.06418,0 0.116789,-0.119063 0.116789,-0.264583 0,-0.145521 -0.125977,-0.264584 -0.280086,-0.264584 z m 1.945101,0.04289 c -0.05056,-0.004 -0.07752,0.03742 -0.07752,0.12454 0,0.150371 0.07921,0.353092 0.176217,0.450102 0.277392,0.277393 0.832387,0.20634 1.042313,-0.133325 0.125603,-0.203228 0.05085,-0.255763 -0.217041,-0.152963 -0.224421,0.08612 -0.541613,0.02321 -0.704866,-0.140043 -0.09458,-0.09458 -0.168547,-0.144322 -0.219108,-0.148311 z m 3.525366,0.221692 c -0.363802,0 -0.734816,0.119062 -0.824756,0.264583 -0.09236,0.149439 0.124563,0.264583 0.498161,0.264583 0.3638,0 0.734816,-0.119062 0.824756,-0.264583 0.09236,-0.149439 -0.124566,-0.264583 -0.498161,-0.264583 z m -12.987321,0.518831 c -0.857308,0.02164 -1.72806,0.645896 -1.72806,1.60352 0,0.229339 -1.89671,1.928064 -4.21473,3.774963 -1.920232,1.529961 -3.636969,2.901873 -4.239018,3.437516 -0.117732,0.104749 0.13527,0.494085 0.15658,0.535885 0.06747,0.132366 -1.768523,1.644684 -3.561023,3.21014 -1.792501,1.565457 -3.192458,2.912596 -3.111438,2.993616 0.08102,0.08102 0.780379,-0.436456 1.554427,-1.150318 3.575834,-3.297777 5.283981,-4.743567 5.386235,-4.604887 0.148908,0.201952 0.249456,0.4395 0.5333,0.272335 0.718396,-0.423082 2.286483,-1.734486 4.027662,-3.133142 2.184607,-1.754855 4.023841,-3.225126 4.128947,-3.225126 0.105105,0 0.104884,2.415047 -5.17e-4,5.366597 -0.170203,4.766215 -0.144214,5.405756 0.235128,5.720582 0.342041,0.283869 0.426563,0.888565 0.424263,3.03444 -0.0016,1.47377 -0.06461,4.02598 -0.09023,4.6403 0.01028,0.0916 -0.272752,0.0235 -1.354128,0.0235 -3.463225,0 -8.796182,-2.3638 -11.844238,-5.24981 L 24.9661,99.494699 26.483837,98.51543 c 0.834745,-0.538514 2.369896,-1.739689 3.411161,-2.669604 1.041268,-0.929915 2.231895,-1.864088 2.645834,-2.075842 1.535745,-0.785635 4.210799,-2.451197 4.787304,-2.980697 l 0.595313,-0.546737 v 0.883667 c 0,1.153013 0.155638,0.948361 0.332279,-0.437182 l 0.140044,-1.100708 -1.492933,1.125512 c -0.821138,0.619067 -2.353674,1.574541 -3.405476,2.122868 -1.051801,0.548329 -2.671065,1.692429 -3.598747,2.542481 -0.927682,0.850052 -2.542763,2.134948 -3.588928,2.855639 l -1.90221,1.310515 1.476913,1.281578 c 2.915663,2.53038 6.298058,4.23601 9.922391,5.00331 2.172891,0.46002 6.952991,0.30798 9.128125,-0.29042 3.404789,-0.93669 7.568094,-3.36732 10.092924,-5.892149 0.60863,-0.608631 0.889943,-0.737865 1.115178,-0.51263 0.16567,0.165669 0.301273,0.191865 0.301273,0.05839 0,-0.26123 -1.227896,-1.410646 -4.735111,-4.431771 -1.221943,-1.052585 -3.186478,-2.7495 -4.365625,-3.771346 -1.179146,-1.021847 -3.065465,-2.614392 -4.191476,-3.538802 -1.349342,-1.107755 -1.694873,-1.415885 -1.984481,-1.719381 -0.08386,-0.08788 0.06433,-0.46656 0.09571,-0.591589 0.09514,-0.379065 -0.01406,-0.893817 -0.273885,-1.29036 -0.313857,-0.479006 -0.823519,-0.682713 -1.337903,-0.669727 z m 0.243913,0.228927 c 0.05588,1.3e-5 0.447537,0.112286 0.639754,0.294555 0.124777,0.118319 0.223223,0.256833 0.223242,0.287838 -0.05713,0.07021 -0.211699,0.208235 -0.303857,0.208256 -0.04732,-1.1e-5 -0.143158,-0.13224 -0.286288,-0.227376 -0.135626,-0.09015 -0.320371,-0.142545 -0.320394,-0.180868 0.02003,-0.09589 -0.04462,-0.382384 0.04754,-0.382405 z m -0.429431,0.0016 c 0.106038,-0.0395 0.05351,0.270721 0.05891,0.320911 0.0056,0.05154 -0.237225,0.101891 -0.403077,0.165881 -0.257093,0.0992 -0.467067,0.436947 -0.593245,0.77618 -0.04385,0.117896 -0.364328,-0.0049 -0.340548,-0.119373 0.07848,-0.37761 0.245823,-0.581007 0.464055,-0.762227 0.274131,-0.22764 0.66619,-0.326352 0.813904,-0.381372 z m 0.06821,0.643888 c 0.282105,-0.03392 0.537838,0.09479 0.68678,0.325045 0.200622,0.310146 0.20793,0.802801 -0.15813,0.999939 -0.394514,0.212462 -0.734384,0.212734 -1.091923,-0.218075 -0.303984,-0.366279 -0.0995,-0.82409 0.275436,-1.016475 0.09694,-0.04974 0.193803,-0.07913 0.287837,-0.09043 z m -20.131587,0.72347 6.81302,0.03152 c 3.747156,0.01722 7.14521,0.106519 7.550961,0.198437 l 0.737422,0.166915 -1.663464,1.627808 c -0.915071,0.895166 -2.954867,2.488905 -4.53254,3.541903 -1.577671,1.052998 -3.557898,2.552782 -4.400765,3.33313 -0.842867,0.780346 -1.655345,1.419034 -1.805058,1.419034 -0.344601,0 -1.776771,-3.727699 -2.301151,-5.988781 -0.219032,-0.944448 -0.398425,-2.305016 -0.398425,-3.023588 z m 21.231646,-0.329339 c 0.142986,-0.07993 0.219895,-0.19603 0.299699,-0.126789 0.08732,0.07576 0.0891,0.476472 0.06821,0.818407 -0.05934,0.447641 -0.480471,0.750109 -0.680087,0.790063 -0.107491,0.02151 -0.135047,-0.241381 -0.150308,-0.293666 0.130158,-0.129336 0.466558,-0.297987 0.430271,-0.793166 -3.9e-5,-0.08349 -0.06434,-0.297634 0.03222,-0.394849 z m -2.312904,0.73965 c 0.06619,-0.05416 0.574718,0.705962 0.522448,0.766362 -0.138737,0.160301 -1.806717,1.61892 -4.20181,3.525366 -3.463661,2.757004 -4.337273,3.482588 -4.404383,3.364652 -0.148842,-0.26157 -0.549377,-0.661495 -0.452169,-0.743623 0.457859,-0.386803 1.428527,-1.183196 5.597592,-4.510836 1.52596,-1.217984 2.522736,-2.061917 2.938322,-2.401921 z m 1.506884,0.648023 c 0.237851,0 0.236685,6.769465 -0.0015,10.384895 -0.07144,1.083967 -0.206995,1.521355 -0.472323,1.521355 -0.421099,0 -0.422924,-0.03005 -0.373103,-6.739641 0.02103,-2.832642 -0.03058,-4.002665 0.0027,-4.635962 0.0044,-0.08404 0.123145,-0.358423 0.324316,-0.47711 0.170031,-0.100314 0.41689,-0.05354 0.519942,-0.05354 z m 0.878946,0.213396 c 0.101264,-0.03874 7.891792,6.303605 14.248813,12.010147 0.486367,0.436599 0.471119,0.480515 -0.5271,1.546159 -2.430712,2.5949 -6.61693,4.91266 -10.210229,5.6534 -1.121649,0.23122 -2.639699,0.42065 -3.373438,0.42065 h -1.334285 v -3.68195 c 0,-2.710685 0.08725,-3.711115 0.330729,-3.792015 0.246033,-0.08175 0.364611,-1.62345 0.463021,-6.019787 0.06598,-2.947335 -0.02982,-5.061507 -0.05943,-5.844505 -0.005,-0.131194 0.260401,-0.215006 0.461914,-0.292099 z"
       sodipodi:nodetypes="ccsssssssssssssssssscccsssssssssssssssssssssssscscssssscsssscscsssscccccsccccccccsscccsssssscsscssssscsccsscsssccssscssssssscssccssccssssccssscssssscssccscscscsssssccssscsscssssssscscssscssssssssccssccssssscsscccscccscccsscccsssssssssssscsccsccscsscsscsscscccccccssssccccscccscsscssscsssscssssscsssssscsssssscssscss" /><text
       xml:space="preserve"
       style="font-size:3.175px;fill:#000000;stroke-width:1.165;paint-order:stroke markers fill"
       x="56.972561"
       y="98.358894"
       id="text2"><tspan
         sodipodi:role="line"
         id="tspan2"
         style="stroke-width:1.165"
         x="56.972561"
         y="98.358894">50°</tspan></text><text
       xml:space="preserve"
       style="font-size:3.175px;fill:#000000;stroke-width:1.165;paint-order:stroke markers fill"
       x="37.701889"
       y="108.96154"
       id="text3"><tspan
         sodipodi:role="line"
         id="tspan3"
         style="stroke-width:1.165"
         x="37.701889"
         y="108.96154">0°</tspan></text><text
       xml:space="preserve"
       style="font-size:3.175px;fill:#000000;stroke-width:1.165;paint-order:stroke markers fill"
       x="18.157606"
       y="101.38129"
       id="text4"><tspan
         sodipodi:role="line"
         id="tspan4"
         style="stroke-width:1.165"
         x="18.157606"
         y="101.38129">50°</tspan></text><text
       xml:space="preserve"
       style="font-size:3.175px;fill:#000000;stroke-width:1.165;paint-order:stroke markers fill"
       x="13.362864"
       y="85.398827"
       id="text5"><tspan
         sodipodi:role="line"
         id="tspan5"
         style="stroke-width:1.165"
         x="13.362864"
         y="85.398827">90°</tspan></text><text
       xml:space="preserve"
       style="font-size:3.175px;fill:#000000;stroke-width:1.165;paint-order:stroke markers fill"
       x="35.829655"
       y="62.84071"
       id="text6"><tspan
         sodipodi:role="line"
         id="tspan6"
         style="stroke-width:1.165"
         x="35.829655"
         y="62.84071">150°</tspan></text><text
       xml:space="preserve"
       style="font-size:1.5875px;fill:#000000;stroke-width:0.5825;paint-order:stroke markers fill"
       x="17.218811"
       y="69.032181"
       id="text7"><tspan
         sodipodi:role="line"
         id="tspan7"
         style="stroke-width:0.5825"
         x="17.218811"
         y="69.032181">Abduction</tspan></text><text
       xml:space="preserve"
       style="font-size:1.5875px;fill:#000000;stroke-width:0.5825;paint-order:stroke markers fill"
       x="48.179142"
       y="91.270645"
       id="text8"><tspan
         sodipodi:role="line"
         id="tspan8"
         style="stroke-width:0.5825"
         x="48.179142"
         y="91.270645">Adduction</tspan></text></g></svg>
