<?xml version="1.0" encoding="UTF-8" standalone="no"?>
<!-- Created with Inkscape (http://www.inkscape.org/) -->

<svg
   width="51.878998mm"
   height="41.519897mm"
   viewBox="0 0 51.878998 41.519897"
   version="1.1"
   id="svg1"
   xml:space="preserve"
   inkscape:version="1.3 (0e150ed6c4, 2023-07-21)"
   sodipodi:docname="Thumb (MP Joint).svg"
   xmlns:inkscape="http://www.inkscape.org/namespaces/inkscape"
   xmlns:sodipodi="http://sodipodi.sourceforge.net/DTD/sodipodi-0.dtd"
   xmlns="http://www.w3.org/2000/svg"
   xmlns:svg="http://www.w3.org/2000/svg"><sodipodi:namedview
     id="namedview1"
     pagecolor="#ffffff"
     bordercolor="#000000"
     borderopacity="0.25"
     inkscape:showpageshadow="2"
     inkscape:pageopacity="0.0"
     inkscape:pagecheckerboard="0"
     inkscape:deskcolor="#d1d1d1"
     inkscape:document-units="mm"
     inkscape:zoom="2.0485264"
     inkscape:cx="15.132829"
     inkscape:cy="88.112116"
     inkscape:window-width="1920"
     inkscape:window-height="1009"
     inkscape:window-x="1919"
     inkscape:window-y="1072"
     inkscape:window-maximized="1"
     inkscape:current-layer="layer1" /><defs
     id="defs1" /><g
     inkscape:label="Layer 1"
     inkscape:groupmode="layer"
     id="layer1"
     transform="translate(-36.868037,-73.581863)"><path
       style="fill:#000000"
       d="m 50.609289,114.25761 c -0.514436,-0.51443 -0.932602,-1.1556 -0.929259,-1.42481 0.0041,-0.33104 0.18754,-0.17653 0.566665,0.47732 0.308323,0.53174 0.811604,1.08115 1.118401,1.2209 0.711698,0.32419 2.096655,0.18329 3.550134,-0.36117 1.126113,-0.42183 1.134393,-0.43415 0.668479,-0.99454 -0.259467,-0.31207 -0.302276,-0.41858 -0.09513,-0.23668 0.547036,0.48037 1.136237,0.40961 2.355386,-0.28288 0.859608,-0.48826 1.013752,-0.68125 0.754611,-0.94476 -0.259782,-0.26417 -0.19185,-0.29862 0.335795,-0.1703 0.833491,0.2027 3.588968,-1.37952 3.538614,-2.0319 -0.01927,-0.24963 0.10957,-0.37611 0.306253,-0.30063 0.345956,0.13275 4.42425,-1.03693 7.532216,-2.1603 5.411986,-1.95615 7.784406,-3.22235 12.116635,-6.46684 3.183962,-2.384523 6.051782,-4.156437 6.309703,-3.898516 0.0803,0.0803 -0.371603,0.38622 -1.004231,0.679821 -0.632627,0.2936 -2.221794,1.318415 -3.531482,2.277364 -6.843253,5.010611 -10.236701,6.747891 -17.248487,8.830391 -2.877213,0.85453 -3.594089,1.17148 -5.732738,2.53455 -3.146603,2.0055 -7.008759,3.8724 -8.336311,4.02963 -1.271963,0.15064 -1.387351,0.11126 -2.275252,-0.77665 z m -7.051086,-0.95409 c -0.970188,-0.76487 -1.47774,-2.05817 -1.066288,-2.71701 0.284811,-0.45605 0.252263,-0.48953 -0.333101,-0.34261 -0.956338,0.24002 -1.700462,-0.0891 -2.145055,-0.9489 -0.920544,-1.78014 -0.213392,-3.64283 1.918536,-5.05357 l 1.271331,-0.84127 -0.733587,-0.73359 c -0.593012,-0.59301 -0.726813,-0.95297 -0.698235,-1.87842 0.01023,-0.33135 0.06426,-0.62975 0.148363,-0.983384 0.06365,-0.267607 0.258676,-0.873122 0.258676,-0.873122 l 0.144669,0.05232 c 0,0 -0.305697,1.170186 -0.357641,1.831966 -0.09863,1.25656 0.764879,2.13468 1.519351,2.13468 0.58246,0 3.534429,-2.49499 3.40008,-2.87373 -0.08387,-0.236417 0.01042,-0.307153 0.274404,-0.205855 0.935194,0.358865 1.596689,-0.31972 3.040853,-3.119424 l 1.45265,-2.816155 -0.923483,-0.711991 C 48.807255,91.741256 47.128675,89.976948 46.2374,88.501694 45.06308,86.557938 44.299502,83.760166 44.075379,82.445403 44.017929,81.965178 43.9535,81.394329 43.959676,80.989271 c 0.0096,-0.629016 0.315427,-0.18398 0.317712,0.09421 0.0026,0.310683 0.02855,0.78846 0.06524,1.065053 0.353916,2.668413 1.979442,6.401221 3.622248,8.168227 1.07302,1.154142 1.193658,1.1817 1.866507,0.426384 0.617382,-0.69305 4.868766,-3.932113 5.161037,-3.932113 0.263797,0 2.978168,-5.549893 2.801014,-5.727047 -0.135683,-0.135683 -0.429973,-0.138262 -11.262616,-0.09869 -3.693256,0.01349 -6.778959,-0.03942 -6.857118,-0.117575 -0.07816,-0.07816 0.979064,-0.160243 2.349385,-0.182408 1.370321,-0.02217 2.610556,-0.06796 2.756076,-0.101772 0.145521,-0.03381 3.244804,-0.07521 6.887294,-0.09199 l 6.622711,-0.03052 1.703537,-3.439583 c 0.936945,-1.891771 1.7975,-3.439584 1.912344,-3.439584 0.114844,0 0.09235,0.20836 -0.04998,0.463021 -0.142333,0.254662 -0.924021,1.813995 -1.737083,3.465185 l -1.478295,3.002164 8.599929,-0.08378 c 4.729962,-0.04608 8.68564,0.0019 8.790397,0.10669 0.104758,0.104757 -0.216329,0.204159 -0.713525,0.220894 l -0.903993,0.03043 0.926041,0.195661 c 0.509323,0.107614 1.843757,0.391578 2.965409,0.631032 1.121651,0.239453 3.175479,0.43537 4.564062,0.43537 1.717259,0 2.524696,0.09671 2.524696,0.302406 0,0.460646 -4.836681,0.05623 -8.596215,-0.718761 -3.804754,-0.784316 -7.396201,-0.978311 -12.624459,-0.681921 -3.338095,0.189237 -4.068086,0.311958 -5.14149,0.864351 -1.376266,0.708251 -1.536528,0.961978 -4.194798,6.641224 -0.798057,1.705004 -2.107209,4.285225 -2.909227,5.733825 -0.832185,1.503087 -1.391193,2.808473 -1.302101,3.040643 0.221362,0.576859 -0.352688,2.158599 -1.110071,3.058693 -0.562081,0.668 -0.603592,0.85168 -0.328778,1.45483 0.56858,1.2479 2.442511,1.22895 4.278319,-0.0433 1.811421,-1.25531 4.017489,-4.557476 3.328981,-4.982997 -0.131859,-0.08149 -0.239744,-0.274785 -0.239744,-0.429535 0,-0.175882 0.150648,-0.156338 0.401838,0.05213 0.329009,0.273054 0.49801,0.246461 0.932479,-0.146728 0.291853,-0.264123 0.488367,-0.607045 0.436699,-0.76205 -0.05167,-0.155005 0.153794,-0.406949 0.456583,-0.559876 0.573369,-0.289587 0.714201,-1.37169 0.30048,-2.308778 -0.155913,-0.353145 -0.108267,-0.428615 0.196709,-0.311584 0.221351,0.08494 0.47671,0.450288 0.567465,0.811884 0.11193,0.445966 0.319308,0.631307 0.64469,0.576184 0.263824,-0.0447 0.668522,0.07546 0.899329,0.267013 0.230806,0.191552 0.814644,0.360521 1.297417,0.375487 1.134855,0.03518 5.454921,-0.687434 7.492352,-1.25324 1.790908,-0.497344 6.482598,-0.858389 6.481719,-0.498795 -3.15e-4,0.128969 -0.923049,0.234489 -2.050521,0.234489 -1.30231,0 -3.159655,0.261139 -5.092656,0.716016 -5.083841,1.196339 -7.904199,1.435232 -8.3539,0.707601 -0.197446,-0.319474 -1.435683,-0.29565 -1.435683,0.02762 0,0.143339 -0.592985,0.887479 -1.317744,1.653646 -0.72476,0.766167 -1.320072,1.58304 -1.322917,1.815273 -0.0028,0.232233 -0.729845,1.285322 -1.615557,2.3402 -1.647084,1.96166 -1.590941,2.15505 0.340474,1.17279 0.882733,-0.44893 0.915915,-0.44882 1.089516,0.004 0.09658,0.25168 -0.0093,0.32768 -0.337111,0.24195 -0.965018,-0.25236 -4.503218,1.81914 -4.513629,2.64258 -0.0031,0.24909 -0.04967,0.24863 -0.208975,-0.002 -0.147272,-0.23179 -0.723007,0.0177 -2.04647,0.88661 -1.01285,0.66502 -1.901077,1.29956 -1.973837,1.41008 -0.07276,0.11052 -0.49606,0.38722 -0.940665,0.61488 -0.444605,0.22767 -1.624556,1.17215 -2.622114,2.09883 -1.634003,1.51791 -1.795361,1.75811 -1.628263,2.42389 0.102013,0.40645 0.486746,1.04027 0.854962,1.40848 0.572493,0.5725 0.822808,0.64497 1.727808,0.50025 1.126172,-0.18008 4.724938,-1.87403 4.724938,-2.22405 0,-0.11458 -0.148828,-0.36459 -0.330729,-0.55557 -0.269558,-0.28302 -0.22474,-0.31528 0.242317,-0.17445 0.323322,0.0975 0.653118,0.0432 0.756788,-0.12451 0.101058,-0.16351 0.855219,-0.72156 1.675913,-1.24009 1.886859,-1.19217 1.810288,-1.11141 1.352216,-1.42627 -0.300828,-0.20677 -0.261329,-0.23182 0.173939,-0.11028 0.408391,0.11403 1.147877,-0.24554 2.690881,-1.30844 1.170252,-0.80612 2.171341,-1.59652 2.224644,-1.75642 0.05973,-0.1792 0.232528,-0.12734 0.45037,0.13514 0.301202,0.36293 0.287263,0.42589 -0.09429,0.42589 -0.444115,0 -2.6637,1.39569 -2.835122,1.78274 -0.04912,0.1109 -0.565531,0.45237 -1.147592,0.75882 -0.585105,0.30806 -1.254876,0.93832 -1.497957,1.4096 -0.306851,0.59492 -0.466701,0.72303 -0.529166,0.42408 -0.134936,-0.64577 -2.535063,0.95857 -2.965491,1.98226 -0.183863,0.43728 -0.402037,0.72732 -0.48483,0.64453 -0.08279,-0.0828 -0.860937,0.22185 -1.729208,0.67698 -2.104334,1.10306 -3.425201,1.27293 -4.333014,0.55723 z m -1.095624,-3.45435 c 1.094201,-0.31381 3.813382,-2.67609 3.634779,-3.15771 -0.09128,-0.24613 0.0039,-0.30745 0.300462,-0.19363 0.27511,0.10557 1.123903,-0.29399 2.318105,-1.09122 1.036238,-0.69177 1.934908,-1.29048 1.997046,-1.33045 0.06214,-0.04 -0.116457,-0.25977 -0.396875,-0.48842 -0.500818,-0.40838 -0.500476,-0.41239 0.01931,-0.22653 0.858366,0.30693 1.349331,0.19614 2.497282,-0.56354 1.284154,-0.84981 1.26743,-1.17639 -0.02005,-0.39147 -1.244686,0.75883 -2.727643,0.71493 -3.547595,-0.10502 -0.357188,-0.35719 -0.653148,-0.8632 -0.65769,-1.12448 -0.0053,-0.30617 -0.239984,-0.0988 -0.660103,0.58329 -0.785618,1.27552 -0.859418,1.04194 -0.125389,-0.39688 0.291041,-0.57049 0.529166,-1.10572 0.529166,-1.18939 0,-0.261917 -1.141158,0.43248 -2.38125,1.449 -0.654843,0.53678 -1.913865,1.46211 -2.797824,2.05629 -2.332959,1.56816 -3.287592,2.74572 -3.287592,4.05533 0,0.77388 0.175813,1.23697 0.649431,1.71059 0.734796,0.73479 0.758723,0.73981 1.928779,0.40424 z M 49.8969,99.175805 c 0.950804,-1.898321 0.534874,-2.072121 -0.465811,-0.194644 -0.539658,1.012502 -0.7406,1.611289 -0.5179,1.543279 0.200139,-0.0611 0.642808,-0.668008 0.983711,-1.348635 z m 3.784213,-9.283679 c 0.724453,-1.434094 1.269999,-2.654633 1.212325,-2.712307 -0.182606,-0.182606 -4.896326,3.656772 -5.308686,4.323985 -0.109167,0.176636 0.27707,0.6235 0.944436,1.09268 1.361287,0.957032 1.257209,1.046331 3.151925,-2.704358 z m 5.825679,-8.637348 c 0.250074,0 0.527695,-0.118141 0.616936,-0.262536 0.09726,-0.157371 -0.176191,-0.235089 -0.682652,-0.194017 -0.555654,0.04506 -0.990823,0.290702 -1.27112,0.717513 l -0.426212,0.648994 0.654184,-0.454977 c 0.359801,-0.250238 0.85879,-0.454977 1.108864,-0.454977 z M 42.162924,98.985333 c 0.09798,-0.361893 0.455581,-1.076268 0.794677,-1.5875 0.431708,-0.650856 2.280681,-2.526531 3.759452,-3.838006 0.940488,-0.83409 2.145901,-1.834657 2.26664,-1.933403 0.01861,-0.01522 0.258304,0.07459 0.120672,0.194342 -0.109229,0.09504 -0.359126,0.3748 -0.330453,0.421788 0.104967,0.172024 0.09504,0.220281 0.08769,0.455453 -0.01642,0.525751 -0.04114,0.538006 -0.211517,0.104875 -0.168806,-0.429134 -0.381448,-0.312158 -1.701195,0.935849 -1.12787,1.066559 -1.517363,1.624005 -1.544307,2.210228 -0.02867,0.623828 -0.05945,0.662355 -0.150694,0.188631 -0.06306,-0.327422 -0.16955,-0.595313 -0.236635,-0.595313 -0.262534,0 -1.857431,1.976277 -2.429035,3.009878 -0.353734,0.63964 -0.529723,0.818889 -0.425299,0.433178 z"
       id="path1"
       sodipodi:nodetypes="scssssssssscsssssssssscsccscsssccssscscsscsscsssssccsccsssscscscsssssssssssscssssssssssssssssssscsscccccscsscssscccsssssssssssccccsscsccssssccssscsssssscsssssssssscssssssssssssssss" /><text
       xml:space="preserve"
       style="font-size:3.175px;fill:#000000;stroke-width:1.165;paint-order:stroke markers fill"
       x="36.655647"
       y="81.351494"
       id="text1"><tspan
         sodipodi:role="line"
         id="tspan1"
         style="stroke-width:1.165"
         x="36.655647"
         y="81.351494">0°</tspan></text><text
       xml:space="preserve"
       style="font-size:3.175px;fill:#000000;stroke-width:1.165;paint-order:stroke markers fill"
       x="43.984753"
       y="105.34803"
       id="text2"><tspan
         sodipodi:role="line"
         id="tspan2"
         style="stroke-width:1.165"
         x="43.984753"
         y="105.34803">60°</tspan></text></g></svg>
