<?xml version="1.0" encoding="UTF-8" standalone="no"?>
<!-- Created with Inkscape (http://www.inkscape.org/) -->

<svg
   width="40.044689mm"
   height="31.935678mm"
   viewBox="0 0 40.044689 31.935678"
   version="1.1"
   id="svg1"
   xml:space="preserve"
   inkscape:version="1.3 (0e150ed6c4, 2023-07-21)"
   sodipodi:docname="Thumb (IP Joint).svg"
   xmlns:inkscape="http://www.inkscape.org/namespaces/inkscape"
   xmlns:sodipodi="http://sodipodi.sourceforge.net/DTD/sodipodi-0.dtd"
   xmlns="http://www.w3.org/2000/svg"
   xmlns:svg="http://www.w3.org/2000/svg"><sodipodi:namedview
     id="namedview1"
     pagecolor="#ffffff"
     bordercolor="#000000"
     borderopacity="0.25"
     inkscape:showpageshadow="2"
     inkscape:pageopacity="0.0"
     inkscape:pagecheckerboard="0"
     inkscape:deskcolor="#d1d1d1"
     inkscape:document-units="mm"
     inkscape:zoom="4.0970529"
     inkscape:cx="34.903138"
     inkscape:cy="55.771797"
     inkscape:window-width="1920"
     inkscape:window-height="1009"
     inkscape:window-x="1919"
     inkscape:window-y="1072"
     inkscape:window-maximized="1"
     inkscape:current-layer="layer1" /><defs
     id="defs1" /><g
     inkscape:label="Layer 1"
     inkscape:groupmode="layer"
     id="layer1"
     transform="translate(-17.260431,-106.18597)"><path
       style="fill:#000000"
       d="m 55.360435,137.86209 c -0.509322,-0.13096 -2.414322,-0.16614 -4.233333,-0.0782 -4.512351,0.21817 -9.039313,-0.66079 -13.758334,-2.67131 -1.091406,-0.46499 -2.585665,-0.92426 -3.320575,-1.0206 -1.435267,-0.18816 -7.726983,-1.50685 -9.61485,-2.0152 -1.599883,-0.4308 -2.410408,-1.3082 -2.410408,-2.60926 0,-0.62786 0.166941,-1.17651 0.422526,-1.38863 0.383661,-0.31841 0.377576,-0.36836 -0.06615,-0.54297 -0.268769,-0.10576 -1.062046,-0.20067 -1.762837,-0.2109 -2.638359,-0.0385 -3.973512,-1.82371 -2.520609,-3.37026 l 0.570851,-0.60764 -0.703143,-0.55309 c -0.542116,-0.42643 -0.703142,-0.78479 -0.703142,-1.56481 0,-0.82689 0.170861,-1.16174 0.935248,-1.83288 0.748965,-0.6576 1.171778,-0.82116 2.122766,-0.82116 h 1.187518 l -0.434427,-0.66302 c -0.688862,-1.05134 -0.09036,-2.15605 1.592669,-2.93974 0.738705,-0.34397 1.491929,-0.62657 1.67383,-0.62799 0.372758,-0.003 0.405134,-0.44422 0.162474,-2.21462 -0.139572,-1.01829 -0.263606,-1.22824 -0.727604,-1.2316 -0.339298,-0.002 -0.439469,-0.0805 -0.254625,-0.19844 0.167598,-0.10691 3.194403,-0.10143 6.726234,0.0122 4.723345,0.15195 6.470874,0.1267 6.608176,-0.0955 0.102666,-0.16611 0.337803,-1.18559 0.522527,-2.26549 0.184724,-1.07991 0.437434,-2.02624 0.561579,-2.10297 0.300671,-0.18582 0.293064,-0.0966 -0.198512,2.32947 -0.233327,1.15151 -0.381483,2.13641 -0.329235,2.18866 0.05225,0.0522 2.806842,0.18137 6.121321,0.28694 3.31448,0.10557 6.089037,0.29341 6.165684,0.41743 0.07665,0.12401 -0.433216,0.23248 -1.133029,0.24104 -1.096288,0.0134 -1.201879,0.0592 -0.762947,0.33073 2.187889,1.35356 9.793444,6.79746 9.496588,6.79746 -0.379797,0 -3.007649,-1.74236 -5.673981,-3.76205 -1.255396,-0.95094 -3.064672,-2.11402 -4.020614,-2.58463 -1.682499,-0.82829 -1.850633,-0.85651 -5.258087,-0.88262 -5.064054,-0.0388 -5.23356,0.084 -6.143508,4.45118 -0.24022,1.1529 -0.292306,1.94697 -0.137974,2.10343 0.390745,0.39615 0.2902,1.61649 -0.204153,2.47785 -0.379834,0.66182 -0.395799,0.85552 -0.0999,1.21206 0.51587,0.62159 1.723028,0.51799 2.604234,-0.2235 0.423467,-0.35632 1.158211,-1.37633 1.632764,-2.26668 0.826981,-1.55158 0.843597,-1.64007 0.399978,-2.13027 -0.292567,-0.32328 -0.344676,-0.51144 -0.141641,-0.51144 0.176663,0 0.252705,-0.11083 0.168983,-0.2463 -0.08372,-0.13546 -0.03122,-0.32108 0.116677,-0.41249 0.147894,-0.0914 0.268899,-0.0479 0.268899,0.0968 0,0.14463 0.12209,0.58409 0.271311,0.97657 0.25401,0.6681 0.301735,0.68607 0.748437,0.28181 0.700244,-0.63371 0.906479,-0.52633 0.418754,0.21803 -0.6573,1.00317 -0.292451,1.24765 1.560244,1.04553 0.897304,-0.0979 1.559949,-0.10061 1.472543,-0.006 -0.0874,0.0946 -0.861311,0.25917 -1.719791,0.3658 -1.438614,0.17867 -1.56729,0.24939 -1.642797,0.90285 -0.04506,0.38994 0.07658,1.28291 0.270309,1.98437 0.348431,1.26162 0.344546,2.99518 -0.0067,2.99518 -0.09992,0 -0.198997,-0.62508 -0.22017,-1.38907 -0.06283,-2.26723 -0.471132,-5.04469 -0.755254,-5.13761 -0.145521,-0.0476 -0.608191,0.57103 -1.028155,1.37473 -1.281303,2.45207 -2.880135,3.43418 -4.375911,2.68799 l -0.798674,-0.39843 -0.16977,0.90495 c -0.176174,0.93909 -0.638949,1.50578 -0.638949,0.78243 0,-0.22687 -0.178593,-0.41249 -0.396875,-0.41249 -0.218281,0 -0.396872,0.14883 -0.396869,0.33073 4e-6,0.25916 -0.844494,0.28512 -3.902605,0.11995 -2.146435,-0.11592 -4.408625,-0.16031 -5.027088,-0.0986 -0.618464,0.0617 -1.12448,0.008 -1.12448,-0.11996 0,-0.12765 -0.957912,-0.23208 -2.128693,-0.23208 -1.907316,0 -2.196232,0.0675 -2.778125,0.64943 -0.697266,0.69727 -0.800588,1.21958 -0.392199,1.98267 0.363048,0.67836 0.913731,0.85563 3.248497,1.04571 1.695665,0.13805 2.05052,0.10023 2.05052,-0.21851 0,-0.29618 0.07878,-0.27771 0.340161,0.0798 0.289251,0.39557 0.944039,0.4884 4.375061,0.62026 2.219194,0.0853 4.09741,0.25622 4.173811,0.37984 0.139199,0.22523 -3.882715,0.11009 -6.953825,-0.19908 -1.514026,-0.15241 -1.687505,-0.11392 -2.315104,0.51368 -0.791149,0.79115 -0.869748,1.73052 -0.21269,2.54195 0.528788,0.65303 4.102303,1.74819 4.258047,1.30495 0.05279,-0.15023 0.294982,-0.0841 0.555528,0.15171 0.254068,0.22993 0.985861,0.4629 1.626206,0.51772 0.640345,0.0548 1.498945,0.23097 1.908,0.39145 0.409055,0.16049 1.393995,0.36822 2.188756,0.46163 1.319455,0.15507 1.4291,0.12835 1.261821,-0.30757 -0.126038,-0.32845 -0.08662,-0.41772 0.126349,-0.2861 0.170251,0.10522 0.309546,0.3347 0.309546,0.50995 0,0.39036 4.913908,2.30578 7.805209,3.04244 3.50783,0.89374 6.28502,1.17697 8.36946,0.85356 1.897866,-0.29446 5.114009,0.009 5.640228,0.53146 0.304391,0.30245 -0.152708,0.28898 -1.44198,-0.0425 z M 32.143247,123.43245 c 0.545704,-0.0902 0.992188,-0.25764 0.992188,-0.37208 0,-0.11445 -0.554688,-0.41992 -1.23264,-0.67883 -1.249622,-0.47724 -3.643205,-2.19192 -4.269068,-3.05822 -0.28647,-0.39652 -0.609707,-0.45147 -1.980802,-0.33675 -0.901158,0.0754 -1.745532,0.24416 -1.876387,0.37501 -0.140836,0.14084 -0.392923,0.0829 -0.617785,-0.14194 -0.392924,-0.39293 -2.589636,-0.48503 -3.698328,-0.15506 -1.040257,0.3096 -1.935407,1.30335 -1.935407,2.14859 0,1.12852 0.79581,1.51926 3.373438,1.65634 2.068812,0.11002 2.183747,0.0873 2.200719,-0.43547 0.01736,-0.53466 0.02671,-0.53332 0.305016,0.0438 0.242484,0.50279 0.517284,0.6022 1.76803,0.63961 3.420088,0.1023 4.292135,0.16518 4.447656,0.3207 0.207879,0.20788 1.245572,0.20556 2.52337,-0.006 z m 2.81188,-3.33591 c 0.309105,-1.34607 0.687607,-3.16177 0.841117,-4.03489 0.153511,-0.87313 0.345631,-1.81352 0.426934,-2.08976 0.139441,-0.47378 0.03071,-0.49165 -1.91736,-0.31512 -1.135852,0.10293 -2.161072,0.2464 -2.278267,0.31883 -0.117195,0.0724 -1.091005,0.15704 -2.164024,0.18802 -1.173484,0.0339 -2.122811,0.19897 -2.382226,0.41426 -0.282684,0.23461 -0.431283,0.25561 -0.431283,0.061 0,-0.16334 -0.37207,-0.29698 -0.826823,-0.29698 -0.778375,0 -0.81748,0.0467 -0.667383,0.7972 0.207498,1.03749 1.958447,3.77208 2.285736,3.5698 0.483308,-0.2987 6.674044,-0.18247 6.982308,0.1311 0.221005,0.2248 -0.332773,0.26353 -2.186732,0.15294 -1.365477,-0.0815 -2.94973,-0.0734 -3.520561,0.0179 l -1.037874,0.16596 0.737681,0.76997 c 0.860363,0.89803 4.120729,2.59724 4.983456,2.59724 0.531404,0 0.651919,-0.2553 1.155301,-2.4474 z m 0.985168,-0.34305 c 0.151683,-0.60436 -0.01064,-1.17398 -0.254098,-0.89167 -0.268317,0.31114 -0.412217,1.56545 -0.179594,1.56545 0.145521,0 0.340682,-0.3032 0.433692,-0.67378 z m -9.15486,-1.31585 c 0,-0.0756 -0.275203,-0.58167 -0.611561,-1.12448 -0.336359,-0.54281 -0.768781,-1.37692 -0.960939,-1.85358 -0.262811,-0.65192 -0.471844,-0.8322 -0.843647,-0.72761 -0.271848,0.0765 -0.762161,0.2142 -1.089582,0.30605 -1.173003,0.32907 -2.050521,1.15732 -2.050521,1.93541 0,1.17793 0.83667,1.57175 3.373437,1.58788 1.200547,0.008 2.182813,-0.048 2.182813,-0.12367 z m 5.777748,-5.02665 c 1.813823,-0.201 3.428739,-0.34168 3.588702,-0.31261 0.159963,0.0291 0.327285,-0.32249 0.371827,-0.78124 l 0.08098,-0.83409 -2.462234,-0.15421 c -1.35423,-0.0848 -3.980282,-0.19114 -5.835673,-0.23626 l -3.373438,-0.0821 v 1.35699 c 0,0.74634 0.08817,1.44515 0.195927,1.55291 0.209275,0.20927 2.14642,0.0765 7.433905,-0.50943 z m 5.334752,-1.87557 c 0,-0.0572 -0.178594,-0.10398 -0.396875,-0.10398 -0.218281,0 -0.396875,0.11532 -0.396875,0.25628 0,0.14095 0.178594,0.18774 0.396875,0.10398 0.218281,-0.0838 0.396875,-0.19909 0.396875,-0.25628 z m 2.819468,17.83761 c -0.434578,-1.20429 -0.755391,-5.83449 -0.388547,-5.60777 0.118202,0.0731 0.214912,1.0146 0.214912,2.09234 0,1.08566 0.185464,2.50578 0.415885,3.18447 0.528769,1.55745 0.308789,1.85799 -0.24225,0.33096 z"
       id="path1" /><text
       xml:space="preserve"
       style="font-size:3.175px;fill:#000000;stroke-width:1.165;paint-order:stroke markers fill"
       x="31.562735"
       y="126.81525"
       id="text1"><tspan
         sodipodi:role="line"
         id="tspan1"
         style="stroke-width:1.165"
         x="31.562735"
         y="126.81525">60°</tspan></text><text
       xml:space="preserve"
       style="font-size:3.175px;fill:#000000;stroke-width:1.165;paint-order:stroke markers fill"
       x="19.443584"
       y="111.9099"
       id="text2"><tspan
         sodipodi:role="line"
         id="tspan2"
         style="stroke-width:1.165"
         x="19.443584"
         y="111.9099">0°</tspan></text></g></svg>
