<?xml version="1.0" encoding="UTF-8" standalone="no"?>
<!-- Created with Inkscape (http://www.inkscape.org/) -->

<svg
   width="49.477085mm"
   height="44.714584mm"
   viewBox="0 0 49.477085 44.714584"
   version="1.1"
   id="svg1"
   xml:space="preserve"
   inkscape:version="1.3 (0e150ed6c4, 2023-07-21)"
   sodipodi:docname="Wrist (Radial, Ulnar) 2.svg"
   xmlns:inkscape="http://www.inkscape.org/namespaces/inkscape"
   xmlns:sodipodi="http://sodipodi.sourceforge.net/DTD/sodipodi-0.dtd"
   xmlns="http://www.w3.org/2000/svg"
   xmlns:svg="http://www.w3.org/2000/svg"><sodipodi:namedview
     id="namedview1"
     pagecolor="#ffffff"
     bordercolor="#000000"
     borderopacity="0.25"
     inkscape:showpageshadow="2"
     inkscape:pageopacity="0.0"
     inkscape:pagecheckerboard="0"
     inkscape:deskcolor="#d1d1d1"
     inkscape:document-units="mm"
     inkscape:zoom="2.8970539"
     inkscape:cx="75.594038"
     inkscape:cy="43.665049"
     inkscape:window-width="1920"
     inkscape:window-height="1009"
     inkscape:window-x="1919"
     inkscape:window-y="1072"
     inkscape:window-maximized="1"
     inkscape:current-layer="layer1" /><defs
     id="defs1" /><g
     inkscape:label="Layer 1"
     inkscape:groupmode="layer"
     id="layer1"
     transform="translate(-47.228249,-133.99695)"><path
       id="path1"
       style="fill:#000000"
       d="m 80.100123,138.75945 c -0.0213,0.0121 0.0614,2.26739 0.293213,6.03069 0.08373,1.35931 0.09027,1.36001 0.04732,1.36337 -1.166051,0.0913 -1.166933,0.0968 -1.158033,1.27104 0.0052,0.69123 -0.194864,2.03068 -0.444934,2.97657 -0.515671,1.9505 -0.560427,3.49375 -0.264583,9.12812 0.187883,3.57823 0.0093,7.66304 -0.54777,12.53567 -0.09498,0.83085 -0.05884,1.09544 0.112654,0.82579 0.138825,-0.21828 0.439799,-2.60035 0.66921,-5.29322 0.348106,-4.08612 0.367875,-5.69395 0.117822,-9.7193 -0.268944,-4.32946 -0.251856,-5.04695 0.166915,-7.00991 0.256596,-1.20276 0.577635,-2.46861 0.713652,-2.81275 0.13602,-0.34415 0.17618,-0.84952 0.0894,-1.12293 -0.118851,-0.37446 -0.05569,-0.45769 0.256315,-0.33796 0.227796,0.0874 0.414896,0.17609 0.415479,0.19689 5.83e-4,0.0208 0.179298,2.80929 0.396875,6.19704 l 0.395324,6.15983 -0.808219,1.60145 c -0.444578,0.8807 -0.723519,1.6805 -0.781725,1.85288 -0.0037,0.0109 0.228708,0.17998 0.247322,0.14081 0.09595,-0.20189 0.338523,-0.71856 0.558174,-1.16997 0.373417,-0.76741 0.754582,-1.58182 0.815902,-1.52052 0.02704,0.0299 0.706981,11.45836 0.745713,12.99345 0.0035,0.13872 0.446653,0.16952 0.445267,-0.0369 -5.23e-4,-0.0779 -0.144743,-3.06937 -0.402846,-6.99803 l -0.443383,-6.74687 1.862935,-3.85093 c 1.024393,-2.11799 2.312722,-4.85643 2.862874,-6.08542 0.550152,-1.22898 1.137505,-2.47261 1.305347,-2.76365 0.167843,-0.29104 0.469518,-0.85432 0.670243,-1.2516 0.347325,-0.68745 0.860413,-1.20704 0.860413,-0.87127 0,0.0865 -0.642189,1.43288 -1.426786,2.99207 -1.454955,2.89134 -1.911631,4.02559 -1.62109,4.02559 0.08962,0 0.73988,-1.23529 1.444873,-2.74505 0.704993,-1.50977 1.400022,-2.81792 1.544609,-2.90732 0.144586,-0.0894 0.402073,0.005 0.572058,0.20981 0.242478,0.29217 0.04942,1.08858 -0.89607,3.69693 -1.30346,3.59588 -1.334211,3.70857 -0.944128,3.46749 0.143575,-0.0887 0.512364,-0.98893 0.819588,-2.0004 0.603458,-1.98674 0.74127,-2.18403 1.286743,-1.84691 0.291225,0.17999 0.222109,0.65459 -0.372587,2.56212 -0.911179,2.92267 -1.698567,4.48715 -3.367753,6.69209 -0.919825,1.21506 -1.275876,1.90949 -1.195276,2.33113 0.06314,0.3303 0.02004,1.1051 -0.09612,1.72186 -0.290136,1.54046 0.187411,6.28523 0.858862,8.52971 0.304735,1.01864 0.607351,1.70364 0.672311,1.52239 0.06496,-0.18125 -0.06849,-0.89563 -0.296623,-1.5875 -0.664858,-2.01637 -1.008242,-5.27976 -0.863513,-8.20777 l 0.134359,-2.71818 1.347204,-1.81695 c 1.530071,-2.06395 2.57428,-4.26158 3.433382,-7.22694 0.648486,-2.23823 0.65133,-3.26406 0.0088,-3.21996 -0.361082,0.0248 -0.348928,-0.16751 0.09922,-1.55133 0.416882,-1.28727 0.446907,-1.61991 0.160714,-1.79679 -0.193166,-0.1194 -0.439097,-0.16283 -0.54622,-0.0966 -0.10782,0.0666 -0.419047,-0.20035 -0.30717,-0.45794 0.15826,-0.36439 0.08226,-0.88788 -0.128043,-0.97583 -0.03405,-0.0142 0.371078,-1.06656 0.538566,-1.42084 0.276817,-0.58554 0.451018,-0.98847 0.523629,-1.14142 0.01317,-0.0277 -0.237206,-0.18522 -0.27591,-0.11627 -0.11534,0.20546 -0.44784,0.8725 -0.478393,0.87883 -0.04379,0.009 -1.216488,-0.43136 -2.498875,-0.7513 -1.372781,-0.34249 -3.478239,-0.70514 -4.678785,-0.80564 -1.604286,-0.1343 -2.276101,-0.0912 -2.283717,-0.15635 -0.02422,-0.20718 -0.03314,-0.74581 -0.08622,-0.7489 z m -16.068765,0.0584 c -0.0905,-0.006 -0.184075,0.008 -0.19172,0.0543 -0.01419,0.0855 -0.0745,0.40596 -0.077,0.62581 -0.0012,0.0996 -0.544898,0.0576 -1.680001,0.0646 -0.821175,0.005 -2.445433,0.18137 -3.609598,0.39171 -1.164166,0.21034 -2.146433,0.38457 -2.182813,0.38757 -0.03638,0.003 -0.09387,-0.19265 -0.151929,-0.40307 -0.05708,-0.20686 -0.15315,-0.39691 -0.1788,-0.38551 -0.294481,0.13105 -0.371001,-0.0558 -0.04496,1.06815 0.14747,0.53258 0.362803,1.33121 0.370003,1.45159 -0.241339,0.0745 -0.470046,0.81856 -0.986503,0.71986 -1.158139,-0.22139 -1.189292,1.36632 -0.116272,5.97534 0.282172,1.21204 0.513147,2.6882 0.513147,3.2799 v 1.07591 l -1.451591,-1.37304 c -1.248737,-1.181 -1.525798,-1.3327 -1.984375,-1.08728 -0.76755,0.41078 -0.658601,1.21229 0.3545,2.61225 0.487994,0.67434 1.221087,1.8216 1.628841,2.54919 0.407756,0.72761 1.372234,1.97776 2.143539,2.77813 1.698015,1.76199 2.219502,2.93003 2.219502,4.97179 0,1.73448 -0.668936,6.65485 -1.065051,7.83363 -0.141775,0.42189 -0.257865,0.8925 -0.257865,1.04541 0,0.17377 0.08555,0.18395 0.228409,0.0269 0.744805,-0.8189 1.712696,-8.13254 1.361674,-10.2893 -0.26488,-1.62749 -0.716844,-2.38411 -2.38125,-3.98529 -0.605068,-0.58207 -1.517457,-1.80118 -2.027783,-2.70939 -0.510324,-0.90821 -1.037267,-1.71884 -1.170988,-1.80144 -0.133721,-0.0827 -0.243396,-0.36557 -0.243396,-0.62839 0,-0.26283 -0.24689,-0.79182 -0.548803,-1.17564 -0.487007,-0.61912 -0.50101,-0.7163 -0.12144,-0.86196 0.294863,-0.11315 1.003445,0.39126 2.278931,1.62264 1.017879,0.98268 1.934547,1.70243 2.037085,1.5999 0.102538,-0.10254 -0.01336,-0.29805 -0.257349,-0.43459 -0.324648,-0.18169 -0.406608,-0.47761 -0.306441,-1.10433 0.0756,-0.47301 -0.170848,-2.21892 -0.550354,-3.8995 -0.377904,-1.67349 -0.739619,-3.28084 -0.803569,-3.57188 -0.09396,-0.42765 0.0274,-0.53412 0.631486,-0.55552 0.726372,-0.0257 0.768207,0.049 1.488798,2.64583 0.721686,2.60074 1.154638,3.77246 1.170988,3.16984 0.0044,-0.16311 -0.348787,-1.53233 -0.784448,-3.04271 -0.43566,-1.51038 -0.792848,-2.97858 -0.79375,-3.26234 -0.0015,-0.47111 0.317266,-0.60569 0.347266,-0.51159 0.127641,0.40033 0.32309,1.3325 0.535367,2.21795 1.021427,4.26055 1.832711,7.44399 2.979664,11.69438 l 1.235066,4.57749 -0.451652,5.11856 c -0.248518,2.81504 -0.463515,5.18659 -0.393541,5.25657 0.08383,0.0838 0.384069,0.15108 0.407115,-0.0343 0.0721,-0.58003 0.181713,-2.17024 0.396737,-4.65226 0.277331,-3.20123 0.317041,-4.28749 0.357601,-4.1522 0.141611,0.47234 0.455352,2.01279 0.589628,2.01279 0.134275,0 0.377414,-0.0135 0.337964,-0.16588 -0.305659,-1.18053 -0.806169,-3.27096 -0.803569,-3.43338 0.0025,-0.15154 0.05116,-0.67899 0.105937,-1.27279 0.08054,-0.87313 0.355325,-3.71532 0.610816,-6.31641 l 0.464571,-4.72943 0.731738,2.61276 c 0.841523,3.00316 0.834975,2.86337 0.600997,12.60027 -0.123239,5.12853 -0.09145,7.34218 0.10542,7.34218 0.191258,0 0.272604,-1.76443 0.253214,-5.4901 -0.01572,-3.01956 0.06027,-6.68073 0.168465,-8.13594 0.187976,-2.52812 0.152612,-2.81063 -0.787548,-6.35 l -0.98392,-3.70417 0.45837,-4.84621 c 0.296481,-3.13486 0.424895,-4.73419 0.449585,-4.95267 0.0037,-0.0327 -0.08365,-0.0588 -0.174149,-0.0646 z m -0.321428,1.18339 -0.165364,1.56167 c -0.09094,0.85908 -0.244061,2.48492 -0.340031,3.6127 -0.09597,1.12778 -0.202719,2.64028 -0.242879,2.64428 -0.05749,0.006 -0.499809,-1.07825 -0.761194,-1.6707 -0.538777,-1.22116 -1.145245,-1.58879 -1.598869,-0.96842 -0.260979,0.35691 -0.354827,0.2513 -0.607715,-0.68471 -0.440696,-1.63113 -0.965037,-2.24206 -1.594735,-1.85828 -0.423348,0.25802 -0.614091,0.18856 -1.206644,-0.43925 -0.159139,-0.16861 -0.21318,-0.3025 -0.522449,-0.3421 -0.05218,-0.007 -0.194382,-0.84456 -0.221692,-0.92966 -0.03229,-0.10061 1.842026,-0.59515 4.643127,-0.76585 z m 16.797425,0.0811 h 1.317232 c 1.71072,0 5.58953,0.67977 6.923092,1.21336 0.421413,0.16861 0.795712,0.25677 0.971062,0.35147 0.02515,0.0136 -0.450726,1.12201 -0.513849,1.09918 -0.280835,-0.10153 -0.401453,-0.0675 -0.584014,0.11658 -0.561851,0.56658 -0.62758,0.29993 -1.006981,-0.0794 -0.379402,-0.37944 -0.468789,-0.37097 -0.994255,0.0946 -0.317528,0.28131 -1.523307,1.94035 -2.679423,3.6866 -1.156117,1.74625 -2.209846,3.21487 -2.341459,3.26337 -0.131614,0.0485 -0.239262,-0.46551 -0.239262,-1.14205 0,-0.67654 -0.01431,-1.348 -0.317377,-1.68443 -0.03764,-0.002 -0.191993,-1.89541 -0.297384,-3.67804 z m -23.456967,2.46703 c 0.154389,0.26557 0.267925,0.64336 -0.0057,0.68006 -0.02817,-0.0746 -0.166597,-0.65784 -0.251147,-0.89658 -0.01085,-0.0306 -0.07058,-0.34654 0.256831,0.21652 z m -0.595285,-0.19567 c 0.03585,0.13694 0.242529,0.78305 0.242669,0.89016 -0.06838,0.0103 -0.02969,0.0231 -0.282626,0.0459 -0.20156,-0.11411 -0.145746,-0.55506 -0.145632,-0.66237 1.4e-4,-0.1071 0.09266,-0.27374 0.185589,-0.27369 z m 2.282521,0.63905 c 0.220486,0 0.396875,0.23519 0.396875,0.52917 0,0.52711 -0.282098,0.68838 -0.617533,0.35295 -0.322244,-0.32225 -0.182147,-0.88212 0.220658,-0.88212 z m 28.432373,0.0264 c 0.08378,-0.0152 0.171904,0.0298 0.274919,0.13281 0.206028,0.20603 0.178556,0.37639 -0.09767,0.60564 -0.461402,0.38292 -0.757711,0.0273 -0.425297,-0.51056 0.0848,-0.1372 0.164271,-0.21264 0.248048,-0.22789 z m 1.739429,0.0791 c 0.02688,-0.006 0.134212,0.0215 0.154572,0.0418 0.0048,0.0129 -0.205348,0.46592 -0.325654,0.68681 -0.0085,0.0155 -0.229336,-0.005 -0.08575,-0.38241 0.07452,-0.19569 0.176199,-0.32707 0.256832,-0.34624 z m -33.772099,0.15917 c 0.502573,0 0.923503,0.60405 0.627352,0.9002 -0.296431,0.29643 -0.806407,0.15905 -0.967383,-0.26045 -0.23188,-0.60431 -0.213202,-0.63975 0.340031,-0.63975 z m 34.319428,0.0691 c 0.107604,0.0868 0.03331,0.0356 0.05367,0.0559 0.08146,0.0815 4.7e-4,0.29543 -0.180351,0.47491 -0.214666,0.21307 -0.277662,0.12552 -0.260699,0.0935 0.02232,-0.0422 0.08676,-0.17447 0.112388,-0.24178 0.07451,-0.19568 0.196379,-0.37349 0.220505,-0.41081 z m -32.2317,0.31176 c 0.394642,-0.007 0.584314,0.41621 0.657324,0.74363 0.60195,2.69963 2.04587,6.64464 2.04587,5.58984 0,-0.22266 -0.821617,-3.10746 -1.488281,-5.22604 -0.08587,-0.27289 -0.04796,-0.4297 0.08372,-0.3483 0.131678,0.0814 0.411814,0.0415 0.622701,-0.0889 0.309054,-0.191 0.568869,0.32669 1.339453,2.67012 0.525816,1.59906 1.031906,2.98371 1.124996,3.07681 0.290789,0.29079 0.186657,-0.55914 -0.248564,-2.02468 -0.345063,-1.16195 -0.35663,-1.44728 -0.06615,-1.63143 0.569689,-0.36114 0.55776,-0.23308 1.030428,1.00459 0.151697,0.39721 0.492763,1.16744 0.510563,1.26969 0.02792,0.16038 -0.137986,1.72538 -0.402559,4.56045 -0.241627,2.58919 -0.518646,5.4221 -0.615466,6.29522 l -0.176217,1.5875 -0.296106,-1.19062 c -0.163083,-0.65485 -0.920932,-3.63141 -1.683618,-6.61459 -0.86333,-3.43783 -1.540616,-5.83721 -2.264461,-8.83253 -0.09993,-0.39816 -0.279487,-0.83878 -0.173633,-0.84078 z m 31.054952,0.31988 c 0.02318,0.002 0.04155,0.0134 0.05529,0.0357 0.225169,0.36433 -1.128671,2.29375 -2.459282,5.61361 -0.495764,1.23692 -1.602913,3.64794 -2.460315,5.35781 -0.857401,1.70987 -1.734664,3.53467 -1.752434,3.53669 -0.01172,0.002 -0.122199,-1.57658 -0.211869,-3.14093 -0.08967,-1.56435 -0.146663,-3.41158 -0.200939,-3.94438 -0.04731,-0.46442 -0.100806,-0.99815 -0.06645,-1.00794 0.02282,-0.007 0.282752,-0.0433 0.402345,-0.0747 0.239068,-0.0628 1.178795,-1.29348 2.088244,-2.73524 2.354449,-3.73251 2.472091,-3.86406 3.063379,-3.42304 0.441399,0.32923 0.448248,0.41421 0.0801,0.97771 -0.688385,1.05369 -2.282213,4.71858 -2.052072,4.71858 0.120016,0 0.543289,-0.76449 0.940511,-1.69912 0.866617,-2.03907 2.225782,-4.24072 2.573487,-4.21473 z m 1.810742,0.88677 c 0.145521,0 0.264583,0.11215 0.264583,0.24908 0,0.13694 -0.119062,0.32248 -0.264583,0.41238 -0.145521,0.0899 -0.264583,-0.0222 -0.264583,-0.24909 0,-0.22687 0.119062,-0.41237 0.264583,-0.41237 z M 61.142645,145.217 c 0.196401,0.0139 0.373104,0.20723 0.373104,0.4656 0,0.12129 -0.112149,0.22066 -0.24908,0.22066 -0.359109,0 -0.595065,-0.46703 -0.321428,-0.63614 0.06396,-0.0395 0.131937,-0.0547 0.197404,-0.0501 z m 29.212687,3.06751 c 0.145521,0 0.264584,0.11214 0.264584,0.24908 0,0.13693 -0.119063,0.32248 -0.264584,0.41238 -0.14552,0.0899 -0.264583,-0.0222 -0.264583,-0.24908 0,-0.22687 0.119063,-0.41238 0.264583,-0.41238 z"
       sodipodi:nodetypes="csscsscsssssssscccssscsscccssssssscssssssssssssscccssccssssssssssccccsccccccsscccsccssscscscscssccssccssssccccccssssccscccsssscccccccsccsscssscccscccssssssscccccccccccssccssccscccscsscsccsccccssccsscscssscccssccccssssscscsssssscsscsssccsscccsssssss" /><text
       xml:space="preserve"
       style="font-size:3.175px;fill:#ffffff;stroke-width:1.165;paint-order:stroke markers fill"
       x="56.087105"
       y="176.37334"
       id="text2"><tspan
         sodipodi:role="line"
         id="tspan2"
         style="fill:#000000;stroke-width:1.165"
         x="56.087105"
         y="176.37334">Radial</tspan></text><text
       xml:space="preserve"
       style="font-size:3.175px;fill:#000000;stroke-width:1.165;paint-order:stroke markers fill"
       x="77.731941"
       y="176.55598"
       id="text3"><tspan
         sodipodi:role="line"
         id="tspan3"
         style="stroke-width:1.165"
         x="77.731941"
         y="176.55598">Ulnar</tspan></text><text
       xml:space="preserve"
       style="font-size:3.175px;fill:#000000;stroke-width:1.165;paint-order:stroke markers fill"
       x="62.206112"
       y="138.0154"
       id="text4"><tspan
         sodipodi:role="line"
         id="tspan4"
         style="stroke-width:1.165"
         x="62.206112"
         y="138.0154">0째</tspan></text><text
       xml:space="preserve"
       style="font-size:3.175px;fill:#000000;stroke-width:1.165;paint-order:stroke markers fill"
       x="78.553902"
       y="138.28938"
       id="text5"><tspan
         sodipodi:role="line"
         id="tspan5"
         style="stroke-width:1.165"
         x="78.553902"
         y="138.28938">0째</tspan></text><text
       xml:space="preserve"
       style="font-size:3.175px;fill:#000000;stroke-width:1.165;paint-order:stroke markers fill"
       x="88.326035"
       y="139.47665"
       id="text6"><tspan
         sodipodi:role="line"
         id="tspan6"
         style="stroke-width:1.165"
         x="88.326035"
         y="139.47665">30째</tspan></text><text
       xml:space="preserve"
       style="font-size:3.175px;fill:#000000;stroke-width:1.165;paint-order:stroke markers fill"
       x="53.073265"
       y="138.92868"
       id="text7"><tspan
         sodipodi:role="line"
         id="tspan7"
         style="stroke-width:1.165"
         x="53.073265"
         y="138.92868">20째</tspan></text></g></svg>
