<?xml version="1.0" encoding="UTF-8" standalone="no"?>

<!--
   This image is modified from the original which can be found on Pixabay:
   https://pixabay.com/illustrations/male-body-masculine-human-figure-1859518/

   The original image is licensed under the Pixabay Content License:
   https://pixabay.com/service/license-summary/
   -->
<!-- Created with Inkscape (http://www.inkscape.org/) -->

<svg
   version="1.1"
   id="svg1"
   width="1280"
   height="1280"
   viewBox="0 0 1280 1280"
   sodipodi:docname="fullBody.svg"
   inkscape:version="1.3.2 (091e20e, 2023-11-25, custom)"
   xmlns:inkscape="http://www.inkscape.org/namespaces/inkscape"
   xmlns:sodipodi="http://sodipodi.sourceforge.net/DTD/sodipodi-0.dtd"
   xmlns:xlink="http://www.w3.org/1999/xlink"
   xmlns="http://www.w3.org/2000/svg"
   xmlns:svg="http://www.w3.org/2000/svg">
  <defs
     id="defs1" />
  <sodipodi:namedview
     id="namedview1"
     pagecolor="#ffffff"
     bordercolor="#000000"
     borderopacity="0.25"
     inkscape:showpageshadow="2"
     inkscape:pageopacity="0.0"
     inkscape:pagecheckerboard="0"
     inkscape:deskcolor="#d1d1d1"
     inkscape:zoom="0.70289429"
     inkscape:cx="581.87982"
     inkscape:cy="497.94116"
     inkscape:window-width="958"
     inkscape:window-height="1000"
     inkscape:window-x="-7"
     inkscape:window-y="0"
     inkscape:window-maximized="0"
     inkscape:current-layer="g1" />
  <g
     inkscape:groupmode="layer"
     inkscape:label="Image"
     id="g1">
    <path
       style="fill:#000000"
       d="m 284.05908,1239.9094 c -1.34251,-0.5424 -3.59251,-0.9011 -5,-0.797 -4.93756,0.3651 -6.78926,-0.133 -9.36311,-2.5184 -1.42785,-1.3232 -4.15756,-2.9213 -6.06603,-3.5511 -1.90848,-0.6299 -4.01105,-1.7972 -4.67239,-2.5941 -0.66134,-0.7968 -1.77058,-1.4488 -2.46498,-1.4488 -1.66359,0 -4.39166,-4.2455 -5.14343,-8.0043 -0.45734,-2.2867 -1.14405,-2.9957 -2.90156,-2.9957 -2.80147,0 -6.18567,-4.0553 -6.96938,-8.3514 -1.22351,-6.7071 1.5334,-30.1615 6.18012,-52.5774 l 4.6789,-22.5712 -0.20647,-16.5 c -0.11356,-9.075 0.18716,-18.8233 0.66827,-21.6628 1.4764,-8.714 -1.88938,-30.9499 -10.66435,-70.4536 -8.21084,-36.96419 -9.77262,-45.85568 -11.20629,-63.79937 C 229.02202,938.2244 232.42117,910.32645 241.66076,874 l 4.45111,-17.5 1.36757,-22 c 1.79546,-28.88326 1.98604,-43.09781 0.64358,-48 -1.49515,-5.45974 -3.78447,-24.62876 -5.31455,-44.5 -1.75599,-22.80504 -1.76051,-109.9563 -0.006,-123.70733 0.71613,-5.61403 1.46846,-15.96403 1.67185,-23 0.40636,-14.05769 3.20084,-32.27631 9.47947,-61.80144 2.2212,-10.44518 4.04092,-20.56623 4.04381,-22.49123 0.007,-5.00258 2.66265,-27.60015 5.63986,-48 l 2.55399,-17.5 -1.7822,-20.72998 c -0.98021,-11.40149 -1.87877,-20.62649 -1.99679,-20.5 -0.11802,0.12649 -1.6814,8.77998 -3.47417,19.22998 -2.03029,11.83445 -3.34827,23.1552 -3.49471,30.01782 -0.36572,17.1381 -4.84568,37.54132 -9.96551,45.38624 -2.72907,4.18167 -2.72134,4.16202 -14.01146,35.59594 -4.74104,13.2 -11.28545,29.45794 -14.54313,36.12876 L 211,582.75752 v 6.4329 c 0,8.40732 -2.83454,18.95895 -9.00271,33.51277 l -4.9997,11.79681 -2.11683,19 -2.11683,19 -2.06874,1.81153 c -2.19915,1.92573 -6.50908,1.57701 -7.91986,-0.64081 -0.40959,-0.6439 -0.78845,-5.22072 -0.84192,-10.17072 l -0.0972,-9 -3.32714,15 c -1.82993,8.25 -3.64271,15.79138 -4.0284,16.75863 -0.89688,2.24923 -5.01375,3.29008 -8.37108,2.11643 L 163.5,687.46282 163,681.98141 162.5,676.5 l -1.27278,5.42499 c -0.70003,2.98374 -1.76763,6.02124 -2.37245,6.75 -1.51217,1.82205 -7.36942,1.6675 -9.28184,-0.24492 -4.04173,-4.04173 -3.14998,-10.96575 4.88508,-37.93007 1.61733,-5.4275 -4.01804,8.1715 -6.63033,16 -3.64437,10.92141 -4.92965,13.05779 -8.37615,13.92281 -3.10665,0.77972 -6.97436,-1.34401 -7.92974,-4.35416 -0.36261,-1.14248 0.86422,-6.56413 2.89114,-12.77664 C 141.32479,642.1071 148,614.81023 148,607.73054 l 0,-2.16793 -5.75,5.62623 C 131.49575,621.71161 125.28631,624.28631 121,620 c -1.1,-1.1 -2,-2.95161 -2,-4.11468 0,-2.16865 17.66158,-26.48506 23.38813,-32.20071 2.12087,-2.11683 7.23783,-4.78976 15.26116,-7.97191 6.63876,-2.63302 12.83257,-5.34456 13.76402,-6.02566 1.02988,-0.75306 4.41577,-10.18828 8.64012,-24.07685 L 187,522.77168 l 0,-7.77989 c 0,-23.96589 7.09678,-62.3166 14.09828,-76.18648 l 2.92845,-5.80124 1.52543,-14.75203 c 2.43986,-23.59523 6.43763,-49.88475 9.36058,-61.55558 l 2.70574,-10.80355 -1.74669,-6.878 c -3.65122,-14.37756 -4.79693,-35.09753 -2.82231,-51.04114 2.26241,-18.26739 6.65408,-26.93883 17.21498,-33.99139 7.47157,-4.98951 13.28054,-7.12367 35.73554,-13.12889 28.72988,-7.68333 44.2209,-16.39264 46.8743,-26.35349 4.35555,-16.35077 3.8561,-40.24702 -1.08162,-51.75 l -2.03897,-4.75 -2.84206,0 c -3.57097,0 -9.26601,-4.86216 -12.18772,-10.40532 l -2.15825,-4.09468 -0.0328,-7.66457 -0.0328,-7.66457 3.25377,-4.62001 3.25377,-4.62001 -0.61238,-6.71542 c -0.70937,-7.77905 0.94932,-26.213836 3.13098,-34.797952 C 302.3533,74.162861 304.67664,68.125 306.68912,64 315.19777,46.559724 331.45814,37.616178 354.5,37.703001 c 17.48503,0.06589 30.32532,5.020533 39.94864,15.414871 6.14411,6.636372 9.77723,13.687352 12.71958,24.68558 1.55687,5.819416 2.18456,11.96467 2.57362,25.196548 l 0.51457,17.5 2.28586,2.7246 c 1.25722,1.49852 2.82987,4.37297 3.49478,6.38766 C 419.54044,140.22764 410.6692,158 401.86704,158 l -2.9795,0 -1.976,4.46707 c -2.76202,6.244 -4.24075,19.97409 -3.6115,33.53293 0.90076,19.4093 3.03829,24.04363 14.64425,31.74988 7.42902,4.93279 16.64173,8.34831 36.90111,13.68072 9.44827,2.48685 20.56604,5.9317 24.70615,7.65524 13.16865,5.48212 21.03977,14.64754 24.38124,28.39037 3.55044,14.60232 3.12001,43.19616 -0.90538,60.14523 l -2.00471,8.44091 2.51553,9.68176 c 2.78277,10.71032 7.72768,43.60591 9.58386,63.75589 0.79818,8.66471 1.77518,14.00045 2.92969,16 7.33347,12.70117 14.39926,47.64715 15.38805,76.1062 l 0.42063,12.10621 6.63386,21.89379 c 4.2967,14.18045 7.31266,22.47612 8.56059,23.54666 1.05971,0.90908 5.41837,3.0652 9.68591,4.79139 13.82526,5.5922 17.09699,7.29237 20.11048,10.45054 4.65885,4.88252 23.1487,29.72104 23.1487,31.09704 0,0.68115 -0.93266,2.42414 -2.07258,3.87331 -3.97238,5.05006 -9.81694,2.96667 -20.17742,-7.1926 l -6.75,-6.6189 v 3.70726 c 0,5.989 4.60934,25.98578 10.08204,43.7391 2.79749,9.075 5.31671,17.91127 5.59827,19.63615 1.05729,6.47718 -3.95543,10.08655 -9.47779,6.82441 -2.17111,-1.28251 -3.3531,-3.16712 -4.60533,-7.34294 -2.14848,-7.16452 -7.80299,-22.24515 -8.19419,-21.85395 -0.16373,0.16372 0.83615,4.10888 2.22194,8.76701 1.3858,4.65812 3.13716,11.84432 3.89191,15.96932 l 1.37228,7.5 -1.69456,3.5 -1.69457,3.5 h -4.5 -4.5 l -2.15845,-7.5 -2.15845,-7.5 0.15845,6.45442 0.15845,6.45441 -2.60957,0.93924 c -3.28973,1.18404 -7.54912,0.15845 -8.76251,-2.10988 -0.5114,-0.956 -2.21061,-8.03819 -3.77603,-15.73819 l -2.84621,-14 -0.76263,8.5 c -0.56393,6.2853 -1.21605,8.83731 -2.50284,9.79459 -1.67364,1.24507 -5.90189,0.87845 -7.47281,-0.64795 -0.40293,-0.39151 -1.66374,-9.24717 -2.8018,-19.67924 L 511.89639,635.5 506.90317,623.59703 c -6.5278,-15.56113 -9.16197,-25.35349 -9.33245,-34.69286 -0.0917,-5.024 -0.67152,-8.40984 -1.71246,-10 -4.77131,-7.28877 -10.10855,-20.26331 -21.55713,-52.40417 -4.11411,-11.55 -9.1946,-24.15 -11.28998,-28 -5.92257,-10.88201 -10.41549,-32.59055 -9.91249,-47.89437 0.1455,-4.42675 -0.74253,-12.19523 -2.35545,-20.60563 -1.42396,-7.425 -2.92153,-16.425 -3.32795,-20 -0.40642,-3.575 -0.89058,-6.05 -1.07591,-5.5 -0.5712,1.69515 -4.17122,41.96303 -3.8046,42.55623 0.64616,1.04551 5.42741,36.57965 7.40569,55.03898 1.08484,10.12264 3.96666,28.13146 6.40404,40.01962 5.61719,27.39741 7.53828,41.06345 8.06685,57.38517 0.23155,7.15 0.99429,17.5 1.69499,23 1.67557,13.15223 1.7054,88.54148 0.0449,113.5 -1.56303,23.49342 -3.74669,42.74976 -5.75773,50.77388 l -1.57239,6.27387 1.6336,30.72613 1.6336,30.72612 4.39643,17.5 c 9.35384,37.23296 12.06687,57.35326 11.2322,83.30019 -0.65941,20.49922 -2.25112,30.43518 -11.64627,72.69981 -3.85124,17.325 -7.91252,38.3765 -9.02507,46.7811 l -2.02283,15.2811 0.97129,9.2189 c 1.11064,10.5415 1.15227,26.0297 0.0799,29.7189 -0.39969,1.375 -0.34607,3.85 0.11916,5.5 1.63864,5.8117 7.8904,37.069 9.32644,46.63 0.79938,5.3221 1.56471,14.1077 1.70074,19.5233 l 0.24732,9.8467 -1.77685,3.2836 c -1.17842,2.1777 -2.75442,3.4791 -4.6794,3.8641 -2.16411,0.4329 -3.06118,1.3028 -3.52608,3.4195 -0.74538,3.3936 -4.12298,7.9328 -5.90284,7.9328 -0.69984,0 -2.06384,0.8745 -3.03111,1.9433 -0.96728,1.0688 -3.03093,2.2228 -4.58589,2.5643 -1.55497,0.3415 -3.42081,1.3367 -4.14631,2.2116 -1.83059,2.2074 -7.38035,4.3864 -9.29781,3.6506 -0.87478,-0.3357 -3.54813,-0.062 -5.94076,0.6077 l -4.35026,1.2179 -4.45728,-1.9716 C 408.7825,1236.1316 404,1227.6234 404,1218.2795 c 0,-2.458 -0.95875,-7.6255 -2.13055,-11.4834 l -2.13054,-7.0144 0.57758,-15.1408 c 0.32872,-8.6171 1.4733,-19.8805 2.65641,-26.1409 1.14336,-6.05 2.54151,-14.6 3.10702,-19 0.5655,-4.4 1.67019,-12.95 2.45487,-19 0.78468,-6.05 1.88036,-15.3206 2.43486,-20.6013 0.55449,-5.2808 1.74079,-11.3548 2.63622,-13.4978 2.5371,-6.0722 5.63999,-27.0422 4.94227,-33.4009 -0.33193,-3.025 -1.70623,-10.225 -3.054,-16 -1.34777,-5.775 -4.05946,-18.15 -6.02597,-27.5 -1.96651,-9.35 -4.94486,-22.4 -6.61856,-29 -3.98744,-15.72387 -4.63162,-30.39372 -2.46114,-56.04701 C 401.27481,913.97714 402,903.06109 402,900.19512 v -5.21087 l -4.94901,-8.74213 c -5.82952,-10.2975 -10.42445,-21.47243 -13.04971,-31.73712 -3.43305,-13.42311 -4.20665,-22.91869 -3.50356,-43.005 l 0.66506,-19 -1.61424,-10.5 c -2.37775,-15.46637 -6.2629,-32.17272 -10.11616,-43.5 -6.58085,-19.34552 -9.7953,-37.6425 -11.33148,-64.5 -0.51906,-9.075 -1.25226,-17.2875 -1.62932,-18.25 -0.37705,-0.9625 -1.50503,-1.75 -2.50661,-1.75 l -1.82106,0 -0.54457,5.25 c -0.29951,2.8875 -0.79886,9.75 -1.10966,15.25 -1.4371,25.43126 -4.65599,43.88676 -10.97052,62.89941 -2.39304,7.20533 -5.72589,19.85059 -7.40631,28.10059 -4.14044,20.32731 -5.35994,34.41149 -4.11285,47.5 2.40287,25.21884 -3.70852,51.39313 -17.5934,75.35024 l -4.54979,7.85025 1.51369,18.64975 c 2.54612,31.36992 2.72152,36.28029 1.67685,46.94336 -0.55466,5.66148 -2.11948,14.43648 -3.47739,19.5 -1.35791,5.06352 -4.3084,17.9814 -6.55664,28.7064 -2.24825,10.725 -5.0205,23.0892 -6.16057,27.4759 -1.14006,4.3868 -2.30114,11.3618 -2.58017,15.5 -0.5885,8.7281 1.68469,24.716 4.77665,33.5953 1.13549,3.2608 2.28175,9.0788 2.54726,12.9288 0.54867,7.9561 3.46042,29.8045 6.53025,49 4.31946,27.0093 5.0287,33.9603 4.54056,44.5 -0.28209,6.0908 -1.18047,12.3896 -2.1394,15 -0.90921,2.475 -1.85158,7.4238 -2.09417,10.9973 -0.55246,8.1384 -4.2529,16.1237 -8.73196,18.8431 -4.14798,2.5183 -8.5808,3.3061 -11.64269,2.069 z m 9.32604,-5.9977 c 4.02132,-3.1632 5.89818,-7.6376 6.67434,-15.9117 0.38695,-4.125 1.52434,-9.525 2.52754,-12 l 1.82399,-4.5 -0.0526,-13 c -0.0402,-9.9269 -0.78541,-17.1369 -3.15254,-30.5 -1.70497,-9.625 -3.607,-22.2092 -4.22674,-27.965 -0.61973,-5.7557 -1.32749,-10.7897 -1.57278,-11.1866 -0.24529,-0.3968 -0.85677,-6.1333 -1.35884,-12.7477 -0.56495,-7.4428 -1.69469,-14.2317 -2.96432,-17.8134 -1.12831,-3.183 -2.95502,-11.3136 -4.05935,-18.068 l -2.00789,-12.2807 1.0179,-7.2193 c 0.55984,-3.9706 2.12728,-11.9443 3.4832,-17.7193 1.35592,-5.775 4.7689,-20.85 7.58438,-33.5 2.81549,-12.65 5.73508,-25.7 6.48799,-29 1.88535,-8.26352 1.79147,-28.78117 -0.24946,-54.52102 l -1.70642,-21.52103 5.70423,-9.97897 c 6.1914,-10.83121 10.25871,-20.58044 13.77454,-33.01715 l 2.25079,-7.96183 0.19251,-28.5 0.19251,-28.5 2.1043,-11.72275 c 2.53425,-14.11788 7.3255,-33.26785 10.17987,-40.68748 4.81909,-12.52672 8.42677,-33.06716 9.93931,-56.58977 0.56585,-8.8 1.26504,-17.80408 1.55376,-20.00906 l 0.52494,-4.00905 -3.35777,-1.80828 c -2.38012,-1.28178 -4.88604,-4.42842 -8.60668,-10.80726 C 331.08207,632.28767 330.30738,629 333.28969,629 c 0.74385,0 3.5266,3.87334 6.18387,8.60743 5.35723,9.5442 8.76494,12.3829 14.87215,12.38883 5.43109,0.005 8.89802,-2.42046 12.70252,-8.88769 1.81465,-3.08471 4.17218,-7.09424 5.23895,-8.91006 1.19027,-2.02603 2.57186,-3.17101 3.5762,-2.96375 2.35946,0.48691 1.59995,3.05515 -3.53757,11.96209 -3.99907,6.93322 -7.54603,11.03537 -10.36424,11.98654 -1.19478,0.40325 0.52015,30.32576 2.59719,45.31661 1.86897,13.48917 5.45812,28.84243 8.84767,37.84763 2.95088,7.83976 8.88154,34.08368 10.65561,47.15237 0.82419,6.07143 1.0082,14.85714 0.56549,27 -0.39444,10.81907 -0.23721,21.391 0.39412,26.5 1.9983,16.1712 7.2779,31.66166 16.16355,47.42418 l 5.08169,9.01456 -0.56927,13.03063 c -0.31309,7.16685 -1.09195,19.33063 -1.73079,27.03063 -1.46166,17.61737 -0.63279,31.52806 2.62559,44.06475 2.19174,8.43277 7.18425,30.85245 14.46004,64.93525 1.0567,4.95 1.92478,11.25 1.92908,14 0.0103,6.6054 -3.56023,27.5559 -5.47889,32.1479 -0.83415,1.9964 -1.96558,7.9548 -2.51429,13.241 -0.54871,5.2861 -1.65107,14.5611 -2.44969,20.6111 -0.79862,6.05 -1.90951,14.6 -2.46864,19 -0.55912,4.4 -2.00572,13.175 -3.21464,19.5 -1.64346,8.5984 -2.21466,15.4108 -2.26389,27 l -0.0658,15.5 2.11163,5 c 1.25882,2.9807 1.92525,6.2398 1.65012,8.0698 -0.76683,5.1006 1.56922,11.5221 5.69104,15.6439 4.19302,4.1931 8.09723,4.9328 11.20252,2.1225 l 1.83846,-1.6638 2.37113,1.269 c 3.16447,1.6936 6.18318,0.5888 8.33239,-3.0495 1.28663,-2.1781 2.30947,-2.8496 3.7789,-2.4808 2.96603,0.7444 4.83443,-0.7762 4.03777,-3.2863 L 444.86522,1223 h 1.86739 c 1.02707,0 2.39706,0.5297 3.04444,1.1771 l 1.17705,1.177 1.52295,-3.6449 C 453.31467,1219.7045 454,1216.889 454,1215.4527 v -2.6116 l 2.90262,0.6375 2.90263,0.6375 1.59737,-2.2805 c 1.76984,-2.5268 2.19697,-11.347 0.59738,-12.3356 -1.31295,-0.8114 -1.28953,-4.2368 0.032,-4.6773 1.79432,-0.5981 -3.32594,-31.6376 -9.12171,-55.2968 l -1.95341,-7.974 1.16894,-5.2234 c 0.89249,-3.988 0.89121,-9.0787 -0.005,-21.5259 l -1.17433,-16.3026 2.06079,-15.5 c 1.13344,-8.525 5.19224,-29.5322 9.01957,-46.6827 3.82733,-17.1505 7.95016,-36.95049 9.16186,-44 L 473.39136,969.5 473.4317,949 c 0.0293,-14.90593 -0.44751,-23.63814 -1.74741,-32 -1.99174,-12.81219 -6.41711,-33.07661 -10.70069,-49 l -2.82462,-10.5 -1.66828,-29.25069 c -1.78528,-31.3022 -1.69689,-36.47431 0.82763,-48.43111 4.50934,-21.35745 7.56377,-93.17192 5.71713,-134.41901 -0.63773,-14.24455 -1.55478,-28.14919 -2.03788,-30.89919 -0.4831,-2.75 -0.90635,-9.95 -0.94056,-16 -0.0753,-13.31996 -3.2142,-34.07067 -9.68105,-64 -2.61446,-12.1 -4.65721,-24.01054 -4.53945,-26.46786 0.22377,-4.6695 -3.93381,-39.54574 -6.41178,-53.78579 l -1.43625,-8.25365 2.59624,-27.74635 2.59624,-27.74635 -0.84049,-16 c -0.46226,-8.8 -0.80994,-20.95 -0.77262,-27 l 0.0679,-11 4.68214,-8.79088 C 448.89304,322.87414 451,318.11164 451,317.12579 c 0,-2.31989 0.84931,-3.12085 2.59777,-2.4499 2.58648,0.99253 1.43791,6.17609 -3.33107,15.03323 l -4.7333,8.79088 0.12678,12 c 0.18869,17.85995 5.11291,58.62272 9.90575,82 0.90209,4.4 1.75731,13.625 1.90048,20.5 0.37468,17.99229 4.92489,38.13754 9.93004,43.96346 1.47862,1.7211 3.32565,6.4988 14.01056,36.24106 8.87397,24.70137 14.96856,38.89946 18.50011,43.09826 l 2.59288,3.08277 -0.30178,8.05723 c -0.36665,9.78932 0.98661,15.22506 8.18745,32.88713 l 5.36945,13.17009 2.12203,18.41625 c 1.16711,10.12894 2.34721,18.64144 2.62244,18.91667 1.32802,1.32802 1.78306,-1.944 2.26511,-16.28738 L 523.28715,639 l 1.88118,0 c 2.56343,0 3.33568,2.36936 7.98527,24.5 2.19552,10.45 4.59094,19.61575 5.32317,20.36832 1.99876,2.05434 3.44903,0.50788 2.94154,-3.13664 -0.24751,-1.77743 -1.34288,-9.46394 -2.43416,-17.08114 C 536.5528,646.67959 536.42562,641 538.47695,641 c 2.64181,0 4.30639,4.2185 8.48368,21.5 5.14238,21.27411 5.86205,23.5 7.59787,23.5 1.87565,0 2.82603,-4.18655 2.11592,-9.32091 -0.3179,-2.2985 -2.64019,-10.92909 -5.16065,-19.17909 -2.52045,-8.25 -4.45465,-16.12115 -4.29821,-17.49145 0.3252,-2.84846 3.09709,-3.82389 5.41049,-1.90394 2.48957,2.06616 6.41692,10.54131 11.30474,24.39539 l 4.58649,13 h 1.99136 c 2.6465,0 2.45582,-1.5202 -1.94412,-15.5 -8.49613,-26.99447 -13.00346,-50.13068 -11.18096,-57.39207 1.09022,-4.34379 4.06212,-3.139 12.68416,5.14207 4.43801,4.2625 9.02814,8.26391 10.20031,8.89202 2.58323,1.38423 5.05075,0.63109 4.30442,-1.31381 -0.29837,-0.77754 -5.32358,-7.7105 -11.16715,-15.40659 -11.2914,-14.871 -12.34114,-15.7287 -25.1517,-20.55059 -3.50913,-1.32083 -8.57485,-3.51361 -11.25715,-4.87283 l -4.87692,-2.47132 -3.48992,-11.26344 C 526.71015,554.56855 523.348,543.425 521.15816,536 l -3.98152,-13.5 -0.52216,-15.5 c -0.76972,-22.84827 -6.37588,-52.47858 -12.08276,-63.86111 -1.27919,-2.55139 -3.24181,-6.43889 -4.36137,-8.63889 -1.23835,-2.43342 -1.68877,-4.41898 -1.15007,-5.06979 0.9494,-1.147 -0.58665,-16.91962 -4.08345,-41.93021 -2.37,-16.95116 -5.47698,-32.20861 -7.68057,-37.71692 l -1.48694,-3.71691 1.58881,-4.28309 c 5.98207,-16.12631 6.22127,-54.66495 0.43002,-69.28308 -4.97,-12.54518 -16.29862,-19.83455 -40.25379,-25.9012 l -5.92563,-1.50067 -1.07437,1.43335 c -1.61126,2.14963 -13.93402,2.93748 -23.70495,1.51556 -4.60317,-0.66988 -13.99441,-2.60381 -20.86941,-4.29762 -12.98883,-3.2001 -25.54953,-4.08321 -33.25,-2.33775 l -3.75,0.85001 v -2.00088 c 0,-1.51979 1.08821,-2.30556 4.52595,-3.26807 6.6974,-1.87515 19.64428,-0.70368 36.97405,3.34553 17.32729,4.04862 25.70168,5.14136 31.67184,4.13271 l 4.24404,-0.71703 -8.22388,-2.37424 c -4.52314,-1.30584 -11.02921,-3.66066 -14.45794,-5.23294 C 405.5463,232.39217 395.49448,224.8569 393.48179,220.96479 391.14735,216.45047 389,204.00928 389,194.99841 l 0,-7.82566 -5.60693,5.38737 c -3.08381,2.96305 -8.12643,7.05971 -11.20582,9.10369 l -5.59889,3.71633 -8.2356,0.43226 c -4.52959,0.23774 -10.24105,0.13152 -12.69215,-0.23604 -5.1946,-0.77898 -11.62333,-4.79574 -19.818,-12.38256 L 320,187.78457 l -0.0198,5.35772 c -0.0225,6.08446 -1.52671,17.41861 -3.09993,23.35771 -2.36575,8.93101 -17.90238,19.53955 -36.6148,25.0009 l -7.76546,2.2664 3.96445,0.76787 c 5.13375,0.99435 17.77854,-0.74456 33.53555,-4.61181 14.80635,-3.63393 29.50169,-4.77624 35.5,-2.75951 4.84978,1.63058 5.56321,4.49991 1,4.02188 -1.65,-0.17285 -7.05,-0.37798 -12,-0.45584 l -9,-0.14157 -13,3.16663 c -7.15,1.74165 -16.375,3.68858 -20.5,4.32651 -9.58911,1.48295 -21.98891,0.65419 -23.6217,-1.57878 l -1.18341,-1.61841 -9.84744,2.66412 c -18.82717,5.09349 -29.37763,11.57909 -34.67775,21.31715 -4.50938,8.28521 -6.03918,17.47361 -6.01614,36.13446 0.0209,16.94097 1.72626,29.91031 5.01304,38.12477 1.07927,2.69737 1.24589,4.27927 0.54101,5.1365 -1.72906,2.10279 -4.08553,11.5981 -6.63579,26.73873 -3.43995,20.4226 -6.79057,49.90962 -6.09774,53.66288 l 0.58386,3.16287 -3.4568,6.33713 c -1.90124,3.48541 -4.43448,9.26212 -5.62941,12.83712 -4.73115,14.15461 -9.9293,48.57873 -9.96621,66 l -0.0159,7.5 -6.96837,23 -6.96838,23 -2.47434,2.15722 c -1.3609,1.18648 -6.20662,3.59655 -10.76829,5.35571 -14.85765,5.72972 -17.00049,7.18833 -24.51915,16.69002 C 129.72277,606.7949 124,614.72736 124,615.89828 c 0,1.77321 1.91612,2.21698 4.22865,0.97935 1.2485,-0.66818 5.94983,-4.73899 10.44742,-9.04625 4.49758,-4.30726 8.86955,-7.83138 9.71549,-7.83138 6.17166,0 3.68227,20.59097 -6.52194,53.94609 -6.04643,19.76435 -6.33928,20.91758 -5.51984,21.73703 1.84735,1.84734 4.4314,-2.17521 7.88074,-12.26781 4.49968,-13.16584 10.17287,-24.97239 12.41252,-25.83182 2.34969,-0.90167 5.35696,0.28393 5.35696,2.11194 0,0.85836 -1.74681,7.24054 -3.88181,14.18261 -5.69273,18.51027 -7.53317,27.47804 -6.16424,30.03591 1.4665,2.74019 3.66195,2.65849 4.40565,-0.16395 0.32608,-1.2375 2.66919,-10.65706 5.20692,-20.93235 2.53773,-10.27529 5.18335,-19.4609 5.87916,-20.41248 1.70613,-2.33327 4.55432,-1.11274 4.55432,1.95166 0,1.33078 -1.15571,10.39034 -2.56825,20.13234 C 166.9194,681.81639 166.85136,685 168.99337,685 c 1.60789,0 2.59493,-3.36621 6.50479,-22.18405 C 180.00002,641.14885 180.67209,639 182.94671,639 c 2.37837,0 3.02833,4.21942 3.04228,19.75 L 186,671 h 1.33804 c 0.99753,0 1.87835,-4.89894 3.46113,-19.25 l 2.12309,-19.25 5.51269,-13 c 6.7091,-15.82139 9.06056,-25.48509 8.20141,-33.70503 l -0.62166,-5.94769 2.38079,-3.17364 c 4.97625,-6.63344 11.28761,-21.71398 23.09072,-55.17364 3.6863,-10.45 8.40996,-22.15 10.49703,-26 5.81642,-10.72955 9.26435,-27.26484 8.96633,-43 -0.0959,-5.0626 0.50163,-12.06242 1.36577,-16 4.54832,-20.7249 10.67186,-70.20792 10.70441,-86.5 l 0.021,-10.5 -4.56781,-9 c -4.96926,-9.79097 -6.03651,-14.7004 -3.31859,-15.26571 1.16699,-0.24273 2.0089,0.77677 2.85796,3.46081 0.66199,2.0927 2.92707,6.99523 5.0335,10.89452 l 3.82987,7.08961 0.24292,6.41039 c 0.13361,3.52571 -0.12855,16.08538 -0.58256,27.91038 l -0.82549,21.5 2.33056,25.84866 2.33056,25.84865 -1.77078,12.65135 c -3.68375,26.31865 -6.32765,50.6701 -5.55493,51.1634 0.44117,0.28164 0.16572,3.20664 -0.6121,6.5 -2.86671,12.13801 -10.44245,50.30533 -12.00611,60.48794 -0.88682,5.775 -1.73503,15.9 -1.88492,22.5 -0.14989,6.6 -0.89584,16.95 -1.65767,23 -1.78907,14.2078 -1.82586,94.65905 -0.0544,119 1.50279,20.6494 3.77668,39.60182 5.39906,45 1.40126,4.66243 1.34235,15.26242 -0.26121,47 l -1.16209,23 -5.38755,22 c -2.96316,12.1 -6.39913,27.85 -7.6355,35 l -2.24793,13 -0.007,24 -0.007,24 1.82874,10 c 1.0058,5.5 5.14521,25.075 9.19868,43.5 4.05347,18.425 8.27506,40.6125 9.38132,49.3054 l 2.01139,15.8055 -1.10666,8.1945 c -0.63262,4.6845 -0.86824,13.9196 -0.55006,21.5598 l 0.55659,13.3651 -2.94593,13.0653 C 250.48991,1162.4026 246,1187.8097 246,1191.978 c 0,1.5704 0.54036,3.0355 1.20081,3.2556 0.88088,0.2936 0.74767,1.3552 -0.5,3.9845 -1.9861,4.1854 -2.10705,6.3181 -0.60298,10.6327 1.11512,3.1988 1.49572,3.4303 5.87039,3.5702 l 2.46822,0.079 0.74784,4.3566 c 0.88249,5.1411 2.62913,7.73 4.17334,6.1858 1.84971,-1.8497 3.50147,-1.1125 3.82596,1.7076 l 0.31642,2.75 3,-0.2679 3,-0.268 1.71345,3.0353 c 2.06109,3.6511 4.40203,4.7218 6.90545,3.1584 2.46263,-1.5379 3.72184,-1.4599 5.52396,0.3422 2.12908,2.1291 6.63347,1.8571 9.74226,-0.5883 z M 276.25,886.77951 c -1.2375,-0.59683 -2.25,-1.96883 -2.25,-3.0489 v -1.96376 l 2.75,0.69711 c 1.5125,0.38341 4.325,0.90982 6.25,1.1698 7.23355,0.97693 17,-6.94059 17,-13.78164 V 867 h 2 2 v 3.34272 c 0,1.83849 -1.04544,5.31967 -2.3232,7.73595 -3.08849,5.84043 -10.61543,9.9515 -18.04099,9.85365 -2.8247,-0.0372 -6.14831,-0.55599 -7.38581,-1.15281 z m 140.77988,0.1079 c -3.90941,-1.56023 -8.90317,-5.74169 -10.46572,-8.76334 -0.78856,-1.5249 -1.57558,-4.53914 -1.74895,-6.69831 L 404.5,867.5 h 1.98304 1.98303 l 0.61736,3.79803 c 0.74486,4.5825 5.81372,10.18289 10.66578,11.78422 1.86636,0.61595 5.0488,0.84353 7.07209,0.50572 6.92276,-1.15582 7.6787,-1.11817 7.6787,0.3825 0,3.43944 -11.39406,5.34188 -17.47012,2.91694 z M 261.4191,839.75 c 1.02432,-6.45214 4.95223,-14.16616 8.49939,-16.69196 6.05234,-4.30965 14.7594,-3.66489 21.83151,1.61662 3.68802,2.75424 4.39373,6.32534 1.25,6.32534 -1.1,0 -2,-0.4169 -2,-0.92645 0,-1.69635 -10.82802,-6.33353 -13.32544,-5.70672 -5.63213,1.41358 -10.65746,8.01849 -12.08467,15.88317 l -0.68052,3.75 h -2.08249 -2.0825 z m 182.16372,3 c -0.19492,-0.6875 -0.9066,-3.275 -1.58151,-5.75 -1.64163,-6.02018 -4.56748,-9.92079 -8.75356,-11.66984 -4.32472,-1.80699 -7.94717,-1.05492 -13.18118,2.73658 -4.67462,3.38627 -7.06657,3.73746 -7.06657,1.03751 0,-2.52878 8.32843,-7.81332 13.65652,-8.66532 2.38895,-0.382 5.65443,-0.16138 7.72482,0.52191 C 441.02712,823.15414 447,832.576 447,840.86602 447,843.01366 446.51804,844 445.46862,844 c -0.84227,0 -1.69087,-0.5625 -1.8858,-1.25 z m -284.42248,-240.3479 0.36558,-1.9021 6.30926,-0.6973 c 3.88086,-0.42892 7.94748,-1.65737 10.56554,-3.19165 3.90681,-2.28954 8.28842,-7.54551 9.8879,-11.86105 0.78956,-2.1303 3.56074,-2.30614 4.34001,-0.27538 0.63584,1.65697 -2.62453,7.57498 -6.53779,11.86696 -4.1062,4.5036 -9.57597,6.77371 -17.82415,7.39752 l -7.47192,0.5651 z m 375.91098,0.43282 c -5.70084,-1.63726 -11.46292,-6.3011 -14.35905,-11.62224 C 517.51772,585.34323 517.27988,583 519.87868,583 c 1.16232,0 2.3735,1.19459 3.17635,3.13286 3.25118,7.84904 10.4831,12.74288 20.12258,13.61696 L 549,600.27778 V 602.13889 604 l -5.25,-0.0902 c -2.8875,-0.0496 -6.7929,-0.5333 -8.67868,-1.07489 z M 321.94578,594.17001 C 315.07298,589.79508 307.099,580.47523 293.74488,561.2093 286.71757,551.07102 278.18269,540.15242 273.71474,535.5849 266.41355,528.12101 264.85654,525 268.43413,525 c 2.65386,0 14.84384,13.28833 22.98374,25.05464 18.98829,27.44775 28.26133,38.26064 35.77764,41.71873 2.22105,1.02186 3.76342,2.44094 3.77869,3.47663 0.0391,2.65427 -3.90285,2.18272 -9.02842,-1.07999 z M 378,595.24828 c 0,-1.05968 1.80496,-2.70924 4.56883,-4.17547 6.67994,-3.5437 15.4455,-13.5939 29.42441,-33.73672 12.23111,-17.62433 25.69791,-32.93406 28.23458,-32.09849 2.44003,0.80375 1.85723,4.21683 -1.06933,6.2624 -4.30799,3.01113 -12.00485,12.22197 -20.69104,24.76098 -18.34039,26.47537 -25.31321,34.51422 -33.67761,38.82632 C 380.17378,597.46701 378,597.51855 378,595.24828 Z M 272.75,464.9199 c -0.9625,-0.5606 -1.75,-1.88831 -1.75,-2.95046 v -1.93118 l 4.25,0.57806 4.25,0.57806 6,-4.03477 c 6.98934,-4.70005 12.00893,-8.95881 31.34959,-26.59787 C 332.36126,416.4148 339.37176,411 342.17602,411 c 3.25478,0 1.89943,3.40531 -2.46253,6.18713 -2.31742,1.47791 -11.41349,9.25958 -20.21349,17.29259 -20.69151,18.88807 -29.82599,26.28922 -36,29.16876 -5.43883,2.53665 -8.04793,2.84523 -10.75,1.27142 z m 154.75,-0.15604 c -6.83088,-2.45513 -14.27921,-8.30922 -36.75325,-28.8866 -7.83571,-7.17442 -16.80877,-14.9193 -19.94014,-17.21084 -5.62208,-4.11424 -7.50968,-7.67665 -4.05661,-7.65591 2.62187,0.0157 11.16984,6.82762 29.37222,23.40669 26.22483,23.88609 31.09498,27.22875 37.97728,26.06599 L 438,459.8242 v 2.11265 c 0,1.34766 -0.92882,2.46579 -2.5651,3.0879 -3.0819,1.17174 -4.0362,1.14036 -7.9349,-0.26089 z M 300.48094,364.53041 c -11.30353,-2.46122 -21.88286,-8.28474 -25.96563,-14.29307 -2.19455,-3.22957 -2.418,-6.23734 -0.46338,-6.23734 0.46088,0 2.67534,1.96034 4.92103,4.35632 5.23207,5.58221 11.90074,9.18169 21.61248,11.66553 12.6443,3.23387 24.80079,2.30497 34.63132,-2.64623 5.8235,-2.93304 7.01068,-2.97217 6.60279,-0.21765 -0.99752,6.73644 -24.7801,10.97789 -41.33861,7.37244 z m 78.76973,-0.0102 C 372.0445,362.49003 366,359.26405 366,357.44829 c 0,-2.46351 2.48051,-2.68721 6.10549,-0.55061 15.66233,9.23153 44.16856,5.16757 57.13591,-8.14552 4.65045,-4.77443 6.7586,-5.36751 6.7586,-1.90135 0,2.21473 -7.30306,9.23415 -12.5,12.01452 -8.59017,4.59575 -15.60702,6.31305 -27.5,6.73033 -8.1881,0.28729 -13.01176,-0.0224 -16.74933,-1.07542 z M 347,228.30062 c -1.90751,-0.6886 -4.94865,-4.40438 -4.97776,-6.082 -0.0442,-2.54862 3.02825,-2.45619 5.4567,0.16415 L 349.9045,225 h 4.5955 4.5955 l 2.31692,-2.5 c 2.92795,-3.15931 4.58758,-3.18557 4.58758,-0.0726 0,1.43131 -1.08123,3.27792 -2.63486,4.5 L 360.73028,229 l -6.11514,-0.0789 C 351.25181,228.87763 347.825,228.59844 347,228.30062 Z m 19.70061,-28.83872 c 5.81543,-2.89795 17.23077,-12.96382 20.12267,-17.74385 1.0708,-1.76993 2.47482,-6.36805 3.12006,-10.21805 0.64523,-3.85 2.24704,-9.3625 3.55958,-12.25 l 2.38643,-5.25 h 3.35916 c 2.49049,0 4.15672,-0.84044 6.44337,-3.25 7.94292,-8.36987 9.00309,-18.20533 2.76188,-25.62258 l -2.49363,-2.96352 -0.33442,-17.33195 -0.33442,-17.33195 -2.0775,-7.643526 c -5.44824,-20.045109 -16.36613,-31.795968 -33.74875,-36.323565 -7.54818,-1.966052 -22.37863,-1.966902 -29.92349,-0.0017 -13.90557,3.621942 -24.19321,12.103819 -30.0454,24.771613 C 304.7879,78.494415 303,89.270159 303,107.45548 v 15.23454 l -2.13802,1.90499 c -2.778,2.47522 -4.86198,7.48011 -4.86198,11.67653 0,4.19671 4.36414,13.08313 7.72249,15.72481 1.40097,1.10201 3.7668,2.00365 5.25738,2.00365 1.49059,0 3.38509,0.7875 4.21002,1.75 2.25593,2.63216 4.63088,9.39987 5.40474,15.4015 0.3793,2.94167 1.07828,6.39713 1.55328,7.67879 1.13187,3.05402 11.05303,13.41281 17.09166,17.84557 5.94933,4.36721 8.47209,5.13044 17.31409,5.23819 L 361.60731,202 Z M 797.5,1232.0665 c -1.1,-0.4921 -3.575,-0.6723 -5.5,-0.4006 l -3.5,0.494 -3.5,-2.5544 c -1.925,-1.4049 -4.625,-3.0157 -6,-3.5794 -1.375,-0.5637 -3.175,-1.4762 -4,-2.0279 -0.825,-0.5516 -2.51229,-1.4407 -3.74954,-1.9757 -2.44936,-1.059 -6.24073,-6.5774 -6.24672,-9.092 -0.002,-0.8633 -1.46624,-2.2133 -3.25374,-3 -1.88705,-0.8306 -3.99771,-2.8983 -5.03294,-4.9305 l -1.78295,-3.5 0.58434,-10 c 0.80226,-13.7295 2.97981,-28.007 7.24451,-47.5 l 3.60989,-16.5 -0.22429,-16.5 c -0.12335,-9.075 0.17877,-18.8828 0.67138,-21.7952 1.67228,-9.8866 -2.05542,-33.4128 -12.73004,-80.3416 -8.55592,-37.61436 -10.90549,-58.86687 -9.07551,-82.09023 1.46781,-18.62721 3.86004,-32.32282 10.44062,-59.77297 l 5.3939,-22.5 1.10049,-24.5 c 0.60527,-13.475 1.31435,-26.975 1.57573,-30 0.29287,-3.38938 -0.10623,-7.40299 -1.03999,-10.45894 -1.81643,-5.94466 -3.94705,-23.05349 -5.67138,-45.54106 -1.84752,-24.0942 -1.75829,-109.11229 0.12963,-123.5 0.79386,-6.05 1.33263,-13.95478 1.19727,-17.56618 -0.37227,-9.93181 2.3195,-29.40967 8.35173,-60.43382 3.10885,-15.98902 5.92619,-33.79101 6.56778,-41.5 0.61795,-7.425 2.25924,-20.925 3.64732,-30 3.41956,-22.35642 3.78208,-34.51155 1.81893,-60.98717 -0.91708,-12.36794 -1.80104,-22.62078 -1.96435,-22.78409 -0.16331,-0.16331 -0.60914,2.87148 -0.99072,6.74399 -1.03699,10.52374 -6.15379,34.33491 -8.20189,38.16763 l -1.79529,3.35964 -0.7085,22.5 c -0.72464,23.01273 -2.36112,34.19613 -6.37986,43.59876 -0.91707,2.14568 -5.49084,14.47624 -10.16392,27.40124 -4.67308,12.925 -9.08649,25.075 -9.80757,27 -2.99083,7.9843 -8.50161,20.01961 -10.92294,23.85524 L 725,573.96026 v 7.28997 c 0,8.96298 -2.51716,18.40011 -9.06545,33.98739 l -4.93103,11.73761 -1.99429,17.76239 c -1.09686,9.76931 -2.2295,18.76803 -2.51699,19.99715 -0.6361,2.71963 -4.69608,3.94902 -8.02794,2.43092 l -2.38822,-1.08815 -0.28804,-9.28877 L 695.5,647.5 l -3.20634,15.48149 c -3.39637,16.399 -4.24151,18.01851 -9.403,18.01851 -5.10734,0 -5.8865,-0.8329 -5.94683,-6.35699 l -0.0562,-5.14301 -1.9611,6.18809 c -2.08341,6.57403 -3.71592,7.90485 -8.28889,6.75711 -1.39283,-0.34958 -3.28219,-1.7799 -4.19859,-3.1785 l -1.66617,-2.54291 0.66997,-5.92182 c 0.36849,-3.257 2.01503,-10.44942 3.65897,-15.98314 1.64394,-5.53372 2.79473,-10.25558 2.55729,-10.49301 -0.44107,-0.44107 -5.39875,12.70928 -7.72553,20.49212 -2.71501,9.08143 -11.91231,11.12602 -14.42574,3.20689 -0.3444,-1.08512 0.46957,-4.99641 1.81972,-8.74408 C 653.07025,643.34064 662,607.48687 662,600.36974 v -2.8161 l -6.75,6.58011 C 646.57913,612.5864 644.3704,614 639.8342,614 c -2.71134,0 -4.14313,-0.60297 -5.2775,-2.22251 -0.85618,-1.22237 -1.5567,-2.98388 -1.5567,-3.91444 0,-1.887 19.12739,-27.75972 23.80915,-32.20553 1.64633,-1.56336 8.24077,-4.9839 14.6543,-7.60119 6.41353,-2.6173 12.69826,-5.61318 13.96607,-6.65752 1.75962,-1.44948 3.85232,-7.10484 8.84348,-23.89881 l 6.53839,-22 0.55151,-13.5 c 1.13656,-27.82139 7.99566,-62.01352 14.58772,-72.71883 l 1.98207,-3.21883 3.06813,-27.28117 c 1.68746,-15.00464 4.14915,-34.80835 5.47042,-44.00824 1.66415,-11.58737 2.13062,-17.67436 1.51812,-19.81003 -1.84308,-6.42643 -3.23892,-27.70207 -2.60499,-39.70573 0.74512,-14.10925 2.49776,-24.22852 5.67349,-32.75717 l 2.23416,-6 7.13151,-7 c 8.28545,-8.13266 15.59663,-12.25206 39.07647,-22.01718 8.8,-3.65987 19.91569,-8.67502 24.70154,-11.14477 9.74615,-5.02955 20.94892,-13.11185 23.43653,-16.90843 4.18715,-6.3904 5.48491,-21.61864 2.83207,-33.23221 -2.16932,-9.49681 -5.13289,-14.35645 -9.4336,-15.46914 -5.50066,-1.42315 -8.67408,-4.3153 -11.9682,-10.90742 -4.74687,-9.49934 -4.13875,-18.96855 1.60489,-24.98998 l 2.546,-2.66913 -0.66077,-6.83087 c -0.86851,-8.978404 0.89706,-27.957842 3.4577,-37.169509 1.12199,-4.036252 3.19809,-9.624049 4.61355,-12.417326 3.36417,-6.63887 11.37431,-15.02741 17.93248,-18.779617 11.10641,-6.354445 33.56363,-9.455123 47.43781,-6.549761 28.65242,6.000039 41.95125,27.120247 41.98686,66.680355 L 928,111.69002 l 1.96406,1.77746 c 5.76241,5.21491 6.40945,17.40094 1.41151,26.5838 -3.0626,5.62702 -6.96429,8.91326 -11.74025,9.88837 -8.25303,1.68503 -13.37039,25.11257 -9.08688,41.60025 1.81659,6.99227 5.60612,11.38614 15.45156,17.9157 8.44989,5.60403 15.21657,8.93779 33.5,16.50455 30.27439,12.52932 42.2583,20.41196 48.202,31.70567 4.0643,7.72244 6.0373,16.16603 7.3395,31.40892 1.1084,12.97441 0.1313,34.72984 -1.9838,44.16776 l -1.0194,4.54867 2.3791,16.85442 c 1.3085,9.26992 3.5969,28.32941 5.0854,42.35441 l 2.7062,25.5 3.3,7.5 c 3.7669,8.56116 5.762,14.65171 7.912,24.15364 2.6674,11.78847 5.5317,33.98265 6.1748,47.84636 l 0.6263,13.5 6.4723,21.5 c 3.5597,11.825 7.2394,22.29221 8.1771,23.26046 0.9377,0.96825 7.0058,3.974 13.4846,6.67944 6.4788,2.70544 12.833,5.60923 14.1206,6.45287 2.9634,1.94167 25.5233,31.72459 25.5233,33.69507 0,0.80693 -0.7005,2.46728 -1.5567,3.68965 -1.132,1.61613 -2.5644,2.22149 -5.25,2.21877 -4.7424,-0.005 -8.2187,-2.19459 -15.9433,-10.04295 l -6.25,-6.35015 v 3.16296 c 0,7.58309 9.9657,48.0361 14.5178,58.93062 3.1347,7.50257 1.182,13.30326 -4.4784,13.30326 -4.0363,0 -6.5978,-2.70145 -8.5335,-9 -2.3927,-7.7854 -7.7304,-22.1088 -8.1009,-21.73832 -0.171,0.17101 0.989,4.75186 2.5778,10.17968 1.5889,5.42781 3.4012,12.90654 4.0274,16.6194 l 1.1387,6.75064 -1.5375,2.97312 c -1.6407,3.17276 -3.3897,4.21548 -7.0707,4.21548 -2.9411,0 -3.9968,-1.34772 -5.875,-7.5 l -1.5264,-5 -0.07,4.64301 c -0.077,5.11446 -0.9171,5.85699 -6.6284,5.85699 -2.4265,0 -3.8072,-0.64199 -4.8391,-2.25 -0.7941,-1.2375 -2.717,-8.55 -4.273,-16.25 l -2.8292,-14 -0.5222,8.5 c -0.2872,4.675 -0.8762,9.0625 -1.309,9.75 -1.0228,1.62491 -7.1187,1.6178 -8.4695,-0.01 -0.5751,-0.69293 -2.0059,-9.80543 -3.1796,-20.25 l -2.1341,-18.99012 -5.3701,-13 C 1017.7498,597.1216 1016,590.2718 1016,580.16467 c 0,-4.42565 -0.4612,-8.33168 -1.0249,-8.68006 -3.3928,-2.09686 -13.4322,-27.01992 -33.13093,-82.24843 -3.96677,-11.12143 -5.12191,-19.443 -5.79354,-41.73618 l -0.6628,-22 -2.17118,-5 c -2.29129,-5.2766 -6.78624,-26.08863 -7.86622,-36.42139 -0.35196,-3.36735 -0.862,-5.90037 -1.13343,-5.62895 -0.89006,0.89007 -3.12254,34.76103 -3.16706,48.05034 -0.0242,7.22761 0.61581,16.77425 1.4414,21.5 2.01776,11.54985 6.50866,49.42308 6.50866,54.8897 0,2.43175 1.79486,12.86182 3.98858,23.17793 6.18705,29.09499 9.04742,48.03217 9.50564,62.93237 0.22834,7.425 0.88631,17.1 1.46215,21.5 1.75319,13.39597 2.41343,69.68847 1.14942,98 -1.40785,31.53355 -3.65347,56.56501 -5.92013,65.9905 -1.9477,8.09913 -1.87047,21.62097 0.3113,54.5095 l 1.35994,20.5 3.5589,13.5 c 4.63293,17.57408 8.1825,35.10744 10.18131,50.29135 1.98699,15.09406 1.44597,47.27629 -1.03738,61.70865 -0.89905,5.225 -4.987,24.63953 -9.08433,43.1434 -4.09733,18.5039 -8.32632,40.5539 -9.39776,49 l -1.94808,15.3566 1.03114,8 c 0.56712,4.4 0.81397,14.075 0.54854,21.5 l -0.48259,13.5 2.80529,12.5 c 4.4054,19.6299 6.87288,34.4671 7.96392,47.8877 1.34842,16.5866 -0.16878,22.1137 -6.5069,23.7044 -1.56911,0.3938 -2.58361,1.5624 -2.99921,3.4546 -0.70134,3.1931 -4.08568,7.9533 -5.6546,7.9533 -0.56083,0 -2.16386,0.9 -3.56228,2 -1.39842,1.1 -3.40349,2 -4.45569,2 -1.05221,0 -2.96838,1.2268 -4.25814,2.7263 l -2.34504,2.7262 -5.357,0.2701 c -2.94635,0.1486 -6.81374,0.547 -8.5942,0.8854 -4.34012,0.8249 -7.48147,-0.08 -11.22958,-3.2335 -4.52792,-3.81 -6.96806,-9.3539 -7.98428,-18.14 -0.49202,-4.254 -1.64951,-10.6595 -2.57219,-14.2345 l -1.67761,-6.5 0.47613,-13 c 0.27759,-7.5793 1.75752,-20.714 3.54922,-31.5 3.46032,-20.831 4.65036,-29.5793 6.66558,-49 0.77046,-7.425 2.1585,-15.3 3.08453,-17.5 1.99099,-4.7301 5.41883,-24.0828 5.40228,-30.5 -0.006,-2.475 -0.65085,-7.425 -1.43215,-11 -7.26859,-33.2589 -14.76428,-66.50225 -16.00902,-71 -2.22391,-8.03583 -2.89906,-25.50394 -1.60401,-41.5 0.6234,-7.7 1.40781,-19.42003 1.74314,-26.04451 l 0.60969,-12.0445 -2.53063,-4.00878 C 910.3604,870.69015 903.61864,853.8497 900.37862,839 l -1.85459,-8.5 0.23072,-23.9428 c 0.24824,-25.7608 -0.53576,-33.89665 -5.3331,-55.34371 -1.44106,-6.44242 -4.08704,-15.98849 -5.87996,-21.21349 -6.49497,-18.92793 -9.73364,-37.75137 -11.51071,-66.90111 -0.54992,-9.02061 -1.22553,-16.62677 -1.50134,-16.90258 -0.84264,-0.84264 -6.74435,-0.3816 -7.72981,0.60386 -0.50938,0.50938 -1.56105,9.976 -2.33705,21.03695 -1.96758,28.04558 -5.09037,45.69458 -10.96839,61.98982 -3.0965,8.58422 -7.81915,28.44796 -10.02675,42.17306 -1.14639,7.12734 -1.59502,14.83628 -1.39671,24 0.68724,31.75578 -0.14985,40.75501 -5.30202,57 -2.91648,9.19579 -11.01927,26.67654 -14.92697,32.20306 l -1.91128,2.70307 1.68475,19.29693 c 0.92661,10.61332 1.69255,26.49694 1.70209,35.29694 l 0.0173,16 -3.24464,13 c -1.78456,7.15 -5.48382,23.35 -8.22059,36 -2.73677,12.65 -5.6192,25.925 -6.40541,29.5 -0.78621,3.575 -1.43729,8.6405 -1.44684,11.2566 -0.0265,7.2629 2.66604,23.5328 5.00506,30.2434 1.15023,3.3 2.30856,9.15 2.57407,13 0.60592,8.7864 3.53665,30.2354 7.58334,55.5 1.71785,10.725 3.31321,24.9 3.54525,31.5 l 0.42188,12 -2.07663,7.5 c -1.14214,4.125 -2.28191,10.3576 -2.53281,13.8503 -0.55378,7.7089 -3.56101,14.3031 -8.10245,17.767 -3.60679,2.7511 -9.68655,3.9022 -12.93507,2.4492 z m 10.70386,-6.7807 c 3.94007,-3.7473 5.79607,-8.3698 5.79664,-14.4369 3e-4,-3.1448 0.89839,-7.6153 2.17944,-10.8489 l 2.17894,-5.5 0.0465,-13 0.0465,-13 -3.19774,-19.5 c -3.97017,-24.2104 -7.02199,-46.3104 -7.66407,-55.5 -0.269,-3.85 -1.39725,-9.7 -2.50721,-13 -1.10997,-3.3 -2.91159,-11.4219 -4.00361,-18.0487 l -1.98549,-12.0487 0.94449,-6.9513 c 0.51947,-3.8232 1.84053,-10.7763 2.93569,-15.4513 1.09516,-4.675 4.29637,-19.075 7.11381,-32 2.81745,-12.925 5.97528,-26.83448 7.01741,-30.90996 2.46174,-9.62718 2.53399,-28.11366 0.22376,-57.24739 l -1.71738,-21.65735 2.60791,-3.94081 c 4.30832,-6.51031 11.35357,-21.23984 14.12667,-29.53468 4.85086,-14.50976 5.71892,-22.15543 5.47904,-48.25785 L 837.60509,780.5 l 1.73203,-10 c 2.83224,-16.35218 6.65055,-32.38569 10.12119,-42.5 6.28496,-18.3159 9.72014,-38.44118 11.13848,-65.25569 l 0.67471,-12.7557 -3.88575,1.63124 c -2.38157,0.99978 -8.0471,1.83101 -14.63575,2.14731 L 832,654.28323 v -1.9962 -1.9962 l 9.87711,-0.54426 c 21.51462,-1.18552 24.20056,-5.46174 25.90742,-41.24657 l 0.71547,-15 2.09168,-0.2988 2.09168,-0.29881 0.63811,16.29881 c 1.3333,34.05562 4.07939,38.40831 25.03538,39.68221 L 908.5,649.5 v 1.5 1.5 l -11,-0.076 c -7.80843,-0.054 -12.09006,-0.54775 -14.75698,-1.70189 l -3.75697,-1.62588 0.45538,2.20189 c 0.25046,1.21104 0.73573,7.82689 1.07838,14.70189 1.18523,23.78069 4.56952,42.85353 10.91257,61.5 7.44013,21.87148 11.87989,47.98473 11.47633,67.5 -0.47423,22.93278 -0.11288,32.55632 1.55708,41.46832 2.12579,11.34458 6.65612,24.08131 12.28258,34.53168 2.51701,4.675 5.42113,10.12845 6.45359,12.11878 l 1.8772,3.61878 -1.67782,19.88122 C 922.47853,917.55345 921.70862,933.475 921.69041,942 l -0.0331,15.5 3.10674,12 c 1.7087,6.6 4.74125,19.65 6.73898,29 1.99774,9.35 4.95181,22.9078 6.56461,30.1284 1.61279,7.2206 2.92976,15.9956 2.92659,19.5 -0.007,8.0645 -3.20498,27.1196 -5.43237,32.3716 -0.93303,2.2 -1.90897,7.15 -2.16875,11 -0.61452,9.107 -3.64427,31.0913 -7.64873,55.5 l -3.19913,19.5 0.004,14 0.004,14 1.85717,4 c 1.10025,2.3698 1.95068,6.7223 2.08661,10.6794 l 0.22944,6.6794 2.70805,4.621 c 1.66468,2.8405 4.04496,5.2584 6.17794,6.2756 l 3.46989,1.6547 3.46917,-1.8683 3.46917,-1.8683 2.61554,1.3998 2.61554,1.3998 3.71923,-4.1911 c 2.72947,-3.0757 4.0152,-3.895 4.83136,-3.0789 1.46916,1.4692 4.19689,-0.7169 4.19689,-3.3634 v -1.9154 l 2.69476,0.2879 c 2.02672,0.2164 3.01466,-0.3319 3.98525,-2.2122 0.70978,-1.375 1.29714,-3.79 1.30525,-5.3666 l 0.0147,-2.8666 2.61642,0.5002 c 5.50274,1.0519 8.93563,-7.194 5.77117,-13.8626 l -1.70395,-3.5908 1.26888,-0.7843 c 0.91367,-0.5646 1.08112,-2.2881 0.59817,-6.1567 -1.01554,-8.135 -5.42472,-32.2493 -7.65263,-41.8534 C 969.34829,1123.717 969.08257,1123 966.96146,1123 965.73761,1123 965,1122.3215 965,1121.1958 c 0,-2.7572 -5.36677,-10.611 -9.30187,-13.6125 -4.61689,-3.5214 -9.6333,-4.3271 -13.04085,-2.0944 -1.43353,0.9393 -3.79567,4.1385 -5.2492,7.1094 -2.87594,5.8783 -5.41841,7.1287 -5.39163,2.6517 0.0235,-3.9216 3.92382,-10.2897 7.99878,-13.0595 l 3.48477,-2.3686 5.198,0.417 c 3.57827,0.2871 6.45823,1.2904 9.24232,3.2197 4.81136,3.3343 9.74288,10.4213 10.74062,15.4351 l 0.71764,3.6063 0.68239,-3 c 1.06341,-4.675 1.01812,-16.3225 -0.10606,-27.2773 l -1.02509,-9.9893 1.54658,-12.8667 c 1.91419,-15.9251 2.07303,-16.7598 10.53633,-55.3667 10.2204,-46.62223 10.40558,-47.93952 10.40278,-74 l -0.002,-22.5 -2.72574,-15.5 c -1.49916,-8.525 -4.8042,-23.6 -7.34453,-33.5 -5.00117,-19.49022 -5.4591,-23.30279 -7.41677,-61.74995 l -1.20936,-23.75094 1.61385,-5.75174 c 2.05513,-7.32442 4.24592,-26.51762 5.79252,-50.74737 1.62503,-25.45864 1.60881,-98.88074 -0.0248,-112 -0.68484,-5.5 -1.64061,-17.65 -2.12394,-27 -0.508,-9.82743 -1.93747,-22.90682 -3.38804,-31 -2.65062,-14.7886 -8.96303,-45.3729 -10.69664,-51.82633 -0.61636,-2.29441 -0.66677,-4.29622 -0.12592,-5 1.07552,-1.3995 -1.57172,-26.11863 -5.26792,-49.19024 l -2.56594,-16.01656 1.05621,-18.98344 c 1.14692,-20.61396 4.1302,-55.40448 6.50266,-75.83317 1.04216,-8.97375 2.27691,-14.70491 4.09345,-19 1.43063,-3.38264 3.38653,-8.85026 4.34645,-12.15026 l 1.74531,-6 2.15301,-0.31955 c 1.18415,-0.17575 2.15049,0.0492 2.14742,0.5 -0.0122,1.79529 -2.36796,9.25458 -5.46975,17.31955 -4.34723,11.30323 -6.01378,24.48316 -5.17018,40.88845 1.04045,20.23359 5.9916,49.26263 9.88926,57.98169 l 2.06968,4.62986 0.75391,23 0.75391,23 2.07196,8.24045 c 1.13958,4.53224 2.80045,9.93224 3.69082,12 0.89037,2.06775 5.35196,14.10955 9.91464,26.75955 12.69983,35.21031 18.26143,48.26015 22.28043,52.27907 l 1.7209,1.72093 10e-4,10 c 0,11.11758 0.6866,13.72563 8.5427,32.5 l 4.8122,11.5 2.1493,18.99394 c 1.1821,10.44667 2.3396,19.18417 2.5721,19.41667 1.3561,1.35617 1.9431,-2.72329 2.4052,-16.71537 l 0.5175,-15.67316 1.7471,-0.3338 c 2.3698,-0.45278 3.1727,1.94623 7.8018,23.31172 4.9803,22.98642 4.8275,22.5 7.0677,22.5 1.0359,0 1.8774,-0.3375 1.87,-0.75 -0.01,-0.4125 -1.1324,-8.62048 -2.5,-18.23995 -1.3676,-9.61948 -2.4866,-18.95698 -2.4866,-20.75 V 633 h 2.0248 c 2.6419,0 3.195,1.52265 9.032,24.86627 2.6633,10.65145 5.0792,19.60307 5.3686,19.8925 0.2895,0.28943 1.2594,-0.0822 2.1555,-0.82588 l 1.6292,-1.35211 -0.4125,-5.54039 c -0.2269,-3.04721 -2.5875,-12.81321 -5.2459,-21.70222 -2.6583,-8.88901 -4.5475,-16.90664 -4.1982,-17.81697 0.4209,-1.09694 1.5334,-1.54824 3.2985,-1.33817 l 2.6633,0.31697 3.2223,5.8328 c 1.7722,3.20804 5.1184,11.4004 7.4359,18.20525 4.2436,12.4601 6.1721,15.71638 8.1415,13.74696 0.707,-0.70697 -0.3956,-5.69837 -3.5137,-15.90762 -8.8136,-28.85638 -12.9592,-49.83091 -11.2193,-56.76315 1.1292,-4.49918 4.247,-3.24604 13.1217,5.27397 8.3942,8.05877 11.8687,10.13942 13.7651,8.24299 0.7566,-0.75664 -1.8636,-4.93506 -8.9984,-14.34934 -5.5362,-7.30502 -11.1718,-14.3117 -12.5236,-15.57039 -1.3517,-1.2587 -7.7283,-4.48945 -14.1701,-7.17945 -6.4418,-2.69 -12.7795,-5.5901 -14.0837,-6.44467 -1.7725,-1.16134 -3.2564,-4.39937 -5.8753,-12.82056 -9.2187,-29.64222 -11.7838,-39.10936 -11.2761,-41.61743 0.7836,-3.87099 -1.0811,-25.66308 -3.4777,-40.64372 -2.676,-16.72661 -6.7655,-30.84128 -11.3551,-39.19106 -2.3669,-4.30606 -3.4533,-7.39969 -3.097,-8.81936 0.6107,-2.43316 -3.0074,-35.87515 -7.0198,-64.88336 l -2.6126,-18.88813 1.2347,-5.61187 c 0.6792,-3.08652 1.4507,-14.38686 1.7146,-25.11186 l 0.4797,-19.5 -1.6391,-9.45275 c -4.1188,-23.75314 -12.9503,-31.90402 -52.0693,-48.0567 -8.25,-3.40652 -19.275,-8.4239 -24.5,-11.14974 -9.8265,-5.12641 -20.87358,-13.19204 -23.44628,-17.11848 -3.24026,-4.94527 -4.80522,-14.67948 -4.29197,-26.69654 0.54162,-12.6813 2.7535,-20.73486 7.34978,-26.76089 l 2.6127,-3.42544 2.31135,0.58011 c 4.38503,1.10058 11.11544,-6.80058 12.92184,-15.16957 0.9861,-4.56859 -0.18757,-8.87162 -3.42968,-12.57428 L 924.24702,114.5 923.73566,96 923.22431,77.5 921.04134,70.007116 C 917.9916,59.539106 913.6532,51.907882 907.3776,45.972684 901.07467,40.011632 893.96113,36.509816 883.88859,34.409632 l -7.2679,-1.515401 -10.85344,1.085039 C 847.88285,35.767207 836.30629,41.365699 828.4978,52.003001 820.22287,63.275713 817,76.686643 817,99.847421 v 15.671489 l -1.84379,1.15146 c -2.53949,1.58594 -5.1607,7.44726 -5.13425,11.48076 0.0268,4.08483 2.72775,10.2341 6.41231,14.59887 2.05936,2.43954 3.55551,3.25 5.99964,3.25 3.66279,0 5.34714,1.53892 8.45902,7.72868 3.76621,7.49125 5.35124,16.7346 4.84791,28.27132 -0.56992,13.06305 -2.7444,19.19629 -8.7294,24.6218 -9.15421,8.29844 -18.85535,13.5709 -46.82743,25.45018 -10.07379,4.27817 -21.53859,9.69301 -25.47733,12.03297 -19.53777,11.60718 -25.05022,24.69978 -25.00742,59.39505 0.0139,11.26154 0.57624,20.1325 1.66594,26.27994 l 1.64498,9.27994 -2.44603,17.22006 c -3.81822,26.88024 -7.71477,62.98038 -7.07378,65.53607 0.38948,1.5529 -0.43231,4.08688 -2.49407,7.69045 -8.12563,14.20213 -14.56612,45.00009 -15.54928,74.3556 l -0.44752,13.36206 -7.06528,23.13794 c -5.24675,17.18245 -7.62557,23.57218 -9.24207,24.82503 -1.19724,0.92789 -5.33025,2.89852 -9.18447,4.37917 -3.85423,1.48065 -9.78924,3.99218 -13.18893,5.58119 l -6.18125,2.88909 -10.58373,13.93898 c -5.82105,7.66645 -10.84868,14.62943 -11.17251,15.4733 -0.34583,0.90124 0.0772,1.78987 1.02519,2.15366 1.8981,0.72837 7.04359,-2.96309 12.97958,-9.31175 2.26269,-2.41999 5.63963,-5.35113 7.50432,-6.51365 l 3.39035,-2.11368 1.4542,1.9183 1.4542,1.9183 -0.59986,8.24318 c -0.62734,8.62074 -6.14103,31.75766 -12.18014,51.11112 -1.94867,6.24486 -3.29457,12.00177 -2.9909,12.79312 1.0833,2.82305 4.14373,-0.41505 5.97528,-6.32217 3.18873,-10.28427 9.63648,-26.09363 11.72504,-28.74879 2.23561,-2.84213 6.59588,-3.48429 7.50858,-1.10583 0.31038,0.80884 -1.5047,8.34634 -4.03352,16.75 -5.641,18.74587 -6.93917,25.26511 -5.54849,27.86362 0.5639,1.05366 1.6671,1.91575 2.45155,1.91575 1.57263,0 1.83016,-0.82533 6.92478,-22.1918 C 679.72089,637.7765 681.1976,634 683.94897,634 H 686 v 2.82233 c 0,1.55227 -1.1241,10.43977 -2.498,19.75 C 680.56498,676.47506 680.53986,677 682.52475,677 c 2.12449,0 3.06626,-2.9619 7.13613,-22.44349 C 693.60886,635.65832 695.14897,631 697.44897,631 c 0.85307,0 1.61197,0.1125 1.68646,0.25 0.0745,0.1375 0.41198,7.34129 0.75,16.00843 0.35436,9.08645 1.03535,15.86071 1.60841,16 1.09582,0.26636 1.7956,-4.13229 3.8593,-24.25843 l 1.38427,-13.5 4.26789,-10 c 2.34733,-5.5 5.40481,-13.15 6.79439,-17 l 2.52651,-7 0.11088,-10.02039 0.11087,-10.02039 2.64361,-3.47961 c 3.62035,-4.76522 9.17596,-17.76775 17.72305,-41.47961 3.96503,-11 9.16507,-25.175 11.55565,-31.5 6.41453,-16.97159 7.67462,-24.26631 8.4642,-49 l 0.68635,-21.5 1.7525,-4 c 3.91337,-8.93209 8.9163,-38.17088 10.18079,-59.5 0.83297,-14.0502 -1.41948,-31.64762 -5.07331,-39.63572 -2.88352,-6.30401 -5.7835,-17.06547 -4.9585,-18.40035 1.18239,-1.91314 3.45199,-0.90559 4.02327,1.78607 0.5446,2.56596 1.58518,5.59172 6.54735,19.03822 3.60381,9.76561 9.21883,70.06974 9.33088,100.21178 l 0.0762,20.5 -2.23915,14.5 c -3.66608,23.74026 -5.35115,40.32616 -4.17111,41.05546 0.70589,0.43627 0.55139,2.55054 -0.47825,6.54451 -2.59171,10.05324 -10.35527,49.30235 -12.14506,61.40003 -0.93575,6.325 -1.83892,17.125 -2.00704,24 -0.16812,6.875 -0.79199,16.1 -1.38637,20.5 -0.59438,4.4 -1.36453,21.725 -1.71145,38.5 -1.07973,52.20927 2.7792,116.22138 7.78758,129.18056 0.73291,1.8964 0.54766,12.13506 -0.63324,35 L 764.8467,847.5 l -3.38776,13 c -4.07788,15.64821 -7.71185,32.29523 -10.15073,46.5 l -1.80279,10.5 0.01,23.5 0.01,23.5 1.82316,10 c 1.00273,5.5 5.15193,25.12363 9.22043,43.6081 4.06851,18.4844 8.30805,40.7594 9.42121,49.5 l 2.02393,15.8919 -1.09669,8 c -0.60318,4.4 -0.96231,14.75 -0.79806,23 l 0.29862,15 -3.63688,16.5 c -2.00028,9.075 -4.40958,21.5823 -5.354,27.7939 l -1.71712,11.2939 1.26583,2.3653 1.26582,2.3652 -1.62035,2.3133 c -2.00369,2.8607 -2.0537,5.8955 -0.17138,10.4005 L 761.89795,1206 H 765.44897 769 v 3.2775 c 0,4.0641 2.73877,8.3837 4.31573,6.8068 1.84489,-1.8449 3.68427,-1.1992 3.68427,1.2933 0,2.7394 2.44625,5.3274 3.46999,3.671 1.06672,-1.726 2.99075,-1.1916 4.04288,1.123 0.54292,1.1943 2.25974,3.1068 3.81516,4.25 l 2.82803,2.0784 1.28221,-1.75 c 1.63346,-2.2294 2.1763,-2.1983 5.36072,0.3065 3.1745,2.4971 6.51531,1.9285 10.40487,-1.7707 z m -35.92203,-105.3503 c 0.66171,-4.9334 4.58331,-10.9284 10.00536,-15.2953 l 3.78719,-3.0502 6.30666,-0.4015 6.30665,-0.4016 3.59125,3.1531 c 3.77711,3.3164 7.37106,10.9237 6.38037,13.5054 -0.89682,2.3371 -3.14435,0.8676 -4.5288,-2.961 -0.68538,-1.8954 -2.60475,-4.8048 -4.26525,-6.4653 -3.37701,-3.377 -7.26578,-3.9109 -11.66492,-1.6015 -4.30104,2.2579 -10.01969,8.7579 -11.51946,13.0935 -0.80456,2.3258 -2.12857,4.1354 -3.17563,4.3402 l -1.79576,0.3513 z m 20.03845,-22.5433 c -0.33933,-0.8842 -0.95414,-3.0217 -1.36626,-4.75 l -0.7493,-3.1422 -0.10236,4.25 L 790,1098 h -1.91625 -1.91625 l -0.36449,-12.25 c -0.20046,-6.7375 -0.0394,-12.6512 0.35789,-13.1416 0.40728,-0.5028 2.20925,-0.1861 4.13116,0.7259 l 3.40878,1.6176 0.67633,8.774 c 0.37198,4.8258 0.94037,10.2366 1.26308,12.0241 l 0.58675,3.25 h -1.64489 c -0.90468,0 -1.92251,-0.7235 -2.26183,-1.6078 z m 153.07366,-3.6422 c 0.3615,-2.3375 0.93505,-7.7375 1.27456,-12 0.56558,-7.1008 1.09378,-8.2612 3.5815,-7.8684 0.4125,0.065 0.75,-0.3316 0.75,-0.8816 0,-0.55 0.91344,-1 2.02988,-1 h 2.02987 l -0.27987,12.75 L 954.5,1097.5 H 953 c -1.05428,0 -1.67618,-1.4857 -2.0929,-5 -0.32609,-2.75 -0.66359,-3.7918 -0.75,-2.3151 -0.24908,4.2569 -1.96283,7.8151 -3.76402,7.8151 h -1.65642 z M 808.09191,909.25 c -2.13753,-6.11951 -9.59599,-17.39321 -15.02606,-22.71241 -2.78622,-2.72932 -5.06585,-5.54182 -5.06585,-6.25 0,-1.99418 3.43196,-1.52225 6.50424,0.8944 4.454,3.50353 14.15635,17.29493 16.41613,23.33471 2.54824,6.81079 2.60354,8.4833 0.28052,8.4833 -1.17944,0 -2.25027,-1.29162 -3.10898,-3.75 z m 119.91786,0.5 c 0.0123,-2.84297 3.98077,-11.42245 7.95585,-17.20003 C 940.64422,885.74986 948.61751,878 950.93508,878 c 3.34976,0 2.39483,2.65669 -2.59854,7.2294 -5.47803,5.01654 -13.83616,17.36844 -15.49168,22.89409 -0.80246,2.67837 -1.73067,3.87651 -3.00315,3.87651 -1.24615,0 -1.83855,-0.72759 -1.83194,-2.25 z M 807.5,848.78763 c 0,-7.8582 -0.225,-17.87824 -0.5,-22.26676 l -0.5,-7.97913 1.67976,-0.33066 1.67976,-0.33067 0.79777,4.80979 c 0.43877,2.64539 0.80788,12.6848 0.82024,22.3098 l 0.0225,17.5 -2,0.28763 -2,0.28763 z M 929.70124,861.3679 C 928.83873,860.5054 928.95308,831.56711 929.8489,824 l 0.6511,-5.5 2.3896,-0.33785 2.38961,-0.33784 -0.71324,2.33784 c -0.39229,1.28582 -0.92369,11.11285 -1.18091,21.83785 -0.34856,14.53402 -0.78789,19.57247 -1.72512,19.78457 -0.69161,0.15651 -1.57302,-0.031 -1.9587,-0.41667 z M 867.70778,573.30181 c -0.91359,-4.54706 -4.87755,-9.56375 -10.47312,-13.25454 C 854.14423,558.00885 852,555.85834 852,554.79727 852,553.80877 852.57658,553 853.28129,553 c 2.67319,0 12.70234,7.23744 14.85439,10.71954 1.48501,2.4028 2.40162,3.15093 2.70463,2.20751 C 872.28735,561.42174 882.60402,553 886.67602,553 c 3.82919,0 2.66459,2.57294 -2.73208,6.03597 -5.89953,3.78572 -9.41537,8.05814 -10.66829,12.96403 -1.1802,4.62119 -4.73399,5.45209 -5.56787,1.30181 z m 1.63546,-83.49644 c -0.46378,-0.71795 -0.99297,-29.70544 -1.17598,-64.41663 l -0.33274,-63.11126 1.74996,-0.67152 c 0.96247,-0.36934 2.23721,-0.18453 2.83274,0.41068 0.75438,0.75398 1.08278,20.39774 1.08278,64.76785 v 63.68564 l -1.65676,0.3203 c -0.91122,0.17617 -2.03622,-0.26711 -2.5,-0.98506 z M 803.66667,355.33333 c -1.67445,-1.67444 -0.11759,-4.09104 7.21289,-11.19609 8.48431,-8.22339 10.08687,-11.00696 16.48713,-28.63724 4.30422,-11.85652 8.31472,-20.16377 10.05731,-20.83246 0.69155,-0.26538 1.88536,-0.0944 2.6529,0.37999 l 1.39554,0.86249 -1.13456,2.79499 c -0.624,1.53724 -2.06691,5.04499 -3.20646,7.79499 -1.13955,2.75 -3.67618,9.275 -5.63695,14.5 -5.3218,14.18135 -9.23664,21.34018 -13.49394,24.67559 -0.82529,0.64658 -3.71598,3.23408 -6.42376,5.75 -4.77267,4.43452 -6.52007,5.29777 -7.9101,3.90774 z m 125.79254,-3.8747 c -2.72757,-2.53409 -5.63445,-5.13646 -6.45974,-5.78304 -4.2573,-3.33541 -8.17214,-10.49424 -13.49394,-24.67559 -1.96077,-5.225 -4.4974,-11.75 -5.63695,-14.5 -1.13955,-2.75 -2.58246,-6.25775 -3.20646,-7.79499 l -1.13456,-2.79499 1.39554,-0.86249 c 0.76754,-0.47437 1.96135,-0.64537 2.6529,-0.37999 1.74259,0.66869 5.75309,8.97594 10.05731,20.83246 6.41187,17.66227 7.99518,20.40647 16.56728,28.71454 5.19543,5.03539 7.84107,8.33061 7.61808,9.48851 -0.61145,3.17503 -3.30451,2.45197 -8.35946,-2.24442 z"
       id="path1" />
  </g>
</svg>
